# Made in Blockbench 5.1.4
mtllib big_tractor_tire.mtl

o rim
v 0 -0.375 0
v 0 0.375 0
v 0.111260625 -0.375 0.5
v 0.111260625 0.375 0.5
v 0.311745 -0.375 0.40096875
v 0.311745 0.375 0.40096875
v 0.450484375 -0.375 0.222520625
v 0.450484375 0.375 0.222520625
v 0.5 -0.375 0
v 0.5 0.375 0
v 0.450484375 -0.375 -0.222520625
v 0.450484375 0.375 -0.222520625
v 0.311745 -0.375 -0.40096875
v 0.311745 0.375 -0.40096875
v 0.111260625 -0.375 -0.5
v 0.111260625 0.375 -0.5
v -0.111260625 -0.375 0.5
v -0.111260625 0.375 0.5
v -0.311745 -0.375 0.40096875
v -0.311745 0.375 0.40096875
v -0.450484375 -0.375 0.222520625
v -0.450484375 0.375 0.222520625
v -0.5 -0.375 0
v -0.5 0.375 0
v -0.450484375 -0.375 -0.222520625
v -0.450484375 0.375 -0.222520625
v -0.311745 -0.375 -0.40096875
v -0.311745 0.375 -0.40096875
v -0.111260625 -0.375 -0.5
v -0.111260625 0.375 -0.5
vt 0.22646796875 0.8626210937500001
vt 0.2014078125 0.875
vt 0.1875 0.8125
vt 0.4765625 0.90625
vt 0.5078125 0.90625
vt 0.5078125 1
vt 0.4765625 1
vt 0.2014078125 0.75
vt 0.22646796875 0.7623789062499999
vt 0.1875 0.8125
vt 0.2438109375 0.84031484375
vt 0.22646796875 0.8626210937500001
vt 0.1875 0.8125
vt 0.4765625 0.90625
vt 0.5078125 0.90625
vt 0.5078125 1
vt 0.4765625 1
vt 0.22646796875 0.7623789062499999
vt 0.2438109375 0.78468515625
vt 0.1875 0.8125
vt 0.25 0.8125
vt 0.2438109375 0.84031484375
vt 0.1875 0.8125
vt 0.4765625 0.90625
vt 0.5078125 0.90625
vt 0.5078125 1
vt 0.4765625 1
vt 0.2438109375 0.78468515625
vt 0.25 0.8125
vt 0.1875 0.8125
vt 0.2438109375 0.78468515625
vt 0.25 0.8125
vt 0.1875 0.8125
vt 0.4765625 0.90625
vt 0.5078125 0.90625
vt 0.5078125 1
vt 0.4765625 1
vt 0.25 0.8125
vt 0.2438109375 0.84031484375
vt 0.1875 0.8125
vt 0.22646796875 0.7623789062499999
vt 0.2438109375 0.78468515625
vt 0.1875 0.8125
vt 0.4765625 0.90625
vt 0.5078125 0.90625
vt 0.5078125 1
vt 0.4765625 1
vt 0.2438109375 0.84031484375
vt 0.22646796875 0.8626210937500001
vt 0.1875 0.8125
vt 0.2014078125 0.75
vt 0.22646796875 0.7623789062499999
vt 0.1875 0.8125
vt 0.4765625 0.90625
vt 0.5078125 0.90625
vt 0.5078125 1
vt 0.4765625 1
vt 0.22646796875 0.8626210937500001
vt 0.2014078125 0.875
vt 0.1875 0.8125
vt 0.1735921875 0.75
vt 0.2014078125 0.75
vt 0.1875 0.8125
vt 0.4765625 0.90625
vt 0.5078125 0.90625
vt 0.5078125 1
vt 0.4765625 1
vt 0.2014078125 0.875
vt 0.1735921875 0.875
vt 0.1875 0.8125
vt 0.2014078125 0.875
vt 0.1735921875 0.875
vt 0.1875 0.8125
vt 0.4765625 0.90625
vt 0.5078125 0.90625
vt 0.5078125 1
vt 0.4765625 1
vt 0.1735921875 0.75
vt 0.2014078125 0.75
vt 0.1875 0.8125
vt 0.1735921875 0.875
vt 0.14853203125 0.8626210937500001
vt 0.1875 0.8125
vt 0.4765625 1
vt 0.4765625 0.90625
vt 0.5078125 0.90625
vt 0.5078125 1
vt 0.14853203125 0.7623789062499999
vt 0.1735921875 0.75
vt 0.1875 0.8125
vt 0.14853203125 0.8626210937500001
vt 0.1311890625 0.84031484375
vt 0.1875 0.8125
vt 0.4765625 1
vt 0.4765625 0.90625
vt 0.5078125 0.90625
vt 0.5078125 1
vt 0.1311890625 0.78468515625
vt 0.14853203125 0.7623789062499999
vt 0.1875 0.8125
vt 0.1311890625 0.84031484375
vt 0.125 0.8125
vt 0.1875 0.8125
vt 0.4765625 1
vt 0.4765625 0.90625
vt 0.5078125 0.90625
vt 0.5078125 1
vt 0.125 0.8125
vt 0.1311890625 0.78468515625
vt 0.1875 0.8125
vt 0.125 0.8125
vt 0.1311890625 0.78468515625
vt 0.1875 0.8125
vt 0.4765625 1
vt 0.4765625 0.90625
vt 0.5078125 0.90625
vt 0.5078125 1
vt 0.1311890625 0.84031484375
vt 0.125 0.8125
vt 0.1875 0.8125
vt 0.1311890625 0.78468515625
vt 0.14853203125 0.7623789062499999
vt 0.1875 0.8125
vt 0.4765625 1
vt 0.4765625 0.90625
vt 0.5078125 0.90625
vt 0.5078125 1
vt 0.14853203125 0.8626210937500001
vt 0.1311890625 0.84031484375
vt 0.1875 0.8125
vt 0.14853203125 0.7623789062499999
vt 0.1735921875 0.75
vt 0.1875 0.8125
vt 0.4765625 1
vt 0.4765625 0.90625
vt 0.5078125 0.90625
vt 0.5078125 1
vt 0.1735921875 0.875
vt 0.14853203125 0.8626210937500001
vt 0.1875 0.8125
vn 0 -1 0
vn 0.4428760184644824 0 0.8965828641397557
vn 0 1 0
vn 0 -1 0
vn 0.7894671443059622 0 0.6137928217740815
vn 0 1 0
vn 0 -1 0
vn 0.9761251555001447 0 0.21720884144025687
vn 0 1 0
vn 0 -1 0
vn 0.9761251555001447 0 -0.21720884144025687
vn 0 1 0
vn 0 -1 0
vn 0.7894671443059622 0 -0.6137928217740815
vn 0 1 0
vn 0 -1 0
vn 0.4428760184644824 0 -0.8965828641397557
vn 0 1 0
vn 0 -1 0
vn 0 0 -1
vn 0 1 0
vn 0 -1 0
vn 0 0 1
vn 0 1 0
vn 0 -1 0
vn -0.4428760184644824 0 0.8965828641397557
vn 0 1 0
vn 0 -1 0
vn -0.7894671443059622 0 0.6137928217740815
vn 0 1 0
vn 0 -1 0
vn -0.9761251555001447 0 0.21720884144025687
vn 0 1 0
vn 0 -1 0
vn -0.9761251555001447 0 -0.21720884144025687
vn 0 1 0
vn 0 -1 0
vn -0.7894671443059622 0 -0.6137928217740815
vn 0 1 0
vn 0 -1 0
vn -0.4428760184644824 0 -0.8965828641397557
vn 0 1 0
usemtl m_baa2c184-32bc-0145-c772-8978b846e51f
f 5/1/1 3/2/1 1/3/1
f 3/4/2 5/5/2 6/6/2 4/7/2
f 4/8/3 6/9/3 2/10/3
f 7/11/4 5/12/4 1/13/4
f 5/14/5 7/15/5 8/16/5 6/17/5
f 6/18/6 8/19/6 2/20/6
f 9/21/7 7/22/7 1/23/7
f 7/24/8 9/25/8 10/26/8 8/27/8
f 8/28/9 10/29/9 2/30/9
f 11/31/10 9/32/10 1/33/10
f 9/34/11 11/35/11 12/36/11 10/37/11
f 10/38/12 12/39/12 2/40/12
f 13/41/13 11/42/13 1/43/13
f 11/44/14 13/45/14 14/46/14 12/47/14
f 12/48/15 14/49/15 2/50/15
f 15/51/16 13/52/16 1/53/16
f 13/54/17 15/55/17 16/56/17 14/57/17
f 14/58/18 16/59/18 2/60/18
f 29/61/19 15/62/19 1/63/19
f 15/64/20 29/65/20 30/66/20 16/67/20
f 16/68/21 30/69/21 2/70/21
f 3/71/22 17/72/22 1/73/22
f 17/74/23 3/75/23 4/76/23 18/77/23
f 18/78/24 4/79/24 2/80/24
f 17/81/25 19/82/25 1/83/25
f 20/84/26 19/85/26 17/86/26 18/87/26
f 20/88/27 18/89/27 2/90/27
f 19/91/28 21/92/28 1/93/28
f 22/94/29 21/95/29 19/96/29 20/97/29
f 22/98/30 20/99/30 2/100/30
f 21/101/31 23/102/31 1/103/31
f 24/104/32 23/105/32 21/106/32 22/107/32
f 24/108/33 22/109/33 2/110/33
f 23/111/34 25/112/34 1/113/34
f 26/114/35 25/115/35 23/116/35 24/117/35
f 26/118/36 24/119/36 2/120/36
f 25/121/37 27/122/37 1/123/37
f 28/124/38 27/125/38 25/126/38 26/127/38
f 28/128/39 26/129/39 2/130/39
f 27/131/40 29/132/40 1/133/40
f 30/134/41 29/135/41 27/136/41 28/137/41
f 30/138/42 28/139/42 2/140/42
o rim
v 0.8125 0.0625 0.8125
v 0.8125 0.0625 -0.8125
v -0.8125 0.0625 0.8125
v -0.8125 0.0625 -0.8125
vt 0.203125 0.4140625
vt 0.203125 0.6171875
vt 0 0.6171875
vt 0 0.4140625
vn 0 1 0
usemtl m_baa2c184-32bc-0145-c772-8978b846e51f
f 31/141/43 32/142/43 34/143/43 33/144/43
o rim
v 0.8125 -0.0624999999999999 -0.8125
v 0.8125 -0.0625000000000001 0.8125
v -0.8125 -0.0624999999999999 -0.8125
v -0.8125 -0.0625000000000001 0.8125
vt 0.203125 0.4140625
vt 0.203125 0.6171875
vt 0 0.6171875
vt 0 0.4140625
vn 0 -1 -1.2246467991473532e-16
usemtl m_baa2c184-32bc-0145-c772-8978b846e51f
f 35/145/44 36/146/44 38/147/44 37/148/44
o rim
v 0.0625 -0.34375 0.0625
v 0.0625 -0.34375 -0.0625
v 0.0625 -0.40625 0.0625
v 0.0625 -0.40625 -0.0625
v -0.0625 -0.34375 0.0625
v -0.0625 -0.34375 -0.0625
v -0.0625 -0.40625 0.0625
v -0.0625 -0.40625 -0.0625
vt 0.3984375 0.8671875
vt 0.3828125 0.8671875
vt 0.3828125 0.8515625
vt 0.3984375 0.8515625
vt 0.3984375 0.828125
vt 0.3984375 0.84375
vt 0.3828125 0.84375
vt 0.3828125 0.828125
vt 0.40625 0.8515625
vt 0.421875 0.8515625
vt 0.421875 0.8671875
vt 0.40625 0.8671875
vt 0.421875 0.828125
vt 0.421875 0.84375
vt 0.40625 0.84375
vt 0.40625 0.828125
vt 0.3984375 0.8046875
vt 0.3984375 0.8203125
vt 0.3828125 0.8203125
vt 0.3828125 0.8046875
vt 0.4453125 0.8671875
vt 0.4296875 0.8671875
vt 0.4296875 0.8515625
vt 0.4453125 0.8515625
vn 1 0 0
vn -1 0 0
vn 0 1 0
vn 0 -1 0
vn 0 0 1
vn 0 0 -1
usemtl m_baa2c184-32bc-0145-c772-8978b846e51f
f 40/149/45 39/150/45 41/151/45 42/152/45
f 45/153/46 43/154/46 44/155/46 46/156/46
f 43/157/47 39/158/47 40/159/47 44/160/47
f 42/161/48 41/162/48 45/163/48 46/164/48
f 41/165/49 39/166/49 43/167/49 45/168/49
f 44/169/50 40/170/50 42/171/50 46/172/50
o rim
v -0.062499999999999986 0.34375 0.0625
v -0.062499999999999986 0.34375 -0.0625
v -0.06249999999999999 0.40625 0.0625
v -0.06249999999999999 0.40625 -0.0625
v 0.06250000000000001 0.34375 0.0625
v 0.06250000000000001 0.34375 -0.0625
v 0.0625 0.40625 0.0625
v 0.0625 0.40625 -0.0625
vt 0.3984375 0.8671875
vt 0.3828125 0.8671875
vt 0.3828125 0.8515625
vt 0.3984375 0.8515625
vt 0.3984375 0.828125
vt 0.3984375 0.84375
vt 0.3828125 0.84375
vt 0.3828125 0.828125
vt 0.40625 0.8515625
vt 0.421875 0.8515625
vt 0.421875 0.8671875
vt 0.40625 0.8671875
vt 0.421875 0.828125
vt 0.421875 0.84375
vt 0.40625 0.84375
vt 0.40625 0.828125
vt 0.3984375 0.8046875
vt 0.3984375 0.8203125
vt 0.3828125 0.8203125
vt 0.3828125 0.8046875
vt 0.4453125 0.8671875
vt 0.4296875 0.8671875
vt 0.4296875 0.8515625
vt 0.4453125 0.8515625
vn -1 -1.2246467991473532e-16 0
vn 1 1.2246467991473532e-16 0
vn 1.2246467991473532e-16 -1 0
vn -1.2246467991473532e-16 1 0
vn 0 0 1
vn 0 0 -1
usemtl m_baa2c184-32bc-0145-c772-8978b846e51f
f 48/173/51 47/174/51 49/175/51 50/176/51
f 53/177/52 51/178/52 52/179/52 54/180/52
f 51/181/53 47/182/53 48/183/53 52/184/53
f 50/185/54 49/186/54 53/187/54 54/188/54
f 49/189/55 47/190/55 51/191/55 53/192/55
f 52/193/56 48/194/56 50/195/56 54/196/56
o rim
v 0.175474375 -0.5 0.788575
v 0.175474375 0.5 0.788575
v 0.49166875 -0.5 0.632388125
v 0.49166875 0.5 0.632388125
v 0.710481875 -0.5 0.35094875
v 0.710481875 0.5 0.35094875
v 0.788575 -0.5 0
v 0.788575 0.5 0
v 0.710481875 -0.5 -0.35094875
v 0.710481875 0.5 -0.35094875
v 0.49166875 -0.5 -0.632388125
v 0.49166875 0.5 -0.632388125
v 0.175474375 -0.5 -0.788575
v 0.175474375 0.5 -0.788575
v -0.175474375 -0.5 0.788575
v -0.175474375 0.5 0.788575
v -0.49166875 -0.5 0.632388125
v -0.49166875 0.5 0.632388125
v -0.710481875 -0.5 0.35094875
v -0.710481875 0.5 0.35094875
v -0.788575 -0.5 0
v -0.788575 0.5 0
v -0.710481875 -0.5 -0.35094875
v -0.710481875 0.5 -0.35094875
v -0.49166875 -0.5 -0.632388125
v -0.49166875 0.5 -0.632388125
v -0.175474375 -0.5 -0.788575
v -0.175474375 0.5 -0.788575
vt 0.265625 0.6171875
vt 0.21875 0.6171875
vt 0.21875 0.4921875
vt 0.265625 0.4921875
vt 0.265625 0.6171875
vt 0.21875 0.6171875
vt 0.21875 0.4921875
vt 0.265625 0.4921875
vt 0.265625 0.6171875
vt 0.21875 0.6171875
vt 0.21875 0.4921875
vt 0.265625 0.4921875
vt 0.265625 0.6171875
vt 0.21875 0.6171875
vt 0.21875 0.4921875
vt 0.265625 0.4921875
vt 0.265625 0.6171875
vt 0.21875 0.6171875
vt 0.21875 0.4921875
vt 0.265625 0.4921875
vt 0.265625 0.6171875
vt 0.21875 0.6171875
vt 0.21875 0.4921875
vt 0.265625 0.4921875
vt 0.265625 0.6171875
vt 0.21875 0.6171875
vt 0.21875 0.4921875
vt 0.265625 0.4921875
vt 0.265625 0.6171875
vt 0.21875 0.6171875
vt 0.21875 0.4921875
vt 0.265625 0.4921875
vt 0.265625 0.4921875
vt 0.265625 0.6171875
vt 0.21875 0.6171875
vt 0.21875 0.4921875
vt 0.265625 0.4921875
vt 0.265625 0.6171875
vt 0.21875 0.6171875
vt 0.21875 0.4921875
vt 0.265625 0.4921875
vt 0.265625 0.6171875
vt 0.21875 0.6171875
vt 0.21875 0.4921875
vt 0.265625 0.4921875
vt 0.265625 0.6171875
vt 0.21875 0.6171875
vt 0.21875 0.4921875
vt 0.265625 0.4921875
vt 0.265625 0.6171875
vt 0.21875 0.6171875
vt 0.21875 0.4921875
vt 0.265625 0.4921875
vt 0.265625 0.6171875
vt 0.21875 0.6171875
vt 0.21875 0.4921875
vn -0.44287492493825137 0 -0.8965834042970785
vn -0.7894666195313044 0 -0.6137934967444793
vn -0.9761254621669494 0 -0.21720746329111115
vn -0.9761254621669494 0 0.21720746329111115
vn -0.7894666195313044 0 0.6137934967444793
vn -0.44287492493825137 0 0.8965834042970785
vn 0 0 1
vn 0 0 -1
vn 0.44287492493825137 0 -0.8965834042970785
vn 0.7894666195313044 0 -0.6137934967444793
vn 0.9761254621669494 0 -0.21720746329111115
vn 0.9761254621669494 0 0.21720746329111115
vn 0.7894666195313044 0 0.6137934967444793
vn 0.44287492493825137 0 0.8965834042970785
usemtl m_baa2c184-32bc-0145-c772-8978b846e51f
f 56/197/57 58/198/57 57/199/57 55/200/57
f 58/201/58 60/202/58 59/203/58 57/204/58
f 60/205/59 62/206/59 61/207/59 59/208/59
f 62/209/60 64/210/60 63/211/60 61/212/60
f 64/213/61 66/214/61 65/215/61 63/216/61
f 66/217/62 68/218/62 67/219/62 65/220/62
f 68/221/63 82/222/63 81/223/63 67/224/63
f 70/225/64 56/226/64 55/227/64 69/228/64
f 71/229/65 72/230/65 70/231/65 69/232/65
f 73/233/66 74/234/66 72/235/66 71/236/66
f 75/237/67 76/238/67 74/239/67 73/240/67
f 77/241/68 78/242/68 76/243/68 75/244/68
f 79/245/69 80/246/69 78/247/69 77/248/69
f 81/249/70 82/250/70 80/251/70 79/252/70
o tire
v 0.33378125 -0.5 1.5
v 0.33378125 0.5 1.5
v 0.175474375 -0.5 0.788575
v 0.175474375 0.5 0.788575
v 0.935235 -0.5 1.202906875
v 0.935235 0.5 1.202906875
v 0.49166875 -0.5 0.632388125
v 0.49166875 0.5 0.632388125
v 1.351453125 -0.5 0.6675625
v 1.351453125 0.5 0.6675625
v 0.710481875 -0.5 0.35094875
v 0.710481875 0.5 0.35094875
v 1.5 -0.5 0
v 1.5 0.5 0
v 0.788575 -0.5 0
v 0.788575 0.5 0
v 1.351453125 -0.5 -0.6675625
v 1.351453125 0.5 -0.6675625
v 0.710481875 -0.5 -0.35094875
v 0.710481875 0.5 -0.35094875
v 0.935235 -0.5 -1.202906875
v 0.935235 0.5 -1.202906875
v 0.49166875 -0.5 -0.632388125
v 0.49166875 0.5 -0.632388125
v 0.33378125 -0.5 -1.5
v 0.33378125 0.5 -1.5
v 0.175474375 -0.5 -0.788575
v 0.175474375 0.5 -0.788575
v -0.33378125 -0.5 1.5
v -0.33378125 0.5 1.5
v -0.175474375 -0.5 0.788575
v -0.175474375 0.5 0.788575
v -0.935235 -0.5 1.202906875
v -0.935235 0.5 1.202906875
v -0.49166875 -0.5 0.632388125
v -0.49166875 0.5 0.632388125
v -1.351453125 -0.5 0.6675625
v -1.351453125 0.5 0.6675625
v -0.710481875 -0.5 0.35094875
v -0.710481875 0.5 0.35094875
v -1.5 -0.5 0
v -1.5 0.5 0
v -0.788575 -0.5 0
v -0.788575 0.5 0
v -1.351453125 -0.5 -0.6675625
v -1.351453125 0.5 -0.6675625
v -0.710481875 -0.5 -0.35094875
v -0.710481875 0.5 -0.35094875
v -0.935235 -0.5 -1.202906875
v -0.935235 0.5 -1.202906875
v -0.49166875 -0.5 -0.632388125
v -0.49166875 0.5 -0.632388125
v -0.33378125 -0.5 -1.5
v -0.33378125 0.5 -1.5
v -0.175474375 -0.5 -0.788575
v -0.175474375 0.5 -0.788575
vt 0.3828125 0.875
vt 0.46875 0.875
vt 0.46875 1
vt 0.3828125 1
vt 0.209434375 0.911071875
vt 0.24895859375 0.8915484375
vt 0.3044046875 0.96286328125
vt 0.22922265625 1
vt 0.22922265625 0.625
vt 0.3044046875 0.66213671875
vt 0.24895859375 0.7334515625
vt 0.209434375 0.713928125
vt 0.3828125 0.875
vt 0.46875 0.875
vt 0.46875 1
vt 0.3828125 1
vt 0.24895859375 0.8915484375
vt 0.27631015625 0.85636875
vt 0.35643203125 0.8959453125
vt 0.3044046875 0.96286328125
vt 0.3044046875 0.66213671875
vt 0.35643203125 0.7290546875
vt 0.27631015625 0.76863125
vt 0.24895859375 0.7334515625
vt 0.3828125 0.875
vt 0.46875 0.875
vt 0.46875 1
vt 0.3828125 1
vt 0.27631015625 0.85636875
vt 0.286071875 0.8125
vt 0.375 0.8125
vt 0.35643203125 0.8959453125
vt 0.35643203125 0.7290546875
vt 0.375 0.8125
vt 0.286071875 0.8125
vt 0.27631015625 0.76863125
vt 0.3828125 0.875
vt 0.46875 0.875
vt 0.46875 1
vt 0.3828125 1
vt 0.286071875 0.8125
vt 0.27631015625 0.76863125
vt 0.35643203125 0.7290546875
vt 0.375 0.8125
vt 0.375 0.8125
vt 0.35643203125 0.8959453125
vt 0.27631015625 0.85636875
vt 0.286071875 0.8125
vt 0.3828125 0.875
vt 0.46875 0.875
vt 0.46875 1
vt 0.3828125 1
vt 0.27631015625 0.76863125
vt 0.24895859375 0.7334515625
vt 0.3044046875 0.66213671875
vt 0.35643203125 0.7290546875
vt 0.35643203125 0.8959453125
vt 0.3044046875 0.96286328125
vt 0.24895859375 0.8915484375
vt 0.27631015625 0.85636875
vt 0.3828125 0.875
vt 0.46875 0.875
vt 0.46875 1
vt 0.3828125 1
vt 0.24895859375 0.7334515625
vt 0.209434375 0.713928125
vt 0.22922265625 0.625
vt 0.3044046875 0.66213671875
vt 0.3044046875 0.96286328125
vt 0.22922265625 1
vt 0.209434375 0.911071875
vt 0.24895859375 0.8915484375
vt 0.3828125 0.875
vt 0.46875 0.875
vt 0.46875 1
vt 0.3828125 1
vt 0.209434375 0.713928125
vt 0.165565625 0.713928125
vt 0.14577734375 0.625
vt 0.22922265625 0.625
vt 0.22922265625 1
vt 0.14577734375 1
vt 0.165565625 0.911071875
vt 0.209434375 0.911071875
vt 0.3828125 0.875
vt 0.46875 0.875
vt 0.46875 1
vt 0.3828125 1
vt 0.165565625 0.911071875
vt 0.209434375 0.911071875
vt 0.22922265625 1
vt 0.14577734375 1
vt 0.14577734375 0.625
vt 0.22922265625 0.625
vt 0.209434375 0.713928125
vt 0.165565625 0.713928125
vt 0.3828125 1
vt 0.3828125 0.875
vt 0.46875 0.875
vt 0.46875 1
vt 0.0705953125 0.96286328125
vt 0.12604140625 0.8915484375
vt 0.165565625 0.911071875
vt 0.14577734375 1
vt 0.12604140625 0.7334515625
vt 0.0705953125 0.66213671875
vt 0.14577734375 0.625
vt 0.165565625 0.713928125
vt 0.3828125 1
vt 0.3828125 0.875
vt 0.46875 0.875
vt 0.46875 1
vt 0.01856796875 0.8959453125
vt 0.09868984375 0.85636875
vt 0.12604140625 0.8915484375
vt 0.0705953125 0.96286328125
vt 0.09868984375 0.76863125
vt 0.01856796875 0.7290546875
vt 0.0705953125 0.66213671875
vt 0.12604140625 0.7334515625
vt 0.3828125 1
vt 0.3828125 0.875
vt 0.46875 0.875
vt 0.46875 1
vt 0 0.8125
vt 0.088928125 0.8125
vt 0.09868984375 0.85636875
vt 0.01856796875 0.8959453125
vt 0.088928125 0.8125
vt 0 0.8125
vt 0.01856796875 0.7290546875
vt 0.09868984375 0.76863125
vt 0.3828125 1
vt 0.3828125 0.875
vt 0.46875 0.875
vt 0.46875 1
vt 0.01856796875 0.7290546875
vt 0.09868984375 0.76863125
vt 0.088928125 0.8125
vt 0 0.8125
vt 0.09868984375 0.85636875
vt 0.01856796875 0.8959453125
vt 0 0.8125
vt 0.088928125 0.8125
vt 0.3828125 1
vt 0.3828125 0.875
vt 0.46875 0.875
vt 0.46875 1
vt 0.0705953125 0.66213671875
vt 0.12604140625 0.7334515625
vt 0.09868984375 0.76863125
vt 0.01856796875 0.7290546875
vt 0.12604140625 0.8915484375
vt 0.0705953125 0.96286328125
vt 0.01856796875 0.8959453125
vt 0.09868984375 0.85636875
vt 0.3828125 1
vt 0.3828125 0.875
vt 0.46875 0.875
vt 0.46875 1
vt 0.14577734375 0.625
vt 0.165565625 0.713928125
vt 0.12604140625 0.7334515625
vt 0.0705953125 0.66213671875
vt 0.165565625 0.911071875
vt 0.14577734375 1
vt 0.0705953125 0.96286328125
vt 0.12604140625 0.8915484375
vn 0.4428748995717911 0 0.8965834168270547
vn 0 -1 0
vn 0 1 0
vn 0.7894671443059624 0 0.6137928217740812
vn 0 -1 0
vn 0 1 0
vn 0.9761251986171324 0 0.2172086476746813
vn 0 -1 0
vn 0 1 0
vn 0.9761251986171324 0 -0.2172086476746813
vn 0 -1 0
vn 0 1 0
vn 0.7894671443059624 0 -0.6137928217740812
vn 0 -1 0
vn 0 1 0
vn 0.4428748995717911 0 -0.8965834168270547
vn 0 -1 0
vn 0 1 0
vn 0 0 -1
vn 0 -1 0
vn 0 1 0
vn 0 0 1
vn 0 -1 0
vn 0 1 0
vn -0.4428748995717911 0 0.8965834168270547
vn 0 -1 0
vn 0 1 0
vn -0.7894671443059624 0 0.6137928217740812
vn 0 -1 0
vn 0 1 0
vn -0.9761251986171324 0 0.2172086476746813
vn 0 -1 0
vn 0 1 0
vn -0.9761251986171324 0 -0.2172086476746813
vn 0 -1 0
vn 0 1 0
vn -0.7894671443059624 0 -0.6137928217740812
vn 0 -1 0
vn 0 1 0
vn -0.4428748995717911 0 -0.8965834168270547
vn 0 -1 0
vn 0 1 0
usemtl m_baa2c184-32bc-0145-c772-8978b846e51f
f 83/253/71 87/254/71 88/255/71 84/256/71
f 85/257/72 89/258/72 87/259/72 83/260/72
f 84/261/73 88/262/73 90/263/73 86/264/73
f 87/265/74 91/266/74 92/267/74 88/268/74
f 89/269/75 93/270/75 91/271/75 87/272/75
f 88/273/76 92/274/76 94/275/76 90/276/76
f 91/277/77 95/278/77 96/279/77 92/280/77
f 93/281/78 97/282/78 95/283/78 91/284/78
f 92/285/79 96/286/79 98/287/79 94/288/79
f 95/289/80 99/290/80 100/291/80 96/292/80
f 97/293/81 101/294/81 99/295/81 95/296/81
f 96/297/82 100/298/82 102/299/82 98/300/82
f 99/301/83 103/302/83 104/303/83 100/304/83
f 101/305/84 105/306/84 103/307/84 99/308/84
f 100/309/85 104/310/85 106/311/85 102/312/85
f 103/313/86 107/314/86 108/315/86 104/316/86
f 105/317/87 109/318/87 107/319/87 103/320/87
f 104/321/88 108/322/88 110/323/88 106/324/88
f 107/325/89 135/326/89 136/327/89 108/328/89
f 109/329/90 137/330/90 135/331/90 107/332/90
f 108/333/91 136/334/91 138/335/91 110/336/91
f 111/337/92 83/338/92 84/339/92 112/340/92
f 113/341/93 85/342/93 83/343/93 111/344/93
f 112/345/94 84/346/94 86/347/94 114/348/94
f 116/349/95 115/350/95 111/351/95 112/352/95
f 115/353/96 117/354/96 113/355/96 111/356/96
f 118/357/97 116/358/97 112/359/97 114/360/97
f 120/361/98 119/362/98 115/363/98 116/364/98
f 119/365/99 121/366/99 117/367/99 115/368/99
f 122/369/100 120/370/100 116/371/100 118/372/100
f 124/373/101 123/374/101 119/375/101 120/376/101
f 123/377/102 125/378/102 121/379/102 119/380/102
f 126/381/103 124/382/103 120/383/103 122/384/103
f 128/385/104 127/386/104 123/387/104 124/388/104
f 127/389/105 129/390/105 125/391/105 123/392/105
f 130/393/106 128/394/106 124/395/106 126/396/106
f 132/397/107 131/398/107 127/399/107 128/400/107
f 131/401/108 133/402/108 129/403/108 127/404/108
f 134/405/109 132/406/109 128/407/109 130/408/109
f 136/409/110 135/410/110 131/411/110 132/412/110
f 135/413/111 137/414/111 133/415/111 131/416/111
f 138/417/112 136/418/112 132/419/112 134/420/112