# Made in Blockbench 5.1.4
mtllib small_traction_engine_wheel.mtl

o rim
v -0.26728875 0.062499999999999965 1.34375
v -0.26728875 -0.06250000000000003 1.34375
v -0.239890625 0.06249999999999997 1.206013125
v -0.239890625 -0.06250000000000003 1.206013125
v -0.761173125 0.06249999999999991 1.13917625
v -0.761173125 -0.0625000000000001 1.13917625
v -0.68315125 0.06249999999999992 1.02240875
v -0.68315125 -0.06250000000000008 1.02240875
v -1.13917625 0.06249999999999986 0.761173125
v -1.13917625 -0.06250000000000014 0.761173125
v -1.02240875 0.062499999999999875 0.68315125
v -1.02240875 -0.06250000000000012 0.68315125
v -1.34375 0.06249999999999983 0.26728875
v -1.34375 -0.06250000000000017 0.26728875
v -1.206013125 0.062499999999999854 0.239890625
v -1.206013125 -0.06250000000000015 0.239890625
v -1.34375 0.06249999999999983 -0.26728875
v -1.34375 -0.06250000000000017 -0.26728875
v -1.206013125 0.062499999999999854 -0.239890625
v -1.206013125 -0.06250000000000015 -0.239890625
v -1.13917625 0.06249999999999986 -0.761173125
v -1.13917625 -0.06250000000000014 -0.761173125
v -1.02240875 0.062499999999999875 -0.68315125
v -1.02240875 -0.06250000000000012 -0.68315125
v -0.761173125 0.06249999999999991 -1.13917625
v -0.761173125 -0.0625000000000001 -1.13917625
v -0.68315125 0.06249999999999992 -1.02240875
v -0.68315125 -0.06250000000000008 -1.02240875
v -0.26728875 0.062499999999999965 -1.34375
v -0.26728875 -0.06250000000000003 -1.34375
v -0.239890625 0.06249999999999997 -1.206013125
v -0.239890625 -0.06250000000000003 -1.206013125
v 0.26728875 0.06250000000000003 -1.34375
v 0.26728875 -0.062499999999999965 -1.34375
v 0.239890625 0.06250000000000003 -1.206013125
v 0.239890625 -0.06249999999999997 -1.206013125
v 0.761173125 0.0625000000000001 -1.13917625
v 0.761173125 -0.06249999999999991 -1.13917625
v 0.68315125 0.06250000000000008 -1.02240875
v 0.68315125 -0.06249999999999992 -1.02240875
v 1.13917625 0.06250000000000014 -0.761173125
v 1.13917625 -0.06249999999999986 -0.761173125
v 1.02240875 0.06250000000000012 -0.68315125
v 1.02240875 -0.062499999999999875 -0.68315125
v 1.34375 0.06250000000000017 -0.26728875
v 1.34375 -0.06249999999999983 -0.26728875
v 1.206013125 0.06250000000000015 -0.239890625
v 1.206013125 -0.062499999999999854 -0.239890625
v 1.34375 0.06250000000000017 0.26728875
v 1.34375 -0.06249999999999983 0.26728875
v 1.206013125 0.06250000000000015 0.239890625
v 1.206013125 -0.062499999999999854 0.239890625
v 1.13917625 0.06250000000000014 0.761173125
v 1.13917625 -0.06249999999999986 0.761173125
v 1.02240875 0.06250000000000012 0.68315125
v 1.02240875 -0.062499999999999875 0.68315125
v 0.761173125 0.0625000000000001 1.13917625
v 0.761173125 -0.06249999999999991 1.13917625
v 0.68315125 0.06250000000000008 1.02240875
v 0.68315125 -0.06249999999999992 1.02240875
v 0.26728875 0.06250000000000003 1.34375
v 0.26728875 -0.062499999999999965 1.34375
v 0.239890625 0.06250000000000003 1.206013125
v 0.239890625 -0.06249999999999997 1.206013125
vt 0.1875 0.78125
vt 0.46875 0.78125
vt 0.46875 0.84375
vt 0.1875 0.84375
vt 0.53125 0.71875
vt 0.53125 0.46875
vt 0.59375 0.46875
vt 0.59375 0.71875
vt 0.20191375 0.875
vt 0.454335 0.875
vt 0.46875 0.9375
vt 0.1875 0.9375
vt 0.46875 0.9375
vt 0.1875 0.9375
vt 0.20191625 0.875
vt 0.45433625 0.875
vt 0.1875 0.78125
vt 0.46875 0.78125
vt 0.46875 0.84375
vt 0.1875 0.84375
vt 0.53125 0.71875
vt 0.53125 0.46875
vt 0.59375 0.46875
vt 0.59375 0.71875
vt 0.20191375 0.875
vt 0.45433625 0.875
vt 0.46875 0.9375
vt 0.1875 0.9375
vt 0.46875 0.9375
vt 0.1875 0.9375
vt 0.20191375 0.875
vt 0.45433625 0.875
vt 0.1875 0.78125
vt 0.46875 0.78125
vt 0.46875 0.84375
vt 0.1875 0.84375
vt 0.53125 0.71875
vt 0.53125 0.46875
vt 0.59375 0.46875
vt 0.59375 0.71875
vt 0.201915 0.875
vt 0.45433375 0.875
vt 0.46875 0.93749875
vt 0.1875 0.9375
vt 0.46875 0.9375
vt 0.1875 0.9375
vt 0.20191625 0.87500125
vt 0.45433375 0.875
vt 0.1875 0.78125
vt 0.46875 0.78125
vt 0.46875 0.84375
vt 0.1875 0.84375
vt 0.53125 0.71875
vt 0.53125 0.46875
vt 0.59375 0.46875
vt 0.59375 0.71875
vt 0.2019125 0.875
vt 0.45433375 0.875
vt 0.46875 0.9375
vt 0.1875 0.9375
vt 0.46875 0.9375
vt 0.1875 0.9375
vt 0.20191625 0.875
vt 0.4543375 0.875
vt 0.1875 0.78125
vt 0.46875 0.78125
vt 0.46875 0.84375
vt 0.1875 0.84375
vt 0.53125 0.71875
vt 0.53125 0.46875
vt 0.59375 0.46875
vt 0.59375 0.71875
vt 0.20191375 0.875
vt 0.454335 0.875
vt 0.46875 0.9375
vt 0.1875 0.9375
vt 0.46875 0.9375
vt 0.1875 0.9375
vt 0.20191625 0.875
vt 0.45433625 0.875
vt 0.1875 0.78125
vt 0.46875 0.78125
vt 0.46875 0.84375
vt 0.1875 0.84375
vt 0.53125 0.71875
vt 0.53125 0.46875
vt 0.59375 0.46875
vt 0.59375 0.71875
vt 0.20191375 0.875
vt 0.45433625 0.875
vt 0.46875 0.9375
vt 0.1875 0.9375
vt 0.46875 0.9375
vt 0.1875 0.9375
vt 0.20191375 0.875
vt 0.45433625 0.875
vt 0.1875 0.78125
vt 0.46875 0.78125
vt 0.46875 0.84375
vt 0.1875 0.84375
vt 0.53125 0.71875
vt 0.53125 0.46875
vt 0.59375 0.46875
vt 0.59375 0.71875
vt 0.201915 0.875
vt 0.45433375 0.875
vt 0.46875 0.93749875
vt 0.1875 0.9375
vt 0.46875 0.9375
vt 0.1875 0.9375
vt 0.20191625 0.87500125
vt 0.45433375 0.875
vt 0.1875 0.78125
vt 0.46875 0.78125
vt 0.46875 0.84375
vt 0.1875 0.84375
vt 0.53125 0.71875
vt 0.53125 0.46875
vt 0.59375 0.46875
vt 0.59375 0.71875
vt 0.2019125 0.875
vt 0.45433375 0.875
vt 0.46875 0.9375
vt 0.1875 0.9375
vt 0.46875 0.9375
vt 0.1875 0.9375
vt 0.20191625 0.875
vt 0.4543375 0.875
vt 0.1875 0.78125
vt 0.46875 0.78125
vt 0.46875 0.84375
vt 0.1875 0.84375
vt 0.53125 0.71875
vt 0.53125 0.46875
vt 0.59375 0.46875
vt 0.59375 0.71875
vt 0.20191375 0.875
vt 0.454335 0.875
vt 0.46875 0.9375
vt 0.1875 0.9375
vt 0.46875 0.9375
vt 0.1875 0.9375
vt 0.20191625 0.875
vt 0.45433625 0.875
vt 0.1875 0.78125
vt 0.46875 0.78125
vt 0.46875 0.84375
vt 0.1875 0.84375
vt 0.53125 0.71875
vt 0.53125 0.46875
vt 0.59375 0.46875
vt 0.59375 0.71875
vt 0.20191375 0.875
vt 0.45433625 0.875
vt 0.46875 0.9375
vt 0.1875 0.9375
vt 0.46875 0.9375
vt 0.1875 0.9375
vt 0.20191375 0.875
vt 0.45433625 0.875
vt 0.1875 0.78125
vt 0.46875 0.78125
vt 0.46875 0.84375
vt 0.1875 0.84375
vt 0.53125 0.71875
vt 0.53125 0.46875
vt 0.59375 0.46875
vt 0.59375 0.71875
vt 0.201915 0.875
vt 0.45433375 0.875
vt 0.46875 0.93749875
vt 0.1875 0.9375
vt 0.46875 0.9375
vt 0.1875 0.9375
vt 0.20191625 0.87500125
vt 0.45433375 0.875
vt 0.1875 0.78125
vt 0.46875 0.78125
vt 0.46875 0.84375
vt 0.1875 0.84375
vt 0.53125 0.71875
vt 0.53125 0.46875
vt 0.59375 0.46875
vt 0.59375 0.71875
vt 0.2019125 0.875
vt 0.45433375 0.875
vt 0.46875 0.9375
vt 0.1875 0.9375
vt 0.46875 0.9375
vt 0.1875 0.9375
vt 0.20191625 0.875
vt 0.4543375 0.875
vt 0.1875 0.78125
vt 0.46875 0.78125
vt 0.46875 0.84375
vt 0.1875 0.84375
vt 0.53125 0.71875
vt 0.53125 0.46875
vt 0.59375 0.46875
vt 0.59375 0.71875
vt 0.20191375 0.875
vt 0.454335 0.875
vt 0.46875 0.9375
vt 0.1875 0.9375
vt 0.46875 0.9375
vt 0.1875 0.9375
vt 0.20191625 0.875
vt 0.45433625 0.875
vt 0.1875 0.78125
vt 0.46875 0.78125
vt 0.46875 0.84375
vt 0.1875 0.84375
vt 0.53125 0.71875
vt 0.53125 0.46875
vt 0.59375 0.46875
vt 0.59375 0.71875
vt 0.20191375 0.875
vt 0.45433625 0.875
vt 0.46875 0.9375
vt 0.1875 0.9375
vt 0.46875 0.9375
vt 0.1875 0.9375
vt 0.20191375 0.875
vt 0.45433625 0.875
vt 0.1875 0.78125
vt 0.46875 0.78125
vt 0.46875 0.84375
vt 0.1875 0.84375
vt 0.53125 0.71875
vt 0.53125 0.46875
vt 0.59375 0.46875
vt 0.59375 0.71875
vt 0.201915 0.875
vt 0.45433375 0.875
vt 0.46875 0.93749875
vt 0.1875 0.9375
vt 0.46875 0.9375
vt 0.1875 0.9375
vt 0.20191625 0.87500125
vt 0.45433375 0.875
vt 0.1875 0.78125
vt 0.46875 0.78125
vt 0.46875 0.84375
vt 0.1875 0.84375
vt 0.53125 0.71875
vt 0.53125 0.46875
vt 0.59375 0.46875
vt 0.59375 0.71875
vt 0.2019125 0.875
vt 0.45433375 0.875
vt 0.46875 0.9375
vt 0.1875 0.9375
vt 0.46875 0.9375
vt 0.1875 0.9375
vt 0.20191625 0.875
vt 0.4543375 0.875
vn -0.3826836616990581 -4.686523213857401e-17 0.9238794375180136
vn 0.38268309872122 4.686516319367327e-17 -0.923879670711032
vn -1.2246467991473532e-16 1 0
vn 1.2246467991473532e-16 -1 0
vn -0.7071067811865476 -8.659560562354934e-17 0.7071067811865476
vn 0.7071067811865476 8.659560562354934e-17 -0.7071067811865476
vn -1.2246467991473532e-16 1 0
vn 1.2246467991473532e-16 -1 0
vn -0.9238794375180136 -1.1314259959544925e-16 0.3826836616990581
vn 0.923879670711032 1.131426281533576e-16 -0.38268309872122
vn -1.2246467991473532e-16 1 0
vn 1.2246467991473532e-16 -1 0
vn -1 -1.2246467991473532e-16 0
vn 1 1.2246467991473532e-16 0
vn -1.2246467991473532e-16 1 0
vn 1.2246467991473532e-16 -1 0
vn -0.9238794375180136 -1.1314259959544925e-16 -0.3826836616990581
vn 0.923879670711032 1.131426281533576e-16 0.38268309872122
vn -1.2246467991473532e-16 1 0
vn 1.2246467991473532e-16 -1 0
vn -0.7071067811865476 -8.659560562354934e-17 -0.7071067811865476
vn 0.7071067811865476 8.659560562354934e-17 0.7071067811865476
vn -1.2246467991473532e-16 1 0
vn 1.2246467991473532e-16 -1 0
vn -0.3826836616990581 -4.686523213857401e-17 -0.9238794375180136
vn 0.38268309872122 4.686516319367327e-17 0.923879670711032
vn -1.2246467991473532e-16 1 0
vn 1.2246467991473532e-16 -1 0
vn 0 0 -1
vn 0 0 1
vn -1.2246467991473532e-16 1 0
vn 1.2246467991473532e-16 -1 0
vn 0.3826836616990581 4.686523213857401e-17 -0.9238794375180136
vn -0.38268309872122 -4.686516319367327e-17 0.923879670711032
vn -1.2246467991473532e-16 1 0
vn 1.2246467991473532e-16 -1 0
vn 0.7071067811865476 8.659560562354934e-17 -0.7071067811865476
vn -0.7071067811865476 -8.659560562354934e-17 0.7071067811865476
vn -1.2246467991473532e-16 1 0
vn 1.2246467991473532e-16 -1 0
vn 0.9238794375180136 1.1314259959544925e-16 -0.3826836616990581
vn -0.923879670711032 -1.131426281533576e-16 0.38268309872122
vn -1.2246467991473532e-16 1 0
vn 1.2246467991473532e-16 -1 0
vn 1 1.2246467991473532e-16 0
vn -1 -1.2246467991473532e-16 0
vn -1.2246467991473532e-16 1 0
vn 1.2246467991473532e-16 -1 0
vn 0.9238794375180136 1.1314259959544925e-16 0.3826836616990581
vn -0.923879670711032 -1.131426281533576e-16 -0.38268309872122
vn -1.2246467991473532e-16 1 0
vn 1.2246467991473532e-16 -1 0
vn 0.7071067811865476 8.659560562354934e-17 0.7071067811865476
vn -0.7071067811865476 -8.659560562354934e-17 -0.7071067811865476
vn -1.2246467991473532e-16 1 0
vn 1.2246467991473532e-16 -1 0
vn 0.3826836616990581 4.686523213857401e-17 0.9238794375180136
vn -0.38268309872122 -4.686516319367327e-17 -0.923879670711032
vn -1.2246467991473532e-16 1 0
vn 1.2246467991473532e-16 -1 0
vn 0 0 1
vn 0 0 -1
vn -1.2246467991473532e-16 1 0
vn 1.2246467991473532e-16 -1 0
usemtl m_dd40fa0f-c6e4-5cb1-fea9-4049104755ba
f 1/1/1 5/2/1 6/3/1 2/4/1
f 4/5/2 8/6/2 7/7/2 3/8/2
f 3/9/3 7/10/3 5/11/3 1/12/3
f 2/13/4 6/14/4 8/15/4 4/16/4
f 5/17/5 9/18/5 10/19/5 6/20/5
f 8/21/6 12/22/6 11/23/6 7/24/6
f 7/25/7 11/26/7 9/27/7 5/28/7
f 6/29/8 10/30/8 12/31/8 8/32/8
f 9/33/9 13/34/9 14/35/9 10/36/9
f 12/37/10 16/38/10 15/39/10 11/40/10
f 11/41/11 15/42/11 13/43/11 9/44/11
f 10/45/12 14/46/12 16/47/12 12/48/12
f 13/49/13 17/50/13 18/51/13 14/52/13
f 16/53/14 20/54/14 19/55/14 15/56/14
f 15/57/15 19/58/15 17/59/15 13/60/15
f 14/61/16 18/62/16 20/63/16 16/64/16
f 17/65/17 21/66/17 22/67/17 18/68/17
f 20/69/18 24/70/18 23/71/18 19/72/18
f 19/73/19 23/74/19 21/75/19 17/76/19
f 18/77/20 22/78/20 24/79/20 20/80/20
f 21/81/21 25/82/21 26/83/21 22/84/21
f 24/85/22 28/86/22 27/87/22 23/88/22
f 23/89/23 27/90/23 25/91/23 21/92/23
f 22/93/24 26/94/24 28/95/24 24/96/24
f 25/97/25 29/98/25 30/99/25 26/100/25
f 28/101/26 32/102/26 31/103/26 27/104/26
f 27/105/27 31/106/27 29/107/27 25/108/27
f 26/109/28 30/110/28 32/111/28 28/112/28
f 29/113/29 33/114/29 34/115/29 30/116/29
f 32/117/30 36/118/30 35/119/30 31/120/30
f 31/121/31 35/122/31 33/123/31 29/124/31
f 30/125/32 34/126/32 36/127/32 32/128/32
f 33/129/33 37/130/33 38/131/33 34/132/33
f 36/133/34 40/134/34 39/135/34 35/136/34
f 35/137/35 39/138/35 37/139/35 33/140/35
f 34/141/36 38/142/36 40/143/36 36/144/36
f 37/145/37 41/146/37 42/147/37 38/148/37
f 40/149/38 44/150/38 43/151/38 39/152/38
f 39/153/39 43/154/39 41/155/39 37/156/39
f 38/157/40 42/158/40 44/159/40 40/160/40
f 41/161/41 45/162/41 46/163/41 42/164/41
f 44/165/42 48/166/42 47/167/42 43/168/42
f 43/169/43 47/170/43 45/171/43 41/172/43
f 42/173/44 46/174/44 48/175/44 44/176/44
f 45/177/45 49/178/45 50/179/45 46/180/45
f 48/181/46 52/182/46 51/183/46 47/184/46
f 47/185/47 51/186/47 49/187/47 45/188/47
f 46/189/48 50/190/48 52/191/48 48/192/48
f 49/193/49 53/194/49 54/195/49 50/196/49
f 52/197/50 56/198/50 55/199/50 51/200/50
f 51/201/51 55/202/51 53/203/51 49/204/51
f 50/205/52 54/206/52 56/207/52 52/208/52
f 53/209/53 57/210/53 58/211/53 54/212/53
f 56/213/54 60/214/54 59/215/54 55/216/54
f 55/217/55 59/218/55 57/219/55 53/220/55
f 54/221/56 58/222/56 60/223/56 56/224/56
f 57/225/57 61/226/57 62/227/57 58/228/57
f 60/229/58 64/230/58 63/231/58 59/232/58
f 59/233/59 63/234/59 61/235/59 57/236/59
f 58/237/60 62/238/60 64/239/60 60/240/60
f 61/241/61 1/242/61 2/243/61 62/244/61
f 64/245/62 4/246/62 3/247/62 63/248/62
f 63/249/63 3/250/63 1/251/63 61/252/63
f 62/253/64 2/254/64 4/255/64 64/256/64
o rim
v 0.140625 -0.24999999999999994 0.140625
v 0.140625 -0.24999999999999994 -0.140625
v -0.140625 -0.25 0.140625
v -0.140625 -0.25 -0.140625
v 0.14062499999999997 -0.17187499999999994 0.140625
v 0.14062499999999997 -0.17187499999999994 -0.140625
v -0.140625 -0.171875 0.140625
v -0.140625 -0.171875 -0.140625
vt 0.46875 0.3125
vt 0.46875 0.46875
vt 0.3125 0.46875
vt 0.3125 0.3125
vt 0.46875 0.3125
vt 0.46875 0.46875
vt 0.3125 0.46875
vt 0.3125 0.3125
vt 0.5312509375 0.84375
vt 0.5312484375 0.9998725
vt 0.4999996875 1
vt 0.5000009375 0.84375
vt 0.34375 0.78125
vt 0.1875 0.78125
vt 0.1875 0.75
vt 0.34375 0.75
vt 0.5625 1
vt 0.5625 0.84375
vt 0.59375 0.84375
vt 0.59375 1
vt 0.53125 1
vt 0.53125 0.84375
vt 0.5625 0.84375
vt 0.5625 1
vn 2.220446049250313e-16 -1 0
vn -2.220446049250313e-16 1 0
vn 1 2.220446049250313e-16 0
vn -1 -2.220446049250313e-16 0
vn 0 0 1
vn 0 0 -1
usemtl m_dd40fa0f-c6e4-5cb1-fea9-4049104755ba
f 68/257/65 66/258/65 65/259/65 67/260/65
f 71/261/66 69/262/66 70/263/66 72/264/66
f 65/265/67 66/266/67 70/267/67 69/268/67
f 68/269/68 67/270/68 71/271/68 72/272/68
f 67/273/69 65/274/69 69/275/69 71/276/69
f 72/277/70 70/278/70 66/279/70 68/280/70
o rim
v 0.140625 0.17187500000000006 0.140625
v 0.140625 0.17187500000000006 -0.140625
v -0.140625 0.17187499999999997 0.140625
v -0.140625 0.17187499999999997 -0.140625
v 0.140625 0.25000000000000006 0.140625
v 0.140625 0.25000000000000006 -0.140625
v -0.140625 0.25 0.140625
v -0.140625 0.25 -0.140625
vt 0.46875 0.3125
vt 0.46875 0.46875
vt 0.3125 0.46875
vt 0.3125 0.3125
vt 0.46875 0.3125
vt 0.46875 0.46875
vt 0.3125 0.46875
vt 0.3125 0.3125
vt 0.5 1
vt 0.5 0.84375
vt 0.53125 0.84375
vt 0.53125 1
vt 0.1875 0.75
vt 0.34375 0.75
vt 0.34375 0.78125
vt 0.1875 0.78125
vt 0.53125 1
vt 0.53125 0.84375
vt 0.5625 0.84375
vt 0.5625 1
vt 0.5625 1
vt 0.5625 0.84375
vt 0.59375 0.84375
vt 0.59375 1
vn 2.220446049250313e-16 -1 0
vn -2.220446049250313e-16 1 0
vn 1 2.220446049250313e-16 0
vn -1 -2.220446049250313e-16 0
vn 0 0 1
vn 0 0 -1
usemtl m_dd40fa0f-c6e4-5cb1-fea9-4049104755ba
f 76/281/71 74/282/71 73/283/71 75/284/71
f 79/285/72 77/286/72 78/287/72 80/288/72
f 73/289/73 74/290/73 78/291/73 77/292/73
f 76/293/74 75/294/74 79/295/74 80/296/74
f 75/297/75 73/298/75 77/299/75 79/300/75
f 80/301/76 78/302/76 74/303/76 76/304/76
o rim
v 0.25000000000000006 -0.17187499999999994 0.25
v 0.25000000000000006 -0.17187499999999994 -0.25
v -0.24999999999999997 -0.17187500000000006 0.25
v -0.24999999999999997 -0.17187500000000006 -0.25
v 0.24999999999999994 0.17187500000000006 0.25
v 0.24999999999999994 0.17187500000000006 -0.25
v -0.25 0.17187499999999994 0.25
v -0.25 0.17187499999999994 -0.25
vt 0.9375 0.75
vt 0.9375 1
vt 0.6875 1
vt 0.6875 0.75
vt 0.9375 0.75
vt 0.9375 1
vt 0.6875 1
vt 0.6875 0.75
vt 0.1875 0.75
vt 0.1875 1
vt 0 1
vt 0 0.75
vt 0.1875 0.75
vt 0.1875 1
vt 0 1
vt 0 0.75
vt 0.1875 0.75
vt 0.1875 1
vt 0 1
vt 0 0.75
vt 0.1875 0.75
vt 0.1875 1
vt 0 1
vt 0 0.75
vn 2.220446049250313e-16 -1 0
vn -2.220446049250313e-16 1 0
vn 1 2.220446049250313e-16 0
vn -1 -2.220446049250313e-16 0
vn 0 0 1
vn 0 0 -1
usemtl m_dd40fa0f-c6e4-5cb1-fea9-4049104755ba
f 84/305/77 82/306/77 81/307/77 83/308/77
f 87/309/78 85/310/78 86/311/78 88/312/78
f 81/313/79 82/314/79 86/315/79 85/316/79
f 84/317/80 83/318/80 87/319/80 88/320/80
f 83/321/81 81/322/81 85/323/81 87/324/81
f 88/325/82 86/326/82 82/327/82 84/328/82
o rim
v 1.3126837630052153 -0.04808775096018697 0.078125
v 1.3126837630052153 -0.04808775096018697 -0.078125
v 0.1198516641648497 0.10895157405456203 0.078125
v 0.1198516641648497 0.10895157405456203 -0.078125
v 1.3208416500189686 0.013877552875676158 0.078125
v 1.3208416500189686 0.013877552875676158 -0.078125
v 0.1280095511786029 0.17091687789042517 0.078125
v 0.1280095511786029 0.17091687789042517 -0.078125
vt 0.6875 0.40625
vt 0.6875 1
vt 0.59375 1
vt 0.59375 0.40625
vt 0.6875 0.40625
vt 0.6875 1
vt 0.59375 1
vt 0.59375 0.40625
vt 0.5 0.90625
vt 0.5 1
vt 0.46875 1
vt 0.46875 0.90625
vt 0.5 0.90625
vt 0.5 1
vt 0.46875 1
vt 0.46875 0.90625
vt 0.59375 0.75
vt 0 0.75
vt 0 0.71875
vt 0.59375 0.71875
vt 0.59375 0.75
vt 0 0.75
vt 0 0.71875
vt 0.59375 0.71875
vn -0.13052619222005116 -0.9914448613738106 0
vn 0.13052619222005116 0.9914448613738106 0
vn 0.9914448613738106 -0.13052619222005116 0
vn -0.9914448613738106 0.13052619222005116 0
vn 0 0 1
vn 0 0 -1
usemtl m_dd40fa0f-c6e4-5cb1-fea9-4049104755ba
f 92/329/83 90/330/83 89/331/83 91/332/83
f 95/333/84 93/334/84 94/335/84 96/336/84
f 89/337/85 90/338/85 94/339/85 93/340/85
f 92/341/86 91/342/86 95/343/86 96/344/86
f 91/345/87 89/346/87 93/347/87 95/348/87
f 96/349/88 94/350/88 90/351/88 92/352/88
o rim
v 0.9892188048822402 -0.01387755287567588 -0.8787333703218424
v 0.8787333703218422 -0.01387755287567588 -0.9892188048822405
v 0.14575913897523557 -0.17091687789042515 -0.03527370441483752
v 0.03527370441483747 -0.17091687789042515 -0.14575913897523557
v 0.9834503076546616 0.0480877509601873 -0.8729648730942637
v 0.8729648730942635 0.0480877509601873 -0.9834503076546618
v 0.13999064174765702 -0.108951574054562 -0.029505207187258943
v 0.029505207187258922 -0.108951574054562 -0.139990641747657
vt 0.6875 0.40625
vt 0.6875 1
vt 0.59375 1
vt 0.59375 0.40625
vt 0.6875 0.40625
vt 0.6875 1
vt 0.59375 1
vt 0.59375 0.40625
vt 0.5 0.90625
vt 0.5 1
vt 0.46875 1
vt 0.46875 0.90625
vt 0.5 0.90625
vt 0.5 1
vt 0.46875 1
vt 0.46875 0.90625
vt 0.59375 0.75
vt 0 0.75
vt 0 0.71875
vt 0.59375 0.71875
vt 0.59375 0.75
vt 0 0.75
vt 0 0.71875
vt 0.59375 0.71875
vn 0.09229595564125709 -0.9914448613738106 -0.09229595564125712
vn -0.09229595564125709 0.9914448613738106 0.09229595564125712
vn 0.7010573846499778 0.13052619222005132 -0.701057384649978
vn -0.7010573846499778 -0.13052619222005132 0.701057384649978
vn 0.7071067811865476 -5.551115123125783e-17 0.7071067811865475
vn -0.7071067811865476 5.551115123125783e-17 -0.7071067811865475
usemtl m_dd40fa0f-c6e4-5cb1-fea9-4049104755ba
f 100/353/89 98/354/89 97/355/89 99/356/89
f 103/357/90 101/358/90 102/359/90 104/360/90
f 97/361/91 98/362/91 102/363/91 101/364/91
f 100/365/92 99/366/92 103/367/92 104/368/92
f 99/369/93 97/370/93 101/371/93 103/372/93
f 104/373/94 102/374/94 98/375/94 100/376/94
o rim
v 0.8787333703218422 -0.01387755287567588 0.9892188048822405
v 0.9892188048822402 -0.01387755287567588 0.8787333703218424
v 0.03527370441483747 -0.17091687789042515 0.14575913897523557
v 0.14575913897523557 -0.17091687789042515 0.03527370441483752
v 0.8729648730942635 0.0480877509601873 0.9834503076546618
v 0.9834503076546616 0.0480877509601873 0.8729648730942637
v 0.029505207187258922 -0.108951574054562 0.139990641747657
v 0.13999064174765702 -0.108951574054562 0.029505207187258943
vt 0.6875 0.40625
vt 0.6875 1
vt 0.59375 1
vt 0.59375 0.40625
vt 0.6875 0.40625
vt 0.6875 1
vt 0.59375 1
vt 0.59375 0.40625
vt 0.5 0.90625
vt 0.5 1
vt 0.46875 1
vt 0.46875 0.90625
vt 0.5 0.90625
vt 0.5 1
vt 0.46875 1
vt 0.46875 0.90625
vt 0.59375 0.75
vt 0 0.75
vt 0 0.71875
vt 0.59375 0.71875
vt 0.59375 0.75
vt 0 0.75
vt 0 0.71875
vt 0.59375 0.71875
vn 0.09229595564125709 -0.9914448613738106 0.09229595564125712
vn -0.09229595564125709 0.9914448613738106 -0.09229595564125712
vn 0.7010573846499778 0.13052619222005132 0.701057384649978
vn -0.7010573846499778 -0.13052619222005132 -0.701057384649978
vn -0.7071067811865476 5.551115123125783e-17 0.7071067811865475
vn 0.7071067811865476 -5.551115123125783e-17 -0.7071067811865475
usemtl m_dd40fa0f-c6e4-5cb1-fea9-4049104755ba
f 108/377/95 106/378/95 105/379/95 107/380/95
f 111/381/96 109/382/96 110/383/96 112/384/96
f 105/385/97 106/386/97 110/387/97 109/388/97
f 108/389/98 107/390/98 111/391/98 112/392/98
f 107/393/99 105/394/99 109/395/99 111/396/99
f 112/397/100 110/398/100 106/399/100 108/400/100
o rim
v -0.07812499999999983 -0.04808775096018697 1.3126837630052153
v 0.07812500000000014 -0.04808775096018697 1.3126837630052153
v -0.07812499999999997 0.10895157405456202 0.11985166416484971
v 0.078125 0.10895157405456204 0.11985166416484969
v -0.07812499999999985 0.013877552875676158 1.3208416500189686
v 0.07812500000000012 0.013877552875676158 1.3208416500189686
v -0.07812499999999997 0.17091687789042517 0.12800955117860294
v 0.078125 0.1709168778904252 0.12800955117860288
vt 0.6875 0.40625
vt 0.6875 1
vt 0.59375 1
vt 0.59375 0.40625
vt 0.6875 0.40625
vt 0.6875 1
vt 0.59375 1
vt 0.59375 0.40625
vt 0.5 0.90625
vt 0.5 1
vt 0.46875 1
vt 0.46875 0.90625
vt 0.5 0.90625
vt 0.5 1
vt 0.46875 1
vt 0.46875 0.90625
vt 0.59375 0.75
vt 0 0.75
vt 0 0.71875
vt 0.59375 0.71875
vt 0.59375 0.75
vt 0 0.75
vt 0 0.71875
vt 0.59375 0.71875
vn 8.108985449048014e-17 -0.9914448613738105 -0.13052619222005113
vn -8.108985449048014e-17 0.9914448613738105 0.13052619222005113
vn 2.346363009406352e-16 -0.13052619222005124 0.9914448613738105
vn -2.346363009406352e-16 0.13052619222005124 -0.9914448613738105
vn -1 -2.346363009406352e-16 8.108985449048014e-17
vn 1 2.346363009406352e-16 -8.108985449048014e-17
usemtl m_dd40fa0f-c6e4-5cb1-fea9-4049104755ba
f 116/401/101 114/402/101 113/403/101 115/404/101
f 119/405/102 117/406/102 118/407/102 120/408/102
f 113/409/103 114/410/103 118/411/103 117/412/103
f 116/413/104 115/414/104 119/415/104 120/416/104
f 115/417/105 113/418/105 117/419/105 119/420/105
f 120/421/106 118/422/106 114/423/106 116/424/106
o rim
v -0.9892188048822401 -0.013877552875675853 0.8787333703218422
v -0.8787333703218421 -0.013877552875675853 0.9892188048822402
v -0.1457591389752355 -0.17091687789042517 0.03527370441483751
v -0.03527370441483748 -0.17091687789042515 0.14575913897523554
v -0.9834503076546615 0.048087750960187275 0.8729648730942635
v -0.8729648730942634 0.048087750960187275 0.9834503076546616
v -0.13999064174765696 -0.10895157405456202 0.02950520718725893
v -0.02950520718725893 -0.10895157405456199 0.13999064174765696
vt 0.6875 0.40625
vt 0.6875 1
vt 0.59375 1
vt 0.59375 0.40625
vt 0.6875 0.40625
vt 0.6875 1
vt 0.59375 1
vt 0.59375 0.40625
vt 0.5 0.90625
vt 0.5 1
vt 0.46875 1
vt 0.46875 0.90625
vt 0.5 0.90625
vt 0.5 1
vt 0.46875 1
vt 0.46875 0.90625
vt 0.59375 0.75
vt 0 0.75
vt 0 0.71875
vt 0.59375 0.71875
vt 0.59375 0.75
vt 0 0.75
vt 0 0.71875
vt 0.59375 0.71875
vn -0.09229595564125702 -0.9914448613738105 0.09229595564125719
vn 0.09229595564125702 0.9914448613738105 -0.09229595564125719
vn -0.7010573846499779 0.13052619222005124 0.7010573846499779
vn 0.7010573846499779 -0.13052619222005124 -0.7010573846499779
vn -0.7071067811865476 -2.6367796834847473e-16 -0.7071067811865475
vn 0.7071067811865476 2.6367796834847473e-16 0.7071067811865475
usemtl m_dd40fa0f-c6e4-5cb1-fea9-4049104755ba
f 124/425/107 122/426/107 121/427/107 123/428/107
f 127/429/108 125/430/108 126/431/108 128/432/108
f 121/433/109 122/434/109 126/435/109 125/436/109
f 124/437/110 123/438/110 127/439/110 128/440/110
f 123/441/111 121/442/111 125/443/111 127/444/111
f 128/445/112 126/446/112 122/447/112 124/448/112
o rim
v -1.3126837630052155 -0.04808775096018758 -0.07812500000000003
v -1.3126837630052155 -0.04808775096018758 0.07812499999999997
v -0.11985166416484971 0.10895157405456199 -0.078125
v -0.11985166416484971 0.10895157405456196 0.078125
v -1.3208416500189688 0.013877552875675603 -0.07812500000000001
v -1.3208416500189688 0.013877552875675603 0.07812499999999999
v -0.1280095511786029 0.17091687789042515 -0.078125
v -0.1280095511786029 0.17091687789042512 0.078125
vt 0.6875 0.40625
vt 0.6875 1
vt 0.59375 1
vt 0.59375 0.40625
vt 0.6875 0.40625
vt 0.6875 1
vt 0.59375 1
vt 0.59375 0.40625
vt 0.5 0.90625
vt 0.5 1
vt 0.46875 1
vt 0.46875 0.90625
vt 0.5 0.90625
vt 0.5 1
vt 0.46875 1
vt 0.46875 0.90625
vt 0.59375 0.75
vt 0 0.75
vt 0 0.71875
vt 0.59375 0.71875
vt 0.59375 0.75
vt 0 0.75
vt 0 0.71875
vt 0.59375 0.71875
vn 0.13052619222005157 -0.9914448613738105 -1.2141697760125285e-16
vn -0.13052619222005157 0.9914448613738105 1.2141697760125285e-16
vn -0.9914448613738105 -0.13052619222005135 -1.5984848350717808e-17
vn 0.9914448613738105 0.13052619222005135 1.5984848350717808e-17
vn -9.24446373305873e-33 1.2246467991473532e-16 -1
vn 9.24446373305873e-33 -1.2246467991473532e-16 1
usemtl m_dd40fa0f-c6e4-5cb1-fea9-4049104755ba
f 132/449/113 130/450/113 129/451/113 131/452/113
f 135/453/114 133/454/114 134/455/114 136/456/114
f 129/457/115 130/458/115 134/459/115 133/460/115
f 132/461/116 131/462/116 135/463/116 136/464/116
f 131/465/117 129/466/117 133/467/117 135/468/117
f 136/469/118 134/470/118 130/471/118 132/472/118
o rim
v -0.8787333703218421 -0.013877552875675853 -0.9892188048822402
v -0.9892188048822401 -0.013877552875675853 -0.8787333703218422
v -0.03527370441483748 -0.17091687789042515 -0.14575913897523554
v -0.1457591389752355 -0.17091687789042517 -0.03527370441483751
v -0.8729648730942634 0.048087750960187275 -0.9834503076546616
v -0.9834503076546615 0.048087750960187275 -0.8729648730942635
v -0.02950520718725893 -0.10895157405456199 -0.13999064174765696
v -0.13999064174765696 -0.10895157405456202 -0.02950520718725893
vt 0.6875 0.40625
vt 0.6875 1
vt 0.59375 1
vt 0.59375 0.40625
vt 0.6875 0.40625
vt 0.6875 1
vt 0.59375 1
vt 0.59375 0.40625
vt 0.5 0.90625
vt 0.5 1
vt 0.46875 1
vt 0.46875 0.90625
vt 0.5 0.90625
vt 0.5 1
vt 0.46875 1
vt 0.46875 0.90625
vt 0.59375 0.75
vt 0 0.75
vt 0 0.71875
vt 0.59375 0.71875
vt 0.59375 0.75
vt 0 0.75
vt 0 0.71875
vt 0.59375 0.71875
vn -0.09229595564125702 -0.9914448613738105 -0.09229595564125719
vn 0.09229595564125702 0.9914448613738105 0.09229595564125719
vn -0.7010573846499779 0.13052619222005124 -0.7010573846499779
vn 0.7010573846499779 -0.13052619222005124 0.7010573846499779
vn 0.7071067811865476 2.6367796834847473e-16 -0.7071067811865475
vn -0.7071067811865476 -2.6367796834847473e-16 0.7071067811865475
usemtl m_dd40fa0f-c6e4-5cb1-fea9-4049104755ba
f 140/473/119 138/474/119 137/475/119 139/476/119
f 143/477/120 141/478/120 142/479/120 144/480/120
f 137/481/121 138/482/121 142/483/121 141/484/121
f 140/485/122 139/486/122 143/487/122 144/488/122
f 139/489/123 137/490/123 141/491/123 143/492/123
f 144/493/124 142/494/124 138/495/124 140/496/124
o rim
v 0.07812500000000014 -0.04808775096018697 -1.3126837630052153
v -0.07812499999999983 -0.04808775096018697 -1.3126837630052153
v 0.078125 0.10895157405456204 -0.11985166416484969
v -0.07812499999999997 0.10895157405456202 -0.11985166416484971
v 0.07812500000000012 0.013877552875676158 -1.3208416500189686
v -0.07812499999999985 0.013877552875676158 -1.3208416500189686
v 0.078125 0.1709168778904252 -0.12800955117860288
v -0.07812499999999997 0.17091687789042517 -0.12800955117860294
vt 0.6875 0.40625
vt 0.6875 1
vt 0.59375 1
vt 0.59375 0.40625
vt 0.6875 0.40625
vt 0.6875 1
vt 0.59375 1
vt 0.59375 0.40625
vt 0.5 0.90625
vt 0.5 1
vt 0.46875 1
vt 0.46875 0.90625
vt 0.5 0.90625
vt 0.5 1
vt 0.46875 1
vt 0.46875 0.90625
vt 0.59375 0.75
vt 0 0.75
vt 0 0.71875
vt 0.59375 0.71875
vt 0.59375 0.75
vt 0 0.75
vt 0 0.71875
vt 0.59375 0.71875
vn 8.108985449048014e-17 -0.9914448613738105 0.13052619222005113
vn -8.108985449048014e-17 0.9914448613738105 -0.13052619222005113
vn 2.346363009406352e-16 -0.13052619222005124 -0.9914448613738105
vn -2.346363009406352e-16 0.13052619222005124 0.9914448613738105
vn 1 2.346363009406352e-16 8.108985449048014e-17
vn -1 -2.346363009406352e-16 -8.108985449048014e-17
usemtl m_dd40fa0f-c6e4-5cb1-fea9-4049104755ba
f 148/497/125 146/498/125 145/499/125 147/500/125
f 151/501/126 149/502/126 150/503/126 152/504/126
f 145/505/127 146/506/127 150/507/127 149/508/127
f 148/509/128 147/510/128 151/511/128 152/512/128
f 147/513/129 145/514/129 149/515/129 151/516/129
f 152/517/130 150/518/130 146/519/130 148/520/130
o rim
v -0.26362750000000007 0.24999999999999997 1.325343125
v -0.26362749999999996 -0.25000000000000006 1.325343125
v -0.750746875 0.24999999999999992 1.123571875
v -0.750746875 -0.2500000000000001 1.123571875
v -1.123571875 0.24999999999999986 0.750746875
v -1.123571875 -0.2500000000000001 0.750746875
v -1.325343125 0.24999999999999983 0.2636275
v -1.325343125 -0.25000000000000017 0.2636275
v -1.325343125 0.24999999999999983 -0.2636275
v -1.325343125 -0.25000000000000017 -0.2636275
v -1.123571875 0.24999999999999986 -0.750746875
v -1.123571875 -0.2500000000000001 -0.750746875
v -0.750746875 0.24999999999999992 -1.123571875
v -0.750746875 -0.2500000000000001 -1.123571875
v -0.26362750000000007 0.24999999999999997 -1.325343125
v -0.26362749999999996 -0.25000000000000006 -1.325343125
v 0.26362749999999996 0.25000000000000006 -1.325343125
v 0.26362750000000007 -0.24999999999999997 -1.325343125
v 0.750746875 0.2500000000000001 -1.123571875
v 0.750746875 -0.24999999999999992 -1.123571875
v 1.123571875 0.2500000000000001 -0.750746875
v 1.123571875 -0.24999999999999986 -0.750746875
v 1.325343125 0.25000000000000017 -0.2636275
v 1.325343125 -0.24999999999999983 -0.2636275
v 1.325343125 0.25000000000000017 0.2636275
v 1.325343125 -0.24999999999999983 0.2636275
v 1.123571875 0.2500000000000001 0.750746875
v 1.123571875 -0.24999999999999986 0.750746875
v 0.750746875 0.2500000000000001 1.123571875
v 0.750746875 -0.24999999999999992 1.123571875
v 0.26362749999999996 0.25000000000000006 1.325343125
v 0.26362750000000007 -0.24999999999999997 1.325343125
vt 0.53125 0.71875
vt 0.28125 0.71875
vt 0.28125 0.46875
vt 0.53125 0.46875
vt 0.53125 0.71875
vt 0.28125 0.71875
vt 0.28125 0.46875
vt 0.53125 0.46875
vt 0.53125 0.71875
vt 0.28125 0.71875
vt 0.28125 0.46875
vt 0.53125 0.46875
vt 0.53125 0.71875
vt 0.28125 0.71875
vt 0.28125 0.46875
vt 0.53125 0.46875
vt 0.53125 0.71875
vt 0.28125 0.71875
vt 0.28125 0.46875
vt 0.53125 0.46875
vt 0.53125 0.71875
vt 0.28125 0.71875
vt 0.28125 0.46875
vt 0.53125 0.46875
vt 0.53125 0.71875
vt 0.28125 0.71875
vt 0.28125 0.46875
vt 0.53125 0.46875
vt 0.53125 0.71875
vt 0.28125 0.71875
vt 0.28125 0.46875
vt 0.53125 0.46875
vt 0.53125 0.71875
vt 0.28125 0.71875
vt 0.28125 0.46875
vt 0.53125 0.46875
vt 0.53125 0.71875
vt 0.28125 0.71875
vt 0.28125 0.46875
vt 0.53125 0.46875
vt 0.53125 0.71875
vt 0.28125 0.71875
vt 0.28125 0.46875
vt 0.53125 0.46875
vt 0.53125 0.71875
vt 0.28125 0.71875
vt 0.28125 0.46875
vt 0.53125 0.46875
vt 0.53125 0.71875
vt 0.28125 0.71875
vt 0.28125 0.46875
vt 0.53125 0.46875
vt 0.53125 0.71875
vt 0.28125 0.71875
vt 0.28125 0.46875
vt 0.53125 0.46875
vt 0.53125 0.71875
vt 0.28125 0.71875
vt 0.28125 0.46875
vt 0.53125 0.46875
vt 0.53125 0.71875
vt 0.28125 0.71875
vt 0.28125 0.46875
vt 0.53125 0.46875
vn 0.38268310596993327 4.6865164081384615e-17 -0.9238796677085199
vn 0.7071067811865476 8.659560562354934e-17 -0.7071067811865476
vn 0.9238796677085199 1.1314262778565592e-16 -0.38268310596993327
vn 1 1.2246467991473532e-16 0
vn 0.9238796677085199 1.1314262778565592e-16 0.38268310596993327
vn 0.7071067811865476 8.659560562354934e-17 0.7071067811865476
vn 0.38268310596993327 4.6865164081384615e-17 0.9238796677085199
vn 0 0 1
vn -0.38268310596993327 -4.6865164081384615e-17 0.9238796677085199
vn -0.7071067811865476 -8.659560562354934e-17 0.7071067811865476
vn -0.9238796677085199 -1.1314262778565592e-16 0.38268310596993327
vn -1 -1.2246467991473532e-16 0
vn -0.9238796677085199 -1.1314262778565592e-16 -0.38268310596993327
vn -0.7071067811865476 -8.659560562354934e-17 -0.7071067811865476
vn -0.38268310596993327 -4.6865164081384615e-17 -0.9238796677085199
vn 0 0 -1
usemtl m_dd40fa0f-c6e4-5cb1-fea9-4049104755ba
f 154/521/131 156/522/131 155/523/131 153/524/131
f 156/525/132 158/526/132 157/527/132 155/528/132
f 158/529/133 160/530/133 159/531/133 157/532/133
f 160/533/134 162/534/134 161/535/134 159/536/134
f 162/537/135 164/538/135 163/539/135 161/540/135
f 164/541/136 166/542/136 165/543/136 163/544/136
f 166/545/137 168/546/137 167/547/137 165/548/137
f 168/549/138 170/550/138 169/551/138 167/552/138
f 170/553/139 172/554/139 171/555/139 169/556/139
f 172/557/140 174/558/140 173/559/140 171/560/140
f 174/561/141 176/562/141 175/563/141 173/564/141
f 176/565/142 178/566/142 177/567/142 175/568/142
f 178/569/143 180/570/143 179/571/143 177/572/143
f 180/573/144 182/574/144 181/575/144 179/576/144
f 182/577/145 184/578/145 183/579/145 181/580/145
f 184/581/146 154/582/146 153/583/146 183/584/146
o tire
v -0.30147625 0.18749999999999997 1.515625
v -0.30147625 -0.18750000000000003 1.515625
v -0.288735 0.18749999999999997 1.451568125
v -0.288735 -0.18750000000000003 1.451568125
v -0.8585325 0.1874999999999999 1.284885
v -0.8585325 -0.1875000000000001 1.284885
v -0.822246875 0.1874999999999999 1.23058
v -0.822246875 -0.1875000000000001 1.23058
v -1.284885 0.18749999999999983 0.8585325
v -1.284885 -0.18750000000000017 0.8585325
v -1.23058 0.18749999999999986 0.822246875
v -1.23058 -0.18750000000000014 0.822246875
v -1.515625 0.1874999999999998 0.30147625
v -1.515625 -0.1875000000000002 0.30147625
v -1.451568125 0.18749999999999983 0.288735
v -1.451568125 -0.18750000000000017 0.288735
v -1.515625 0.1874999999999998 -0.30147625
v -1.515625 -0.1875000000000002 -0.30147625
v -1.451568125 0.18749999999999983 -0.288735
v -1.451568125 -0.18750000000000017 -0.288735
v -1.284885 0.18749999999999983 -0.8585325
v -1.284885 -0.18750000000000017 -0.8585325
v -1.23058 0.18749999999999986 -0.822246875
v -1.23058 -0.18750000000000014 -0.822246875
v -0.8585325 0.1874999999999999 -1.284885
v -0.8585325 -0.1875000000000001 -1.284885
v -0.822246875 0.1874999999999999 -1.23058
v -0.822246875 -0.1875000000000001 -1.23058
v -0.30147625 0.18749999999999997 -1.515625
v -0.30147625 -0.18750000000000003 -1.515625
v -0.288735 0.18749999999999997 -1.451568125
v -0.288735 -0.18750000000000003 -1.451568125
v 0.30147625 0.18750000000000003 -1.515625
v 0.30147625 -0.18749999999999997 -1.515625
v 0.288735 0.18750000000000003 -1.451568125
v 0.288735 -0.18749999999999997 -1.451568125
v 0.8585325 0.1875000000000001 -1.284885
v 0.8585325 -0.1874999999999999 -1.284885
v 0.822246875 0.1875000000000001 -1.23058
v 0.822246875 -0.1874999999999999 -1.23058
v 1.284885 0.18750000000000017 -0.8585325
v 1.284885 -0.18749999999999983 -0.8585325
v 1.23058 0.18750000000000014 -0.822246875
v 1.23058 -0.18749999999999986 -0.822246875
v 1.515625 0.1875000000000002 -0.30147625
v 1.515625 -0.1874999999999998 -0.30147625
v 1.451568125 0.18750000000000017 -0.288735
v 1.451568125 -0.18749999999999983 -0.288735
v 1.515625 0.1875000000000002 0.30147625
v 1.515625 -0.1874999999999998 0.30147625
v 1.451568125 0.18750000000000017 0.288735
v 1.451568125 -0.18749999999999983 0.288735
v 1.284885 0.18750000000000017 0.8585325
v 1.284885 -0.18749999999999983 0.8585325
v 1.23058 0.18750000000000014 0.822246875
v 1.23058 -0.18749999999999986 0.822246875
v 0.8585325 0.1875000000000001 1.284885
v 0.8585325 -0.1874999999999999 1.284885
v 0.822246875 0.1875000000000001 1.23058
v 0.822246875 -0.1874999999999999 1.23058
v 0.30147625 0.18750000000000003 1.515625
v 0.30147625 -0.18749999999999997 1.515625
v 0.288735 0.18750000000000003 1.451568125
v 0.288735 -0.18749999999999997 1.451568125
vt 0 0.28125
vt 0.3125 0.28125
vt 0.3125 0.46875
vt 0 0.46875
vt 0.28125 0.28125
vt 0 0.28125
vt 0 0.09375
vt 0.28125 0.09375
vt 0.49339375 0.84375
vt 0.19410375 0.84375125
vt 0.1875 0.875
vt 0.5 0.87499625
vt 0.5 0.875
vt 0.1875 0.875
vt 0.194105 0.84375
vt 0.493395 0.8437525
vt 0 0.28125
vt 0.3125 0.28125
vt 0.3125 0.46875
vt 0 0.46875
vt 0.28125 0.28125
vt 0 0.28125
vt 0 0.09375
vt 0.28125 0.09375
vt 0.49339625 0.84375
vt 0.19410625 0.84375125
vt 0.1875 0.875
vt 0.5 0.875
vt 0.5 0.875
vt 0.1875 0.8749975
vt 0.19410625 0.84375
vt 0.49339625 0.84375
vt 0 0.28125
vt 0.3125 0.28125
vt 0.3125 0.46875
vt 0 0.46875
vt 0.28125 0.28125
vt 0 0.28125
vt 0 0.09375
vt 0.28125 0.09375
vt 0.49339875 0.84375
vt 0.194105 0.84375125
vt 0.1875 0.875
vt 0.5 0.87499875
vt 0.5 0.875
vt 0.1875 0.875
vt 0.194105 0.84375125
vt 0.49339875 0.84375
vt 0 0.28125
vt 0.3125 0.28125
vt 0.3125 0.46875
vt 0 0.46875
vt 0.28125 0.28125
vt 0 0.28125
vt 0 0.09375
vt 0.28125 0.09375
vt 0.49339875 0.84375
vt 0.19410125 0.84375125
vt 0.1875 0.875
vt 0.5 0.8749975
vt 0.5 0.875
vt 0.1875 0.8749975
vt 0.19410125 0.84375
vt 0.49339875 0.84375125
vt 0 0.28125
vt 0.3125 0.28125
vt 0.3125 0.46875
vt 0 0.46875
vt 0.28125 0.28125
vt 0 0.28125
vt 0 0.09375
vt 0.28125 0.09375
vt 0.49339375 0.84375
vt 0.194105 0.84375
vt 0.1875 0.875
vt 0.5 0.8749975
vt 0.5 0.875
vt 0.1875 0.8749975
vt 0.194105 0.84375
vt 0.493395 0.84375375
vt 0 0.28125
vt 0.3125 0.28125
vt 0.3125 0.46875
vt 0 0.46875
vt 0.28125 0.28125
vt 0 0.28125
vt 0 0.09375
vt 0.28125 0.09375
vt 0.49339625 0.84375
vt 0.19410625 0.84375
vt 0.1875 0.8749975
vt 0.5 0.875
vt 0.5 0.875
vt 0.1875 0.87499625
vt 0.19410625 0.84375
vt 0.4933975 0.84375125
vt 0 0.28125
vt 0.3125 0.28125
vt 0.3125 0.46875
vt 0 0.46875
vt 0.28125 0.28125
vt 0 0.28125
vt 0 0.09375
vt 0.28125 0.09375
vt 0.49339875 0.84375
vt 0.19410625 0.84375
vt 0.1875 0.87499875
vt 0.5 0.875
vt 0.5 0.875
vt 0.1875 0.8749975
vt 0.19410625 0.84375
vt 0.49339875 0.84375125
vt 0 0.28125
vt 0.3125 0.28125
vt 0.3125 0.46875
vt 0 0.46875
vt 0.28125 0.28125
vt 0 0.28125
vt 0 0.09375
vt 0.28125 0.09375
vt 0.49339875 0.84375
vt 0.19410125 0.84375
vt 0.1875 0.875
vt 0.5 0.875
vt 0.5 0.875
vt 0.1875 0.875
vt 0.19410125 0.84375
vt 0.49339875 0.84375
vt 0 0.28125
vt 0.3125 0.28125
vt 0.3125 0.46875
vt 0 0.46875
vt 0.28125 0.28125
vt 0 0.28125
vt 0 0.09375
vt 0.28125 0.09375
vt 0.49339375 0.84375
vt 0.19410375 0.84375125
vt 0.1875 0.875
vt 0.5 0.8749975
vt 0.5 0.875
vt 0.1875 0.875
vt 0.194105 0.84375
vt 0.493395 0.8437525
vt 0 0.28125
vt 0.3125 0.28125
vt 0.3125 0.46875
vt 0 0.46875
vt 0.28125 0.28125
vt 0 0.28125
vt 0 0.09375
vt 0.28125 0.09375
vt 0.49339625 0.84375
vt 0.19410625 0.84375125
vt 0.1875 0.87499875
vt 0.5 0.875
vt 0.5 0.875
vt 0.1875 0.8749975
vt 0.19410625 0.84375
vt 0.49339625 0.84375
vt 0 0.28125
vt 0.3125 0.28125
vt 0.3125 0.46875
vt 0 0.46875
vt 0.28125 0.28125
vt 0 0.28125
vt 0 0.09375
vt 0.28125 0.09375
vt 0.49339875 0.84375
vt 0.194105 0.84375125
vt 0.1875 0.875
vt 0.5 0.875
vt 0.5 0.8749975
vt 0.1875 0.875
vt 0.194105 0.8437525
vt 0.4933975 0.84375
vt 0 0.28125
vt 0.3125 0.28125
vt 0.3125 0.46875
vt 0 0.46875
vt 0.28125 0.28125
vt 0 0.28125
vt 0 0.09375
vt 0.28125 0.09375
vt 0.49339875 0.84375
vt 0.19410125 0.84375125
vt 0.1875 0.875
vt 0.5 0.87499875
vt 0.5 0.875
vt 0.1875 0.87499875
vt 0.19410125 0.84375
vt 0.49339875 0.84375125
vt 0 0.28125
vt 0.3125 0.28125
vt 0.3125 0.46875
vt 0 0.46875
vt 0.28125 0.28125
vt 0 0.28125
vt 0 0.09375
vt 0.28125 0.09375
vt 0.493395 0.8437525
vt 0.194105 0.84375
vt 0.1875 0.875
vt 0.5 0.875
vt 0.5 0.875
vt 0.1875 0.87499875
vt 0.194105 0.84375
vt 0.493395 0.8437525
vt 0 0.28125
vt 0.3125 0.28125
vt 0.3125 0.46875
vt 0 0.46875
vt 0.28125 0.28125
vt 0 0.28125
vt 0 0.09375
vt 0.28125 0.09375
vt 0.49339625 0.84375
vt 0.19410625 0.84375
vt 0.1875 0.8749975
vt 0.5 0.875
vt 0.5 0.875
vt 0.1875 0.8749975
vt 0.19410625 0.84375
vt 0.49339625 0.84375
vt 0 0.28125
vt 0.3125 0.28125
vt 0.3125 0.46875
vt 0 0.46875
vt 0.28125 0.28125
vt 0 0.28125
vt 0 0.09375
vt 0.28125 0.09375
vt 0.49339875 0.84375
vt 0.19410625 0.84375
vt 0.1875 0.87499875
vt 0.5 0.875
vt 0.5 0.875
vt 0.1875 0.87499875
vt 0.19410625 0.84375
vt 0.49339875 0.84375
vt 0 0.28125
vt 0.3125 0.28125
vt 0.3125 0.46875
vt 0 0.46875
vt 0.28125 0.28125
vt 0 0.28125
vt 0 0.09375
vt 0.28125 0.09375
vt 0.49339875 0.84375
vt 0.19410125 0.84375
vt 0.1875 0.875
vt 0.5 0.875
vt 0.5 0.875
vt 0.1875 0.875
vt 0.19410125 0.84375
vt 0.49339875 0.84375
vn -0.38268307314453265 -4.686516006143243e-17 0.9238796813052316
vn 0.3826838324670457 4.6865253051620943e-17 -0.923879366783529
vn -1.2246467991473532e-16 1 0
vn 1.2246467991473532e-16 -1 0
vn -0.7071067811865476 -8.659560562354934e-17 0.7071067811865476
vn 0.7071067811865476 8.659560562354934e-17 -0.7071067811865476
vn -1.2246467991473532e-16 1 0
vn 1.2246467991473532e-16 -1 0
vn -0.9238796813052316 -1.1314262945077287e-16 0.38268307314453265
vn 0.923879366783529 1.1314259093297322e-16 -0.3826838324670457
vn -1.2246467991473532e-16 1 0
vn 1.2246467991473532e-16 -1 0
vn -1 -1.2246467991473532e-16 0
vn 1 1.2246467991473532e-16 0
vn -1.2246467991473532e-16 1 0
vn 1.2246467991473532e-16 -1 0
vn -0.9238796813052316 -1.1314262945077287e-16 -0.38268307314453265
vn 0.923879366783529 1.1314259093297322e-16 0.3826838324670457
vn -1.2246467991473532e-16 1 0
vn 1.2246467991473532e-16 -1 0
vn -0.7071067811865476 -8.659560562354934e-17 -0.7071067811865476
vn 0.7071067811865476 8.659560562354934e-17 0.7071067811865476
vn -1.2246467991473532e-16 1 0
vn 1.2246467991473532e-16 -1 0
vn -0.38268307314453265 -4.686516006143243e-17 -0.9238796813052316
vn 0.3826838324670457 4.6865253051620943e-17 0.923879366783529
vn -1.2246467991473532e-16 1 0
vn 1.2246467991473532e-16 -1 0
vn 0 0 -1
vn 0 0 1
vn -1.2246467991473532e-16 1 0
vn 1.2246467991473532e-16 -1 0
vn 0.38268307314453265 4.686516006143243e-17 -0.9238796813052316
vn -0.3826838324670457 -4.6865253051620943e-17 0.923879366783529
vn -1.2246467991473532e-16 1 0
vn 1.2246467991473532e-16 -1 0
vn 0.7071067811865476 8.659560562354934e-17 -0.7071067811865476
vn -0.7071067811865476 -8.659560562354934e-17 0.7071067811865476
vn -1.2246467991473532e-16 1 0
vn 1.2246467991473532e-16 -1 0
vn 0.9238796813052316 1.1314262945077287e-16 -0.38268307314453265
vn -0.923879366783529 -1.1314259093297322e-16 0.3826838324670457
vn -1.2246467991473532e-16 1 0
vn 1.2246467991473532e-16 -1 0
vn 1 1.2246467991473532e-16 0
vn -1 -1.2246467991473532e-16 0
vn -1.2246467991473532e-16 1 0
vn 1.2246467991473532e-16 -1 0
vn 0.9238796813052316 1.1314262945077287e-16 0.38268307314453265
vn -0.923879366783529 -1.1314259093297322e-16 -0.3826838324670457
vn -1.2246467991473532e-16 1 0
vn 1.2246467991473532e-16 -1 0
vn 0.7071067811865476 8.659560562354934e-17 0.7071067811865476
vn -0.7071067811865476 -8.659560562354934e-17 -0.7071067811865476
vn -1.2246467991473532e-16 1 0
vn 1.2246467991473532e-16 -1 0
vn 0.38268307314453265 4.686516006143243e-17 0.9238796813052316
vn -0.3826838324670457 -4.6865253051620943e-17 -0.923879366783529
vn -1.2246467991473532e-16 1 0
vn 1.2246467991473532e-16 -1 0
vn 0 0 1
vn 0 0 -1
vn -1.2246467991473532e-16 1 0
vn 1.2246467991473532e-16 -1 0
usemtl m_dd40fa0f-c6e4-5cb1-fea9-4049104755ba
f 185/585/147 189/586/147 190/587/147 186/588/147
f 188/589/148 192/590/148 191/591/148 187/592/148
f 187/593/149 191/594/149 189/595/149 185/596/149
f 186/597/150 190/598/150 192/599/150 188/600/150
f 189/601/151 193/602/151 194/603/151 190/604/151
f 192/605/152 196/606/152 195/607/152 191/608/152
f 191/609/153 195/610/153 193/611/153 189/612/153
f 190/613/154 194/614/154 196/615/154 192/616/154
f 193/617/155 197/618/155 198/619/155 194/620/155
f 196/621/156 200/622/156 199/623/156 195/624/156
f 195/625/157 199/626/157 197/627/157 193/628/157
f 194/629/158 198/630/158 200/631/158 196/632/158
f 197/633/159 201/634/159 202/635/159 198/636/159
f 200/637/160 204/638/160 203/639/160 199/640/160
f 199/641/161 203/642/161 201/643/161 197/644/161
f 198/645/162 202/646/162 204/647/162 200/648/162
f 201/649/163 205/650/163 206/651/163 202/652/163
f 204/653/164 208/654/164 207/655/164 203/656/164
f 203/657/165 207/658/165 205/659/165 201/660/165
f 202/661/166 206/662/166 208/663/166 204/664/166
f 205/665/167 209/666/167 210/667/167 206/668/167
f 208/669/168 212/670/168 211/671/168 207/672/168
f 207/673/169 211/674/169 209/675/169 205/676/169
f 206/677/170 210/678/170 212/679/170 208/680/170
f 209/681/171 213/682/171 214/683/171 210/684/171
f 212/685/172 216/686/172 215/687/172 211/688/172
f 211/689/173 215/690/173 213/691/173 209/692/173
f 210/693/174 214/694/174 216/695/174 212/696/174
f 213/697/175 217/698/175 218/699/175 214/700/175
f 216/701/176 220/702/176 219/703/176 215/704/176
f 215/705/177 219/706/177 217/707/177 213/708/177
f 214/709/178 218/710/178 220/711/178 216/712/178
f 217/713/179 221/714/179 222/715/179 218/716/179
f 220/717/180 224/718/180 223/719/180 219/720/180
f 219/721/181 223/722/181 221/723/181 217/724/181
f 218/725/182 222/726/182 224/727/182 220/728/182
f 221/729/183 225/730/183 226/731/183 222/732/183
f 224/733/184 228/734/184 227/735/184 223/736/184
f 223/737/185 227/738/185 225/739/185 221/740/185
f 222/741/186 226/742/186 228/743/186 224/744/186
f 225/745/187 229/746/187 230/747/187 226/748/187
f 228/749/188 232/750/188 231/751/188 227/752/188
f 227/753/189 231/754/189 229/755/189 225/756/189
f 226/757/190 230/758/190 232/759/190 228/760/190
f 229/761/191 233/762/191 234/763/191 230/764/191
f 232/765/192 236/766/192 235/767/192 231/768/192
f 231/769/193 235/770/193 233/771/193 229/772/193
f 230/773/194 234/774/194 236/775/194 232/776/194
f 233/777/195 237/778/195 238/779/195 234/780/195
f 236/781/196 240/782/196 239/783/196 235/784/196
f 235/785/197 239/786/197 237/787/197 233/788/197
f 234/789/198 238/790/198 240/791/198 236/792/198
f 237/793/199 241/794/199 242/795/199 238/796/199
f 240/797/200 244/798/200 243/799/200 239/800/200
f 239/801/201 243/802/201 241/803/201 237/804/201
f 238/805/202 242/806/202 244/807/202 240/808/202
f 241/809/203 245/810/203 246/811/203 242/812/203
f 244/813/204 248/814/204 247/815/204 243/816/204
f 243/817/205 247/818/205 245/819/205 241/820/205
f 242/821/206 246/822/206 248/823/206 244/824/206
f 245/825/207 185/826/207 186/827/207 246/828/207
f 248/829/208 188/830/208 187/831/208 247/832/208
f 247/833/209 187/834/209 185/835/209 245/836/209
f 246/837/210 186/838/210 188/839/210 248/840/210
o tire
v -0.2890443750000001 0.24999999999999997 1.453125
v -0.28904437499999996 -0.25000000000000006 1.453125
v -0.26362750000000007 0.24999999999999997 1.325343125
v -0.26362749999999996 -0.25000000000000006 1.325343125
v -0.823129375 0.2499999999999999 1.2319
v -0.823129375 -0.2500000000000001 1.2319
v -0.750746875 0.24999999999999992 1.123571875
v -0.750746875 -0.2500000000000001 1.123571875
v -1.2319 0.24999999999999986 0.823129375
v -1.2319 -0.25000000000000017 0.823129375
v -1.123571875 0.24999999999999986 0.750746875
v -1.123571875 -0.2500000000000001 0.750746875
v -1.453125 0.24999999999999983 0.289044375
v -1.453125 -0.25000000000000017 0.289044375
v -1.325343125 0.24999999999999983 0.2636275
v -1.325343125 -0.25000000000000017 0.2636275
v -1.453125 0.24999999999999983 -0.289044375
v -1.453125 -0.25000000000000017 -0.289044375
v -1.325343125 0.24999999999999983 -0.2636275
v -1.325343125 -0.25000000000000017 -0.2636275
v -1.2319 0.24999999999999986 -0.823129375
v -1.2319 -0.25000000000000017 -0.823129375
v -1.123571875 0.24999999999999986 -0.750746875
v -1.123571875 -0.2500000000000001 -0.750746875
v -0.823129375 0.2499999999999999 -1.2319
v -0.823129375 -0.2500000000000001 -1.2319
v -0.750746875 0.24999999999999992 -1.123571875
v -0.750746875 -0.2500000000000001 -1.123571875
v -0.2890443750000001 0.24999999999999997 -1.453125
v -0.28904437499999996 -0.25000000000000006 -1.453125
v -0.26362750000000007 0.24999999999999997 -1.325343125
v -0.26362749999999996 -0.25000000000000006 -1.325343125
v 0.28904437499999996 0.25000000000000006 -1.453125
v 0.2890443750000001 -0.24999999999999997 -1.453125
v 0.26362749999999996 0.25000000000000006 -1.325343125
v 0.26362750000000007 -0.24999999999999997 -1.325343125
v 0.823129375 0.2500000000000001 -1.2319
v 0.823129375 -0.2499999999999999 -1.2319
v 0.750746875 0.2500000000000001 -1.123571875
v 0.750746875 -0.24999999999999992 -1.123571875
v 1.2319 0.25000000000000017 -0.823129375
v 1.2319 -0.24999999999999986 -0.823129375
v 1.123571875 0.2500000000000001 -0.750746875
v 1.123571875 -0.24999999999999986 -0.750746875
v 1.453125 0.25000000000000017 -0.289044375
v 1.453125 -0.24999999999999983 -0.289044375
v 1.325343125 0.25000000000000017 -0.2636275
v 1.325343125 -0.24999999999999983 -0.2636275
v 1.453125 0.25000000000000017 0.289044375
v 1.453125 -0.24999999999999983 0.289044375
v 1.325343125 0.25000000000000017 0.2636275
v 1.325343125 -0.24999999999999983 0.2636275
v 1.2319 0.25000000000000017 0.823129375
v 1.2319 -0.24999999999999986 0.823129375
v 1.123571875 0.2500000000000001 0.750746875
v 1.123571875 -0.24999999999999986 0.750746875
v 0.823129375 0.2500000000000001 1.2319
v 0.823129375 -0.2499999999999999 1.2319
v 0.750746875 0.2500000000000001 1.123571875
v 0.750746875 -0.24999999999999992 1.123571875
v 0.28904437499999996 0.25000000000000006 1.453125
v 0.2890443750000001 -0.24999999999999997 1.453125
v 0.26362749999999996 0.25000000000000006 1.325343125
v 0.26362750000000007 -0.24999999999999997 1.325343125
vt 0 0.46875
vt 0.28125 0.46875
vt 0.28125 0.71875
vt 0 0.71875
vt 0.19986375 0.93750375
vt 0.45638 0.9375
vt 0.46875 0.999995
vt 0.1875 1
vt 0.46875 1
vt 0.1875 1
vt 0.19986875 0.9375
vt 0.456385 0.9375
vt 0 0.46875
vt 0.28125 0.46875
vt 0.28125 0.71875
vt 0 0.71875
vt 0.1998625 0.93750375
vt 0.45638375 0.9375
vt 0.46875 0.99999375
vt 0.1875 1
vt 0.46875 1
vt 0.1875 0.9999975
vt 0.19986625 0.9375
vt 0.4563875 0.9375
vt 0 0.46875
vt 0.28125 0.46875
vt 0.28125 0.71875
vt 0 0.71875
vt 0.19986625 0.93750375
vt 0.456385 0.9375
vt 0.46875 0.9999975
vt 0.1875 1
vt 0.46875 1
vt 0.1875 1
vt 0.199865 0.9375
vt 0.45638375 0.93750125
vt 0 0.46875
vt 0.28125 0.46875
vt 0.28125 0.71875
vt 0 0.71875
vt 0.19986625 0.93750125
vt 0.4563825 0.9375
vt 0.46875 0.9999975
vt 0.1875 1
vt 0.46875 0.9999975
vt 0.1875 1
vt 0.19986625 0.93750125
vt 0.4563825 0.9375
vt 0 0.46875
vt 0.28125 0.46875
vt 0.28125 0.71875
vt 0 0.71875
vt 0.199865 0.9375
vt 0.45638125 0.9375
vt 0.46875 0.99999875
vt 0.1875 1
vt 0.46875 0.99999625
vt 0.1875 1
vt 0.1998675 0.93750375
vt 0.45638375 0.9375
vt 0 0.46875
vt 0.28125 0.46875
vt 0.28125 0.71875
vt 0 0.71875
vt 0.1998625 0.9375
vt 0.45638375 0.9375
vt 0.46875 0.9999975
vt 0.1875 1
vt 0.46875 1
vt 0.1875 0.9999975
vt 0.19986625 0.9375
vt 0.4563875 0.9375
vt 0 0.46875
vt 0.28125 0.46875
vt 0.28125 0.71875
vt 0 0.71875
vt 0.19986625 0.9375
vt 0.456385 0.9375
vt 0.46875 1
vt 0.1875 0.9999975
vt 0.46875 0.99999625
vt 0.1875 1
vt 0.19986375 0.93750125
vt 0.4563825 0.9375
vt 0 0.46875
vt 0.28125 0.46875
vt 0.28125 0.71875
vt 0 0.71875
vt 0.19986625 0.9375
vt 0.45638375 0.9375
vt 0.46875 1
vt 0.1875 1
vt 0.46875 1
vt 0.1875 1
vt 0.19986625 0.9375
vt 0.45638375 0.9375
vt 0 0.46875
vt 0.28125 0.46875
vt 0.28125 0.71875
vt 0 0.71875
vt 0.199865 0.93750125
vt 0.45638 0.9375
vt 0.46875 0.9999975
vt 0.1875 1
vt 0.46875 1
vt 0.1875 1
vt 0.19986875 0.9375
vt 0.456385 0.9375
vt 0 0.46875
vt 0.28125 0.46875
vt 0.28125 0.71875
vt 0 0.71875
vt 0.1998625 0.93750125
vt 0.45638375 0.9375
vt 0.46875 0.99999625
vt 0.1875 1
vt 0.46875 1
vt 0.1875 0.9999975
vt 0.19986625 0.9375
vt 0.4563875 0.9375
vt 0 0.46875
vt 0.28125 0.46875
vt 0.28125 0.71875
vt 0 0.71875
vt 0.19986625 0.93750125
vt 0.456385 0.9375
vt 0.46875 1
vt 0.1875 1
vt 0.46875 1
vt 0.1875 1
vt 0.199865 0.9375
vt 0.45638375 0.93750125
vt 0 0.46875
vt 0.28125 0.46875
vt 0.28125 0.71875
vt 0 0.71875
vt 0.19986625 0.93750125
vt 0.4563825 0.9375
vt 0.46875 0.9999975
vt 0.1875 1
vt 0.46875 0.9999975
vt 0.1875 1
vt 0.19986625 0.93750125
vt 0.4563825 0.9375
vt 0 0.46875
vt 0.28125 0.46875
vt 0.28125 0.71875
vt 0 0.71875
vt 0.199865 0.9375
vt 0.45638125 0.9375
vt 0.46875 0.99999875
vt 0.1875 1
vt 0.46875 0.9999975
vt 0.1875 1
vt 0.19986875 0.9375025
vt 0.456385 0.9375
vt 0 0.46875
vt 0.28125 0.46875
vt 0.28125 0.71875
vt 0 0.71875
vt 0.1998625 0.9375
vt 0.45638375 0.9375
vt 0.46875 0.9999975
vt 0.1875 1
vt 0.46875 1
vt 0.1875 1
vt 0.199865 0.93750125
vt 0.45638625 0.9375
vt 0 0.46875
vt 0.28125 0.46875
vt 0.28125 0.71875
vt 0 0.71875
vt 0.19986625 0.9375
vt 0.456385 0.9375
vt 0.46875 1
vt 0.1875 0.9999975
vt 0.46875 0.9999975
vt 0.1875 1
vt 0.199865 0.9375
vt 0.45638375 0.9375
vt 0 0.46875
vt 0.28125 0.46875
vt 0.28125 0.71875
vt 0 0.71875
vt 0.19986625 0.9375
vt 0.45638375 0.9375
vt 0.46875 1
vt 0.1875 1
vt 0.46875 1
vt 0.1875 1
vt 0.19986625 0.9375
vt 0.45638375 0.9375
vn -0.38268306255887885 -4.686515876506373e-17 0.9238796856899483
vn -1.2246467991473532e-16 1 0
vn 1.2246467991473532e-16 -1 0
vn -0.7071067811865476 -8.659560562354934e-17 0.7071067811865476
vn -1.2246467991473532e-16 1 0
vn 1.2246467991473532e-16 -1 0
vn -0.9238796856899483 -1.1314262998774578e-16 0.38268306255887885
vn -1.2246467991473532e-16 1 0
vn 1.2246467991473532e-16 -1 0
vn -1 -1.2246467991473532e-16 0
vn -1.2246467991473532e-16 1 0
vn 1.2246467991473532e-16 -1 0
vn -0.9238796856899483 -1.1314262998774578e-16 -0.38268306255887885
vn -1.2246467991473532e-16 1 0
vn 1.2246467991473532e-16 -1 0
vn -0.7071067811865476 -8.659560562354934e-17 -0.7071067811865476
vn -1.2246467991473532e-16 1 0
vn 1.2246467991473532e-16 -1 0
vn -0.38268306255887885 -4.686515876506373e-17 -0.9238796856899483
vn -1.2246467991473532e-16 1 0
vn 1.2246467991473532e-16 -1 0
vn 0 0 -1
vn -1.2246467991473532e-16 1 0
vn 1.2246467991473532e-16 -1 0
vn 0.38268306255887885 4.686515876506373e-17 -0.9238796856899483
vn -1.2246467991473532e-16 1 0
vn 1.2246467991473532e-16 -1 0
vn 0.7071067811865476 8.659560562354934e-17 -0.7071067811865476
vn -1.2246467991473532e-16 1 0
vn 1.2246467991473532e-16 -1 0
vn 0.9238796856899483 1.1314262998774578e-16 -0.38268306255887885
vn -1.2246467991473532e-16 1 0
vn 1.2246467991473532e-16 -1 0
vn 1 1.2246467991473532e-16 0
vn -1.2246467991473532e-16 1 0
vn 1.2246467991473532e-16 -1 0
vn 0.9238796856899483 1.1314262998774578e-16 0.38268306255887885
vn -1.2246467991473532e-16 1 0
vn 1.2246467991473532e-16 -1 0
vn 0.7071067811865476 8.659560562354934e-17 0.7071067811865476
vn -1.2246467991473532e-16 1 0
vn 1.2246467991473532e-16 -1 0
vn 0.38268306255887885 4.686515876506373e-17 0.9238796856899483
vn -1.2246467991473532e-16 1 0
vn 1.2246467991473532e-16 -1 0
vn 0 0 1
vn -1.2246467991473532e-16 1 0
vn 1.2246467991473532e-16 -1 0
usemtl m_dd40fa0f-c6e4-5cb1-fea9-4049104755ba
f 249/841/211 253/842/211 254/843/211 250/844/211
f 251/845/212 255/846/212 253/847/212 249/848/212
f 250/849/213 254/850/213 256/851/213 252/852/213
f 253/853/214 257/854/214 258/855/214 254/856/214
f 255/857/215 259/858/215 257/859/215 253/860/215
f 254/861/216 258/862/216 260/863/216 256/864/216
f 257/865/217 261/866/217 262/867/217 258/868/217
f 259/869/218 263/870/218 261/871/218 257/872/218
f 258/873/219 262/874/219 264/875/219 260/876/219
f 261/877/220 265/878/220 266/879/220 262/880/220
f 263/881/221 267/882/221 265/883/221 261/884/221
f 262/885/222 266/886/222 268/887/222 264/888/222
f 265/889/223 269/890/223 270/891/223 266/892/223
f 267/893/224 271/894/224 269/895/224 265/896/224
f 266/897/225 270/898/225 272/899/225 268/900/225
f 269/901/226 273/902/226 274/903/226 270/904/226
f 271/905/227 275/906/227 273/907/227 269/908/227
f 270/909/228 274/910/228 276/911/228 272/912/228
f 273/913/229 277/914/229 278/915/229 274/916/229
f 275/917/230 279/918/230 277/919/230 273/920/230
f 274/921/231 278/922/231 280/923/231 276/924/231
f 277/925/232 281/926/232 282/927/232 278/928/232
f 279/929/233 283/930/233 281/931/233 277/932/233
f 278/933/234 282/934/234 284/935/234 280/936/234
f 281/937/235 285/938/235 286/939/235 282/940/235
f 283/941/236 287/942/236 285/943/236 281/944/236
f 282/945/237 286/946/237 288/947/237 284/948/237
f 285/949/238 289/950/238 290/951/238 286/952/238
f 287/953/239 291/954/239 289/955/239 285/956/239
f 286/957/240 290/958/240 292/959/240 288/960/240
f 289/961/241 293/962/241 294/963/241 290/964/241
f 291/965/242 295/966/242 293/967/242 289/968/242
f 290/969/243 294/970/243 296/971/243 292/972/243
f 293/973/244 297/974/244 298/975/244 294/976/244
f 295/977/245 299/978/245 297/979/245 293/980/245
f 294/981/246 298/982/246 300/983/246 296/984/246
f 297/985/247 301/986/247 302/987/247 298/988/247
f 299/989/248 303/990/248 301/991/248 297/992/248
f 298/993/249 302/994/249 304/995/249 300/996/249
f 301/997/250 305/998/250 306/999/250 302/1000/250
f 303/1001/251 307/1002/251 305/1003/251 301/1004/251
f 302/1005/252 306/1006/252 308/1007/252 304/1008/252
f 305/1009/253 309/1010/253 310/1011/253 306/1012/253
f 307/1013/254 311/1014/254 309/1015/254 305/1016/254
f 306/1017/255 310/1018/255 312/1019/255 308/1020/255
f 309/1021/256 249/1022/256 250/1023/256 310/1024/256
f 311/1025/257 251/1026/257 249/1027/257 309/1028/257
f 310/1029/258 250/1030/258 252/1031/258 312/1032/258