# Made in Blockbench 5.1.5
mtllib huge_rowing_tire.mtl

o shaft
v 0 -1.25 0
v 0 1.25 0
v 0.552645 -1.25 2.0625
v 0.552645 1.25 2.0625
v 1.509855 -1.25 1.509855
v 1.509855 1.25 1.509855
v 2.0625 -1.25 0.552645
v 2.0625 1.25 0.552645
v 2.0625 -1.25 -0.552645
v 2.0625 1.25 -0.552645
v 1.509855 -1.25 -1.509855
v 1.509855 1.25 -1.509855
v 0.552645 -1.25 -2.0625
v 0.552645 1.25 -2.0625
v -0.552645 -1.25 -2.0625
v -0.552645 1.25 -2.0625
v -1.509855 -1.25 -1.509855
v -1.509855 1.25 -1.509855
v -2.0625 -1.25 -0.552645
v -2.0625 1.25 -0.552645
v -2.0625 -1.25 0.552645
v -2.0625 1.25 0.552645
v -1.509855 -1.25 1.509855
v -1.509855 1.25 1.509855
v -0.552645 -1.25 2.0625
v -0.552645 1.25 2.0625
vt 0.460942265625 0.8124069921875
vt 0.40141125 0.8467771875
vt 0.367041015625 0.718505703125
vt 0 0.4375
vt 0.03515625 0.4375
vt 0.03515625 0.578125
vt 0 0.578125
vt 0.40141125 0.8467775
vt 0.460942265625 0.812407265625
vt 0.367041015625 0.718506015625
vt 0.4953125 0.7528759375
vt 0.460942265625 0.8124069921875
vt 0.367041015625 0.718505703125
vt 0 0.4375
vt 0.03515625 0.4375
vt 0.03515625 0.578125
vt 0 0.578125
vt 0.460942265625 0.812407265625
vt 0.4953125 0.7528762109375
vt 0.367041015625 0.718506015625
vt 0.4953125 0.6841355078125
vt 0.4953125 0.7528759375
vt 0.367041015625 0.718505703125
vt 0 0.4375
vt 0.03515625 0.4375
vt 0.03515625 0.578125
vt 0 0.578125
vt 0.4953125 0.7528762109375
vt 0.4953125 0.68413578125
vt 0.367041015625 0.718506015625
vt 0.460942265625 0.624604453125
vt 0.4953125 0.6841355078125
vt 0.367041015625 0.718505703125
vt 0 0.4375
vt 0.03515625 0.4375
vt 0.03515625 0.578125
vt 0 0.578125
vt 0.4953125 0.68413578125
vt 0.460942265625 0.6246047265625
vt 0.367041015625 0.718506015625
vt 0.40141125 0.59023421875
vt 0.460942265625 0.624604453125
vt 0.367041015625 0.718505703125
vt 0 0.4375
vt 0.03515625 0.4375
vt 0.03515625 0.578125
vt 0 0.578125
vt 0.460942265625 0.6246047265625
vt 0.40141125 0.59023453125
vt 0.367041015625 0.718506015625
vt 0.33267078125 0.59023421875
vt 0.40141125 0.59023421875
vt 0.367041015625 0.718505703125
vt 0 0.4375
vt 0.03515625 0.4375
vt 0.03515625 0.578125
vt 0 0.578125
vt 0.40141125 0.59023453125
vt 0.33267078125 0.59023453125
vt 0.367041015625 0.718506015625
vt 0.273139765625 0.624604453125
vt 0.33267078125 0.59023421875
vt 0.367041015625 0.718505703125
vt 0 0.4375
vt 0.03515625 0.4375
vt 0.03515625 0.578125
vt 0 0.578125
vt 0.33267078125 0.59023453125
vt 0.273139765625 0.6246047265625
vt 0.367041015625 0.718506015625
vt 0.23876953125 0.6841355078125
vt 0.273139765625 0.624604453125
vt 0.367041015625 0.718505703125
vt 0 0.4375
vt 0.03515625 0.4375
vt 0.03515625 0.578125
vt 0 0.578125
vt 0.273139765625 0.6246047265625
vt 0.23876953125 0.68413578125
vt 0.367041015625 0.718506015625
vt 0.23876953125 0.7528759375
vt 0.23876953125 0.6841355078125
vt 0.367041015625 0.718505703125
vt 0 0.4375
vt 0.03515625 0.4375
vt 0.03515625 0.578125
vt 0 0.578125
vt 0.23876953125 0.68413578125
vt 0.23876953125 0.7528762109375
vt 0.367041015625 0.718506015625
vt 0.273139765625 0.8124069921875
vt 0.23876953125 0.7528759375
vt 0.367041015625 0.718505703125
vt 0 0.4375
vt 0.03515625 0.4375
vt 0.03515625 0.578125
vt 0 0.578125
vt 0.23876953125 0.7528762109375
vt 0.273139765625 0.812407265625
vt 0.367041015625 0.718506015625
vt 0.33267078125 0.8467771875
vt 0.273139765625 0.8124069921875
vt 0.367041015625 0.718505703125
vt 0 0.4375
vt 0.03515625 0.4375
vt 0.03515625 0.578125
vt 0 0.578125
vt 0.273139765625 0.812407265625
vt 0.33267078125 0.8467775
vt 0.367041015625 0.718506015625
vt 0.40141125 0.8467771875
vt 0.33267078125 0.8467771875
vt 0.367041015625 0.718505703125
vt 0 0.4375
vt 0.03515625 0.4375
vt 0.03515625 0.578125
vt 0 0.578125
vt 0.33267078125 0.8467775
vt 0.40141125 0.8467775
vt 0.367041015625 0.718506015625
vn 0 -1 0
vn 0.49999969385584014 0 0.8660255805367797
vn 0 1 0
vn 0 -1 0
vn 0.8660255805367797 0 0.49999969385584014
vn 0 1 0
vn 0 -1 0
vn 1 0 0
vn 0 1 0
vn 0 -1 0
vn 0.8660255805367797 0 -0.49999969385584014
vn 0 1 0
vn 0 -1 0
vn 0.49999969385584014 0 -0.8660255805367797
vn 0 1 0
vn 0 -1 0
vn 0 0 -1
vn 0 1 0
vn 0 -1 0
vn -0.49999969385584014 0 -0.8660255805367797
vn 0 1 0
vn 0 -1 0
vn -0.8660255805367797 0 -0.49999969385584014
vn 0 1 0
vn 0 -1 0
vn -1 0 0
vn 0 1 0
vn 0 -1 0
vn -0.8660255805367797 0 0.49999969385584014
vn 0 1 0
vn 0 -1 0
vn -0.49999969385584014 0 0.8660255805367797
vn 0 1 0
vn 0 -1 0
vn 0 0 1
vn 0 1 0
usemtl m_7d3d79da-8346-2a30-98f8-34a2b0d3a67d
f 5/1/1 3/2/1 1/3/1
f 3/4/2 5/5/2 6/6/2 4/7/2
f 4/8/3 6/9/3 2/10/3
f 7/11/4 5/12/4 1/13/4
f 5/14/5 7/15/5 8/16/5 6/17/5
f 6/18/6 8/19/6 2/20/6
f 9/21/7 7/22/7 1/23/7
f 7/24/8 9/25/8 10/26/8 8/27/8
f 8/28/9 10/29/9 2/30/9
f 11/31/10 9/32/10 1/33/10
f 9/34/11 11/35/11 12/36/11 10/37/11
f 10/38/12 12/39/12 2/40/12
f 13/41/13 11/42/13 1/43/13
f 11/44/14 13/45/14 14/46/14 12/47/14
f 12/48/15 14/49/15 2/50/15
f 15/51/16 13/52/16 1/53/16
f 13/54/17 15/55/17 16/56/17 14/57/17
f 14/58/18 16/59/18 2/60/18
f 17/61/19 15/62/19 1/63/19
f 15/64/20 17/65/20 18/66/20 16/67/20
f 16/68/21 18/69/21 2/70/21
f 19/71/22 17/72/22 1/73/22
f 17/74/23 19/75/23 20/76/23 18/77/23
f 18/78/24 20/79/24 2/80/24
f 21/81/25 19/82/25 1/83/25
f 19/84/26 21/85/26 22/86/26 20/87/26
f 20/88/27 22/89/27 2/90/27
f 23/91/28 21/92/28 1/93/28
f 21/94/29 23/95/29 24/96/29 22/97/29
f 22/98/30 24/99/30 2/100/30
f 25/101/31 23/102/31 1/103/31
f 23/104/32 25/105/32 26/106/32 24/107/32
f 24/108/33 26/109/33 2/110/33
f 3/111/34 25/112/34 1/113/34
f 25/114/35 3/115/35 4/116/35 26/117/35
f 26/118/36 4/119/36 2/120/36
o tire
v 6.290010258902112 1.140625 -1.4460939037736051
v 6.160600736350852 1.140625 -1.9290568169181392
v 6.290010258902112 -1.140625 -1.4460939037736051
v 6.160600736350852 -1.140625 -1.9290568169181392
v 5.565565889185311 1.765625 -1.2519796199467146
v 5.436156366634051 1.765625 -1.7349425330912487
v 5.565565889185311 -1.765625 -1.2519796199467146
v 5.436156366634051 -1.765625 -1.7349425330912487
vt 0.06640625 0.80859375
vt 0.04296875 0.80859375
vt 0.04296875 0.58984375
vt 0.06640625 0.58984375
vt 0.06640625 0.58984375
vt 0.06640625 0.80859375
vt 0.04296875 0.80859375
vt 0.04296875 0.58984375
vt 0.2109375 0.9453125
vt 0.25 0.9453125
vt 0.25 0.96875
vt 0.2109375 0.96875
vt 0.25 0.9453125
vt 0.25 0.96875
vt 0.2109375 0.96875
vt 0.2109375 0.9453125
vt 0 0.58984375
vt 0 0.80859375
vt 0.0390625 0.80859375
vt 0.0390625 0.58984375
vt 0.0390625 0.80859375
vt 0 0.80859375
vt 0 0.58984375
vt 0.0390625 0.58984375
vn 0.9659258262890683 0 -0.25881904510252074
vn -0.9659258262890683 0 0.25881904510252074
vn 0.6183706452232839 0.7682212795973759 -0.1656919150106912
vn 0.6183706452232839 -0.7682212795973759 -0.1656919150106912
vn 0.25881904510252074 0 0.9659258262890683
vn -0.25881904510252074 0 -0.9659258262890683
usemtl m_7d3d79da-8346-2a30-98f8-34a2b0d3a67d
f 28/121/37 27/122/37 29/123/37 30/124/37
f 33/125/38 31/126/38 32/127/38 34/128/38
f 31/129/39 27/130/39 28/131/39 32/132/39
f 30/133/40 29/134/40 33/135/40 34/136/40
f 29/137/41 27/138/41 31/139/41 33/140/41
f 32/141/42 28/142/42 30/143/42 34/144/42
o tire
v -6.290010258902111 1.140625 1.446093903773604
v -6.160600736350851 1.140625 1.9290568169181381
v -6.290010258902111 -1.140625 1.446093903773604
v -6.160600736350851 -1.140625 1.9290568169181381
v -5.565565889185311 1.765625 1.2519796199467135
v -5.436156366634051 1.765625 1.7349425330912476
v -5.565565889185311 -1.765625 1.2519796199467135
v -5.436156366634051 -1.765625 1.7349425330912476
vt 0.06640625 0.80859375
vt 0.04296875 0.80859375
vt 0.04296875 0.58984375
vt 0.06640625 0.58984375
vt 0.06640625 0.58984375
vt 0.06640625 0.80859375
vt 0.04296875 0.80859375
vt 0.04296875 0.58984375
vt 0.2109375 0.9453125
vt 0.25 0.9453125
vt 0.25 0.96875
vt 0.2109375 0.96875
vt 0.25 0.9453125
vt 0.25 0.96875
vt 0.2109375 0.96875
vt 0.2109375 0.9453125
vt 0 0.58984375
vt 0 0.80859375
vt 0.0390625 0.80859375
vt 0.0390625 0.58984375
vt 0.0390625 0.80859375
vt 0 0.80859375
vt 0 0.58984375
vt 0.0390625 0.58984375
vn -0.9659258262890684 0 0.25881904510252063
vn 0.9659258262890684 0 -0.25881904510252063
vn -0.618370645223284 0.7682212795973759 0.1656919150106911
vn -0.618370645223284 -0.7682212795973759 0.1656919150106911
vn -0.25881904510252063 0 -0.9659258262890684
vn 0.25881904510252063 0 0.9659258262890684
usemtl m_7d3d79da-8346-2a30-98f8-34a2b0d3a67d
f 36/145/43 35/146/43 37/147/43 38/148/43
f 41/149/44 39/150/44 40/151/44 42/152/44
f 39/153/45 35/154/45 36/155/45 40/156/45
f 38/157/46 37/158/46 41/159/46 42/160/46
f 37/161/47 35/162/47 39/163/47 41/164/47
f 40/165/48 36/166/48 38/167/48 42/168/48
o tire
v -1.4460939037736051 1.140625 -6.290010258902112
v -1.9290568169181392 1.140625 -6.160600736350852
v -1.4460939037736051 -1.140625 -6.290010258902112
v -1.9290568169181392 -1.140625 -6.160600736350852
v -1.2519796199467146 1.765625 -5.565565889185311
v -1.7349425330912487 1.765625 -5.436156366634051
v -1.2519796199467146 -1.765625 -5.565565889185311
v -1.7349425330912487 -1.765625 -5.436156366634051
vt 0.06640625 0.80859375
vt 0.04296875 0.80859375
vt 0.04296875 0.58984375
vt 0.06640625 0.58984375
vt 0.06640625 0.58984375
vt 0.06640625 0.80859375
vt 0.04296875 0.80859375
vt 0.04296875 0.58984375
vt 0.2109375 0.9453125
vt 0.25 0.9453125
vt 0.25 0.96875
vt 0.2109375 0.96875
vt 0.25 0.9453125
vt 0.25 0.96875
vt 0.2109375 0.96875
vt 0.2109375 0.9453125
vt 0 0.58984375
vt 0 0.80859375
vt 0.0390625 0.80859375
vt 0.0390625 0.58984375
vt 0.0390625 0.80859375
vt 0 0.80859375
vt 0 0.58984375
vt 0.0390625 0.58984375
vn -0.25881904510252074 0 -0.9659258262890683
vn 0.25881904510252074 0 0.9659258262890683
vn -0.1656919150106912 0.7682212795973759 -0.6183706452232839
vn -0.1656919150106912 -0.7682212795973759 -0.6183706452232839
vn 0.9659258262890683 0 -0.25881904510252074
vn -0.9659258262890683 0 0.25881904510252074
usemtl m_7d3d79da-8346-2a30-98f8-34a2b0d3a67d
f 44/169/49 43/170/49 45/171/49 46/172/49
f 49/173/50 47/174/50 48/175/50 50/176/50
f 47/177/51 43/178/51 44/179/51 48/180/51
f 46/181/52 45/182/52 49/183/52 50/184/52
f 45/185/53 43/186/53 47/187/53 49/188/53
f 48/189/54 44/190/54 46/191/54 50/192/54
o tire
v 1.4460939037736051 1.140625 6.290010258902112
v 1.9290568169181392 1.140625 6.160600736350852
v 1.4460939037736051 -1.140625 6.290010258902112
v 1.9290568169181392 -1.140625 6.160600736350852
v 1.2519796199467146 1.765625 5.565565889185311
v 1.7349425330912487 1.765625 5.436156366634051
v 1.2519796199467146 -1.765625 5.565565889185311
v 1.7349425330912487 -1.765625 5.436156366634051
vt 0.06640625 0.80859375
vt 0.04296875 0.80859375
vt 0.04296875 0.58984375
vt 0.06640625 0.58984375
vt 0.06640625 0.58984375
vt 0.06640625 0.80859375
vt 0.04296875 0.80859375
vt 0.04296875 0.58984375
vt 0.2109375 0.9453125
vt 0.25 0.9453125
vt 0.25 0.96875
vt 0.2109375 0.96875
vt 0.25 0.9453125
vt 0.25 0.96875
vt 0.2109375 0.96875
vt 0.2109375 0.9453125
vt 0 0.58984375
vt 0 0.80859375
vt 0.0390625 0.80859375
vt 0.0390625 0.58984375
vt 0.0390625 0.80859375
vt 0 0.80859375
vt 0 0.58984375
vt 0.0390625 0.58984375
vn 0.25881904510252074 0 0.9659258262890683
vn -0.25881904510252074 0 -0.9659258262890683
vn 0.1656919150106912 0.7682212795973759 0.6183706452232839
vn 0.1656919150106912 -0.7682212795973759 0.6183706452232839
vn -0.9659258262890683 0 0.25881904510252074
vn 0.9659258262890683 0 -0.25881904510252074
usemtl m_7d3d79da-8346-2a30-98f8-34a2b0d3a67d
f 52/193/55 51/194/55 53/195/55 54/196/55
f 57/197/56 55/198/56 56/199/56 58/200/56
f 55/201/57 51/202/57 52/203/57 56/204/57
f 54/205/58 53/206/58 57/207/58 58/208/58
f 53/209/59 51/210/59 55/211/59 57/212/59
f 56/213/60 52/214/60 54/215/60 58/216/60
o tire
v 4.397359186376807 1.140625 4.724261722387161
v 4.750912576970081 1.140625 4.370708331793887
v 4.397359186376807 -1.140625 4.724261722387161
v 4.750912576970081 -1.140625 4.370708331793887
v 3.8670291004868966 1.765625 4.1939316364972505
v 4.220582491080171 1.765625 3.8403782459039766
v 3.8670291004868966 -1.765625 4.1939316364972505
v 4.220582491080171 -1.765625 3.8403782459039766
vt 0.06640625 0.80859375
vt 0.04296875 0.80859375
vt 0.04296875 0.58984375
vt 0.06640625 0.58984375
vt 0.06640625 0.58984375
vt 0.06640625 0.80859375
vt 0.04296875 0.80859375
vt 0.04296875 0.58984375
vt 0.2109375 0.9453125
vt 0.25 0.9453125
vt 0.25 0.96875
vt 0.2109375 0.96875
vt 0.25 0.9453125
vt 0.25 0.96875
vt 0.2109375 0.96875
vt 0.2109375 0.9453125
vt 0 0.58984375
vt 0 0.80859375
vt 0.0390625 0.80859375
vt 0.0390625 0.58984375
vt 0.0390625 0.80859375
vt 0 0.80859375
vt 0 0.58984375
vt 0.0390625 0.58984375
vn 0.7071067811865475 0 0.7071067811865476
vn -0.7071067811865475 0 -0.7071067811865476
vn 0.45267873021259264 0.7682212795973759 0.45267873021259275
vn 0.45267873021259264 -0.7682212795973759 0.45267873021259275
vn -0.7071067811865476 0 0.7071067811865475
vn 0.7071067811865476 0 -0.7071067811865475
usemtl m_7d3d79da-8346-2a30-98f8-34a2b0d3a67d
f 60/217/61 59/218/61 61/219/61 62/220/61
f 65/221/62 63/222/62 64/223/62 66/224/62
f 63/225/63 59/226/63 60/227/63 64/228/63
f 62/229/64 61/230/64 65/231/64 66/232/64
f 61/233/65 59/234/65 63/235/65 65/236/65
f 64/237/66 60/238/66 62/239/66 66/240/66
o tire
v 6.170355626160766 1.140625 1.8926510725253043
v 6.299765148712026 1.140625 1.4096881593807702
v 6.170355626160766 -1.140625 1.8926510725253043
v 6.299765148712026 -1.140625 1.4096881593807702
v 5.4459112564439645 1.765625 1.6985367886984137
v 5.575320778995224 1.765625 1.2155738755538796
v 5.4459112564439645 -1.765625 1.6985367886984137
v 5.575320778995224 -1.765625 1.2155738755538796
vt 0.06640625 0.80859375
vt 0.04296875 0.80859375
vt 0.04296875 0.58984375
vt 0.06640625 0.58984375
vt 0.06640625 0.58984375
vt 0.06640625 0.80859375
vt 0.04296875 0.80859375
vt 0.04296875 0.58984375
vt 0.2109375 0.9453125
vt 0.25 0.9453125
vt 0.25 0.96875
vt 0.2109375 0.96875
vt 0.25 0.9453125
vt 0.25 0.96875
vt 0.2109375 0.96875
vt 0.2109375 0.9453125
vt 0 0.58984375
vt 0 0.80859375
vt 0.0390625 0.80859375
vt 0.0390625 0.58984375
vt 0.0390625 0.80859375
vt 0 0.80859375
vt 0 0.58984375
vt 0.0390625 0.58984375
vn 0.9659258262890683 0 0.25881904510252074
vn -0.9659258262890683 0 -0.25881904510252074
vn 0.6183706452232839 0.7682212795973759 0.1656919150106912
vn 0.6183706452232839 -0.7682212795973759 0.1656919150106912
vn -0.25881904510252074 0 0.9659258262890683
vn 0.25881904510252074 0 -0.9659258262890683
usemtl m_7d3d79da-8346-2a30-98f8-34a2b0d3a67d
f 68/241/67 67/242/67 69/243/67 70/244/67
f 73/245/68 71/246/68 72/247/68 74/248/68
f 71/249/69 67/250/69 68/251/69 72/252/69
f 70/253/70 69/254/70 73/255/70 74/256/70
f 69/257/71 67/258/71 71/259/71 73/260/71
f 72/261/72 68/262/72 70/263/72 74/264/72
o tire
v 4.72426172238716 1.140625 -4.397359186376808
v 4.370708331793886 1.140625 -4.750912576970082
v 4.72426172238716 -1.140625 -4.397359186376808
v 4.370708331793886 -1.140625 -4.750912576970082
v 4.19393163649725 1.765625 -3.8670291004868975
v 3.8403782459039757 1.765625 -4.2205824910801715
v 4.19393163649725 -1.765625 -3.8670291004868975
v 3.8403782459039757 -1.765625 -4.2205824910801715
vt 0.06640625 0.80859375
vt 0.04296875 0.80859375
vt 0.04296875 0.58984375
vt 0.06640625 0.58984375
vt 0.06640625 0.58984375
vt 0.06640625 0.80859375
vt 0.04296875 0.80859375
vt 0.04296875 0.58984375
vt 0.2109375 0.9453125
vt 0.25 0.9453125
vt 0.25 0.96875
vt 0.2109375 0.96875
vt 0.25 0.9453125
vt 0.25 0.96875
vt 0.2109375 0.96875
vt 0.2109375 0.9453125
vt 0 0.58984375
vt 0 0.80859375
vt 0.0390625 0.80859375
vt 0.0390625 0.58984375
vt 0.0390625 0.80859375
vt 0 0.80859375
vt 0 0.58984375
vt 0.0390625 0.58984375
vn 0.7071067811865475 0 -0.7071067811865476
vn -0.7071067811865475 0 0.7071067811865476
vn 0.45267873021259264 0.7682212795973759 -0.45267873021259275
vn 0.45267873021259264 -0.7682212795973759 -0.45267873021259275
vn 0.7071067811865476 0 0.7071067811865475
vn -0.7071067811865476 0 -0.7071067811865475
usemtl m_7d3d79da-8346-2a30-98f8-34a2b0d3a67d
f 76/265/73 75/266/73 77/267/73 78/268/73
f 81/269/74 79/270/74 80/271/74 82/272/74
f 79/273/75 75/274/75 76/275/75 80/276/75
f 78/277/76 77/278/76 81/279/76 82/280/76
f 77/281/77 75/282/77 79/283/77 81/284/77
f 80/285/78 76/286/78 78/287/78 82/288/78
o tire
v 1.8926510725253043 1.140625 -6.170355626160766
v 1.4096881593807702 1.140625 -6.299765148712026
v 1.8926510725253043 -1.140625 -6.170355626160766
v 1.4096881593807702 -1.140625 -6.299765148712026
v 1.6985367886984137 1.765625 -5.4459112564439645
v 1.2155738755538796 1.765625 -5.575320778995224
v 1.6985367886984137 -1.765625 -5.4459112564439645
v 1.2155738755538796 -1.765625 -5.575320778995224
vt 0.06640625 0.80859375
vt 0.04296875 0.80859375
vt 0.04296875 0.58984375
vt 0.06640625 0.58984375
vt 0.06640625 0.58984375
vt 0.06640625 0.80859375
vt 0.04296875 0.80859375
vt 0.04296875 0.58984375
vt 0.2109375 0.9453125
vt 0.25 0.9453125
vt 0.25 0.96875
vt 0.2109375 0.96875
vt 0.25 0.9453125
vt 0.25 0.96875
vt 0.2109375 0.96875
vt 0.2109375 0.9453125
vt 0 0.58984375
vt 0 0.80859375
vt 0.0390625 0.80859375
vt 0.0390625 0.58984375
vt 0.0390625 0.80859375
vt 0 0.80859375
vt 0 0.58984375
vt 0.0390625 0.58984375
vn 0.25881904510252074 0 -0.9659258262890683
vn -0.25881904510252074 0 0.9659258262890683
vn 0.1656919150106912 0.7682212795973759 -0.6183706452232839
vn 0.1656919150106912 -0.7682212795973759 -0.6183706452232839
vn 0.9659258262890683 0 0.25881904510252074
vn -0.9659258262890683 0 -0.25881904510252074
usemtl m_7d3d79da-8346-2a30-98f8-34a2b0d3a67d
f 84/289/79 83/290/79 85/291/79 86/292/79
f 89/293/80 87/294/80 88/295/80 90/296/80
f 87/297/81 83/298/81 84/299/81 88/300/81
f 86/301/82 85/302/82 89/303/82 90/304/82
f 85/305/83 83/306/83 87/307/83 89/308/83
f 88/309/84 84/310/84 86/311/84 90/312/84
o tire
v -4.397359186376807 1.140625 -4.724261722387162
v -4.750912576970081 1.140625 -4.370708331793888
v -4.397359186376807 -1.140625 -4.724261722387162
v -4.750912576970081 -1.140625 -4.370708331793888
v -3.8670291004868966 1.765625 -4.1939316364972505
v -4.220582491080171 1.765625 -3.8403782459039766
v -3.8670291004868966 -1.765625 -4.1939316364972505
v -4.220582491080171 -1.765625 -3.8403782459039766
vt 0.06640625 0.80859375
vt 0.04296875 0.80859375
vt 0.04296875 0.58984375
vt 0.06640625 0.58984375
vt 0.06640625 0.58984375
vt 0.06640625 0.80859375
vt 0.04296875 0.80859375
vt 0.04296875 0.58984375
vt 0.2109375 0.9453125
vt 0.25 0.9453125
vt 0.25 0.96875
vt 0.2109375 0.96875
vt 0.25 0.9453125
vt 0.25 0.96875
vt 0.2109375 0.96875
vt 0.2109375 0.9453125
vt 0 0.58984375
vt 0 0.80859375
vt 0.0390625 0.80859375
vt 0.0390625 0.58984375
vt 0.0390625 0.80859375
vt 0 0.80859375
vt 0 0.58984375
vt 0.0390625 0.58984375
vn -0.7071067811865475 0 -0.7071067811865477
vn 0.7071067811865475 0 0.7071067811865477
vn -0.45267873021259264 0.7682212795973759 -0.4526787302125928
vn -0.45267873021259264 -0.7682212795973759 -0.4526787302125928
vn 0.7071067811865477 0 -0.7071067811865475
vn -0.7071067811865477 0 0.7071067811865475
usemtl m_7d3d79da-8346-2a30-98f8-34a2b0d3a67d
f 92/313/85 91/314/85 93/315/85 94/316/85
f 97/317/86 95/318/86 96/319/86 98/320/86
f 95/321/87 91/322/87 92/323/87 96/324/87
f 94/325/88 93/326/88 97/327/88 98/328/88
f 93/329/89 91/330/89 95/331/89 97/332/89
f 96/333/90 92/334/90 94/335/90 98/336/90
o tire
v -6.170355626160765 1.140625 -1.8926510725253032
v -6.299765148712025 1.140625 -1.409688159380769
v -6.170355626160765 -1.140625 -1.8926510725253032
v -6.299765148712025 -1.140625 -1.409688159380769
v -5.4459112564439645 1.765625 -1.6985367886984126
v -5.575320778995224 1.765625 -1.2155738755538785
v -5.4459112564439645 -1.765625 -1.6985367886984126
v -5.575320778995224 -1.765625 -1.2155738755538785
vt 0.06640625 0.80859375
vt 0.04296875 0.80859375
vt 0.04296875 0.58984375
vt 0.06640625 0.58984375
vt 0.06640625 0.58984375
vt 0.06640625 0.80859375
vt 0.04296875 0.80859375
vt 0.04296875 0.58984375
vt 0.2109375 0.9453125
vt 0.25 0.9453125
vt 0.25 0.96875
vt 0.2109375 0.96875
vt 0.25 0.9453125
vt 0.25 0.96875
vt 0.2109375 0.96875
vt 0.2109375 0.9453125
vt 0 0.58984375
vt 0 0.80859375
vt 0.0390625 0.80859375
vt 0.0390625 0.58984375
vt 0.0390625 0.80859375
vt 0 0.80859375
vt 0 0.58984375
vt 0.0390625 0.58984375
vn -0.9659258262890684 0 -0.25881904510252063
vn 0.9659258262890684 0 0.25881904510252063
vn -0.618370645223284 0.7682212795973759 -0.1656919150106911
vn -0.618370645223284 -0.7682212795973759 -0.1656919150106911
vn 0.25881904510252063 0 -0.9659258262890684
vn -0.25881904510252063 0 0.9659258262890684
usemtl m_7d3d79da-8346-2a30-98f8-34a2b0d3a67d
f 100/337/91 99/338/91 101/339/91 102/340/91
f 105/341/92 103/342/92 104/343/92 106/344/92
f 103/345/93 99/346/93 100/347/93 104/348/93
f 102/349/94 101/350/94 105/351/94 106/352/94
f 101/353/95 99/354/95 103/355/95 105/356/95
f 104/357/96 100/358/96 102/359/96 106/360/96
o tire
v -4.72426172238716 1.140625 4.397359186376809
v -4.370708331793886 1.140625 4.750912576970083
v -4.72426172238716 -1.140625 4.397359186376809
v -4.370708331793886 -1.140625 4.750912576970083
v -4.19393163649725 1.765625 3.8670291004868975
v -3.8403782459039757 1.765625 4.2205824910801715
v -4.19393163649725 -1.765625 3.8670291004868975
v -3.8403782459039757 -1.765625 4.2205824910801715
vt 0.06640625 0.80859375
vt 0.04296875 0.80859375
vt 0.04296875 0.58984375
vt 0.06640625 0.58984375
vt 0.06640625 0.58984375
vt 0.06640625 0.80859375
vt 0.04296875 0.80859375
vt 0.04296875 0.58984375
vt 0.2109375 0.9453125
vt 0.25 0.9453125
vt 0.25 0.96875
vt 0.2109375 0.96875
vt 0.25 0.9453125
vt 0.25 0.96875
vt 0.2109375 0.96875
vt 0.2109375 0.9453125
vt 0 0.58984375
vt 0 0.80859375
vt 0.0390625 0.80859375
vt 0.0390625 0.58984375
vt 0.0390625 0.80859375
vt 0 0.80859375
vt 0 0.58984375
vt 0.0390625 0.58984375
vn -0.7071067811865475 0 0.7071067811865477
vn 0.7071067811865475 0 -0.7071067811865477
vn -0.45267873021259264 0.7682212795973759 0.4526787302125928
vn -0.45267873021259264 -0.7682212795973759 0.4526787302125928
vn -0.7071067811865477 0 -0.7071067811865475
vn 0.7071067811865477 0 0.7071067811865475
usemtl m_7d3d79da-8346-2a30-98f8-34a2b0d3a67d
f 108/361/97 107/362/97 109/363/97 110/364/97
f 113/365/98 111/366/98 112/367/98 114/368/98
f 111/369/99 107/370/99 108/371/99 112/372/99
f 110/373/100 109/374/100 113/375/100 114/376/100
f 109/377/101 107/378/101 111/379/101 113/380/101
f 112/381/102 108/382/102 110/383/102 114/384/102
o tire
v -1.8926510725253043 1.140625 6.170355626160766
v -1.4096881593807702 1.140625 6.299765148712026
v -1.8926510725253043 -1.140625 6.170355626160766
v -1.4096881593807702 -1.140625 6.299765148712026
v -1.6985367886984137 1.765625 5.4459112564439645
v -1.2155738755538796 1.765625 5.575320778995224
v -1.6985367886984137 -1.765625 5.4459112564439645
v -1.2155738755538796 -1.765625 5.575320778995224
vt 0.06640625 0.80859375
vt 0.04296875 0.80859375
vt 0.04296875 0.58984375
vt 0.06640625 0.58984375
vt 0.06640625 0.58984375
vt 0.06640625 0.80859375
vt 0.04296875 0.80859375
vt 0.04296875 0.58984375
vt 0.2109375 0.9453125
vt 0.25 0.9453125
vt 0.25 0.96875
vt 0.2109375 0.96875
vt 0.25 0.9453125
vt 0.25 0.96875
vt 0.2109375 0.96875
vt 0.2109375 0.9453125
vt 0 0.58984375
vt 0 0.80859375
vt 0.0390625 0.80859375
vt 0.0390625 0.58984375
vt 0.0390625 0.80859375
vt 0 0.80859375
vt 0 0.58984375
vt 0.0390625 0.58984375
vn -0.25881904510252074 0 0.9659258262890683
vn 0.25881904510252074 0 -0.9659258262890683
vn -0.1656919150106912 0.7682212795973759 0.6183706452232839
vn -0.1656919150106912 -0.7682212795973759 0.6183706452232839
vn -0.9659258262890683 0 -0.25881904510252074
vn 0.9659258262890683 0 0.25881904510252074
usemtl m_7d3d79da-8346-2a30-98f8-34a2b0d3a67d
f 116/385/103 115/386/103 117/387/103 118/388/103
f 121/389/104 119/390/104 120/391/104 122/392/104
f 119/393/105 115/394/105 116/395/105 120/396/105
f 118/397/106 117/398/106 121/399/106 122/400/106
f 117/401/107 115/402/107 119/403/107 121/404/107
f 120/405/108 116/406/108 118/407/108 122/408/108
o tire
v 1.118688125 2.46875 4.175
v 1.51351875 1.74567 5.648528125
v 1.607695 0 6
v 1.51351875 -1.74567 5.648528125
v 1.118688125 -2.46875 4.175
v 0.686474375 -1.992545 2.5619575
v 0.625414375 0 2.33407875
v 0.686474375 1.992545 2.5619575
v 3.056311875 2.46875 3.056311875
v 4.135009375 1.74567 4.135009375
v 4.392305 0 4.392305
v 4.135009375 -1.74567 4.135009375
v 3.056311875 -2.46875 3.056311875
v 1.875483125 -1.992545 1.875483125
v 1.708664375 0 1.708664375
v 1.875483125 1.992545 1.875483125
v 4.175 2.46875 1.118688125
v 5.648528125 1.74567 1.51351875
v 6 0 1.607695
v 5.648528125 -1.74567 1.51351875
v 4.175 -2.46875 1.118688125
v 2.5619575 -1.992545 0.686474375
v 2.33407875 0 0.625414375
v 2.5619575 1.992545 0.686474375
v 4.175 2.46875 -1.118688125
v 5.648528125 1.74567 -1.51351875
v 6 0 -1.607695
v 5.648528125 -1.74567 -1.51351875
v 4.175 -2.46875 -1.118688125
v 2.5619575 -1.992545 -0.686474375
v 2.33407875 0 -0.625414375
v 2.5619575 1.992545 -0.686474375
v 3.056311875 2.46875 -3.056311875
v 4.135009375 1.74567 -4.135009375
v 4.392305 0 -4.392305
v 4.135009375 -1.74567 -4.135009375
v 3.056311875 -2.46875 -3.056311875
v 1.875483125 -1.992545 -1.875483125
v 1.708664375 0 -1.708664375
v 1.875483125 1.992545 -1.875483125
v 1.118688125 2.46875 -4.175
v 1.51351875 1.74567 -5.648528125
v 1.607695 0 -6
v 1.51351875 -1.74567 -5.648528125
v 1.118688125 -2.46875 -4.175
v 0.686474375 -1.992545 -2.5619575
v 0.625414375 0 -2.33407875
v 0.686474375 1.992545 -2.5619575
v -1.118688125 2.46875 -4.175
v -1.51351875 1.74567 -5.648528125
v -1.607695 0 -6
v -1.51351875 -1.74567 -5.648528125
v -1.118688125 -2.46875 -4.175
v -0.686474375 -1.992545 -2.5619575
v -0.625414375 0 -2.33407875
v -0.686474375 1.992545 -2.5619575
v -3.056311875 2.46875 -3.056311875
v -4.135009375 1.74567 -4.135009375
v -4.392305 0 -4.392305
v -4.135009375 -1.74567 -4.135009375
v -3.056311875 -2.46875 -3.056311875
v -1.875483125 -1.992545 -1.875483125
v -1.708664375 0 -1.708664375
v -1.875483125 1.992545 -1.875483125
v -4.175 2.46875 -1.118688125
v -5.648528125 1.74567 -1.51351875
v -6 0 -1.607695
v -5.648528125 -1.74567 -1.51351875
v -4.175 -2.46875 -1.118688125
v -2.5619575 -1.992545 -0.686474375
v -2.33407875 0 -0.625414375
v -2.5619575 1.992545 -0.686474375
v -4.175 2.46875 1.118688125
v -5.648528125 1.74567 1.51351875
v -6 0 1.607695
v -5.648528125 -1.74567 1.51351875
v -4.175 -2.46875 1.118688125
v -2.5619575 -1.992545 0.686474375
v -2.33407875 0 0.625414375
v -2.5619575 1.992545 0.686474375
v -3.056311875 2.46875 3.056311875
v -4.135009375 1.74567 4.135009375
v -4.392305 0 4.392305
v -4.135009375 -1.74567 4.135009375
v -3.056311875 -2.46875 3.056311875
v -1.875483125 -1.992545 1.875483125
v -1.708664375 0 1.708664375
v -1.875483125 1.992545 1.875483125
v -1.118688125 2.46875 4.175
v -1.51351875 1.74567 5.648528125
v -1.607695 0 6
v -1.51351875 -1.74567 5.648528125
v -1.118688125 -2.46875 4.175
v -0.686474375 -1.992545 2.5619575
v -0.625414375 0 2.33407875
v -0.686474375 1.992545 2.5619575
vt 0.2744565625 0.88671875
vt 0.25 1
vt 0.4375 1
vt 0.4130434375 0.88671875
vt 0.665991171875 1
vt 0.66015625 0.8359375
vt 0.859375 0.8359375
vt 0.853540078125 1
vt 0.66015625 0.8359375
vt 0.665991171875 0.671875
vt 0.853540078125 0.671875
vt 0.859375 0.8359375
vt 0.25 1
vt 0.2744565625 0.88671875
vt 0.4130434375 0.88671875
vt 0.4375 1
vt 0.21484375 0.58203125
vt 0.187678046875 0.69140625
vt 0.101384453125 0.69140625
vt 0.07421875 0.58203125
vt 0.0859375 1
vt 0.082115390625 0.8125
vt 0.003822109375 0.8125
vt 0 1
vt 0.082115390625 0.8125
vt 0.0859375 1
vt 0 1
vt 0.003822109375 0.8125
vt 0.187678046875 0.69140625
vt 0.21484375 0.58203125
vt 0.07421875 0.58203125
vt 0.101384453125 0.69140625
vt 0.2744565625 0.88671875
vt 0.25 1
vt 0.4375 1
vt 0.4130434375 0.88671875
vt 0.665991171875 1
vt 0.66015625 0.8359375
vt 0.859375 0.8359375
vt 0.853540078125 1
vt 0.66015625 0.8359375
vt 0.665991171875 0.671875
vt 0.853540078125 0.671875
vt 0.859375 0.8359375
vt 0.25 1
vt 0.2744565625 0.88671875
vt 0.4130434375 0.88671875
vt 0.4375 1
vt 0.21484375 0.58203125
vt 0.187678046875 0.69140625
vt 0.101384453125 0.69140625
vt 0.07421875 0.58203125
vt 0.0859375 1
vt 0.082115390625 0.8125
vt 0.003822109375 0.8125
vt 0 1
vt 0.082115390625 0.8125
vt 0.0859375 1
vt 0 1
vt 0.003822109375 0.8125
vt 0.496271796875 0.437500390625
vt 0.5234375 0.546875
vt 0.3828125 0.546875
vt 0.409978203125 0.4375
vt 0.2744565625 0.88671875
vt 0.25 1
vt 0.4375 1
vt 0.4130434375 0.88671875
vt 0.665991171875 1
vt 0.66015625 0.8359375
vt 0.859375 0.8359375
vt 0.853540078125 1
vt 0.66015625 0.8359375
vt 0.665991171875 0.671875
vt 0.853540078125 0.671875
vt 0.859375 0.8359375
vt 0.25 1
vt 0.2744565625 0.88671875
vt 0.4130434375 0.88671875
vt 0.4375 1
vt 0.21484375 0.58203125
vt 0.187678046875 0.69140625
vt 0.101384453125 0.69140625
vt 0.07421875 0.58203125
vt 0.0859375 1
vt 0.082115390625 0.8125
vt 0.003822109375 0.8125
vt 0 1
vt 0.082115390625 0.8125
vt 0.0859375 1
vt 0 1
vt 0.003822109375 0.8125
vt 0.187678046875 0.69140625
vt 0.21484375 0.58203125
vt 0.07421875 0.58203125
vt 0.101384453125 0.69140625
vt 0.2744565625 0.88671875
vt 0.25 1
vt 0.4375 1
vt 0.4130434375 0.88671875
vt 0.665991171875 1
vt 0.66015625 0.8359375
vt 0.859375 0.8359375
vt 0.853540078125 1
vt 0.66015625 0.8359375
vt 0.665991171875 0.671875
vt 0.853540078125 0.671875
vt 0.859375 0.8359375
vt 0.25 1
vt 0.2744565625 0.88671875
vt 0.4130434375 0.88671875
vt 0.4375 1
vt 0.21484375 0.58203125
vt 0.187678046875 0.69140625
vt 0.101384453125 0.69140625
vt 0.07421875 0.58203125
vt 0.0859375 1
vt 0.082115390625 0.8125
vt 0.003822109375 0.8125
vt 0 1
vt 0.082115390625 0.8125
vt 0.0859375 1
vt 0 1
vt 0.003822109375 0.8125
vt 0.187678046875 0.69140625
vt 0.21484375 0.58203125
vt 0.07421875 0.58203125
vt 0.101384453125 0.69140625
vt 0.2744565625 0.88671875
vt 0.25 1
vt 0.4375 1
vt 0.4130434375 0.88671875
vt 0.665991171875 1
vt 0.66015625 0.8359375
vt 0.859375 0.8359375
vt 0.853540078125 1
vt 0.66015625 0.8359375
vt 0.665991171875 0.671875
vt 0.853540078125 0.671875
vt 0.859375 0.8359375
vt 0.25 1
vt 0.2744565625 0.88671875
vt 0.4130434375 0.88671875
vt 0.4375 1
vt 0.21484375 0.58203125
vt 0.187678046875 0.69140625
vt 0.101384453125 0.69140625
vt 0.07421875 0.58203125
vt 0.0859375 1
vt 0.082115390625 0.8125
vt 0.003822109375 0.8125
vt 0 1
vt 0.082115390625 0.8125
vt 0.0859375 1
vt 0 1
vt 0.003822109375 0.8125
vt 0.187678046875 0.691405859375
vt 0.21484375 0.58203125
vt 0.07421875 0.58203125
vt 0.101384453125 0.69140625
vt 0.6161684375 0.88671875
vt 0.640625 1
vt 0.453125 1
vt 0.4775815625 0.88671875
vt 0.665991171875 1
vt 0.66015625 0.8359375
vt 0.859375 0.8359375
vt 0.853540078125 1
vt 0.66015625 0.8359375
vt 0.665991171875 0.671875
vt 0.853540078125 0.671875
vt 0.859375 0.8359375
vt 0.453125 1
vt 0.4775815625 0.88671875
vt 0.6161684375 0.88671875
vt 0.640625 1
vt 0.23046875 0.546875
vt 0.257634453125 0.4375
vt 0.343928046875 0.4375
vt 0.37109375 0.546875
vt 0.0859375 1
vt 0.082115390625 0.8125
vt 0.003822109375 0.8125
vt 0 1
vt 0.082115390625 0.8125
vt 0.0859375 1
vt 0 1
vt 0.003822109375 0.8125
vt 0.343928046875 0.4375
vt 0.37109375 0.546875
vt 0.23046875 0.546875
vt 0.257634453125 0.4375
vt 0.2744565625 0.88671875
vt 0.25 1
vt 0.4375 1
vt 0.4130434375 0.88671875
vt 0.665991171875 1
vt 0.66015625 0.8359375
vt 0.859375 0.8359375
vt 0.853540078125 1
vt 0.66015625 0.8359375
vt 0.665991171875 0.671875
vt 0.853540078125 0.671875
vt 0.859375 0.8359375
vt 0.25 1
vt 0.2744565625 0.88671875
vt 0.4130434375 0.88671875
vt 0.4375 1
vt 0.21484375 0.58203125
vt 0.187678046875 0.69140625
vt 0.101384453125 0.69140625
vt 0.07421875 0.58203125
vt 0.0859375 1
vt 0.082115390625 0.8125
vt 0.003822109375 0.8125
vt 0 1
vt 0.082115390625 0.8125
vt 0.0859375 1
vt 0 1
vt 0.003822109375 0.8125
vt 0.187678046875 0.69140625
vt 0.21484375 0.58203125
vt 0.07421875 0.58203125
vt 0.101384453125 0.69140625
vt 0.2744565625 0.88671875
vt 0.25 1
vt 0.4375 1
vt 0.4130434375 0.88671875
vt 0.665991171875 1
vt 0.66015625 0.8359375
vt 0.859375 0.8359375
vt 0.853540078125 1
vt 0.66015625 0.8359375
vt 0.665991171875 0.671875
vt 0.853540078125 0.671875
vt 0.859375 0.8359375
vt 0.25 1
vt 0.2744565625 0.88671875
vt 0.4130434375 0.88671875
vt 0.4375 1
vt 0.21484375 0.58203125
vt 0.187678046875 0.69140625
vt 0.101384453125 0.69140625
vt 0.07421875 0.58203125
vt 0.0859375 1
vt 0.082115390625 0.8125
vt 0.003822109375 0.8125
vt 0 1
vt 0.082115390625 0.8125
vt 0.0859375 1
vt 0 1
vt 0.003822109375 0.8125
vt 0.187678046875 0.691405859375
vt 0.21484375 0.58203125
vt 0.07421875 0.58203125
vt 0.101384453125 0.69140625
vt 0.2744565625 0.88671875
vt 0.25 1
vt 0.4375 1
vt 0.4130434375 0.88671875
vt 0.665991171875 1
vt 0.66015625 0.8359375
vt 0.859375 0.8359375
vt 0.853540078125 1
vt 0.66015625 0.8359375
vt 0.665991171875 0.671875
vt 0.853540078125 0.671875
vt 0.859375 0.8359375
vt 0.25 1
vt 0.2744565625 0.88671875
vt 0.4130434375 0.88671875
vt 0.4375 1
vt 0.21484375 0.58203125
vt 0.187678046875 0.69140625
vt 0.101384453125 0.69140625
vt 0.07421875 0.58203125
vt 0.0859375 1
vt 0.082115390625 0.8125
vt 0.003822109375 0.8125
vt 0 1
vt 0.082115390625 0.8125
vt 0.0859375 1
vt 0 1
vt 0.003822109375 0.8125
vt 0.187678046875 0.69140625
vt 0.21484375 0.58203125
vt 0.07421875 0.58203125
vt 0.101384453125 0.69140625
vt 0.2744565625 0.88671875
vt 0.25 1
vt 0.4375 1
vt 0.4130434375 0.88671875
vt 0.665991171875 1
vt 0.66015625 0.8359375
vt 0.859375 0.8359375
vt 0.853540078125 1
vt 0.66015625 0.8359375
vt 0.665991171875 0.671875
vt 0.853540078125 0.671875
vt 0.859375 0.8359375
vt 0.25 1
vt 0.2744565625 0.88671875
vt 0.4130434375 0.88671875
vt 0.4375 1
vt 0.3828125 0.546875
vt 0.409978203125 0.4375
vt 0.496271796875 0.4375
vt 0.5234375 0.546875
vt 0.0859375 1
vt 0.082115390625 0.8125
vt 0.003822109375 0.8125
vt 0 1
vt 0.082115390625 0.8125
vt 0.0859375 1
vt 0 1
vt 0.003822109375 0.8125
vt 0.187678046875 0.69140625
vt 0.21484375 0.58203125
vt 0.07421875 0.58203125
vt 0.101384453125 0.69140625
vt 0.2744565625 0.88671875
vt 0.25 1
vt 0.4375 1
vt 0.4130434375 0.88671875
vt 0.665991171875 1
vt 0.66015625 0.8359375
vt 0.859375 0.8359375
vt 0.853540078125 1
vt 0.66015625 0.8359375
vt 0.665991171875 0.671875
vt 0.853540078125 0.671875
vt 0.859375 0.8359375
vt 0.25 1
vt 0.2744565625 0.88671875
vt 0.4130434375 0.88671875
vt 0.4375 1
vt 0.21484375 0.58203125
vt 0.187678046875 0.69140625
vt 0.101384453125 0.69140625
vt 0.07421875 0.58203125
vt 0.0859375 1
vt 0.082115390625 0.8125
vt 0.003822109375 0.8125
vt 0 1
vt 0.082115390625 0.8125
vt 0.0859375 1
vt 0 1
vt 0.003822109375 0.8125
vt 0.187678046875 0.691405859375
vt 0.21484375 0.58203125
vt 0.07421875 0.58203125
vt 0.101384453125 0.69140625
vt 0.2744565625 0.88671875
vt 0.25 1
vt 0.4375 1
vt 0.4130434375 0.88671875
vt 0.665991171875 1
vt 0.66015625 0.8359375
vt 0.859375 0.8359375
vt 0.853540078125 1
vt 0.66015625 0.8359375
vt 0.665991171875 0.671875
vt 0.853540078125 0.671875
vt 0.859375 0.8359375
vt 0.25 1
vt 0.2744565625 0.88671875
vt 0.4130434375 0.88671875
vt 0.4375 1
vt 0.078125 0.546875
vt 0.105290703125 0.4375
vt 0.191584296875 0.4375
vt 0.21875 0.546875
vt 0.0859375 1
vt 0.082115390625 0.8125
vt 0.003822109375 0.8125
vt 0 1
vt 0.082115390625 0.8125
vt 0.0859375 1
vt 0 1
vt 0.003822109375 0.8125
vt 0.191584296875 0.4375
vt 0.21875 0.546875
vt 0.078125 0.546875
vt 0.105290703125 0.4375
vn 0.22026586762450626 0.8977370847430297 0.3815115650104328
vn 0.49016362457840223 0.19737828120764056 0.848988477688408
vn 0.4901638067596253 -0.19737827036617453 0.8489883750265195
vn 0.22026590284444536 -0.8977370809111772 0.3815115536929383
vn -0.14157029384089911 -0.9590784023620403 -0.24520699424053527
vn -0.49676167127969173 -0.1136250317967328 -0.8604168722756425
vn -0.4967617729231334 0.11362502825361111 -0.8604168140596924
vn -0.14157037740015674 0.9590783962160345 -0.2452069700364496
vn 0.3815115266892355 0.8977371064568572 0.22026584549974637
vn 0.8489884169280293 0.19737862967427378 0.49016358949838856
vn 0.8489883104854088 -0.19737864051571563 0.4901637694967869
vn 0.3815115018466239 -0.8977371102887035 0.22026587291094762
vn -0.24520708756949583 -0.9590783705468922 -0.141570347724388
vn -0.8604168801662636 -0.11362495212855561 -0.49676167583534175
vn -0.8604168212484655 0.11362495567168344 -0.4967617770735726
vn -0.2452070273070691 0.9590783766929032 -0.14157041046538005
vn 0.44053162363570564 0.8977370932388219 0
vn 0.9803273831144126 0.1973783724627596 0
vn 0.9803273831144126 -0.19737837246275966 0
vn 0.44053162363570575 -0.8977370932388219 0
vn -0.28314066499512064 -0.9590783929513379 0
vn -0.9935237076525371 -0.11362500751311788 0
vn -0.9935237076525371 0.1136250075131179 0
vn -0.28314066499512064 0.9590783929513379 0
vn 0.38151156501043293 0.8977370847430299 -0.2202658676245063
vn 0.8489884776884081 0.1973782812076406 -0.4901636245784023
vn 0.8489883750265195 -0.19737827036617453 -0.4901638067596253
vn 0.3815115536929383 -0.8977370809111772 -0.22026590284444536
vn -0.24520699424053527 -0.9590784023620403 0.14157029384089911
vn -0.8604168722756425 -0.1136250317967328 0.49676167127969173
vn -0.8604168140596924 0.11362502825361111 0.4967617729231334
vn -0.2452069700364496 0.9590783962160345 0.14157037740015674
vn 0.22026584549974637 0.8977371064568572 -0.3815115266892355
vn 0.49016358949838856 0.19737862967427378 -0.8489884169280293
vn 0.4901637694967869 -0.19737864051571563 -0.8489883104854088
vn 0.22026587291094762 -0.8977371102887035 -0.3815115018466239
vn -0.141570347724388 -0.9590783705468922 0.24520708756949583
vn -0.49676167583534175 -0.11362495212855561 0.8604168801662636
vn -0.4967617770735727 0.11362495567168347 0.8604168212484657
vn -0.14157041046538005 0.9590783766929032 0.2452070273070691
vn 0 0.8977370932388219 -0.44053162363570564
vn 0 0.1973783724627596 -0.9803273831144126
vn 0 -0.19737837246275966 -0.9803273831144126
vn 0 -0.8977370932388219 -0.44053162363570575
vn 0 -0.9590783929513379 0.28314066499512064
vn 0 -0.11362500751311788 0.9935237076525371
vn 0 0.1136250075131179 0.9935237076525371
vn 0 0.9590783929513379 0.28314066499512064
vn -0.22026586762450626 0.8977370847430297 -0.3815115650104328
vn -0.49016362457840223 0.19737828120764056 -0.848988477688408
vn -0.4901638067596253 -0.19737827036617453 -0.8489883750265195
vn -0.22026590284444536 -0.8977370809111772 -0.3815115536929383
vn 0.14157029384089911 -0.9590784023620403 0.24520699424053527
vn 0.49676167127969173 -0.1136250317967328 0.8604168722756425
vn 0.4967617729231334 0.11362502825361111 0.8604168140596924
vn 0.14157037740015674 0.9590783962160345 0.2452069700364496
vn -0.3815115266892355 0.8977371064568572 -0.22026584549974637
vn -0.8489884169280293 0.19737862967427378 -0.49016358949838856
vn -0.8489883104854088 -0.19737864051571563 -0.4901637694967869
vn -0.3815115018466239 -0.8977371102887035 -0.22026587291094762
vn 0.24520708756949583 -0.9590783705468922 0.141570347724388
vn 0.8604168801662636 -0.11362495212855561 0.49676167583534175
vn 0.8604168212484655 0.11362495567168344 0.4967617770735726
vn 0.2452070273070691 0.9590783766929032 0.14157041046538005
vn -0.44053162363570564 0.8977370932388219 0
vn -0.9803273831144126 0.1973783724627596 0
vn -0.9803273831144126 -0.19737837246275966 0
vn -0.44053162363570575 -0.8977370932388219 0
vn 0.28314066499512064 -0.9590783929513379 0
vn 0.9935237076525371 -0.11362500751311788 0
vn 0.9935237076525371 0.1136250075131179 0
vn 0.28314066499512064 0.9590783929513379 0
vn -0.38151156501043293 0.8977370847430299 0.2202658676245063
vn -0.8489884776884081 0.1973782812076406 0.4901636245784023
vn -0.8489883750265195 -0.19737827036617453 0.4901638067596253
vn -0.3815115536929383 -0.8977370809111772 0.22026590284444536
vn 0.24520699424053527 -0.9590784023620403 -0.14157029384089911
vn 0.8604168722756425 -0.1136250317967328 -0.49676167127969173
vn 0.8604168140596924 0.11362502825361111 -0.4967617729231334
vn 0.2452069700364496 0.9590783962160345 -0.14157037740015674
vn -0.22026584549974637 0.8977371064568572 0.3815115266892355
vn -0.49016358949838856 0.19737862967427378 0.8489884169280293
vn -0.4901637694967869 -0.19737864051571563 0.8489883104854088
vn -0.22026587291094762 -0.8977371102887035 0.3815115018466239
vn 0.141570347724388 -0.9590783705468922 -0.24520708756949583
vn 0.49676167583534175 -0.11362495212855561 -0.8604168801662636
vn 0.4967617770735727 0.11362495567168347 -0.8604168212484657
vn 0.14157041046538005 0.9590783766929032 -0.2452070273070691
vn 0 0.8977370932388219 0.44053162363570564
vn 0 0.1973783724627596 0.9803273831144126
vn 0 -0.19737837246275966 0.9803273831144126
vn 0 -0.8977370932388219 0.44053162363570575
vn 0 -0.9590783929513379 -0.28314066499512064
vn 0 -0.11362500751311788 -0.9935237076525371
vn 0 0.1136250075131179 -0.9935237076525371
vn 0 0.9590783929513379 -0.28314066499512064
usemtl m_7d3d79da-8346-2a30-98f8-34a2b0d3a67d
f 123/409/109 124/410/109 132/411/109 131/412/109
f 124/413/110 125/414/110 133/415/110 132/416/110
f 125/417/111 126/418/111 134/419/111 133/420/111
f 126/421/112 127/422/112 135/423/112 134/424/112
f 127/425/113 128/426/113 136/427/113 135/428/113
f 128/429/114 129/430/114 137/431/114 136/432/114
f 129/433/115 130/434/115 138/435/115 137/436/115
f 130/437/116 123/438/116 131/439/116 138/440/116
f 131/441/117 132/442/117 140/443/117 139/444/117
f 132/445/118 133/446/118 141/447/118 140/448/118
f 133/449/119 134/450/119 142/451/119 141/452/119
f 134/453/120 135/454/120 143/455/120 142/456/120
f 135/457/121 136/458/121 144/459/121 143/460/121
f 136/461/122 137/462/122 145/463/122 144/464/122
f 137/465/123 138/466/123 146/467/123 145/468/123
f 138/469/124 131/470/124 139/471/124 146/472/124
f 139/473/125 140/474/125 148/475/125 147/476/125
f 140/477/126 141/478/126 149/479/126 148/480/126
f 141/481/127 142/482/127 150/483/127 149/484/127
f 142/485/128 143/486/128 151/487/128 150/488/128
f 143/489/129 144/490/129 152/491/129 151/492/129
f 144/493/130 145/494/130 153/495/130 152/496/130
f 145/497/131 146/498/131 154/499/131 153/500/131
f 146/501/132 139/502/132 147/503/132 154/504/132
f 147/505/133 148/506/133 156/507/133 155/508/133
f 148/509/134 149/510/134 157/511/134 156/512/134
f 149/513/135 150/514/135 158/515/135 157/516/135
f 150/517/136 151/518/136 159/519/136 158/520/136
f 151/521/137 152/522/137 160/523/137 159/524/137
f 152/525/138 153/526/138 161/527/138 160/528/138
f 153/529/139 154/530/139 162/531/139 161/532/139
f 154/533/140 147/534/140 155/535/140 162/536/140
f 155/537/141 156/538/141 164/539/141 163/540/141
f 156/541/142 157/542/142 165/543/142 164/544/142
f 157/545/143 158/546/143 166/547/143 165/548/143
f 158/549/144 159/550/144 167/551/144 166/552/144
f 159/553/145 160/554/145 168/555/145 167/556/145
f 160/557/146 161/558/146 169/559/146 168/560/146
f 161/561/147 162/562/147 170/563/147 169/564/147
f 162/565/148 155/566/148 163/567/148 170/568/148
f 163/569/149 164/570/149 172/571/149 171/572/149
f 164/573/150 165/574/150 173/575/150 172/576/150
f 165/577/151 166/578/151 174/579/151 173/580/151
f 166/581/152 167/582/152 175/583/152 174/584/152
f 167/585/153 168/586/153 176/587/153 175/588/153
f 168/589/154 169/590/154 177/591/154 176/592/154
f 169/593/155 170/594/155 178/595/155 177/596/155
f 170/597/156 163/598/156 171/599/156 178/600/156
f 171/601/157 172/602/157 180/603/157 179/604/157
f 172/605/158 173/606/158 181/607/158 180/608/158
f 173/609/159 174/610/159 182/611/159 181/612/159
f 174/613/160 175/614/160 183/615/160 182/616/160
f 175/617/161 176/618/161 184/619/161 183/620/161
f 176/621/162 177/622/162 185/623/162 184/624/162
f 177/625/163 178/626/163 186/627/163 185/628/163
f 178/629/164 171/630/164 179/631/164 186/632/164
f 179/633/165 180/634/165 188/635/165 187/636/165
f 180/637/166 181/638/166 189/639/166 188/640/166
f 181/641/167 182/642/167 190/643/167 189/644/167
f 182/645/168 183/646/168 191/647/168 190/648/168
f 183/649/169 184/650/169 192/651/169 191/652/169
f 184/653/170 185/654/170 193/655/170 192/656/170
f 185/657/171 186/658/171 194/659/171 193/660/171
f 186/661/172 179/662/172 187/663/172 194/664/172
f 187/665/173 188/666/173 196/667/173 195/668/173
f 188/669/174 189/670/174 197/671/174 196/672/174
f 189/673/175 190/674/175 198/675/175 197/676/175
f 190/677/176 191/678/176 199/679/176 198/680/176
f 191/681/177 192/682/177 200/683/177 199/684/177
f 192/685/178 193/686/178 201/687/178 200/688/178
f 193/689/179 194/690/179 202/691/179 201/692/179
f 194/693/180 187/694/180 195/695/180 202/696/180
f 195/697/181 196/698/181 204/699/181 203/700/181
f 196/701/182 197/702/182 205/703/182 204/704/182
f 197/705/183 198/706/183 206/707/183 205/708/183
f 198/709/184 199/710/184 207/711/184 206/712/184
f 199/713/185 200/714/185 208/715/185 207/716/185
f 200/717/186 201/718/186 209/719/186 208/720/186
f 201/721/187 202/722/187 210/723/187 209/724/187
f 202/725/188 195/726/188 203/727/188 210/728/188
f 203/729/189 204/730/189 212/731/189 211/732/189
f 204/733/190 205/734/190 213/735/190 212/736/190
f 205/737/191 206/738/191 214/739/191 213/740/191
f 206/741/192 207/742/192 215/743/192 214/744/192
f 207/745/193 208/746/193 216/747/193 215/748/193
f 208/749/194 209/750/194 217/751/194 216/752/194
f 209/753/195 210/754/195 218/755/195 217/756/195
f 210/757/196 203/758/196 211/759/196 218/760/196
f 211/761/197 212/762/197 124/763/197 123/764/197
f 212/765/198 213/766/198 125/767/198 124/768/198
f 213/769/199 214/770/199 126/771/199 125/772/199
f 214/773/200 215/774/200 127/775/200 126/776/200
f 215/777/201 216/778/201 128/779/201 127/780/201
f 216/781/202 217/782/202 129/783/202 128/784/202
f 217/785/203 218/786/203 130/787/203 129/788/203
f 218/789/204 211/790/204 123/791/204 130/792/204
o rim
v 0.46875 2.1874999999999996 0.46875
v 0.46875 2.1874999999999996 -0.46875
v -0.46875 2.1874999999999996 0.46875
v -0.46875 2.1874999999999996 -0.46875
v 0.46875 -2.1875000000000004 0.46875
v 0.46875 -2.1875000000000004 -0.46875
v -0.46875 -2.1875000000000004 0.46875
v -0.46875 -2.1875000000000004 -0.46875
v -0.75 -1.9687500000000004 0.46875
v -0.75 1.9687499999999996 0.46875
v -0.75 -1.9687500000000004 -0.46875
v -0.75 1.9687499999999996 -0.46875
v 0.75 -1.9687500000000004 0.46875
v 0.75 1.9687499999999996 0.46875
v 0.75 -1.9687500000000004 -0.46875
v 0.75 1.9687499999999996 -0.46875
v 0.46875 -1.9687500000000004 -0.75
v 0.46875 1.9687499999999996 -0.75
v -0.46875 -1.9687500000000004 -0.75
v -0.46875 1.9687499999999996 -0.75
v 0.46875 -1.9687500000000004 0.75
v 0.46875 1.9687499999999996 0.75
v -0.46875 -1.9687500000000004 0.75
v -0.46875 1.9687499999999996 0.75
vt 0.1484375 0.9375
vt 0.08984375 0.9375
vt 0.08984375 0.69921875
vt 0.1484375 0.69921875
vt 0.1484375 0.69921875
vt 0.1484375 0.9375
vt 0.08984375 0.9375
vt 0.08984375 0.69921875
vt 0.14453125 0.94140625
vt 0.14453125 1
vt 0.0859375 1
vt 0.0859375 0.94140625
vt 0.0859375 0.94140625
vt 0.14453125 0.94140625
vt 0.14453125 1
vt 0.0859375 1
vt 0.1484375 0.69921875
vt 0.1484375 0.9375
vt 0.08984375 0.9375
vt 0.08984375 0.69921875
vt 0.1484375 0.9375
vt 0.08984375 0.9375
vt 0.08984375 0.69921875
vt 0.1484375 0.69921875
vt 0.20703125 0.96875
vt 0.1484375 0.96875
vt 0.1484375 0.94140625
vt 0.20703125 0.94140625
vt 0.20703125 0.94140625
vt 0.20703125 0.96875
vt 0.1484375 0.96875
vt 0.1484375 0.94140625
vt 0.224609375 0.9765625
vt 0.224609375 1
vt 0.166015625 1
vt 0.166015625 0.9765625
vt 0.224609375 1
vt 0.166015625 1
vt 0.166015625 0.9765625
vt 0.224609375 0.9765625
vt 0.1484375 0.94140625
vt 0.1484375 0.96875
vt 0.20703125 0.96875
vt 0.20703125 0.94140625
vt 0.1484375 0.96875
vt 0.20703125 0.96875
vt 0.20703125 0.94140625
vt 0.1484375 0.94140625
vt 0.166015625 1
vt 0.224609375 1
vt 0.224609375 0.9765625
vt 0.166015625 0.9765625
vt 0.166015625 0.9765625
vt 0.166015625 1
vt 0.224609375 1
vt 0.224609375 0.9765625
vt 0.15234375 0.69921875
vt 0.17578125 0.69921875
vt 0.17578125 0.9375
vt 0.15234375 0.9375
vt 0.15234375 0.9375
vt 0.15234375 0.69921875
vt 0.17578125 0.69921875
vt 0.17578125 0.9375
vt 0.15234375 0.9375
vt 0.15234375 0.69921875
vt 0.17578125 0.69921875
vt 0.17578125 0.9375
vt 0.15234375 0.69921875
vt 0.17578125 0.69921875
vt 0.17578125 0.9375
vt 0.15234375 0.9375
vt 0.224609375 1
vt 0.24552515625 0.9914828125
vt 0.224609375 0.9765625
vt 0.166015625 1
vt 0.166015625 0.9765625
vt 0.14549046875 0.9914828125
vt 0.166015625 1
vt 0.166015625 0.9765625
vt 0.14549046875 0.9914828125
vt 0.224609375 1
vt 0.24552515625 0.9914828125
vt 0.224609375 0.9765625
vt 0.224609375 1
vt 0.224609375 0.9765625
vt 0.24552515625 0.9914828125
vt 0.166015625 1
vt 0.14549046875 0.9914828125
vt 0.166015625 0.9765625
vt 0.166015625 1
vt 0.14549046875 0.9914828125
vt 0.166015625 0.9765625
vt 0.224609375 1
vt 0.224609375 0.9765625
vt 0.24552515625 0.9914828125
vn 1 0 0
vn -1 0 0
vn 0 1 0
vn 0 -1 0
vn 0 0 1
vn 0 0 -1
vn 0.6139406135149206 0.7893522173763264 0
vn -0.6139406135149206 0.7893522173763264 0
vn 0 0.7893522173763264 0.6139406135149206
vn 0 0.7893522173763264 -0.6139406135149206
vn 0.6139406135149206 -0.7893522173763264 0
vn -0.6139406135149206 -0.7893522173763264 0
vn 0 -0.7893522173763264 0.6139406135149206
vn 0 -0.7893522173763264 -0.6139406135149206
vn 0.7071067811865476 0 -0.7071067811865476
vn 0.7071067811865476 0 0.7071067811865476
vn -0.7071067811865476 0 -0.7071067811865476
vn -0.7071067811865476 0 0.7071067811865476
vn 0.5232045649263551 -0.6726915834767423 0.5232045649263551
vn -0.5232045649263551 -0.6726915834767423 0.5232045649263551
vn 0.5232045649263551 -0.6726915834767423 -0.5232045649263551
vn -0.5232045649263551 -0.6726915834767423 -0.5232045649263551
vn 0.5232045649263551 0.6726915834767423 0.5232045649263551
vn -0.5232045649263551 0.6726915834767423 0.5232045649263551
vn 0.5232045649263551 0.6726915834767423 -0.5232045649263551
vn -0.5232045649263551 0.6726915834767423 -0.5232045649263551
usemtl m_7d3d79da-8346-2a30-98f8-34a2b0d3a67d
f 234/793/205 232/794/205 231/795/205 233/796/205
f 227/797/206 228/798/206 230/799/206 229/800/206
f 219/801/207 220/802/207 222/803/207 221/804/207
f 226/805/208 224/806/208 223/807/208 225/808/208
f 239/809/209 240/810/209 242/811/209 241/812/209
f 238/813/210 236/814/210 235/815/210 237/816/210
f 220/817/211 219/818/211 232/819/211 234/820/211
f 228/821/212 221/822/212 222/823/212 230/824/212
f 240/825/213 219/826/213 221/827/213 242/828/213
f 222/829/214 220/830/214 236/831/214 238/832/214
f 231/833/215 223/834/215 224/835/215 233/836/215
f 226/837/216 225/838/216 227/839/216 229/840/216
f 225/841/217 223/842/217 239/843/217 241/844/217
f 235/845/218 224/846/218 226/847/218 237/848/218
f 233/849/219 235/850/219 236/851/219 234/852/219
f 240/853/220 239/854/220 231/855/220 232/856/220
f 238/857/221 237/858/221 229/859/221 230/860/221
f 227/861/222 241/862/222 242/863/222 228/864/222
f 223/865/223 231/866/223 239/867/223
f 225/868/224 241/869/224 227/870/224
f 224/871/225 235/872/225 233/873/225
f 226/874/226 229/875/226 237/876/226
f 219/877/227 240/878/227 232/879/227
f 221/880/228 228/881/228 242/882/228
f 220/883/229 234/884/229 236/885/229
f 222/886/230 238/887/230 230/888/230
o rim
v 0.703366875 -2 2.625
v 0.703366875 2 2.625
v 0.552336875 -2 2.06135
v 0.552336875 2 2.06135
v 1.921633125 -2 1.921633125
v 1.921633125 2 1.921633125
v 1.509013125 -2 1.509013125
v 1.509013125 2 1.509013125
v 2.625 -2 0.703366875
v 2.625 2 0.703366875
v 2.06135 -2 0.552336875
v 2.06135 2 0.552336875
v 2.625 -2 -0.703366875
v 2.625 2 -0.703366875
v 2.06135 -2 -0.552336875
v 2.06135 2 -0.552336875
v 1.921633125 -2 -1.921633125
v 1.921633125 2 -1.921633125
v 1.509013125 -2 -1.509013125
v 1.509013125 2 -1.509013125
v 0.703366875 -2 -2.625
v 0.703366875 2 -2.625
v 0.552336875 -2 -2.06135
v 0.552336875 2 -2.06135
v -0.703366875 -2 -2.625
v -0.703366875 2 -2.625
v -0.552336875 -2 -2.06135
v -0.552336875 2 -2.06135
v -1.921633125 -2 -1.921633125
v -1.921633125 2 -1.921633125
v -1.509013125 -2 -1.509013125
v -1.509013125 2 -1.509013125
v -2.625 -2 -0.703366875
v -2.625 2 -0.703366875
v -2.06135 -2 -0.552336875
v -2.06135 2 -0.552336875
v -2.625 -2 0.703366875
v -2.625 2 0.703366875
v -2.06135 -2 0.552336875
v -2.06135 2 0.552336875
v -1.921633125 -2 1.921633125
v -1.921633125 2 1.921633125
v -1.509013125 -2 1.509013125
v -1.509013125 2 1.509013125
v -0.703366875 -2 2.625
v -0.703366875 2 2.625
v -0.552336875 -2 2.06135
v -0.552336875 2 2.06135
vt 0 0.4375
vt 0.04296875 0.4375
vt 0.04296875 0.578125
vt 0 0.578125
vt 0.953125 1
vt 0.8828125 1
vt 0.8828125 0.625
vt 0.953125 0.625
vt 0.4014465234375 0.846677890625
vt 0.4609540625 0.81232125
vt 0.48662 0.8379871875
vt 0.4108409375 0.88173828125
vt 0.4108409375 0.881738671875
vt 0.48662 0.837987578125
vt 0.4609540625 0.8123216015625
vt 0.4014465234375 0.84667828125
vt 0 0.4375
vt 0.04296875 0.4375
vt 0.04296875 0.578125
vt 0 0.578125
vt 0.953125 1
vt 0.8828125 1
vt 0.8828125 0.625
vt 0.953125 0.625
vt 0.4609540625 0.81232125
vt 0.495310703125 0.7528137109374999
vt 0.53037109375 0.762208125
vt 0.48662 0.8379871875
vt 0.48662 0.837987578125
vt 0.53037109375 0.762208515625
vt 0.495310703125 0.7528140624999999
vt 0.4609540625 0.8123216015625
vt 0 0.4375
vt 0.04296875 0.4375
vt 0.04296875 0.578125
vt 0 0.578125
vt 0.953125 1
vt 0.8828125 1
vt 0.8828125 0.625
vt 0.953125 0.625
vt 0.495310703125 0.7528137109374999
vt 0.495310703125 0.6841003515624999
vt 0.53037109375 0.6747059375
vt 0.53037109375 0.762208125
vt 0.53037109375 0.762208515625
vt 0.53037109375 0.674706328125
vt 0.495310703125 0.6841007421875
vt 0.495310703125 0.7528140624999999
vt 0 0.4375
vt 0.04296875 0.4375
vt 0.04296875 0.578125
vt 0 0.578125
vt 0.953125 1
vt 0.8828125 1
vt 0.8828125 0.625
vt 0.953125 0.625
vt 0.495310703125 0.6841003515624999
vt 0.4609540625 0.6245928125
vt 0.48662 0.5989268750000001
vt 0.53037109375 0.6747059375
vt 0.53037109375 0.674706328125
vt 0.48662 0.598927265625
vt 0.4609540625 0.624593203125
vt 0.495310703125 0.6841007421875
vt 0 0.4375
vt 0.06640625 0.4375
vt 0.06640625 0.578125
vt 0 0.578125
vt 0.953125 1
vt 0.8828125 1
vt 0.8828125 0.625
vt 0.953125 0.625
vt 0.4609540625 0.6245928125
vt 0.4014465234375 0.590236171875
vt 0.4108409375 0.55517578125
vt 0.48662 0.5989268750000001
vt 0.48662 0.598927265625
vt 0.4108409375 0.555176171875
vt 0.4014465234375 0.5902365234375
vt 0.4609540625 0.624593203125
vt 0.00002234375 0.4375
vt 0.06642859375 0.4375
vt 0.06642859375 0.578125
vt 0.00002234375 0.578125
vt 0.953125 1
vt 0.8828125 1
vt 0.8828125 0.625
vt 0.953125 0.625
vt 0.4014465234375 0.590236171875
vt 0.3327331640625 0.590236171875
vt 0.32333875 0.55517578125
vt 0.4108409375 0.55517578125
vt 0.4108409375 0.555176171875
vt 0.32333875 0.555176171875
vt 0.3327331640625 0.5902365234375
vt 0.4014465234375 0.5902365234375
vt 0.0000446875 0.4375
vt 0.0664509375 0.4375
vt 0.0664509375 0.578125
vt 0.0000446875 0.578125
vt 0.953125 1
vt 0.8828125 1
vt 0.8828125 0.625
vt 0.953125 0.625
vt 0.3327331640625 0.590236171875
vt 0.273225625 0.6245928125
vt 0.2475596875 0.5989268750000001
vt 0.32333875 0.55517578125
vt 0.32333875 0.555176171875
vt 0.2475596875 0.598927265625
vt 0.273225625 0.624593203125
vt 0.3327331640625 0.5902365234375
vt 0 0.4375
vt 0.06640625 0.4375
vt 0.06640625 0.578125
vt 0 0.578125
vt 0.953125 1
vt 0.8828125 1
vt 0.8828125 0.625
vt 0.953125 0.625
vt 0.273225625 0.6245928125
vt 0.238868984375 0.6841003515624999
vt 0.20380859375 0.6747059375
vt 0.2475596875 0.5989268750000001
vt 0.2475596875 0.598927265625
vt 0.20380859375 0.674706328125
vt 0.238868984375 0.6841007421875
vt 0.273225625 0.624593203125
vt 0.00002234375 0.4375
vt 0.06642859375 0.4375
vt 0.06642859375 0.578125
vt 0.00002234375 0.578125
vt 0.953125 1
vt 0.8828125 1
vt 0.8828125 0.625
vt 0.953125 0.625
vt 0.238868984375 0.6841003515624999
vt 0.238868984375 0.7528137109374999
vt 0.20380859375 0.762208125
vt 0.20380859375 0.6747059375
vt 0.20380859375 0.674706328125
vt 0.20380859375 0.762208515625
vt 0.238868984375 0.7528140624999999
vt 0.238868984375 0.6841007421875
vt 0.0000446875 0.4375
vt 0.0664509375 0.4375
vt 0.0664509375 0.578125
vt 0.0000446875 0.578125
vt 0.953125 1
vt 0.8828125 1
vt 0.8828125 0.625
vt 0.953125 0.625
vt 0.238868984375 0.7528137109374999
vt 0.273225625 0.81232125
vt 0.2475596875 0.8379871875
vt 0.20380859375 0.762208125
vt 0.20380859375 0.762208515625
vt 0.2475596875 0.837987578125
vt 0.273225625 0.8123216015625
vt 0.238868984375 0.7528140624999999
vt 0 0.4375
vt 0.04296875 0.4375
vt 0.04296875 0.578125
vt 0 0.578125
vt 0.953125 1
vt 0.8828125 1
vt 0.8828125 0.625
vt 0.953125 0.625
vt 0.273225625 0.81232125
vt 0.3327331640625 0.846677890625
vt 0.32333875 0.88173828125
vt 0.2475596875 0.8379871875
vt 0.2475596875 0.837987578125
vt 0.32333875 0.881738671875
vt 0.3327331640625 0.84667828125
vt 0.273225625 0.8123216015625
vt 0 0.4375
vt 0.04296875 0.4375
vt 0.04296875 0.578125
vt 0 0.578125
vt 0.953125 1
vt 0.8828125 1
vt 0.8828125 0.625
vt 0.953125 0.625
vt 0.3327331640625 0.846677890625
vt 0.4014465234375 0.846677890625
vt 0.4108409375 0.88173828125
vt 0.32333875 0.88173828125
vt 0.32333875 0.881738671875
vt 0.4108409375 0.881738671875
vt 0.4014465234375 0.84667828125
vt 0.3327331640625 0.84667828125
vn 0.5000002812995591 0 0.8660252413760018
vn -0.4999997179271528 0 -0.8660255666392117
vn 0 -1 0
vn 0 1 0
vn 0.8660252413760018 0 0.5000002812995591
vn -0.8660255666392117 0 -0.4999997179271528
vn 0 -1 0
vn 0 1 0
vn 1 0 0
vn -1 0 0
vn 0 -1 0
vn 0 1 0
vn 0.8660252413760018 0 -0.5000002812995591
vn -0.8660255666392117 0 0.4999997179271528
vn 0 -1 0
vn 0 1 0
vn 0.5000002812995591 0 -0.8660252413760018
vn -0.4999997179271528 0 0.8660255666392117
vn 0 -1 0
vn 0 1 0
vn 0 0 -1
vn 0 0 1
vn 0 -1 0
vn 0 1 0
vn -0.5000002812995591 0 -0.8660252413760018
vn 0.4999997179271528 0 0.8660255666392117
vn 0 -1 0
vn 0 1 0
vn -0.8660252413760018 0 -0.5000002812995591
vn 0.8660255666392117 0 0.4999997179271528
vn 0 -1 0
vn 0 1 0
vn -1 0 0
vn 1 0 0
vn 0 -1 0
vn 0 1 0
vn -0.8660252413760018 0 0.5000002812995591
vn 0.8660255666392117 0 -0.4999997179271528
vn 0 -1 0
vn 0 1 0
vn -0.5000002812995591 0 0.8660252413760018
vn 0.4999997179271528 0 -0.8660255666392117
vn 0 -1 0
vn 0 1 0
vn 0 0 1
vn 0 0 -1
vn 0 -1 0
vn 0 1 0
usemtl m_7d3d79da-8346-2a30-98f8-34a2b0d3a67d
f 243/889/231 247/890/231 248/891/231 244/892/231
f 246/893/232 250/894/232 249/895/232 245/896/232
f 245/897/233 249/898/233 247/899/233 243/900/233
f 244/901/234 248/902/234 250/903/234 246/904/234
f 247/905/235 251/906/235 252/907/235 248/908/235
f 250/909/236 254/910/236 253/911/236 249/912/236
f 249/913/237 253/914/237 251/915/237 247/916/237
f 248/917/238 252/918/238 254/919/238 250/920/238
f 251/921/239 255/922/239 256/923/239 252/924/239
f 254/925/240 258/926/240 257/927/240 253/928/240
f 253/929/241 257/930/241 255/931/241 251/932/241
f 252/933/242 256/934/242 258/935/242 254/936/242
f 255/937/243 259/938/243 260/939/243 256/940/243
f 258/941/244 262/942/244 261/943/244 257/944/244
f 257/945/245 261/946/245 259/947/245 255/948/245
f 256/949/246 260/950/246 262/951/246 258/952/246
f 259/953/247 263/954/247 264/955/247 260/956/247
f 262/957/248 266/958/248 265/959/248 261/960/248
f 261/961/249 265/962/249 263/963/249 259/964/249
f 260/965/250 264/966/250 266/967/250 262/968/250
f 263/969/251 267/970/251 268/971/251 264/972/251
f 266/973/252 270/974/252 269/975/252 265/976/252
f 265/977/253 269/978/253 267/979/253 263/980/253
f 264/981/254 268/982/254 270/983/254 266/984/254
f 267/985/255 271/986/255 272/987/255 268/988/255
f 270/989/256 274/990/256 273/991/256 269/992/256
f 269/993/257 273/994/257 271/995/257 267/996/257
f 268/997/258 272/998/258 274/999/258 270/1000/258
f 271/1001/259 275/1002/259 276/1003/259 272/1004/259
f 274/1005/260 278/1006/260 277/1007/260 273/1008/260
f 273/1009/261 277/1010/261 275/1011/261 271/1012/261
f 272/1013/262 276/1014/262 278/1015/262 274/1016/262
f 275/1017/263 279/1018/263 280/1019/263 276/1020/263
f 278/1021/264 282/1022/264 281/1023/264 277/1024/264
f 277/1025/265 281/1026/265 279/1027/265 275/1028/265
f 276/1029/266 280/1030/266 282/1031/266 278/1032/266
f 279/1033/267 283/1034/267 284/1035/267 280/1036/267
f 282/1037/268 286/1038/268 285/1039/268 281/1040/268
f 281/1041/269 285/1042/269 283/1043/269 279/1044/269
f 280/1045/270 284/1046/270 286/1047/270 282/1048/270
f 283/1049/271 287/1050/271 288/1051/271 284/1052/271
f 286/1053/272 290/1054/272 289/1055/272 285/1056/272
f 285/1057/273 289/1058/273 287/1059/273 283/1060/273
f 284/1061/274 288/1062/274 290/1063/274 286/1064/274
f 287/1065/275 243/1066/275 244/1067/275 288/1068/275
f 290/1069/276 246/1070/276 245/1071/276 289/1072/276
f 289/1073/277 245/1074/277 243/1075/277 287/1076/277
f 288/1077/278 244/1078/278 246/1079/278 290/1080/278