# Made in Blockbench 5.1.4
mtllib small_steel_traction_engine_wheel.mtl

o rim
v 0.140625 0.17187500000000006 0.140625
v 0.140625 0.17187500000000006 -0.140625
v -0.140625 0.17187499999999997 0.140625
v -0.140625 0.17187499999999997 -0.140625
v 0.140625 0.25000000000000006 0.140625
v 0.140625 0.25000000000000006 -0.140625
v -0.140625 0.25 0.140625
v -0.140625 0.25 -0.140625
vt 0.4375 0.1875
vt 0.4375 0.34375
vt 0.28125 0.34375
vt 0.28125 0.1875
vt 0.4375 0.1875
vt 0.4375 0.34375
vt 0.28125 0.34375
vt 0.28125 0.1875
vt 0.28125 0.34375
vt 0.28125 0.5
vt 0.25 0.5
vt 0.25 0.34375
vt 0.28125 0.34375
vt 0.28125 0.5
vt 0.25 0.5
vt 0.25 0.34375
vt 0.28125 0.34375
vt 0.28125 0.5
vt 0.25 0.5
vt 0.25 0.34375
vt 0.28125 0.34375
vt 0.28125 0.5
vt 0.25 0.5
vt 0.25 0.34375
vn 2.220446049250313e-16 -1 0
vn -2.220446049250313e-16 1 0
vn 1 2.220446049250313e-16 0
vn -1 -2.220446049250313e-16 0
vn 0 0 1
vn 0 0 -1
usemtl m_3e53496a-8ec8-a43e-e3d1-5497141f3f54
f 4/1/1 2/2/1 1/3/1 3/4/1
f 7/5/2 5/6/2 6/7/2 8/8/2
f 1/9/3 2/10/3 6/11/3 5/12/3
f 4/13/4 3/14/4 7/15/4 8/16/4
f 3/17/5 1/18/5 5/19/5 7/20/5
f 8/21/6 6/22/6 2/23/6 4/24/6
o rim
v 0.25000000000000006 -0.17187499999999994 0.25
v 0.25000000000000006 -0.17187499999999994 -0.25
v -0.24999999999999997 -0.17187500000000006 0.25
v -0.24999999999999997 -0.17187500000000006 -0.25
v 0.24999999999999994 0.17187500000000006 0.25
v 0.24999999999999994 0.17187500000000006 -0.25
v -0.25 0.17187499999999994 0.25
v -0.25 0.17187499999999994 -0.25
vt 0.25 0.25
vt 0.25 0.5
vt 0 0.5
vt 0 0.25
vt 0.25 0.25
vt 0.25 0.5
vt 0 0.5
vt 0 0.25
vt 0.46875 0.34375
vt 0.46875 0.59375
vt 0.28125 0.59375
vt 0.28125 0.34375
vt 0.46875 0.34375
vt 0.46875 0.59375
vt 0.28125 0.59375
vt 0.28125 0.34375
vt 0.46875 0.34375
vt 0.46875 0.59375
vt 0.28125 0.59375
vt 0.28125 0.34375
vt 0.46875 0.34375
vt 0.46875 0.59375
vt 0.28125 0.59375
vt 0.28125 0.34375
vn 2.220446049250313e-16 -1 0
vn -2.220446049250313e-16 1 0
vn 1 2.220446049250313e-16 0
vn -1 -2.220446049250313e-16 0
vn 0 0 1
vn 0 0 -1
usemtl m_3e53496a-8ec8-a43e-e3d1-5497141f3f54
f 12/25/7 10/26/7 9/27/7 11/28/7
f 15/29/8 13/30/8 14/31/8 16/32/8
f 9/33/9 10/34/9 14/35/9 13/36/9
f 12/37/10 11/38/10 15/39/10 16/40/10
f 11/41/11 9/42/11 13/43/11 15/44/11
f 16/45/12 14/46/12 10/47/12 12/48/12
o rim
v 1.3126837630052153 -0.04808775096018697 0.078125
v 1.3126837630052153 -0.04808775096018697 -0.078125
v 0.1198516641648497 0.10895157405456203 0.078125
v 0.1198516641648497 0.10895157405456203 -0.078125
v 1.3208416500189686 0.013877552875676158 0.078125
v 1.3208416500189686 0.013877552875676158 -0.078125
v 0.1280095511786029 0.17091687789042517 0.078125
v 0.1280095511786029 0.17091687789042517 -0.078125
vt 0.65625 0.40625
vt 0.65625 1
vt 0.5625 1
vt 0.5625 0.40625
vt 0.65625 0.40625
vt 0.65625 1
vt 0.5625 1
vt 0.5625 0.40625
vt 0.28125 0.25
vt 0.28125 0.34375
vt 0.25 0.34375
vt 0.25 0.25
vt 0.28125 0.25
vt 0.28125 0.34375
vt 0.25 0.34375
vt 0.25 0.25
vt 0.6875 0.40625
vt 0.6875 1
vt 0.65625 1
vt 0.65625 0.40625
vt 0.6875 0.40625
vt 0.6875 1
vt 0.65625 1
vt 0.65625 0.40625
vn -0.13052619222005116 -0.9914448613738106 0
vn 0.13052619222005116 0.9914448613738106 0
vn 0.9914448613738106 -0.13052619222005116 0
vn -0.9914448613738106 0.13052619222005116 0
vn 0 0 1
vn 0 0 -1
usemtl m_3e53496a-8ec8-a43e-e3d1-5497141f3f54
f 20/49/13 18/50/13 17/51/13 19/52/13
f 23/53/14 21/54/14 22/55/14 24/56/14
f 17/57/15 18/58/15 22/59/15 21/60/15
f 20/61/16 19/62/16 23/63/16 24/64/16
f 19/65/17 17/66/17 21/67/17 23/68/17
f 24/69/18 22/70/18 18/71/18 20/72/18
o rim
v 0.9892188048822402 -0.01387755287567588 -0.8787333703218424
v 0.8787333703218422 -0.01387755287567588 -0.9892188048822405
v 0.14575913897523557 -0.17091687789042515 -0.03527370441483752
v 0.03527370441483747 -0.17091687789042515 -0.14575913897523557
v 0.9834503076546616 0.0480877509601873 -0.8729648730942637
v 0.8729648730942635 0.0480877509601873 -0.9834503076546618
v 0.13999064174765702 -0.108951574054562 -0.029505207187258943
v 0.029505207187258922 -0.108951574054562 -0.139990641747657
vt 0.65625 0.40625
vt 0.65625 1
vt 0.5625 1
vt 0.5625 0.40625
vt 0.65625 0.40625
vt 0.65625 1
vt 0.5625 1
vt 0.5625 0.40625
vt 0.28125 0.25
vt 0.28125 0.34375
vt 0.25 0.34375
vt 0.25 0.25
vt 0.28125 0.25
vt 0.28125 0.34375
vt 0.25 0.34375
vt 0.25 0.25
vt 0.6875 0.40625
vt 0.6875 1
vt 0.65625 1
vt 0.65625 0.40625
vt 0.6875 0.40625
vt 0.6875 1
vt 0.65625 1
vt 0.65625 0.40625
vn 0.09229595564125709 -0.9914448613738106 -0.09229595564125712
vn -0.09229595564125709 0.9914448613738106 0.09229595564125712
vn 0.7010573846499778 0.13052619222005132 -0.701057384649978
vn -0.7010573846499778 -0.13052619222005132 0.701057384649978
vn 0.7071067811865476 -5.551115123125783e-17 0.7071067811865475
vn -0.7071067811865476 5.551115123125783e-17 -0.7071067811865475
usemtl m_3e53496a-8ec8-a43e-e3d1-5497141f3f54
f 28/73/19 26/74/19 25/75/19 27/76/19
f 31/77/20 29/78/20 30/79/20 32/80/20
f 25/81/21 26/82/21 30/83/21 29/84/21
f 28/85/22 27/86/22 31/87/22 32/88/22
f 27/89/23 25/90/23 29/91/23 31/92/23
f 32/93/24 30/94/24 26/95/24 28/96/24
o rim
v 0.8787333703218422 -0.01387755287567588 0.9892188048822405
v 0.9892188048822402 -0.01387755287567588 0.8787333703218424
v 0.03527370441483747 -0.17091687789042515 0.14575913897523557
v 0.14575913897523557 -0.17091687789042515 0.03527370441483752
v 0.8729648730942635 0.0480877509601873 0.9834503076546618
v 0.9834503076546616 0.0480877509601873 0.8729648730942637
v 0.029505207187258922 -0.108951574054562 0.139990641747657
v 0.13999064174765702 -0.108951574054562 0.029505207187258943
vt 0.65625 0.40625
vt 0.65625 1
vt 0.5625 1
vt 0.5625 0.40625
vt 0.65625 0.40625
vt 0.65625 1
vt 0.5625 1
vt 0.5625 0.40625
vt 0.28125 0.25
vt 0.28125 0.34375
vt 0.25 0.34375
vt 0.25 0.25
vt 0.28125 0.25
vt 0.28125 0.34375
vt 0.25 0.34375
vt 0.25 0.25
vt 0.6875 0.40625
vt 0.6875 1
vt 0.65625 1
vt 0.65625 0.40625
vt 0.6875 0.40625
vt 0.6875 1
vt 0.65625 1
vt 0.65625 0.40625
vn 0.09229595564125709 -0.9914448613738106 0.09229595564125712
vn -0.09229595564125709 0.9914448613738106 -0.09229595564125712
vn 0.7010573846499778 0.13052619222005132 0.701057384649978
vn -0.7010573846499778 -0.13052619222005132 -0.701057384649978
vn -0.7071067811865476 5.551115123125783e-17 0.7071067811865475
vn 0.7071067811865476 -5.551115123125783e-17 -0.7071067811865475
usemtl m_3e53496a-8ec8-a43e-e3d1-5497141f3f54
f 36/97/25 34/98/25 33/99/25 35/100/25
f 39/101/26 37/102/26 38/103/26 40/104/26
f 33/105/27 34/106/27 38/107/27 37/108/27
f 36/109/28 35/110/28 39/111/28 40/112/28
f 35/113/29 33/114/29 37/115/29 39/116/29
f 40/117/30 38/118/30 34/119/30 36/120/30
o rim
v -0.07812499999999983 -0.04808775096018697 1.3126837630052153
v 0.07812500000000014 -0.04808775096018697 1.3126837630052153
v -0.07812499999999997 0.10895157405456202 0.11985166416484971
v 0.078125 0.10895157405456204 0.11985166416484969
v -0.07812499999999985 0.013877552875676158 1.3208416500189686
v 0.07812500000000012 0.013877552875676158 1.3208416500189686
v -0.07812499999999997 0.17091687789042517 0.12800955117860294
v 0.078125 0.1709168778904252 0.12800955117860288
vt 0.65625 0.40625
vt 0.65625 1
vt 0.5625 1
vt 0.5625 0.40625
vt 0.65625 0.40625
vt 0.65625 1
vt 0.5625 1
vt 0.5625 0.40625
vt 0.28125 0.25
vt 0.28125 0.34375
vt 0.25 0.34375
vt 0.25 0.25
vt 0.28125 0.25
vt 0.28125 0.34375
vt 0.25 0.34375
vt 0.25 0.25
vt 0.6875 0.40625
vt 0.6875 1
vt 0.65625 1
vt 0.65625 0.40625
vt 0.6875 0.40625
vt 0.6875 1
vt 0.65625 1
vt 0.65625 0.40625
vn 8.108985449048014e-17 -0.9914448613738105 -0.13052619222005113
vn -8.108985449048014e-17 0.9914448613738105 0.13052619222005113
vn 2.346363009406352e-16 -0.13052619222005124 0.9914448613738105
vn -2.346363009406352e-16 0.13052619222005124 -0.9914448613738105
vn -1 -2.346363009406352e-16 8.108985449048014e-17
vn 1 2.346363009406352e-16 -8.108985449048014e-17
usemtl m_3e53496a-8ec8-a43e-e3d1-5497141f3f54
f 44/121/31 42/122/31 41/123/31 43/124/31
f 47/125/32 45/126/32 46/127/32 48/128/32
f 41/129/33 42/130/33 46/131/33 45/132/33
f 44/133/34 43/134/34 47/135/34 48/136/34
f 43/137/35 41/138/35 45/139/35 47/140/35
f 48/141/36 46/142/36 42/143/36 44/144/36
o rim
v -0.9892188048822401 -0.013877552875675853 0.8787333703218422
v -0.8787333703218421 -0.013877552875675853 0.9892188048822402
v -0.1457591389752355 -0.17091687789042517 0.03527370441483751
v -0.03527370441483748 -0.17091687789042515 0.14575913897523554
v -0.9834503076546615 0.048087750960187275 0.8729648730942635
v -0.8729648730942634 0.048087750960187275 0.9834503076546616
v -0.13999064174765696 -0.10895157405456202 0.02950520718725893
v -0.02950520718725893 -0.10895157405456199 0.13999064174765696
vt 0.65625 0.40625
vt 0.65625 1
vt 0.5625 1
vt 0.5625 0.40625
vt 0.65625 0.40625
vt 0.65625 1
vt 0.5625 1
vt 0.5625 0.40625
vt 0.28125 0.25
vt 0.28125 0.34375
vt 0.25 0.34375
vt 0.25 0.25
vt 0.28125 0.25
vt 0.28125 0.34375
vt 0.25 0.34375
vt 0.25 0.25
vt 0.6875 0.40625
vt 0.6875 1
vt 0.65625 1
vt 0.65625 0.40625
vt 0.6875 0.40625
vt 0.6875 1
vt 0.65625 1
vt 0.65625 0.40625
vn -0.09229595564125702 -0.9914448613738105 0.09229595564125719
vn 0.09229595564125702 0.9914448613738105 -0.09229595564125719
vn -0.7010573846499779 0.13052619222005124 0.7010573846499779
vn 0.7010573846499779 -0.13052619222005124 -0.7010573846499779
vn -0.7071067811865476 -2.6367796834847473e-16 -0.7071067811865475
vn 0.7071067811865476 2.6367796834847473e-16 0.7071067811865475
usemtl m_3e53496a-8ec8-a43e-e3d1-5497141f3f54
f 52/145/37 50/146/37 49/147/37 51/148/37
f 55/149/38 53/150/38 54/151/38 56/152/38
f 49/153/39 50/154/39 54/155/39 53/156/39
f 52/157/40 51/158/40 55/159/40 56/160/40
f 51/161/41 49/162/41 53/163/41 55/164/41
f 56/165/42 54/166/42 50/167/42 52/168/42
o rim
v -1.3126837630052155 -0.04808775096018758 -0.07812500000000003
v -1.3126837630052155 -0.04808775096018758 0.07812499999999997
v -0.11985166416484971 0.10895157405456199 -0.078125
v -0.11985166416484971 0.10895157405456196 0.078125
v -1.3208416500189688 0.013877552875675603 -0.07812500000000001
v -1.3208416500189688 0.013877552875675603 0.07812499999999999
v -0.1280095511786029 0.17091687789042515 -0.078125
v -0.1280095511786029 0.17091687789042512 0.078125
vt 0.65625 0.40625
vt 0.65625 1
vt 0.5625 1
vt 0.5625 0.40625
vt 0.65625 0.40625
vt 0.65625 1
vt 0.5625 1
vt 0.5625 0.40625
vt 0.28125 0.25
vt 0.28125 0.34375
vt 0.25 0.34375
vt 0.25 0.25
vt 0.28125 0.25
vt 0.28125 0.34375
vt 0.25 0.34375
vt 0.25 0.25
vt 0.6875 0.40625
vt 0.6875 1
vt 0.65625 1
vt 0.65625 0.40625
vt 0.6875 0.40625
vt 0.6875 1
vt 0.65625 1
vt 0.65625 0.40625
vn 0.13052619222005157 -0.9914448613738105 -1.2141697760125285e-16
vn -0.13052619222005157 0.9914448613738105 1.2141697760125285e-16
vn -0.9914448613738105 -0.13052619222005135 -1.5984848350717808e-17
vn 0.9914448613738105 0.13052619222005135 1.5984848350717808e-17
vn -9.24446373305873e-33 1.2246467991473532e-16 -1
vn 9.24446373305873e-33 -1.2246467991473532e-16 1
usemtl m_3e53496a-8ec8-a43e-e3d1-5497141f3f54
f 60/169/43 58/170/43 57/171/43 59/172/43
f 63/173/44 61/174/44 62/175/44 64/176/44
f 57/177/45 58/178/45 62/179/45 61/180/45
f 60/181/46 59/182/46 63/183/46 64/184/46
f 59/185/47 57/186/47 61/187/47 63/188/47
f 64/189/48 62/190/48 58/191/48 60/192/48
o rim
v -0.8787333703218421 -0.013877552875675853 -0.9892188048822402
v -0.9892188048822401 -0.013877552875675853 -0.8787333703218422
v -0.03527370441483748 -0.17091687789042515 -0.14575913897523554
v -0.1457591389752355 -0.17091687789042517 -0.03527370441483751
v -0.8729648730942634 0.048087750960187275 -0.9834503076546616
v -0.9834503076546615 0.048087750960187275 -0.8729648730942635
v -0.02950520718725893 -0.10895157405456199 -0.13999064174765696
v -0.13999064174765696 -0.10895157405456202 -0.02950520718725893
vt 0.65625 0.40625
vt 0.65625 1
vt 0.5625 1
vt 0.5625 0.40625
vt 0.65625 0.40625
vt 0.65625 1
vt 0.5625 1
vt 0.5625 0.40625
vt 0.28125 0.25
vt 0.28125 0.34375
vt 0.25 0.34375
vt 0.25 0.25
vt 0.28125 0.25
vt 0.28125 0.34375
vt 0.25 0.34375
vt 0.25 0.25
vt 0.6875 0.40625
vt 0.6875 1
vt 0.65625 1
vt 0.65625 0.40625
vt 0.6875 0.40625
vt 0.6875 1
vt 0.65625 1
vt 0.65625 0.40625
vn -0.09229595564125702 -0.9914448613738105 -0.09229595564125719
vn 0.09229595564125702 0.9914448613738105 0.09229595564125719
vn -0.7010573846499779 0.13052619222005124 -0.7010573846499779
vn 0.7010573846499779 -0.13052619222005124 0.7010573846499779
vn 0.7071067811865476 2.6367796834847473e-16 -0.7071067811865475
vn -0.7071067811865476 -2.6367796834847473e-16 0.7071067811865475
usemtl m_3e53496a-8ec8-a43e-e3d1-5497141f3f54
f 68/193/49 66/194/49 65/195/49 67/196/49
f 71/197/50 69/198/50 70/199/50 72/200/50
f 65/201/51 66/202/51 70/203/51 69/204/51
f 68/205/52 67/206/52 71/207/52 72/208/52
f 67/209/53 65/210/53 69/211/53 71/212/53
f 72/213/54 70/214/54 66/215/54 68/216/54
o rim
v 0.07812500000000014 -0.04808775096018697 -1.3126837630052153
v -0.07812499999999983 -0.04808775096018697 -1.3126837630052153
v 0.078125 0.10895157405456204 -0.11985166416484969
v -0.07812499999999997 0.10895157405456202 -0.11985166416484971
v 0.07812500000000012 0.013877552875676158 -1.3208416500189686
v -0.07812499999999985 0.013877552875676158 -1.3208416500189686
v 0.078125 0.1709168778904252 -0.12800955117860288
v -0.07812499999999997 0.17091687789042517 -0.12800955117860294
vt 0.65625 0.40625
vt 0.65625 1
vt 0.5625 1
vt 0.5625 0.40625
vt 0.65625 0.40625
vt 0.65625 1
vt 0.5625 1
vt 0.5625 0.40625
vt 0.28125 0.25
vt 0.28125 0.34375
vt 0.25 0.34375
vt 0.25 0.25
vt 0.28125 0.25
vt 0.28125 0.34375
vt 0.25 0.34375
vt 0.25 0.25
vt 0.6875 0.40625
vt 0.6875 1
vt 0.65625 1
vt 0.65625 0.40625
vt 0.6875 0.40625
vt 0.6875 1
vt 0.65625 1
vt 0.65625 0.40625
vn 8.108985449048014e-17 -0.9914448613738105 0.13052619222005113
vn -8.108985449048014e-17 0.9914448613738105 -0.13052619222005113
vn 2.346363009406352e-16 -0.13052619222005124 -0.9914448613738105
vn -2.346363009406352e-16 0.13052619222005124 0.9914448613738105
vn 1 2.346363009406352e-16 8.108985449048014e-17
vn -1 -2.346363009406352e-16 -8.108985449048014e-17
usemtl m_3e53496a-8ec8-a43e-e3d1-5497141f3f54
f 76/217/55 74/218/55 73/219/55 75/220/55
f 79/221/56 77/222/56 78/223/56 80/224/56
f 73/225/57 74/226/57 78/227/57 77/228/57
f 76/229/58 75/230/58 79/231/58 80/232/58
f 75/233/59 73/234/59 77/235/59 79/236/59
f 80/237/60 78/238/60 74/239/60 76/240/60
o rim
v 0.140625 -0.24999999999999994 0.140625
v 0.140625 -0.24999999999999994 -0.140625
v -0.140625 -0.25 0.140625
v -0.140625 -0.25 -0.140625
v 0.14062499999999997 -0.17187499999999994 0.140625
v 0.14062499999999997 -0.17187499999999994 -0.140625
v -0.140625 -0.171875 0.140625
v -0.140625 -0.171875 -0.140625
vt 0.4375 0.1875
vt 0.4375 0.34375
vt 0.28125 0.34375
vt 0.28125 0.1875
vt 0.4375 0.1875
vt 0.4375 0.34375
vt 0.28125 0.34375
vt 0.28125 0.1875
vt 0.28125 0.34375
vt 0.28125 0.5
vt 0.25 0.5
vt 0.25 0.34375
vt 0.28125 0.34375
vt 0.28125 0.5
vt 0.25 0.5
vt 0.25 0.34375
vt 0.28125 0.34375
vt 0.28125 0.5
vt 0.25 0.5
vt 0.25 0.34375
vt 0.28125 0.34375
vt 0.28125 0.5
vt 0.25 0.5
vt 0.25 0.34375
vn 2.220446049250313e-16 -1 0
vn -2.220446049250313e-16 1 0
vn 1 2.220446049250313e-16 0
vn -1 -2.220446049250313e-16 0
vn 0 0 1
vn 0 0 -1
usemtl m_3e53496a-8ec8-a43e-e3d1-5497141f3f54
f 84/241/61 82/242/61 81/243/61 83/244/61
f 87/245/62 85/246/62 86/247/62 88/248/62
f 81/249/63 82/250/63 86/251/63 85/252/63
f 84/253/64 83/254/64 87/255/64 88/256/64
f 83/257/65 81/258/65 85/259/65 87/260/65
f 88/261/66 86/262/66 82/263/66 84/264/66
o tire
v 0.289044375 -0.25 1.453125
v 0.289044375 0.25 1.453125
v 0.276059375 -0.25 1.387843125
v 0.276059375 0.25 1.387843125
v 0.823129375 -0.25 1.2319
v 0.823129375 0.25 1.2319
v 0.78615 -0.25 1.176556875
v 0.78615 0.25 1.176556875
v 1.2319 -0.25 0.823129375
v 1.2319 0.25 0.823129375
v 1.176556875 -0.25 0.78615
v 1.176556875 0.25 0.78615
v 1.453125 -0.25 0.289044375
v 1.453125 0.25 0.289044375
v 1.387843125 -0.25 0.276059375
v 1.387843125 0.25 0.276059375
v 1.453125 -0.25 -0.289044375
v 1.453125 0.25 -0.289044375
v 1.387843125 -0.25 -0.276059375
v 1.387843125 0.25 -0.276059375
v 1.2319 -0.25 -0.823129375
v 1.2319 0.25 -0.823129375
v 1.176556875 -0.25 -0.78615
v 1.176556875 0.25 -0.78615
v 0.823129375 -0.25 -1.2319
v 0.823129375 0.25 -1.2319
v 0.78615 -0.25 -1.176556875
v 0.78615 0.25 -1.176556875
v 0.289044375 -0.25 -1.453125
v 0.289044375 0.25 -1.453125
v 0.276059375 -0.25 -1.387843125
v 0.276059375 0.25 -1.387843125
v -0.289044375 -0.25 -1.453125
v -0.289044375 0.25 -1.453125
v -0.276059375 -0.25 -1.387843125
v -0.276059375 0.25 -1.387843125
v -0.823129375 -0.25 -1.2319
v -0.823129375 0.25 -1.2319
v -0.78615 -0.25 -1.176556875
v -0.78615 0.25 -1.176556875
v -1.2319 -0.25 -0.823129375
v -1.2319 0.25 -0.823129375
v -1.176556875 -0.25 -0.78615
v -1.176556875 0.25 -0.78615
v -1.453125 -0.25 -0.289044375
v -1.453125 0.25 -0.289044375
v -1.387843125 -0.25 -0.276059375
v -1.387843125 0.25 -0.276059375
v -1.453125 -0.25 0.289044375
v -1.453125 0.25 0.289044375
v -1.387843125 -0.25 0.276059375
v -1.387843125 0.25 0.276059375
v -1.2319 -0.25 0.823129375
v -1.2319 0.25 0.823129375
v -1.176556875 -0.25 0.78615
v -1.176556875 0.25 0.78615
v -0.823129375 -0.25 1.2319
v -0.823129375 0.25 1.2319
v -0.78615 -0.25 1.176556875
v -0.78615 0.25 1.176556875
v -0.289044375 -0.25 1.453125
v -0.289044375 0.25 1.453125
v -0.276059375 -0.25 1.387843125
v -0.276059375 0.25 1.387843125
vt 0 0.75
vt 0.28125 0.75
vt 0.28125 1
vt 0 1
vt 0.28125 0.75
vt 0 0.75
vt 0 0.5
vt 0.28125 0.5
vt 0.2875675 0.875
vt 0.5561825 0.875
vt 0.5625 0.90625
vt 0.28125 0.90625
vt 0.5625 0.90625
vt 0.28125 0.90625
vt 0.2875675 0.875
vt 0.5561825 0.875
vt 0 0.75
vt 0.28125 0.75
vt 0.28125 1
vt 0 1
vt 0.28125 0.75
vt 0 0.75
vt 0 0.5
vt 0.28125 0.5
vt 0.2875675 0.875
vt 0.5561825 0.875
vt 0.5625 0.90625
vt 0.28125 0.90625
vt 0.5625 0.90625
vt 0.28125 0.90625
vt 0.2875675 0.875
vt 0.5561825 0.875
vt 0 0.75
vt 0.28125 0.75
vt 0.28125 1
vt 0 1
vt 0.28125 0.75
vt 0 0.75
vt 0 0.5
vt 0.28125 0.5
vt 0.2875675 0.875
vt 0.55618 0.875
vt 0.5625 0.9062475
vt 0.28125 0.90625
vt 0.5625 0.90625
vt 0.28125 0.90625
vt 0.28757 0.8750025
vt 0.5561825 0.875
vt 0 0.75
vt 0.28125 0.75
vt 0.28125 1
vt 0 1
vt 0.28125 0.75
vt 0 0.75
vt 0 0.5
vt 0.28125 0.5
vt 0.287565 0.875
vt 0.5561825 0.875
vt 0.5625 0.90625
vt 0.28125 0.90625
vt 0.5625 0.90625
vt 0.28125 0.90625
vt 0.2875675 0.875
vt 0.556185 0.875
vt 0 0.75
vt 0.28125 0.75
vt 0.28125 1
vt 0 1
vt 0.28125 0.75
vt 0 0.75
vt 0 0.5
vt 0.28125 0.5
vt 0.2875675 0.875
vt 0.5561825 0.875
vt 0.5625 0.90625
vt 0.28125 0.90625
vt 0.5625 0.90625
vt 0.28125 0.90625
vt 0.2875675 0.875
vt 0.5561825 0.875
vt 0 0.75
vt 0.28125 0.75
vt 0.28125 1
vt 0 1
vt 0.28125 0.75
vt 0 0.75
vt 0 0.5
vt 0.28125 0.5
vt 0.2875675 0.875
vt 0.5561825 0.875
vt 0.5625 0.90625
vt 0.28125 0.90625
vt 0.5625 0.90625
vt 0.28125 0.90625
vt 0.2875675 0.875
vt 0.5561825 0.875
vt 0 0.75
vt 0.28125 0.75
vt 0.28125 1
vt 0 1
vt 0.28125 0.75
vt 0 0.75
vt 0 0.5
vt 0.28125 0.5
vt 0.2875675 0.875
vt 0.55618 0.875
vt 0.5625 0.9062475
vt 0.28125 0.90625
vt 0.5625 0.90625
vt 0.28125 0.90625
vt 0.28757 0.8750025
vt 0.5561825 0.875
vt 0 0.75
vt 0.28125 0.75
vt 0.28125 1
vt 0 1
vt 0.28125 0.75
vt 0 0.75
vt 0 0.5
vt 0.28125 0.5
vt 0.287565 0.875
vt 0.5561825 0.875
vt 0.5625 0.90625
vt 0.28125 0.90625
vt 0.5625 0.90625
vt 0.28125 0.90625
vt 0.2875675 0.875
vt 0.556185 0.875
vt 0 0.75
vt 0.28125 0.75
vt 0.28125 1
vt 0 1
vt 0.28125 0.75
vt 0 0.75
vt 0 0.5
vt 0.28125 0.5
vt 0.2875675 0.875
vt 0.5561825 0.875
vt 0.5625 0.90625
vt 0.28125 0.90625
vt 0.5625 0.90625
vt 0.28125 0.90625
vt 0.2875675 0.875
vt 0.5561825 0.875
vt 0 0.75
vt 0.28125 0.75
vt 0.28125 1
vt 0 1
vt 0.28125 0.75
vt 0 0.75
vt 0 0.5
vt 0.28125 0.5
vt 0.2875675 0.875
vt 0.5561825 0.875
vt 0.5625 0.90625
vt 0.28125 0.90625
vt 0.5625 0.90625
vt 0.28125 0.90625
vt 0.2875675 0.875
vt 0.5561825 0.875
vt 0 0.75
vt 0.28125 0.75
vt 0.28125 1
vt 0 1
vt 0.28125 0.75
vt 0 0.75
vt 0 0.5
vt 0.28125 0.5
vt 0.2875675 0.875
vt 0.55618 0.875
vt 0.5625 0.9062475
vt 0.28125 0.90625
vt 0.5625 0.90625
vt 0.28125 0.90625
vt 0.28757 0.8750025
vt 0.5561825 0.875
vt 0 0.75
vt 0.28125 0.75
vt 0.28125 1
vt 0 1
vt 0.28125 0.75
vt 0 0.75
vt 0 0.5
vt 0.28125 0.5
vt 0.287565 0.875
vt 0.5561825 0.875
vt 0.5625 0.90625
vt 0.28125 0.90625
vt 0.5625 0.90625
vt 0.28125 0.90625
vt 0.2875675 0.875
vt 0.556185 0.875
vt 0 0.75
vt 0.28125 0.75
vt 0.28125 1
vt 0 1
vt 0.28125 0.75
vt 0 0.75
vt 0 0.5
vt 0.28125 0.5
vt 0.2875675 0.875
vt 0.5561825 0.875
vt 0.5625 0.90625
vt 0.28125 0.90625
vt 0.5625 0.90625
vt 0.28125 0.90625
vt 0.2875675 0.875
vt 0.5561825 0.875
vt 0 0.75
vt 0.28125 0.75
vt 0.28125 1
vt 0 1
vt 0.28125 0.75
vt 0 0.75
vt 0 0.5
vt 0.28125 0.5
vt 0.2875675 0.875
vt 0.5561825 0.875
vt 0.5625 0.90625
vt 0.28125 0.90625
vt 0.5625 0.90625
vt 0.28125 0.90625
vt 0.2875675 0.875
vt 0.5561825 0.875
vt 0 0.75
vt 0.28125 0.75
vt 0.28125 1
vt 0 1
vt 0.28125 0.75
vt 0 0.75
vt 0 0.5
vt 0.28125 0.5
vt 0.2875675 0.875
vt 0.55618 0.875
vt 0.5625 0.9062475
vt 0.28125 0.90625
vt 0.5625 0.90625
vt 0.28125 0.90625
vt 0.28757 0.8750025
vt 0.5561825 0.875
vt 0 0.75
vt 0.28125 0.75
vt 0.28125 1
vt 0 1
vt 0.28125 0.75
vt 0 0.75
vt 0 0.5
vt 0.28125 0.5
vt 0.287565 0.875
vt 0.5561825 0.875
vt 0.5625 0.90625
vt 0.28125 0.90625
vt 0.5625 0.90625
vt 0.28125 0.90625
vt 0.2875675 0.875
vt 0.556185 0.875
vn 0.38268306255887885 0 0.9238796856899483
vn -0.38268311557528206 0 -0.9238796637298581
vn 0 -1 0
vn 0 1 0
vn 0.7071067811865476 0 0.7071067811865476
vn -0.7071067811865476 0 -0.7071067811865476
vn 0 -1 0
vn 0 1 0
vn 0.9238796856899483 0 0.38268306255887885
vn -0.9238796637298581 0 -0.38268311557528206
vn 0 -1 0
vn 0 1 0
vn 1 0 0
vn -1 0 0
vn 0 -1 0
vn 0 1 0
vn 0.9238796856899483 0 -0.38268306255887885
vn -0.9238796637298581 0 0.38268311557528206
vn 0 -1 0
vn 0 1 0
vn 0.7071067811865476 0 -0.7071067811865476
vn -0.7071067811865476 0 0.7071067811865476
vn 0 -1 0
vn 0 1 0
vn 0.38268306255887885 0 -0.9238796856899483
vn -0.38268311557528206 0 0.9238796637298581
vn 0 -1 0
vn 0 1 0
vn 0 0 -1
vn 0 0 1
vn 0 -1 0
vn 0 1 0
vn -0.38268306255887885 0 -0.9238796856899483
vn 0.38268311557528206 0 0.9238796637298581
vn 0 -1 0
vn 0 1 0
vn -0.7071067811865476 0 -0.7071067811865476
vn 0.7071067811865476 0 0.7071067811865476
vn 0 -1 0
vn 0 1 0
vn -0.9238796856899483 0 -0.38268306255887885
vn 0.9238796637298581 0 0.38268311557528206
vn 0 -1 0
vn 0 1 0
vn -1 0 0
vn 1 0 0
vn 0 -1 0
vn 0 1 0
vn -0.9238796856899483 0 0.38268306255887885
vn 0.9238796637298581 0 -0.38268311557528206
vn 0 -1 0
vn 0 1 0
vn -0.7071067811865476 0 0.7071067811865476
vn 0.7071067811865476 0 -0.7071067811865476
vn 0 -1 0
vn 0 1 0
vn -0.38268306255887885 0 0.9238796856899483
vn 0.38268311557528206 0 -0.9238796637298581
vn 0 -1 0
vn 0 1 0
vn 0 0 1
vn 0 0 -1
vn 0 -1 0
vn 0 1 0
usemtl m_3e53496a-8ec8-a43e-e3d1-5497141f3f54
f 89/265/67 93/266/67 94/267/67 90/268/67
f 92/269/68 96/270/68 95/271/68 91/272/68
f 91/273/69 95/274/69 93/275/69 89/276/69
f 90/277/70 94/278/70 96/279/70 92/280/70
f 93/281/71 97/282/71 98/283/71 94/284/71
f 96/285/72 100/286/72 99/287/72 95/288/72
f 95/289/73 99/290/73 97/291/73 93/292/73
f 94/293/74 98/294/74 100/295/74 96/296/74
f 97/297/75 101/298/75 102/299/75 98/300/75
f 100/301/76 104/302/76 103/303/76 99/304/76
f 99/305/77 103/306/77 101/307/77 97/308/77
f 98/309/78 102/310/78 104/311/78 100/312/78
f 101/313/79 105/314/79 106/315/79 102/316/79
f 104/317/80 108/318/80 107/319/80 103/320/80
f 103/321/81 107/322/81 105/323/81 101/324/81
f 102/325/82 106/326/82 108/327/82 104/328/82
f 105/329/83 109/330/83 110/331/83 106/332/83
f 108/333/84 112/334/84 111/335/84 107/336/84
f 107/337/85 111/338/85 109/339/85 105/340/85
f 106/341/86 110/342/86 112/343/86 108/344/86
f 109/345/87 113/346/87 114/347/87 110/348/87
f 112/349/88 116/350/88 115/351/88 111/352/88
f 111/353/89 115/354/89 113/355/89 109/356/89
f 110/357/90 114/358/90 116/359/90 112/360/90
f 113/361/91 117/362/91 118/363/91 114/364/91
f 116/365/92 120/366/92 119/367/92 115/368/92
f 115/369/93 119/370/93 117/371/93 113/372/93
f 114/373/94 118/374/94 120/375/94 116/376/94
f 117/377/95 121/378/95 122/379/95 118/380/95
f 120/381/96 124/382/96 123/383/96 119/384/96
f 119/385/97 123/386/97 121/387/97 117/388/97
f 118/389/98 122/390/98 124/391/98 120/392/98
f 121/393/99 125/394/99 126/395/99 122/396/99
f 124/397/100 128/398/100 127/399/100 123/400/100
f 123/401/101 127/402/101 125/403/101 121/404/101
f 122/405/102 126/406/102 128/407/102 124/408/102
f 125/409/103 129/410/103 130/411/103 126/412/103
f 128/413/104 132/414/104 131/415/104 127/416/104
f 127/417/105 131/418/105 129/419/105 125/420/105
f 126/421/106 130/422/106 132/423/106 128/424/106
f 129/425/107 133/426/107 134/427/107 130/428/107
f 132/429/108 136/430/108 135/431/108 131/432/108
f 131/433/109 135/434/109 133/435/109 129/436/109
f 130/437/110 134/438/110 136/439/110 132/440/110
f 133/441/111 137/442/111 138/443/111 134/444/111
f 136/445/112 140/446/112 139/447/112 135/448/112
f 135/449/113 139/450/113 137/451/113 133/452/113
f 134/453/114 138/454/114 140/455/114 136/456/114
f 137/457/115 141/458/115 142/459/115 138/460/115
f 140/461/116 144/462/116 143/463/116 139/464/116
f 139/465/117 143/466/117 141/467/117 137/468/117
f 138/469/118 142/470/118 144/471/118 140/472/118
f 141/473/119 145/474/119 146/475/119 142/476/119
f 144/477/120 148/478/120 147/479/120 143/480/120
f 143/481/121 147/482/121 145/483/121 141/484/121
f 142/485/122 146/486/122 148/487/122 144/488/122
f 145/489/123 149/490/123 150/491/123 146/492/123
f 148/493/124 152/494/124 151/495/124 147/496/124
f 147/497/125 151/498/125 149/499/125 145/500/125
f 146/501/126 150/502/126 152/503/126 148/504/126
f 149/505/127 89/506/127 90/507/127 150/508/127
f 152/509/128 92/510/128 91/511/128 151/512/128
f 151/513/129 91/514/129 89/515/129 149/516/129
f 150/517/130 90/518/130 92/519/130 152/520/130
o tire
v 0.295260625 -0.03125 1.484375
v 0.295260625 0.03125 1.484375
v 0.288613125 -0.03125 1.450955625
v 0.288613125 0.03125 1.450955625
v 0.840830625 -0.03125 1.2583925
v 0.840830625 0.03125 1.2583925
v 0.821900625 -0.03125 1.230060625
v 0.821900625 0.03125 1.230060625
v 1.2583925 -0.03125 0.840830625
v 1.2583925 0.03125 0.840830625
v 1.230060625 -0.03125 0.821900625
v 1.230060625 0.03125 0.821900625
v 1.484375 -0.03125 0.295260625
v 1.484375 0.03125 0.295260625
v 1.450955625 -0.03125 0.288613125
v 1.450955625 0.03125 0.288613125
v 1.484375 -0.03125 -0.295260625
v 1.484375 0.03125 -0.295260625
v 1.450955625 -0.03125 -0.288613125
v 1.450955625 0.03125 -0.288613125
v 1.2583925 -0.03125 -0.840830625
v 1.2583925 0.03125 -0.840830625
v 1.230060625 -0.03125 -0.821900625
v 1.230060625 0.03125 -0.821900625
v 0.840830625 -0.03125 -1.2583925
v 0.840830625 0.03125 -1.2583925
v 0.821900625 -0.03125 -1.230060625
v 0.821900625 0.03125 -1.230060625
v 0.295260625 -0.03125 -1.484375
v 0.295260625 0.03125 -1.484375
v 0.288613125 -0.03125 -1.450955625
v 0.288613125 0.03125 -1.450955625
v -0.295260625 -0.03125 -1.484375
v -0.295260625 0.03125 -1.484375
v -0.288613125 -0.03125 -1.450955625
v -0.288613125 0.03125 -1.450955625
v -0.840830625 -0.03125 -1.2583925
v -0.840830625 0.03125 -1.2583925
v -0.821900625 -0.03125 -1.230060625
v -0.821900625 0.03125 -1.230060625
v -1.2583925 -0.03125 -0.840830625
v -1.2583925 0.03125 -0.840830625
v -1.230060625 -0.03125 -0.821900625
v -1.230060625 0.03125 -0.821900625
v -1.484375 -0.03125 -0.295260625
v -1.484375 0.03125 -0.295260625
v -1.450955625 -0.03125 -0.288613125
v -1.450955625 0.03125 -0.288613125
v -1.484375 -0.03125 0.295260625
v -1.484375 0.03125 0.295260625
v -1.450955625 -0.03125 0.288613125
v -1.450955625 0.03125 0.288613125
v -1.2583925 -0.03125 0.840830625
v -1.2583925 0.03125 0.840830625
v -1.230060625 -0.03125 0.821900625
v -1.230060625 0.03125 0.821900625
v -0.840830625 -0.03125 1.2583925
v -0.840830625 0.03125 1.2583925
v -0.821900625 -0.03125 1.230060625
v -0.821900625 0.03125 1.230060625
v -0.295260625 -0.03125 1.484375
v -0.295260625 0.03125 1.484375
v -0.288613125 -0.03125 1.450955625
v -0.288613125 0.03125 1.450955625
vt 0.28125 0.84375
vt 0.5625 0.84375
vt 0.5625 0.875
vt 0.28125 0.875
vt 0.5625 0.875
vt 0.28125 0.875
vt 0.28125 0.84375
vt 0.5625 0.84375
vt 0.284415 0.96875
vt 0.5593325 0.96875
vt 0.5625 1
vt 0.28125 1
vt 0.5625 1
vt 0.28125 1
vt 0.2844175 0.96875
vt 0.559335 0.96875
vt 0.28125 0.84375
vt 0.5625 0.84375
vt 0.5625 0.875
vt 0.28125 0.875
vt 0.5625 0.875
vt 0.28125 0.875
vt 0.28125 0.84375
vt 0.5625 0.84375
vt 0.284415 0.96875
vt 0.559335 0.96875
vt 0.5625 1
vt 0.28125 1
vt 0.5625 1
vt 0.28125 1
vt 0.284415 0.96875
vt 0.559335 0.96875
vt 0.28125 0.84375
vt 0.5625 0.84375
vt 0.5625 0.875
vt 0.28125 0.875
vt 0.5625 0.875
vt 0.28125 0.875
vt 0.28125 0.84375
vt 0.5625 0.84375
vt 0.2844175 0.96875
vt 0.559335 0.96875
vt 0.5625 1
vt 0.28125 1
vt 0.5625 1
vt 0.28125 1
vt 0.284415 0.96875
vt 0.5593325 0.96875
vt 0.28125 0.84375
vt 0.5625 0.84375
vt 0.5625 0.875
vt 0.28125 0.875
vt 0.5625 0.875
vt 0.28125 0.875
vt 0.28125 0.84375
vt 0.5625 0.84375
vt 0.2844175 0.96875
vt 0.5593325 0.96875
vt 0.5625 1
vt 0.28125 1
vt 0.5625 1
vt 0.28125 1
vt 0.2844175 0.96875
vt 0.5593325 0.96875
vt 0.28125 0.84375
vt 0.5625 0.84375
vt 0.5625 0.875
vt 0.28125 0.875
vt 0.5625 0.875
vt 0.28125 0.875
vt 0.28125 0.84375
vt 0.5625 0.84375
vt 0.284415 0.96875
vt 0.5593325 0.96875
vt 0.5625 1
vt 0.28125 1
vt 0.5625 1
vt 0.28125 1
vt 0.2844175 0.96875
vt 0.559335 0.96875
vt 0.28125 0.84375
vt 0.5625 0.84375
vt 0.5625 0.875
vt 0.28125 0.875
vt 0.5625 0.875
vt 0.28125 0.875
vt 0.28125 0.84375
vt 0.5625 0.84375
vt 0.284415 0.96875
vt 0.559335 0.96875
vt 0.5625 1
vt 0.28125 1
vt 0.5625 1
vt 0.28125 1
vt 0.284415 0.96875
vt 0.559335 0.96875
vt 0.28125 0.84375
vt 0.5625 0.84375
vt 0.5625 0.875
vt 0.28125 0.875
vt 0.5625 0.875
vt 0.28125 0.875
vt 0.28125 0.84375
vt 0.5625 0.84375
vt 0.2844175 0.96875
vt 0.559335 0.96875
vt 0.5625 1
vt 0.28125 1
vt 0.5625 1
vt 0.28125 1
vt 0.284415 0.96875
vt 0.5593325 0.96875
vt 0.28125 0.84375
vt 0.5625 0.84375
vt 0.5625 0.875
vt 0.28125 0.875
vt 0.5625 0.875
vt 0.28125 0.875
vt 0.28125 0.84375
vt 0.5625 0.84375
vt 0.2844175 0.96875
vt 0.5593325 0.96875
vt 0.5625 1
vt 0.28125 1
vt 0.5625 1
vt 0.28125 1
vt 0.2844175 0.96875
vt 0.5593325 0.96875
vt 0.28125 0.84375
vt 0.5625 0.84375
vt 0.5625 0.875
vt 0.28125 0.875
vt 0.5625 0.875
vt 0.28125 0.875
vt 0.28125 0.84375
vt 0.5625 0.84375
vt 0.284415 0.96875
vt 0.5593325 0.96875
vt 0.5625 1
vt 0.28125 1
vt 0.5625 1
vt 0.28125 1
vt 0.2844175 0.96875
vt 0.559335 0.96875
vt 0.28125 0.84375
vt 0.5625 0.84375
vt 0.5625 0.875
vt 0.28125 0.875
vt 0.5625 0.875
vt 0.28125 0.875
vt 0.28125 0.84375
vt 0.5625 0.84375
vt 0.284415 0.96875
vt 0.559335 0.96875
vt 0.5625 1
vt 0.28125 1
vt 0.5625 1
vt 0.28125 1
vt 0.284415 0.96875
vt 0.559335 0.96875
vt 0.28125 0.84375
vt 0.5625 0.84375
vt 0.5625 0.875
vt 0.28125 0.875
vt 0.5625 0.875
vt 0.28125 0.875
vt 0.28125 0.84375
vt 0.5625 0.84375
vt 0.2844175 0.96875
vt 0.559335 0.96875
vt 0.5625 1
vt 0.28125 1
vt 0.5625 1
vt 0.28125 1
vt 0.284415 0.96875
vt 0.5593325 0.96875
vt 0.28125 0.84375
vt 0.5625 0.84375
vt 0.5625 0.875
vt 0.28125 0.875
vt 0.5625 0.875
vt 0.28125 0.875
vt 0.28125 0.84375
vt 0.5625 0.84375
vt 0.2844175 0.96875
vt 0.5593325 0.96875
vt 0.5625 1
vt 0.28125 1
vt 0.5625 1
vt 0.28125 1
vt 0.2844175 0.96875
vt 0.5593325 0.96875
vt 0.28125 0.84375
vt 0.5625 0.84375
vt 0.5625 0.875
vt 0.28125 0.875
vt 0.5625 0.875
vt 0.28125 0.875
vt 0.28125 0.84375
vt 0.5625 0.84375
vt 0.284415 0.96875
vt 0.5593325 0.96875
vt 0.5625 1
vt 0.28125 1
vt 0.5625 1
vt 0.28125 1
vt 0.2844175 0.96875
vt 0.559335 0.96875
vt 0.28125 0.84375
vt 0.5625 0.84375
vt 0.5625 0.875
vt 0.28125 0.875
vt 0.5625 0.875
vt 0.28125 0.875
vt 0.28125 0.84375
vt 0.5625 0.84375
vt 0.284415 0.96875
vt 0.559335 0.96875
vt 0.5625 1
vt 0.28125 1
vt 0.5625 1
vt 0.28125 1
vt 0.284415 0.96875
vt 0.559335 0.96875
vt 0.28125 0.84375
vt 0.5625 0.84375
vt 0.5625 0.875
vt 0.28125 0.875
vt 0.5625 0.875
vt 0.28125 0.875
vt 0.28125 0.84375
vt 0.5625 0.84375
vt 0.2844175 0.96875
vt 0.559335 0.96875
vt 0.5625 1
vt 0.28125 1
vt 0.5625 1
vt 0.28125 1
vt 0.284415 0.96875
vt 0.5593325 0.96875
vt 0.28125 0.84375
vt 0.5625 0.84375
vt 0.5625 0.875
vt 0.28125 0.875
vt 0.5625 0.875
vt 0.28125 0.875
vt 0.28125 0.84375
vt 0.5625 0.84375
vt 0.2844175 0.96875
vt 0.5593325 0.96875
vt 0.5625 1
vt 0.28125 1
vt 0.5625 1
vt 0.28125 1
vt 0.2844175 0.96875
vt 0.5593325 0.96875
vn 0.38268344215944916 0 0.9238795284543304
vn -0.38268355784290226 0 -0.9238794805366652
vn 0 -1 0
vn 0 1 0
vn 0.7071067811865476 0 0.7071067811865476
vn -0.7071067811865476 0 -0.7071067811865476
vn 0 -1 0
vn 0 1 0
vn 0.9238795284543304 0 0.38268344215944916
vn -0.9238794805366652 0 -0.38268355784290226
vn 0 -1 0
vn 0 1 0
vn 1 0 0
vn -1 0 0
vn 0 -1 0
vn 0 1 0
vn 0.9238795284543304 0 -0.38268344215944916
vn -0.9238794805366652 0 0.38268355784290226
vn 0 -1 0
vn 0 1 0
vn 0.7071067811865476 0 -0.7071067811865476
vn -0.7071067811865476 0 0.7071067811865476
vn 0 -1 0
vn 0 1 0
vn 0.38268344215944916 0 -0.9238795284543304
vn -0.38268355784290226 0 0.9238794805366652
vn 0 -1 0
vn 0 1 0
vn 0 0 -1
vn 0 0 1
vn 0 -1 0
vn 0 1 0
vn -0.38268344215944916 0 -0.9238795284543304
vn 0.38268355784290226 0 0.9238794805366652
vn 0 -1 0
vn 0 1 0
vn -0.7071067811865476 0 -0.7071067811865476
vn 0.7071067811865476 0 0.7071067811865476
vn 0 -1 0
vn 0 1 0
vn -0.9238795284543304 0 -0.38268344215944916
vn 0.9238794805366652 0 0.38268355784290226
vn 0 -1 0
vn 0 1 0
vn -1 0 0
vn 1 0 0
vn 0 -1 0
vn 0 1 0
vn -0.9238795284543304 0 0.38268344215944916
vn 0.9238794805366652 0 -0.38268355784290226
vn 0 -1 0
vn 0 1 0
vn -0.7071067811865476 0 0.7071067811865476
vn 0.7071067811865476 0 -0.7071067811865476
vn 0 -1 0
vn 0 1 0
vn -0.38268344215944916 0 0.9238795284543304
vn 0.38268355784290226 0 -0.9238794805366652
vn 0 -1 0
vn 0 1 0
vn 0 0 1
vn 0 0 -1
vn 0 -1 0
vn 0 1 0
usemtl m_3e53496a-8ec8-a43e-e3d1-5497141f3f54
f 153/521/131 157/522/131 158/523/131 154/524/131
f 156/525/132 160/526/132 159/527/132 155/528/132
f 155/529/133 159/530/133 157/531/133 153/532/133
f 154/533/134 158/534/134 160/535/134 156/536/134
f 157/537/135 161/538/135 162/539/135 158/540/135
f 160/541/136 164/542/136 163/543/136 159/544/136
f 159/545/137 163/546/137 161/547/137 157/548/137
f 158/549/138 162/550/138 164/551/138 160/552/138
f 161/553/139 165/554/139 166/555/139 162/556/139
f 164/557/140 168/558/140 167/559/140 163/560/140
f 163/561/141 167/562/141 165/563/141 161/564/141
f 162/565/142 166/566/142 168/567/142 164/568/142
f 165/569/143 169/570/143 170/571/143 166/572/143
f 168/573/144 172/574/144 171/575/144 167/576/144
f 167/577/145 171/578/145 169/579/145 165/580/145
f 166/581/146 170/582/146 172/583/146 168/584/146
f 169/585/147 173/586/147 174/587/147 170/588/147
f 172/589/148 176/590/148 175/591/148 171/592/148
f 171/593/149 175/594/149 173/595/149 169/596/149
f 170/597/150 174/598/150 176/599/150 172/600/150
f 173/601/151 177/602/151 178/603/151 174/604/151
f 176/605/152 180/606/152 179/607/152 175/608/152
f 175/609/153 179/610/153 177/611/153 173/612/153
f 174/613/154 178/614/154 180/615/154 176/616/154
f 177/617/155 181/618/155 182/619/155 178/620/155
f 180/621/156 184/622/156 183/623/156 179/624/156
f 179/625/157 183/626/157 181/627/157 177/628/157
f 178/629/158 182/630/158 184/631/158 180/632/158
f 181/633/159 185/634/159 186/635/159 182/636/159
f 184/637/160 188/638/160 187/639/160 183/640/160
f 183/641/161 187/642/161 185/643/161 181/644/161
f 182/645/162 186/646/162 188/647/162 184/648/162
f 185/649/163 189/650/163 190/651/163 186/652/163
f 188/653/164 192/654/164 191/655/164 187/656/164
f 187/657/165 191/658/165 189/659/165 185/660/165
f 186/661/166 190/662/166 192/663/166 188/664/166
f 189/665/167 193/666/167 194/667/167 190/668/167
f 192/669/168 196/670/168 195/671/168 191/672/168
f 191/673/169 195/674/169 193/675/169 189/676/169
f 190/677/170 194/678/170 196/679/170 192/680/170
f 193/681/171 197/682/171 198/683/171 194/684/171
f 196/685/172 200/686/172 199/687/172 195/688/172
f 195/689/173 199/690/173 197/691/173 193/692/173
f 194/693/174 198/694/174 200/695/174 196/696/174
f 197/697/175 201/698/175 202/699/175 198/700/175
f 200/701/176 204/702/176 203/703/176 199/704/176
f 199/705/177 203/706/177 201/707/177 197/708/177
f 198/709/178 202/710/178 204/711/178 200/712/178
f 201/713/179 205/714/179 206/715/179 202/716/179
f 204/717/180 208/718/180 207/719/180 203/720/180
f 203/721/181 207/722/181 205/723/181 201/724/181
f 202/725/182 206/726/182 208/727/182 204/728/182
f 205/729/183 209/730/183 210/731/183 206/732/183
f 208/733/184 212/734/184 211/735/184 207/736/184
f 207/737/185 211/738/185 209/739/185 205/740/185
f 206/741/186 210/742/186 212/743/186 208/744/186
f 209/745/187 213/746/187 214/747/187 210/748/187
f 212/749/188 216/750/188 215/751/188 211/752/188
f 211/753/189 215/754/189 213/755/189 209/756/189
f 210/757/190 214/758/190 216/759/190 212/760/190
f 213/761/191 153/762/191 154/763/191 214/764/191
f 216/765/192 156/766/192 155/767/192 215/768/192
f 215/769/193 155/770/193 153/771/193 213/772/193
f 214/773/194 154/774/194 156/775/194 216/776/194
o tire
v 0.2766125 -0.0625 1.390625
v 0.2766125 0.0625 1.390625
v 0.250951875 -0.0625 1.26161875
v 0.250951875 0.0625 1.26161875
v 0.787725625 -0.0625 1.178915
v 0.787725625 0.0625 1.178915
v 0.71465 -0.0625 1.06954875
v 0.71465 0.0625 1.06954875
v 1.178915 -0.0625 0.787725625
v 1.178915 0.0625 0.787725625
v 1.06954875 -0.0625 0.71465
v 1.06954875 0.0625 0.71465
v 1.390625 -0.0625 0.2766125
v 1.390625 0.0625 0.2766125
v 1.26161875 -0.0625 0.250951875
v 1.26161875 0.0625 0.250951875
v 1.390625 -0.0625 -0.2766125
v 1.390625 0.0625 -0.2766125
v 1.26161875 -0.0625 -0.250951875
v 1.26161875 0.0625 -0.250951875
v 1.178915 -0.0625 -0.787725625
v 1.178915 0.0625 -0.787725625
v 1.06954875 -0.0625 -0.71465
v 1.06954875 0.0625 -0.71465
v 0.787725625 -0.0625 -1.178915
v 0.787725625 0.0625 -1.178915
v 0.71465 -0.0625 -1.06954875
v 0.71465 0.0625 -1.06954875
v 0.2766125 -0.0625 -1.390625
v 0.2766125 0.0625 -1.390625
v 0.250951875 -0.0625 -1.26161875
v 0.250951875 0.0625 -1.26161875
v -0.2766125 -0.0625 -1.390625
v -0.2766125 0.0625 -1.390625
v -0.250951875 -0.0625 -1.26161875
v -0.250951875 0.0625 -1.26161875
v -0.787725625 -0.0625 -1.178915
v -0.787725625 0.0625 -1.178915
v -0.71465 -0.0625 -1.06954875
v -0.71465 0.0625 -1.06954875
v -1.178915 -0.0625 -0.787725625
v -1.178915 0.0625 -0.787725625
v -1.06954875 -0.0625 -0.71465
v -1.06954875 0.0625 -0.71465
v -1.390625 -0.0625 -0.2766125
v -1.390625 0.0625 -0.2766125
v -1.26161875 -0.0625 -0.250951875
v -1.26161875 0.0625 -0.250951875
v -1.390625 -0.0625 0.2766125
v -1.390625 0.0625 0.2766125
v -1.26161875 -0.0625 0.250951875
v -1.26161875 0.0625 0.250951875
v -1.178915 -0.0625 0.787725625
v -1.178915 0.0625 0.787725625
v -1.06954875 -0.0625 0.71465
v -1.06954875 0.0625 0.71465
v -0.787725625 -0.0625 1.178915
v -0.787725625 0.0625 1.178915
v -0.71465 -0.0625 1.06954875
v -0.71465 0.0625 1.06954875
v -0.2766125 -0.0625 1.390625
v -0.2766125 0.0625 1.390625
v -0.250951875 -0.0625 1.26161875
v -0.250951875 0.0625 1.26161875
vt 0.28125 0.59375
vt 0.5625 0.59375
vt 0.5625 0.65625
vt 0.28125 0.65625
vt 0.53125 0.78125
vt 0.28125 0.78125
vt 0.28125 0.71875
vt 0.53125 0.71875
vt 0.294295 0.90625
vt 0.549455 0.90625
vt 0.5625 0.9687475
vt 0.28125 0.96875
vt 0.5625 0.96875
vt 0.28125 0.96875
vt 0.294295 0.9062525
vt 0.549455 0.90625
vt 0.28125 0.78125
vt 0.5625 0.78125
vt 0.5625 0.84375
vt 0.28125 0.84375
vt 0.53125 0.78125
vt 0.28125 0.78125
vt 0.28125 0.71875
vt 0.53125 0.71875
vt 0.294295 0.90625
vt 0.549455 0.90625
vt 0.5625 0.96875
vt 0.28125 0.96875
vt 0.5625 0.96875
vt 0.28125 0.96875
vt 0.294295 0.90625
vt 0.549455 0.90625
vt 0.28125 0.59375
vt 0.5625 0.59375
vt 0.5625 0.65625
vt 0.28125 0.65625
vt 0.53125 0.78125
vt 0.28125 0.78125
vt 0.28125 0.71875
vt 0.53125 0.71875
vt 0.294295 0.90625
vt 0.549455 0.90625
vt 0.5625 0.96875
vt 0.28125 0.9687475
vt 0.5625 0.96875
vt 0.28125 0.96875
vt 0.294295 0.90625
vt 0.549455 0.9062525
vt 0.28125 0.59375
vt 0.5625 0.59375
vt 0.5625 0.65625
vt 0.28125 0.65625
vt 0.5322 0.78125
vt 0.2822 0.78125
vt 0.2822 0.71875
vt 0.5322 0.71875
vt 0.2942975 0.90625
vt 0.5494525 0.90625
vt 0.5625 0.96875
vt 0.28125 0.96875
vt 0.5625 0.96875
vt 0.28125 0.96875
vt 0.2942975 0.90625
vt 0.5494525 0.90625
vt 0.28125 0.59375
vt 0.5625 0.59375
vt 0.5625 0.65625
vt 0.28125 0.65625
vt 0.53125 0.78125
vt 0.28125 0.78125
vt 0.28125 0.71875
vt 0.53125 0.71875
vt 0.294295 0.90625
vt 0.549455 0.90625
vt 0.5625 0.9687475
vt 0.28125 0.96875
vt 0.5625 0.96875
vt 0.28125 0.96875
vt 0.294295 0.9062525
vt 0.549455 0.90625
vt 0.28125 0.65625
vt 0.5625 0.65625
vt 0.5625 0.71875
vt 0.28125 0.71875
vt 0.53125 0.78125
vt 0.28125 0.78125
vt 0.28125 0.71875
vt 0.53125 0.71875
vt 0.294295 0.90625
vt 0.549455 0.90625
vt 0.5625 0.96875
vt 0.28125 0.96875
vt 0.5625 0.96875
vt 0.28125 0.96875
vt 0.294295 0.90625
vt 0.549455 0.90625
vt 0.28125 0.59375
vt 0.5625 0.59375
vt 0.5625 0.65625
vt 0.28125 0.65625
vt 0.53125 0.78125
vt 0.28125 0.78125
vt 0.28125 0.71875
vt 0.53125 0.71875
vt 0.294295 0.90625
vt 0.549455 0.90625
vt 0.5625 0.96875
vt 0.28125 0.9687475
vt 0.5625 0.96875
vt 0.28125 0.96875
vt 0.294295 0.90625
vt 0.549455 0.9062525
vt 0.28125 0.59375
vt 0.5625 0.59375
vt 0.5625 0.65625
vt 0.28125 0.65625
vt 0.5322 0.78125
vt 0.2822 0.78125
vt 0.2822 0.71875
vt 0.5322 0.71875
vt 0.2942975 0.90625
vt 0.5494525 0.90625
vt 0.5625 0.96875
vt 0.28125 0.96875
vt 0.5625 0.96875
vt 0.28125 0.96875
vt 0.2942975 0.90625
vt 0.5494525 0.90625
vt 0.28125 0.59375
vt 0.5625 0.59375
vt 0.5625 0.65625
vt 0.28125 0.65625
vt 0.53125 0.78125
vt 0.28125 0.78125
vt 0.28125 0.71875
vt 0.53125 0.71875
vt 0.294295 0.90625
vt 0.549455 0.90625
vt 0.5625 0.9687475
vt 0.28125 0.96875
vt 0.5625 0.96875
vt 0.28125 0.96875
vt 0.294295 0.9062525
vt 0.549455 0.90625
vt 0.28125 0.65625
vt 0.5625 0.65625
vt 0.5625 0.71875
vt 0.28125 0.71875
vt 0.53125 0.78125
vt 0.28125 0.78125
vt 0.28125 0.71875
vt 0.53125 0.71875
vt 0.294295 0.90625
vt 0.549455 0.90625
vt 0.5625 0.96875
vt 0.28125 0.96875
vt 0.5625 0.96875
vt 0.28125 0.96875
vt 0.294295 0.90625
vt 0.549455 0.90625
vt 0.28125 0.59375
vt 0.5625 0.59375
vt 0.5625 0.65625
vt 0.28125 0.65625
vt 0.53125 0.78125
vt 0.28125 0.78125
vt 0.28125 0.71875
vt 0.53125 0.71875
vt 0.294295 0.90625
vt 0.549455 0.90625
vt 0.5625 0.96875
vt 0.28125 0.9687475
vt 0.5625 0.96875
vt 0.28125 0.96875
vt 0.294295 0.90625
vt 0.549455 0.9062525
vt 0.28125 0.59375
vt 0.5625 0.59375
vt 0.5625 0.65625
vt 0.28125 0.65625
vt 0.53125 0.78125
vt 0.28125 0.78125
vt 0.28125 0.71875
vt 0.53125 0.71875
vt 0.2942975 0.90625
vt 0.5494525 0.90625
vt 0.5625 0.96875
vt 0.28125 0.96875
vt 0.5625 0.96875
vt 0.28125 0.96875
vt 0.2942975 0.90625
vt 0.5494525 0.90625
vt 0.28125 0.59375
vt 0.5625 0.59375
vt 0.5625 0.65625
vt 0.28125 0.65625
vt 0.53125 0.78125
vt 0.28125 0.78125
vt 0.28125 0.71875
vt 0.53125 0.71875
vt 0.294295 0.90625
vt 0.549455 0.90625
vt 0.5625 0.9687475
vt 0.28125 0.96875
vt 0.5625 0.96875
vt 0.28125 0.96875
vt 0.294295 0.9062525
vt 0.549455 0.90625
vt 0.28125 0.65625
vt 0.5625 0.65625
vt 0.5625 0.71875
vt 0.28125 0.71875
vt 0.53125 0.78125
vt 0.28125 0.78125
vt 0.28125 0.71875
vt 0.53125 0.71875
vt 0.294295 0.90625
vt 0.549455 0.90625
vt 0.5625 0.96875
vt 0.28125 0.96875
vt 0.5625 0.96875
vt 0.28125 0.96875
vt 0.294295 0.90625
vt 0.549455 0.90625
vt 0.28125 0.59375
vt 0.5625 0.59375
vt 0.5625 0.65625
vt 0.28125 0.65625
vt 0.53125 0.78125
vt 0.28125 0.78125
vt 0.28125 0.71875
vt 0.53125 0.71875
vt 0.294295 0.90625
vt 0.549455 0.90625
vt 0.5625 0.96875
vt 0.28125 0.9687475
vt 0.5625 0.96875
vt 0.28125 0.96875
vt 0.294295 0.90625
vt 0.549455 0.9062525
vt 0.28125 0.59375
vt 0.5625 0.59375
vt 0.5625 0.65625
vt 0.28125 0.65625
vt 0.53125 0.78125
vt 0.28125 0.78125
vt 0.28125 0.71875
vt 0.53125 0.71875
vt 0.2942975 0.90625
vt 0.5494525 0.90625
vt 0.5625 0.96875
vt 0.28125 0.96875
vt 0.5625 0.96875
vt 0.28125 0.96875
vt 0.2942975 0.90625
vt 0.5494525 0.90625
vn 0.3826834504445885 0 0.923879525022513
vn -0.38268334355465133 0 -0.92387956929777
vn 0 -1 0
vn 0 1 0
vn 0.7071067811865476 0 0.7071067811865476
vn -0.7071067811865476 0 -0.7071067811865476
vn 0 -1 0
vn 0 1 0
vn 0.923879525022513 0 0.3826834504445885
vn -0.92387956929777 0 -0.38268334355465133
vn 0 -1 0
vn 0 1 0
vn 1 0 0
vn -1 0 0
vn 0 -1 0
vn 0 1 0
vn 0.923879525022513 0 -0.3826834504445885
vn -0.92387956929777 0 0.38268334355465133
vn 0 -1 0
vn 0 1 0
vn 0.7071067811865476 0 -0.7071067811865476
vn -0.7071067811865476 0 0.7071067811865476
vn 0 -1 0
vn 0 1 0
vn 0.3826834504445885 0 -0.923879525022513
vn -0.38268334355465133 0 0.92387956929777
vn 0 -1 0
vn 0 1 0
vn 0 0 -1
vn 0 0 1
vn 0 -1 0
vn 0 1 0
vn -0.3826834504445885 0 -0.923879525022513
vn 0.38268334355465133 0 0.92387956929777
vn 0 -1 0
vn 0 1 0
vn -0.7071067811865476 0 -0.7071067811865476
vn 0.7071067811865476 0 0.7071067811865476
vn 0 -1 0
vn 0 1 0
vn -0.923879525022513 0 -0.3826834504445885
vn 0.92387956929777 0 0.38268334355465133
vn 0 -1 0
vn 0 1 0
vn -1 0 0
vn 1 0 0
vn 0 -1 0
vn 0 1 0
vn -0.923879525022513 0 0.3826834504445885
vn 0.92387956929777 0 -0.38268334355465133
vn 0 -1 0
vn 0 1 0
vn -0.7071067811865476 0 0.7071067811865476
vn 0.7071067811865476 0 -0.7071067811865476
vn 0 -1 0
vn 0 1 0
vn -0.3826834504445885 0 0.923879525022513
vn 0.38268334355465133 0 -0.92387956929777
vn 0 -1 0
vn 0 1 0
vn 0 0 1
vn 0 0 -1
vn 0 -1 0
vn 0 1 0
usemtl m_3e53496a-8ec8-a43e-e3d1-5497141f3f54
f 217/777/195 221/778/195 222/779/195 218/780/195
f 220/781/196 224/782/196 223/783/196 219/784/196
f 219/785/197 223/786/197 221/787/197 217/788/197
f 218/789/198 222/790/198 224/791/198 220/792/198
f 221/793/199 225/794/199 226/795/199 222/796/199
f 224/797/200 228/798/200 227/799/200 223/800/200
f 223/801/201 227/802/201 225/803/201 221/804/201
f 222/805/202 226/806/202 228/807/202 224/808/202
f 225/809/203 229/810/203 230/811/203 226/812/203
f 228/813/204 232/814/204 231/815/204 227/816/204
f 227/817/205 231/818/205 229/819/205 225/820/205
f 226/821/206 230/822/206 232/823/206 228/824/206
f 229/825/207 233/826/207 234/827/207 230/828/207
f 232/829/208 236/830/208 235/831/208 231/832/208
f 231/833/209 235/834/209 233/835/209 229/836/209
f 230/837/210 234/838/210 236/839/210 232/840/210
f 233/841/211 237/842/211 238/843/211 234/844/211
f 236/845/212 240/846/212 239/847/212 235/848/212
f 235/849/213 239/850/213 237/851/213 233/852/213
f 234/853/214 238/854/214 240/855/214 236/856/214
f 237/857/215 241/858/215 242/859/215 238/860/215
f 240/861/216 244/862/216 243/863/216 239/864/216
f 239/865/217 243/866/217 241/867/217 237/868/217
f 238/869/218 242/870/218 244/871/218 240/872/218
f 241/873/219 245/874/219 246/875/219 242/876/219
f 244/877/220 248/878/220 247/879/220 243/880/220
f 243/881/221 247/882/221 245/883/221 241/884/221
f 242/885/222 246/886/222 248/887/222 244/888/222
f 245/889/223 249/890/223 250/891/223 246/892/223
f 248/893/224 252/894/224 251/895/224 247/896/224
f 247/897/225 251/898/225 249/899/225 245/900/225
f 246/901/226 250/902/226 252/903/226 248/904/226
f 249/905/227 253/906/227 254/907/227 250/908/227
f 252/909/228 256/910/228 255/911/228 251/912/228
f 251/913/229 255/914/229 253/915/229 249/916/229
f 250/917/230 254/918/230 256/919/230 252/920/230
f 253/921/231 257/922/231 258/923/231 254/924/231
f 256/925/232 260/926/232 259/927/232 255/928/232
f 255/929/233 259/930/233 257/931/233 253/932/233
f 254/933/234 258/934/234 260/935/234 256/936/234
f 257/937/235 261/938/235 262/939/235 258/940/235
f 260/941/236 264/942/236 263/943/236 259/944/236
f 259/945/237 263/946/237 261/947/237 257/948/237
f 258/949/238 262/950/238 264/951/238 260/952/238
f 261/953/239 265/954/239 266/955/239 262/956/239
f 264/957/240 268/958/240 267/959/240 263/960/240
f 263/961/241 267/962/241 265/963/241 261/964/241
f 262/965/242 266/966/242 268/967/242 264/968/242
f 265/969/243 269/970/243 270/971/243 266/972/243
f 268/973/244 272/974/244 271/975/244 267/976/244
f 267/977/245 271/978/245 269/979/245 265/980/245
f 266/981/246 270/982/246 272/983/246 268/984/246
f 269/985/247 273/986/247 274/987/247 270/988/247
f 272/989/248 276/990/248 275/991/248 271/992/248
f 271/993/249 275/994/249 273/995/249 269/996/249
f 270/997/250 274/998/250 276/999/250 272/1000/250
f 273/1001/251 277/1002/251 278/1003/251 274/1004/251
f 276/1005/252 280/1006/252 279/1007/252 275/1008/252
f 275/1009/253 279/1010/253 277/1011/253 273/1012/253
f 274/1013/254 278/1014/254 280/1015/254 276/1016/254
f 277/1017/255 217/1018/255 218/1019/255 278/1020/255
f 280/1021/256 220/1022/256 219/1023/256 279/1024/256
f 279/1025/257 219/1026/257 217/1027/257 277/1028/257
f 278/1029/258 218/1030/258 220/1031/258 280/1032/258