# Made in Blockbench 5.1.4
mtllib narrow_truck_tire.mtl

o rim
v 0 0.4375 0
v 0.234455625 0.4375 0.875
v 0.640544375 0.4375 0.640544375
v 0.875 0.4375 0.234455625
v 0.875 0.4375 -0.234455625
v 0.640544375 0.4375 -0.640544375
v 0.234455625 0.4375 -0.875
v -0.234455625 0.4375 -0.875
v -0.640544375 0.4375 -0.640544375
v -0.875 0.4375 -0.234455625
v -0.875 0.4375 0.234455625
v -0.640544375 0.4375 0.640544375
v -0.234455625 0.4375 0.875
v 0.45452 0.655311875 0.45452
v 0.166365625 0.655311875 0.620885625
v -0.166365625 0.655311875 0.620885625
v -0.45452 0.655311875 0.45452
v -0.620885625 0.655311875 0.166365625
v -0.620885625 0.655311875 -0.166365625
v -0.45452 0.655311875 -0.45452
v -0.166365625 0.655311875 -0.620885625
v 0.166365625 0.655311875 -0.620885625
v 0.45452 0.655311875 -0.45452
v 0.620885625 0.655311875 -0.166365625
v 0.620885625 0.655311875 0.166365625
vt 0.423708125 0.84375
vt 0.521604375 0.787229375
vt 0.3671875 0.6328125
vt 0.10685 1
vt 0.018150625 1
vt 0 0.921875
vt 0.125 0.921875
vt 0.521604375 0.787229375
vt 0.578125 0.689333125
vt 0.3671875 0.6328125
vt 0.10685 1
vt 0.018150625 1
vt 0 0.921875
vt 0.125 0.921875
vt 0.578125 0.689333125
vt 0.578125 0.576291875
vt 0.3671875 0.6328125
vt 0.10685 1
vt 0.018150625 1
vt 0 0.921875
vt 0.125 0.921875
vt 0.578125 0.576291875
vt 0.521604375 0.478395625
vt 0.3671875 0.6328125
vt 0.10685 1
vt 0.018150625 1
vt 0 0.921875
vt 0.125 0.921875
vt 0.521604375 0.478395625
vt 0.423708125 0.421875
vt 0.3671875 0.6328125
vt 0.10685 1
vt 0.018150625 1
vt 0 0.921875
vt 0.125 0.921875
vt 0.423708125 0.421875
vt 0.310666875 0.421875
vt 0.3671875 0.6328125
vt 0.10685 1
vt 0.018150625 1
vt 0 0.921875
vt 0.125 0.921875
vt 0.310666875 0.421875
vt 0.212770625 0.478395625
vt 0.3671875 0.6328125
vt 0.10685 1
vt 0.018150625 1
vt 0 0.921875
vt 0.125 0.921875
vt 0.212770625 0.478395625
vt 0.15625 0.576291875
vt 0.3671875 0.6328125
vt 0.10685 1
vt 0.018150625 1
vt 0 0.921875
vt 0.125 0.921875
vt 0.15625 0.576291875
vt 0.15625 0.689333125
vt 0.3671875 0.6328125
vt 0.10685 1
vt 0.018150625 1
vt 0 0.921875
vt 0.125 0.921875
vt 0.15625 0.689333125
vt 0.212770625 0.787229375
vt 0.3671875 0.6328125
vt 0.10685 1
vt 0.018150625 1
vt 0 0.921875
vt 0.125 0.921875
vt 0.212770625 0.787229375
vt 0.310666875 0.84375
vt 0.3671875 0.6328125
vt 0.10685 1
vt 0.018150625 1
vt 0 0.921875
vt 0.125 0.921875
vt 0.310666875 0.84375
vt 0.423708125 0.84375
vt 0.3671875 0.6328125
vt 0.10685 1
vt 0.018150625 1
vt 0 0.921875
vt 0.125 0.921875
vn 0 1 0
vn 0.3253945981758559 0.7592575104056358 0.5636012671832891
vn 0 1 0
vn 0.5636020564094384 0.759256729276032 0.3253950538347422
vn 0 1 0
vn 0.6507906045220027 0.7592572614508777 0
vn 0 1 0
vn 0.5636012671832891 0.7592575104056358 -0.3253945981758559
vn 0 1 0
vn 0.3253950538347422 0.759256729276032 -0.5636020564094384
vn 0 1 0
vn 0 0.7592572614508777 -0.6507906045220027
vn 0 1 0
vn -0.3253945981758559 0.7592575104056358 -0.5636012671832891
vn 0 1 0
vn -0.5636020564094384 0.759256729276032 -0.3253950538347422
vn 0 1 0
vn -0.6507906045220027 0.7592572614508777 0
vn 0 1 0
vn -0.5636012671832891 0.7592575104056358 0.3253945981758559
vn 0 1 0
vn -0.3253950538347422 0.759256729276032 0.5636020564094384
vn 0 1 0
vn 0 0.7592572614508777 0.6507906045220027
usemtl m_028fd148-5ac3-9770-0dc8-b5f43008d6ba
f 2/1/1 3/2/1 1/3/1
f 14/4/2 15/5/2 2/6/2 3/7/2
f 3/8/3 4/9/3 1/10/3
f 25/11/4 14/12/4 3/13/4 4/14/4
f 4/15/5 5/16/5 1/17/5
f 24/18/6 25/19/6 4/20/6 5/21/6
f 5/22/7 6/23/7 1/24/7
f 23/25/8 24/26/8 5/27/8 6/28/8
f 6/29/9 7/30/9 1/31/9
f 22/32/10 23/33/10 6/34/10 7/35/10
f 7/36/11 8/37/11 1/38/11
f 21/39/12 22/40/12 7/41/12 8/42/12
f 8/43/13 9/44/13 1/45/13
f 20/46/14 21/47/14 8/48/14 9/49/14
f 9/50/15 10/51/15 1/52/15
f 19/53/16 20/54/16 9/55/16 10/56/16
f 10/57/17 11/58/17 1/59/17
f 18/60/18 19/61/18 10/62/18 11/63/18
f 11/64/19 12/65/19 1/66/19
f 17/67/20 18/68/20 11/69/20 12/70/20
f 12/71/21 13/72/21 1/73/21
f 16/74/22 17/75/22 12/76/22 13/77/22
f 13/78/23 2/79/23 1/80/23
f 15/81/24 16/82/24 13/83/24 2/84/24
o rim
v 0.167468125 0.421875 0.625
v 0.167468125 0.703125 0.625
v 0.098015 0.421875 0.3657975
v 0.098015 0.703125 0.3657975
v 0.457531875 0.421875 0.457531875
v 0.457531875 0.703125 0.457531875
v 0.2677825 0.421875 0.2677825
v 0.2677825 0.703125 0.2677825
v 0.625 0.421875 0.167468125
v 0.625 0.703125 0.167468125
v 0.3657975 0.421875 0.098015
v 0.3657975 0.703125 0.098015
v 0.625 0.421875 -0.167468125
v 0.625 0.703125 -0.167468125
v 0.3657975 0.421875 -0.098015
v 0.3657975 0.703125 -0.098015
v 0.457531875 0.421875 -0.457531875
v 0.457531875 0.703125 -0.457531875
v 0.2677825 0.421875 -0.2677825
v 0.2677825 0.703125 -0.2677825
v 0.167468125 0.421875 -0.625
v 0.167468125 0.703125 -0.625
v 0.098015 0.421875 -0.3657975
v 0.098015 0.703125 -0.3657975
v -0.167468125 0.421875 -0.625
v -0.167468125 0.703125 -0.625
v -0.098015 0.421875 -0.3657975
v -0.098015 0.703125 -0.3657975
v -0.457531875 0.421875 -0.457531875
v -0.457531875 0.703125 -0.457531875
v -0.2677825 0.421875 -0.2677825
v -0.2677825 0.703125 -0.2677825
v -0.625 0.421875 -0.167468125
v -0.625 0.703125 -0.167468125
v -0.3657975 0.421875 -0.098015
v -0.3657975 0.703125 -0.098015
v -0.625 0.421875 0.167468125
v -0.625 0.703125 0.167468125
v -0.3657975 0.421875 0.098015
v -0.3657975 0.703125 0.098015
v -0.457531875 0.421875 0.457531875
v -0.457531875 0.703125 0.457531875
v -0.2677825 0.421875 0.2677825
v -0.2677825 0.703125 0.2677825
v -0.167468125 0.421875 0.625
v -0.167468125 0.703125 0.625
v -0.098015 0.421875 0.3657975
v -0.098015 0.703125 0.3657975
vt 0.765625 0.390625
vt 0.84375 0.390625
vt 0.84375 0.46875
vt 0.765625 0.46875
vt 0.90625 0.46875
vt 0.859375 0.46875
vt 0.859375 0.390625
vt 0.90625 0.390625
vt 0.790128125 0.29457500000000003
vt 0.832570625 0.27007000000000003
vt 0.880008125 0.31750750000000005
vt 0.8074925 0.359375
vt 0.8074925 0.046875
vt 0.880008125 0.08874187499999997
vt 0.832570625 0.136179375
vt 0.790128125 0.11167499999999997
vt 0.765625 0.390625
vt 0.84375 0.390625
vt 0.84375 0.46875
vt 0.765625 0.46875
vt 0.90625 0.46875
vt 0.859375 0.46875
vt 0.859375 0.390625
vt 0.90625 0.390625
vt 0.832570625 0.27007000000000003
vt 0.857075 0.22762812499999996
vt 0.921875 0.24499187499999997
vt 0.880008125 0.31750750000000005
vt 0.880008125 0.08874187499999997
vt 0.921875 0.16125750000000005
vt 0.857075 0.17862187500000004
vt 0.832570625 0.136179375
vt 0.765625 0.390625
vt 0.84375 0.390625
vt 0.84375 0.46875
vt 0.765625 0.46875
vt 0.90625 0.46875
vt 0.859375 0.46875
vt 0.859375 0.390625
vt 0.90625 0.390625
vt 0.857075 0.22762812499999996
vt 0.857075 0.17862187500000004
vt 0.921875 0.16125750000000005
vt 0.921875 0.24499187499999997
vt 0.921875 0.16125750000000005
vt 0.921875 0.24499187499999997
vt 0.857075 0.22762812499999996
vt 0.857075 0.17862187500000004
vt 0.765625 0.390625
vt 0.84375 0.390625
vt 0.84375 0.46875
vt 0.765625 0.46875
vt 0.90625 0.46875
vt 0.859375 0.46875
vt 0.859375 0.390625
vt 0.90625 0.390625
vt 0.857075 0.17862187500000004
vt 0.832570625 0.136179375
vt 0.880008125 0.08874187499999997
vt 0.921875 0.16125750000000005
vt 0.921875 0.24499187499999997
vt 0.880008125 0.31750750000000005
vt 0.832570625 0.27007000000000003
vt 0.857075 0.22762812499999996
vt 0.765625 0.390625
vt 0.84375 0.390625
vt 0.84375 0.46875
vt 0.765625 0.46875
vt 0.90625 0.46875
vt 0.859375 0.46875
vt 0.859375 0.390625
vt 0.90625 0.390625
vt 0.832570625 0.136179375
vt 0.790128125 0.11167499999999997
vt 0.8074925 0.046875
vt 0.880008125 0.08874187499999997
vt 0.880008125 0.31750750000000005
vt 0.8074925 0.359375
vt 0.790128125 0.29457500000000003
vt 0.832570625 0.27007000000000003
vt 0.765625 0.390625
vt 0.84375 0.390625
vt 0.84375 0.46875
vt 0.765625 0.46875
vt 0.90625 0.46875
vt 0.859375 0.46875
vt 0.859375 0.390625
vt 0.90625 0.390625
vt 0.790128125 0.11167499999999997
vt 0.741121875 0.11167499999999997
vt 0.723758125 0.046875
vt 0.8074925 0.046875
vt 0.8074925 0.359375
vt 0.723758125 0.359375
vt 0.741121875 0.29457500000000003
vt 0.790128125 0.29457500000000003
vt 0.765625 0.390625
vt 0.84375 0.390625
vt 0.84375 0.46875
vt 0.765625 0.46875
vt 0.90625 0.46875
vt 0.859375 0.46875
vt 0.859375 0.390625
vt 0.90625 0.390625
vt 0.741121875 0.11167499999999997
vt 0.69868 0.136179375
vt 0.651241875 0.08874187499999997
vt 0.723758125 0.046875
vt 0.723758125 0.359375
vt 0.651241875 0.31750750000000005
vt 0.69868 0.27007000000000003
vt 0.741121875 0.29457500000000003
vt 0.765625 0.390625
vt 0.84375 0.390625
vt 0.84375 0.46875
vt 0.765625 0.46875
vt 0.90625 0.46875
vt 0.859375 0.46875
vt 0.859375 0.390625
vt 0.90625 0.390625
vt 0.69868 0.136179375
vt 0.674175 0.17862187500000004
vt 0.609375 0.16125750000000005
vt 0.651241875 0.08874187499999997
vt 0.651241875 0.31750750000000005
vt 0.609375 0.24499187499999997
vt 0.674175 0.22762812499999996
vt 0.69868 0.27007000000000003
vt 0.765625 0.390625
vt 0.84375 0.390625
vt 0.84375 0.46875
vt 0.765625 0.46875
vt 0.90625 0.46875
vt 0.859375 0.46875
vt 0.859375 0.390625
vt 0.90625 0.390625
vt 0.674175 0.17862187500000004
vt 0.674175 0.22762812499999996
vt 0.609375 0.24499187499999997
vt 0.609375 0.16125750000000005
vt 0.609375 0.24499187499999997
vt 0.609375 0.16125750000000005
vt 0.674175 0.17862187500000004
vt 0.674175 0.22762812499999996
vt 0.765625 0.390625
vt 0.84375 0.390625
vt 0.84375 0.46875
vt 0.765625 0.46875
vt 0.90625 0.46875
vt 0.859375 0.46875
vt 0.859375 0.390625
vt 0.90625 0.390625
vt 0.674175 0.22762812499999996
vt 0.69868 0.27007000000000003
vt 0.651241875 0.31750750000000005
vt 0.609375 0.24499187499999997
vt 0.609375 0.16125750000000005
vt 0.651241875 0.08874187499999997
vt 0.69868 0.136179375
vt 0.674175 0.17862187500000004
vt 0.765625 0.390625
vt 0.84375 0.390625
vt 0.84375 0.46875
vt 0.765625 0.46875
vt 0.90625 0.46875
vt 0.859375 0.46875
vt 0.859375 0.390625
vt 0.90625 0.390625
vt 0.69868 0.27007000000000003
vt 0.741121875 0.29457500000000003
vt 0.723758125 0.359375
vt 0.651241875 0.31750750000000005
vt 0.651241875 0.08874187499999997
vt 0.723758125 0.046875
vt 0.741121875 0.11167499999999997
vt 0.69868 0.136179375
vt 0.765625 0.390625
vt 0.84375 0.390625
vt 0.84375 0.46875
vt 0.765625 0.46875
vt 0.90625 0.46875
vt 0.859375 0.46875
vt 0.859375 0.390625
vt 0.90625 0.390625
vt 0.741121875 0.29457500000000003
vt 0.790128125 0.29457500000000003
vt 0.8074925 0.359375
vt 0.723758125 0.359375
vt 0.723758125 0.046875
vt 0.8074925 0.046875
vt 0.790128125 0.11167499999999997
vt 0.741121875 0.11167499999999997
vn 0.49999941971553924 0 0.8660257388115691
vn -0.49999880697841 0 -0.8660260925746791
vn 0 -1 0
vn 0 1 0
vn 0.8660257388115691 0 0.49999941971553924
vn -0.8660260925746791 0 -0.49999880697841
vn 0 -1 0
vn 0 1 0
vn 1 0 0
vn -1 0 0
vn 0 -1 0
vn 0 1 0
vn 0.8660257388115691 0 -0.49999941971553924
vn -0.8660260925746791 0 0.49999880697841
vn 0 -1 0
vn 0 1 0
vn 0.49999941971553924 0 -0.8660257388115691
vn -0.49999880697841 0 0.8660260925746791
vn 0 -1 0
vn 0 1 0
vn 0 0 -1
vn 0 0 1
vn 0 -1 0
vn 0 1 0
vn -0.49999941971553924 0 -0.8660257388115691
vn 0.49999880697841 0 0.8660260925746791
vn 0 -1 0
vn 0 1 0
vn -0.8660257388115691 0 -0.49999941971553924
vn 0.8660260925746791 0 0.49999880697841
vn 0 -1 0
vn 0 1 0
vn -1 0 0
vn 1 0 0
vn 0 -1 0
vn 0 1 0
vn -0.8660257388115691 0 0.49999941971553924
vn 0.8660260925746791 0 -0.49999880697841
vn 0 -1 0
vn 0 1 0
vn -0.49999941971553924 0 0.8660257388115691
vn 0.49999880697841 0 -0.8660260925746791
vn 0 -1 0
vn 0 1 0
vn 0 0 1
vn 0 0 -1
vn 0 -1 0
vn 0 1 0
usemtl m_028fd148-5ac3-9770-0dc8-b5f43008d6ba
f 26/85/25 30/86/25 31/87/25 27/88/25
f 29/89/26 33/90/26 32/91/26 28/92/26
f 28/93/27 32/94/27 30/95/27 26/96/27
f 27/97/28 31/98/28 33/99/28 29/100/28
f 30/101/29 34/102/29 35/103/29 31/104/29
f 33/105/30 37/106/30 36/107/30 32/108/30
f 32/109/31 36/110/31 34/111/31 30/112/31
f 31/113/32 35/114/32 37/115/32 33/116/32
f 34/117/33 38/118/33 39/119/33 35/120/33
f 37/121/34 41/122/34 40/123/34 36/124/34
f 36/125/35 40/126/35 38/127/35 34/128/35
f 35/129/36 39/130/36 41/131/36 37/132/36
f 38/133/37 42/134/37 43/135/37 39/136/37
f 41/137/38 45/138/38 44/139/38 40/140/38
f 40/141/39 44/142/39 42/143/39 38/144/39
f 39/145/40 43/146/40 45/147/40 41/148/40
f 42/149/41 46/150/41 47/151/41 43/152/41
f 45/153/42 49/154/42 48/155/42 44/156/42
f 44/157/43 48/158/43 46/159/43 42/160/43
f 43/161/44 47/162/44 49/163/44 45/164/44
f 46/165/45 50/166/45 51/167/45 47/168/45
f 49/169/46 53/170/46 52/171/46 48/172/46
f 48/173/47 52/174/47 50/175/47 46/176/47
f 47/177/48 51/178/48 53/179/48 49/180/48
f 50/181/49 54/182/49 55/183/49 51/184/49
f 53/185/50 57/186/50 56/187/50 52/188/50
f 52/189/51 56/190/51 54/191/51 50/192/51
f 51/193/52 55/194/52 57/195/52 53/196/52
f 54/197/53 58/198/53 59/199/53 55/200/53
f 57/201/54 61/202/54 60/203/54 56/204/54
f 56/205/55 60/206/55 58/207/55 54/208/55
f 55/209/56 59/210/56 61/211/56 57/212/56
f 58/213/57 62/214/57 63/215/57 59/216/57
f 61/217/58 65/218/58 64/219/58 60/220/58
f 60/221/59 64/222/59 62/223/59 58/224/59
f 59/225/60 63/226/60 65/227/60 61/228/60
f 62/229/61 66/230/61 67/231/61 63/232/61
f 65/233/62 69/234/62 68/235/62 64/236/62
f 64/237/63 68/238/63 66/239/63 62/240/63
f 63/241/64 67/242/64 69/243/64 65/244/64
f 66/245/65 70/246/65 71/247/65 67/248/65
f 69/249/66 73/250/66 72/251/66 68/252/66
f 68/253/67 72/254/67 70/255/67 66/256/67
f 67/257/68 71/258/68 73/259/68 69/260/68
f 70/261/69 26/262/69 27/263/69 71/264/69
f 73/265/70 29/266/70 28/267/70 72/268/70
f 72/269/71 28/270/71 26/271/71 70/272/71
f 71/273/72 27/274/72 29/275/72 73/276/72
o rim
v 0 0.40625 0
v 0 0.625 0
v 0.0669875 0.40625 0.25
v 0.0669875 0.625 0.25
v 0.1830125 0.40625 0.1830125
v 0.1830125 0.625 0.1830125
v 0.25 0.40625 0.0669875
v 0.25 0.625 0.0669875
v 0.25 0.40625 -0.0669875
v 0.25 0.625 -0.0669875
v 0.1830125 0.40625 -0.1830125
v 0.1830125 0.625 -0.1830125
v 0.0669875 0.40625 -0.25
v 0.0669875 0.625 -0.25
v -0.0669875 0.40625 -0.25
v -0.0669875 0.625 -0.25
v -0.1830125 0.40625 -0.1830125
v -0.1830125 0.625 -0.1830125
v -0.25 0.40625 -0.0669875
v -0.25 0.625 -0.0669875
v -0.25 0.40625 0.0669875
v -0.25 0.625 0.0669875
v -0.1830125 0.40625 0.1830125
v -0.1830125 0.625 0.1830125
v -0.0669875 0.40625 0.25
v -0.0669875 0.625 0.25
vt 0.795753125 0.24887812499999995
vt 0.766746875 0.265625
vt 0.75 0.203125
vt 0.71875 0.390625
vt 0.75 0.390625
vt 0.75 0.453125
vt 0.71875 0.453125
vt 0.766746875 0.140625
vt 0.795753125 0.15737187500000005
vt 0.75 0.203125
vt 0.8125 0.21987187500000005
vt 0.795753125 0.24887812499999995
vt 0.75 0.203125
vt 0.71875 0.390625
vt 0.75 0.390625
vt 0.75 0.453125
vt 0.71875 0.453125
vt 0.795753125 0.15737187500000005
vt 0.8125 0.18637812499999995
vt 0.75 0.203125
vt 0.8125 0.18637812499999995
vt 0.8125 0.21987187500000005
vt 0.75 0.203125
vt 0.71875 0.390625
vt 0.75 0.390625
vt 0.75 0.453125
vt 0.71875 0.453125
vt 0.8125 0.18637812499999995
vt 0.8125 0.21987187500000005
vt 0.75 0.203125
vt 0.795753125 0.15737187500000005
vt 0.8125 0.18637812499999995
vt 0.75 0.203125
vt 0.71875 0.390625
vt 0.75 0.390625
vt 0.75 0.453125
vt 0.71875 0.453125
vt 0.8125 0.21987187500000005
vt 0.795753125 0.24887812499999995
vt 0.75 0.203125
vt 0.766746875 0.140625
vt 0.795753125 0.15737187500000005
vt 0.75 0.203125
vt 0.71875 0.390625
vt 0.75 0.390625
vt 0.75 0.453125
vt 0.71875 0.453125
vt 0.795753125 0.24887812499999995
vt 0.766746875 0.265625
vt 0.75 0.203125
vt 0.733253125 0.140625
vt 0.766746875 0.140625
vt 0.75 0.203125
vt 0.71875 0.390625
vt 0.75 0.390625
vt 0.75 0.453125
vt 0.71875 0.453125
vt 0.766746875 0.265625
vt 0.733253125 0.265625
vt 0.75 0.203125
vt 0.704246875 0.15737187500000005
vt 0.733253125 0.140625
vt 0.75 0.203125
vt 0.71875 0.390625
vt 0.75 0.390625
vt 0.75 0.453125
vt 0.71875 0.453125
vt 0.733253125 0.265625
vt 0.704246875 0.24887812499999995
vt 0.75 0.203125
vt 0.6875 0.18637812499999995
vt 0.704246875 0.15737187500000005
vt 0.75 0.203125
vt 0.71875 0.390625
vt 0.75 0.390625
vt 0.75 0.453125
vt 0.71875 0.453125
vt 0.704246875 0.24887812499999995
vt 0.6875 0.21987187500000005
vt 0.75 0.203125
vt 0.6875 0.21987187500000005
vt 0.6875 0.18637812499999995
vt 0.75 0.203125
vt 0.71875 0.390625
vt 0.75 0.390625
vt 0.75 0.453125
vt 0.71875 0.453125
vt 0.6875 0.21987187500000005
vt 0.6875 0.18637812499999995
vt 0.75 0.203125
vt 0.704246875 0.24887812499999995
vt 0.6875 0.21987187500000005
vt 0.75 0.203125
vt 0.71875 0.390625
vt 0.75 0.390625
vt 0.75 0.453125
vt 0.71875 0.453125
vt 0.6875 0.18637812499999995
vt 0.704246875 0.15737187500000005
vt 0.75 0.203125
vt 0.733253125 0.265625
vt 0.704246875 0.24887812499999995
vt 0.75 0.203125
vt 0.71875 0.390625
vt 0.75 0.390625
vt 0.75 0.453125
vt 0.71875 0.453125
vt 0.704246875 0.15737187500000005
vt 0.733253125 0.140625
vt 0.75 0.203125
vt 0.766746875 0.265625
vt 0.733253125 0.265625
vt 0.75 0.203125
vt 0.71875 0.390625
vt 0.75 0.390625
vt 0.75 0.453125
vt 0.71875 0.453125
vt 0.733253125 0.140625
vt 0.766746875 0.140625
vt 0.75 0.203125
vn 0 -1 0
vn 0.500002435262396 0 0.8660239977804736
vn 0 1 0
vn 0 -1 0
vn 0.8660239977804736 0 0.500002435262396
vn 0 1 0
vn 0 -1 0
vn 1 0 0
vn 0 1 0
vn 0 -1 0
vn 0.8660239977804736 0 -0.500002435262396
vn 0 1 0
vn 0 -1 0
vn 0.500002435262396 0 -0.8660239977804736
vn 0 1 0
vn 0 -1 0
vn 0 0 -1
vn 0 1 0
vn 0 -1 0
vn -0.500002435262396 0 -0.8660239977804736
vn 0 1 0
vn 0 -1 0
vn -0.8660239977804736 0 -0.500002435262396
vn 0 1 0
vn 0 -1 0
vn -1 0 0
vn 0 1 0
vn 0 -1 0
vn -0.8660239977804736 0 0.500002435262396
vn 0 1 0
vn 0 -1 0
vn -0.500002435262396 0 0.8660239977804736
vn 0 1 0
vn 0 -1 0
vn 0 0 1
vn 0 1 0
usemtl m_028fd148-5ac3-9770-0dc8-b5f43008d6ba
f 78/277/73 76/278/73 74/279/73
f 76/280/74 78/281/74 79/282/74 77/283/74
f 77/284/75 79/285/75 75/286/75
f 80/287/76 78/288/76 74/289/76
f 78/290/77 80/291/77 81/292/77 79/293/77
f 79/294/78 81/295/78 75/296/78
f 82/297/79 80/298/79 74/299/79
f 80/300/80 82/301/80 83/302/80 81/303/80
f 81/304/81 83/305/81 75/306/81
f 84/307/82 82/308/82 74/309/82
f 82/310/83 84/311/83 85/312/83 83/313/83
f 83/314/84 85/315/84 75/316/84
f 86/317/85 84/318/85 74/319/85
f 84/320/86 86/321/86 87/322/86 85/323/86
f 85/324/87 87/325/87 75/326/87
f 88/327/88 86/328/88 74/329/88
f 86/330/89 88/331/89 89/332/89 87/333/89
f 87/334/90 89/335/90 75/336/90
f 90/337/91 88/338/91 74/339/91
f 88/340/92 90/341/92 91/342/92 89/343/92
f 89/344/93 91/345/93 75/346/93
f 92/347/94 90/348/94 74/349/94
f 90/350/95 92/351/95 93/352/95 91/353/95
f 91/354/96 93/355/96 75/356/96
f 94/357/97 92/358/97 74/359/97
f 92/360/98 94/361/98 95/362/98 93/363/98
f 93/364/99 95/365/99 75/366/99
f 96/367/100 94/368/100 74/369/100
f 94/370/101 96/371/101 97/372/101 95/373/101
f 95/374/102 97/375/102 75/376/102
f 98/377/103 96/378/103 74/379/103
f 96/380/104 98/381/104 99/382/104 97/383/104
f 97/384/105 99/385/105 75/386/105
f 76/387/106 98/388/106 74/389/106
f 98/390/107 76/391/107 77/392/107 99/393/107
f 99/394/108 77/395/108 75/396/108
o rim
v 0 -0.4375 -5.35782974626967e-17
v 0.234455625 -0.4374999999999999 -0.875
v 0.640544375 -0.43749999999999994 -0.640544375
v 0.875 -0.43749999999999994 -0.23445562500000006
v 0.875 -0.43750000000000006 0.23445562499999995
v 0.640544375 -0.43750000000000006 0.640544375
v 0.234455625 -0.4375000000000001 0.875
v -0.234455625 -0.4375000000000001 0.875
v -0.640544375 -0.43750000000000006 0.640544375
v -0.875 -0.43750000000000006 0.23445562499999995
v -0.875 -0.43749999999999994 -0.23445562500000006
v -0.640544375 -0.43749999999999994 -0.640544375
v -0.234455625 -0.4374999999999999 -0.875
v 0.45452 -0.655311875 -0.45452000000000004
v 0.166365625 -0.6553118749999999 -0.620885625
v -0.166365625 -0.6553118749999999 -0.620885625
v -0.45452 -0.655311875 -0.45452000000000004
v -0.620885625 -0.655311875 -0.16636562500000007
v -0.620885625 -0.655311875 0.1663656249999999
v -0.45452 -0.655311875 0.4545199999999999
v -0.166365625 -0.6553118750000001 0.620885625
v 0.166365625 -0.6553118750000001 0.620885625
v 0.45452 -0.655311875 0.4545199999999999
v 0.620885625 -0.655311875 0.1663656249999999
v 0.620885625 -0.655311875 -0.16636562500000007
vt 0.423708125 0.84375
vt 0.521604375 0.787229375
vt 0.3671875 0.6328125
vt 0.10685 1
vt 0.018150625 1
vt 0 0.921875
vt 0.125 0.921875
vt 0.521604375 0.787229375
vt 0.578125 0.689333125
vt 0.3671875 0.6328125
vt 0.10685 1
vt 0.018150625 1
vt 0 0.921875
vt 0.125 0.921875
vt 0.578125 0.689333125
vt 0.578125 0.576291875
vt 0.3671875 0.6328125
vt 0.10685 1
vt 0.018150625 1
vt 0 0.921875
vt 0.125 0.921875
vt 0.578125 0.576291875
vt 0.521604375 0.478395625
vt 0.3671875 0.6328125
vt 0.10685 1
vt 0.018150625 1
vt 0 0.921875
vt 0.125 0.921875
vt 0.521604375 0.478395625
vt 0.423708125 0.421875
vt 0.3671875 0.6328125
vt 0.10685 1
vt 0.018150625 1
vt 0 0.921875
vt 0.125 0.921875
vt 0.423708125 0.421875
vt 0.310666875 0.421875
vt 0.3671875 0.6328125
vt 0.10685 1
vt 0.018150625 1
vt 0 0.921875
vt 0.125 0.921875
vt 0.310666875 0.421875
vt 0.212770625 0.478395625
vt 0.3671875 0.6328125
vt 0.10685 1
vt 0.018150625 1
vt 0 0.921875
vt 0.125 0.921875
vt 0.212770625 0.478395625
vt 0.15625 0.576291875
vt 0.3671875 0.6328125
vt 0.10685 1
vt 0.018150625 1
vt 0 0.921875
vt 0.125 0.921875
vt 0.15625 0.576291875
vt 0.15625 0.689333125
vt 0.3671875 0.6328125
vt 0.10685 1
vt 0.018150625 1
vt 0 0.921875
vt 0.125 0.921875
vt 0.15625 0.689333125
vt 0.212770625 0.787229375
vt 0.3671875 0.6328125
vt 0.10685 1
vt 0.018150625 1
vt 0 0.921875
vt 0.125 0.921875
vt 0.212770625 0.787229375
vt 0.310666875 0.84375
vt 0.3671875 0.6328125
vt 0.10685 1
vt 0.018150625 1
vt 0 0.921875
vt 0.125 0.921875
vt 0.310666875 0.84375
vt 0.423708125 0.84375
vt 0.3671875 0.6328125
vt 0.10685 1
vt 0.018150625 1
vt 0 0.921875
vt 0.125 0.921875
vn 0 -1 -1.2246467991473532e-16
vn 0.3253945981758559 -0.7592575104056357 -0.5636012671832892
vn 0 -1 -1.2246467991473532e-16
vn 0.5636020564094383 -0.7592567292760318 -0.32539505383474226
vn 0 -1 -1.2246467991473532e-16
vn 0.6507906045220027 -0.7592572614508777 -9.298219749652024e-17
vn 0 -1 -1.2246467991473532e-16
vn 0.5636012671832891 -0.7592575104056358 0.3253945981758558
vn 0 -1 -1.2246467991473532e-16
vn 0.3253950538347422 -0.7592567292760322 0.5636020564094383
vn 0 -1 -1.2246467991473532e-16
vn 0 -0.7592572614508778 0.6507906045220025
vn 0 -1 -1.2246467991473532e-16
vn -0.3253945981758559 -0.7592575104056359 0.563601267183289
vn 0 -1 -1.2246467991473532e-16
vn -0.5636020564094384 -0.759256729276032 0.3253950538347421
vn 0 -1 -1.2246467991473532e-16
vn -0.6507906045220027 -0.7592572614508777 -9.298219749652024e-17
vn 0 -1 -1.2246467991473532e-16
vn -0.5636012671832891 -0.7592575104056358 -0.32539459817585603
vn 0 -1 -1.2246467991473532e-16
vn -0.3253950538347422 -0.7592567292760319 -0.5636020564094385
vn 0 -1 -1.2246467991473532e-16
vn 0 -0.7592572614508776 -0.6507906045220028
usemtl m_028fd148-5ac3-9770-0dc8-b5f43008d6ba
f 101/397/109 102/398/109 100/399/109
f 113/400/110 114/401/110 101/402/110 102/403/110
f 102/404/111 103/405/111 100/406/111
f 124/407/112 113/408/112 102/409/112 103/410/112
f 103/411/113 104/412/113 100/413/113
f 123/414/114 124/415/114 103/416/114 104/417/114
f 104/418/115 105/419/115 100/420/115
f 122/421/116 123/422/116 104/423/116 105/424/116
f 105/425/117 106/426/117 100/427/117
f 121/428/118 122/429/118 105/430/118 106/431/118
f 106/432/119 107/433/119 100/434/119
f 120/435/120 121/436/120 106/437/120 107/438/120
f 107/439/121 108/440/121 100/441/121
f 119/442/122 120/443/122 107/444/122 108/445/122
f 108/446/123 109/447/123 100/448/123
f 118/449/124 119/450/124 108/451/124 109/452/124
f 109/453/125 110/454/125 100/455/125
f 117/456/126 118/457/126 109/458/126 110/459/126
f 110/460/127 111/461/127 100/462/127
f 116/463/128 117/464/128 110/465/128 111/466/128
f 111/467/129 112/468/129 100/469/129
f 115/470/130 116/471/130 111/472/130 112/473/130
f 112/474/131 101/475/131 100/476/131
f 114/477/132 115/478/132 112/479/132 101/480/132
o rim
v 0.167468125 -0.4218749999999999 -0.625
v 0.167468125 -0.703125 -0.625
v 0.098015 -0.42187499999999994 -0.36579750000000005
v 0.098015 -0.703125 -0.3657975000000001
v 0.457531875 -0.42187499999999994 -0.45753187500000003
v 0.457531875 -0.703125 -0.4575318750000001
v 0.2677825 -0.421875 -0.26778250000000003
v 0.2677825 -0.703125 -0.2677825000000001
v 0.625 -0.421875 -0.16746812500000005
v 0.625 -0.703125 -0.16746812500000008
v 0.3657975 -0.421875 -0.09801500000000006
v 0.3657975 -0.703125 -0.09801500000000009
v 0.625 -0.421875 0.16746812499999994
v 0.625 -0.703125 0.1674681249999999
v 0.3657975 -0.421875 0.09801499999999995
v 0.3657975 -0.703125 0.09801499999999992
v 0.457531875 -0.42187500000000006 0.4575318749999999
v 0.457531875 -0.703125 0.45753187499999987
v 0.2677825 -0.421875 0.2677824999999999
v 0.2677825 -0.703125 0.26778249999999987
v 0.167468125 -0.4218750000000001 0.625
v 0.167468125 -0.703125 0.625
v 0.098015 -0.42187500000000006 0.36579749999999994
v 0.098015 -0.703125 0.3657974999999999
v -0.167468125 -0.4218750000000001 0.625
v -0.167468125 -0.703125 0.625
v -0.098015 -0.42187500000000006 0.36579749999999994
v -0.098015 -0.703125 0.3657974999999999
v -0.457531875 -0.42187500000000006 0.4575318749999999
v -0.457531875 -0.703125 0.45753187499999987
v -0.2677825 -0.421875 0.2677824999999999
v -0.2677825 -0.703125 0.26778249999999987
v -0.625 -0.421875 0.16746812499999994
v -0.625 -0.703125 0.1674681249999999
v -0.3657975 -0.421875 0.09801499999999995
v -0.3657975 -0.703125 0.09801499999999992
v -0.625 -0.421875 -0.16746812500000005
v -0.625 -0.703125 -0.16746812500000008
v -0.3657975 -0.421875 -0.09801500000000006
v -0.3657975 -0.703125 -0.09801500000000009
v -0.457531875 -0.42187499999999994 -0.45753187500000003
v -0.457531875 -0.703125 -0.4575318750000001
v -0.2677825 -0.421875 -0.26778250000000003
v -0.2677825 -0.703125 -0.2677825000000001
v -0.167468125 -0.4218749999999999 -0.625
v -0.167468125 -0.703125 -0.625
v -0.098015 -0.42187499999999994 -0.36579750000000005
v -0.098015 -0.703125 -0.3657975000000001
vt 0.765625 0.390625
vt 0.84375 0.390625
vt 0.84375 0.46875
vt 0.765625 0.46875
vt 0.90625 0.46875
vt 0.859375 0.46875
vt 0.859375 0.390625
vt 0.90625 0.390625
vt 0.790128125 0.29457500000000003
vt 0.832570625 0.27007000000000003
vt 0.880008125 0.31750750000000005
vt 0.8074925 0.359375
vt 0.8074925 0.046875
vt 0.880008125 0.08874187499999997
vt 0.832570625 0.136179375
vt 0.790128125 0.11167499999999997
vt 0.765625 0.390625
vt 0.84375 0.390625
vt 0.84375 0.46875
vt 0.765625 0.46875
vt 0.90625 0.46875
vt 0.859375 0.46875
vt 0.859375 0.390625
vt 0.90625 0.390625
vt 0.832570625 0.27007000000000003
vt 0.857075 0.22762812499999996
vt 0.921875 0.24499187499999997
vt 0.880008125 0.31750750000000005
vt 0.880008125 0.08874187499999997
vt 0.921875 0.16125750000000005
vt 0.857075 0.17862187500000004
vt 0.832570625 0.136179375
vt 0.765625 0.390625
vt 0.84375 0.390625
vt 0.84375 0.46875
vt 0.765625 0.46875
vt 0.90625 0.46875
vt 0.859375 0.46875
vt 0.859375 0.390625
vt 0.90625 0.390625
vt 0.857075 0.22762812499999996
vt 0.857075 0.17862187500000004
vt 0.921875 0.16125750000000005
vt 0.921875 0.24499187499999997
vt 0.921875 0.16125750000000005
vt 0.921875 0.24499187499999997
vt 0.857075 0.22762812499999996
vt 0.857075 0.17862187500000004
vt 0.765625 0.390625
vt 0.84375 0.390625
vt 0.84375 0.46875
vt 0.765625 0.46875
vt 0.90625 0.46875
vt 0.859375 0.46875
vt 0.859375 0.390625
vt 0.90625 0.390625
vt 0.857075 0.17862187500000004
vt 0.832570625 0.136179375
vt 0.880008125 0.08874187499999997
vt 0.921875 0.16125750000000005
vt 0.921875 0.24499187499999997
vt 0.880008125 0.31750750000000005
vt 0.832570625 0.27007000000000003
vt 0.857075 0.22762812499999996
vt 0.765625 0.390625
vt 0.84375 0.390625
vt 0.84375 0.46875
vt 0.765625 0.46875
vt 0.90625 0.46875
vt 0.859375 0.46875
vt 0.859375 0.390625
vt 0.90625 0.390625
vt 0.832570625 0.136179375
vt 0.790128125 0.11167499999999997
vt 0.8074925 0.046875
vt 0.880008125 0.08874187499999997
vt 0.880008125 0.31750750000000005
vt 0.8074925 0.359375
vt 0.790128125 0.29457500000000003
vt 0.832570625 0.27007000000000003
vt 0.765625 0.390625
vt 0.84375 0.390625
vt 0.84375 0.46875
vt 0.765625 0.46875
vt 0.90625 0.46875
vt 0.859375 0.46875
vt 0.859375 0.390625
vt 0.90625 0.390625
vt 0.790128125 0.11167499999999997
vt 0.741121875 0.11167499999999997
vt 0.723758125 0.046875
vt 0.8074925 0.046875
vt 0.8074925 0.359375
vt 0.723758125 0.359375
vt 0.741121875 0.29457500000000003
vt 0.790128125 0.29457500000000003
vt 0.765625 0.390625
vt 0.84375 0.390625
vt 0.84375 0.46875
vt 0.765625 0.46875
vt 0.90625 0.46875
vt 0.859375 0.46875
vt 0.859375 0.390625
vt 0.90625 0.390625
vt 0.741121875 0.11167499999999997
vt 0.69868 0.136179375
vt 0.651241875 0.08874187499999997
vt 0.723758125 0.046875
vt 0.723758125 0.359375
vt 0.651241875 0.31750750000000005
vt 0.69868 0.27007000000000003
vt 0.741121875 0.29457500000000003
vt 0.765625 0.390625
vt 0.84375 0.390625
vt 0.84375 0.46875
vt 0.765625 0.46875
vt 0.90625 0.46875
vt 0.859375 0.46875
vt 0.859375 0.390625
vt 0.90625 0.390625
vt 0.69868 0.136179375
vt 0.674175 0.17862187500000004
vt 0.609375 0.16125750000000005
vt 0.651241875 0.08874187499999997
vt 0.651241875 0.31750750000000005
vt 0.609375 0.24499187499999997
vt 0.674175 0.22762812499999996
vt 0.69868 0.27007000000000003
vt 0.765625 0.390625
vt 0.84375 0.390625
vt 0.84375 0.46875
vt 0.765625 0.46875
vt 0.90625 0.46875
vt 0.859375 0.46875
vt 0.859375 0.390625
vt 0.90625 0.390625
vt 0.674175 0.17862187500000004
vt 0.674175 0.22762812499999996
vt 0.609375 0.24499187499999997
vt 0.609375 0.16125750000000005
vt 0.609375 0.24499187499999997
vt 0.609375 0.16125750000000005
vt 0.674175 0.17862187500000004
vt 0.674175 0.22762812499999996
vt 0.765625 0.390625
vt 0.84375 0.390625
vt 0.84375 0.46875
vt 0.765625 0.46875
vt 0.90625 0.46875
vt 0.859375 0.46875
vt 0.859375 0.390625
vt 0.90625 0.390625
vt 0.674175 0.22762812499999996
vt 0.69868 0.27007000000000003
vt 0.651241875 0.31750750000000005
vt 0.609375 0.24499187499999997
vt 0.609375 0.16125750000000005
vt 0.651241875 0.08874187499999997
vt 0.69868 0.136179375
vt 0.674175 0.17862187500000004
vt 0.765625 0.390625
vt 0.84375 0.390625
vt 0.84375 0.46875
vt 0.765625 0.46875
vt 0.90625 0.46875
vt 0.859375 0.46875
vt 0.859375 0.390625
vt 0.90625 0.390625
vt 0.69868 0.27007000000000003
vt 0.741121875 0.29457500000000003
vt 0.723758125 0.359375
vt 0.651241875 0.31750750000000005
vt 0.651241875 0.08874187499999997
vt 0.723758125 0.046875
vt 0.741121875 0.11167499999999997
vt 0.69868 0.136179375
vt 0.765625 0.390625
vt 0.84375 0.390625
vt 0.84375 0.46875
vt 0.765625 0.46875
vt 0.90625 0.46875
vt 0.859375 0.46875
vt 0.859375 0.390625
vt 0.90625 0.390625
vt 0.741121875 0.29457500000000003
vt 0.790128125 0.29457500000000003
vt 0.8074925 0.359375
vt 0.723758125 0.359375
vt 0.723758125 0.046875
vt 0.8074925 0.046875
vt 0.790128125 0.11167499999999997
vt 0.741121875 0.11167499999999997
vn 0.49999941971553924 1.0605756490148098e-16 -0.8660257388115691
vn -0.49999880697841 -1.0605760822496702e-16 0.8660260925746791
vn 0 1 1.2246467991473532e-16
vn 0 -1 -1.2246467991473532e-16
vn 0.8660257388115691 6.123226889301692e-17 -0.49999941971553924
vn -0.8660260925746791 -6.12321938543605e-17 0.49999880697841
vn 0 1 1.2246467991473532e-16
vn 0 -1 -1.2246467991473532e-16
vn 1 0 0
vn -1 0 0
vn 0 1 1.2246467991473532e-16
vn 0 -1 -1.2246467991473532e-16
vn 0.8660257388115691 -6.123226889301692e-17 0.49999941971553924
vn -0.8660260925746791 6.12321938543605e-17 -0.49999880697841
vn 0 1 1.2246467991473532e-16
vn 0 -1 -1.2246467991473532e-16
vn 0.49999941971553924 -1.0605756490148098e-16 0.8660257388115691
vn -0.49999880697841 1.0605760822496702e-16 -0.8660260925746791
vn 0 1 1.2246467991473532e-16
vn 0 -1 -1.2246467991473532e-16
vn 0 -1.2246467991473532e-16 1
vn 0 1.2246467991473532e-16 -1
vn 0 1 1.2246467991473532e-16
vn 0 -1 -1.2246467991473532e-16
vn -0.49999941971553924 -1.0605756490148098e-16 0.8660257388115691
vn 0.49999880697841 1.0605760822496702e-16 -0.8660260925746791
vn 0 1 1.2246467991473532e-16
vn 0 -1 -1.2246467991473532e-16
vn -0.8660257388115691 -6.123226889301692e-17 0.49999941971553924
vn 0.8660260925746791 6.12321938543605e-17 -0.49999880697841
vn 0 1 1.2246467991473532e-16
vn 0 -1 -1.2246467991473532e-16
vn -1 0 0
vn 1 0 0
vn 0 1 1.2246467991473532e-16
vn 0 -1 -1.2246467991473532e-16
vn -0.8660257388115691 6.123226889301692e-17 -0.49999941971553924
vn 0.8660260925746791 -6.12321938543605e-17 0.49999880697841
vn 0 1 1.2246467991473532e-16
vn 0 -1 -1.2246467991473532e-16
vn -0.49999941971553924 1.0605756490148098e-16 -0.8660257388115691
vn 0.49999880697841 -1.0605760822496702e-16 0.8660260925746791
vn 0 1 1.2246467991473532e-16
vn 0 -1 -1.2246467991473532e-16
vn 0 1.2246467991473532e-16 -1
vn 0 -1.2246467991473532e-16 1
vn 0 1 1.2246467991473532e-16
vn 0 -1 -1.2246467991473532e-16
usemtl m_028fd148-5ac3-9770-0dc8-b5f43008d6ba
f 125/481/133 129/482/133 130/483/133 126/484/133
f 128/485/134 132/486/134 131/487/134 127/488/134
f 127/489/135 131/490/135 129/491/135 125/492/135
f 126/493/136 130/494/136 132/495/136 128/496/136
f 129/497/137 133/498/137 134/499/137 130/500/137
f 132/501/138 136/502/138 135/503/138 131/504/138
f 131/505/139 135/506/139 133/507/139 129/508/139
f 130/509/140 134/510/140 136/511/140 132/512/140
f 133/513/141 137/514/141 138/515/141 134/516/141
f 136/517/142 140/518/142 139/519/142 135/520/142
f 135/521/143 139/522/143 137/523/143 133/524/143
f 134/525/144 138/526/144 140/527/144 136/528/144
f 137/529/145 141/530/145 142/531/145 138/532/145
f 140/533/146 144/534/146 143/535/146 139/536/146
f 139/537/147 143/538/147 141/539/147 137/540/147
f 138/541/148 142/542/148 144/543/148 140/544/148
f 141/545/149 145/546/149 146/547/149 142/548/149
f 144/549/150 148/550/150 147/551/150 143/552/150
f 143/553/151 147/554/151 145/555/151 141/556/151
f 142/557/152 146/558/152 148/559/152 144/560/152
f 145/561/153 149/562/153 150/563/153 146/564/153
f 148/565/154 152/566/154 151/567/154 147/568/154
f 147/569/155 151/570/155 149/571/155 145/572/155
f 146/573/156 150/574/156 152/575/156 148/576/156
f 149/577/157 153/578/157 154/579/157 150/580/157
f 152/581/158 156/582/158 155/583/158 151/584/158
f 151/585/159 155/586/159 153/587/159 149/588/159
f 150/589/160 154/590/160 156/591/160 152/592/160
f 153/593/161 157/594/161 158/595/161 154/596/161
f 156/597/162 160/598/162 159/599/162 155/600/162
f 155/601/163 159/602/163 157/603/163 153/604/163
f 154/605/164 158/606/164 160/607/164 156/608/164
f 157/609/165 161/610/165 162/611/165 158/612/165
f 160/613/166 164/614/166 163/615/166 159/616/166
f 159/617/167 163/618/167 161/619/167 157/620/167
f 158/621/168 162/622/168 164/623/168 160/624/168
f 161/625/169 165/626/169 166/627/169 162/628/169
f 164/629/170 168/630/170 167/631/170 163/632/170
f 163/633/171 167/634/171 165/635/171 161/636/171
f 162/637/172 166/638/172 168/639/172 164/640/172
f 165/641/173 169/642/173 170/643/173 166/644/173
f 168/645/174 172/646/174 171/647/174 167/648/174
f 167/649/175 171/650/175 169/651/175 165/652/175
f 166/653/176 170/654/176 172/655/176 168/656/176
f 169/657/177 125/658/177 126/659/177 170/660/177
f 172/661/178 128/662/178 127/663/178 171/664/178
f 171/665/179 127/666/179 125/667/179 169/668/179
f 170/669/180 126/670/180 128/671/180 172/672/180
o rim
v 0 -0.40625 -4.975127621536122e-17
v 0 -0.625 -7.654042494670957e-17
v 0.0669875 -0.40625 -0.25000000000000006
v 0.0669875 -0.625 -0.25000000000000006
v 0.1830125 -0.40625 -0.18301250000000005
v 0.1830125 -0.625 -0.18301250000000005
v 0.25 -0.40625 -0.06698750000000006
v 0.25 -0.625 -0.06698750000000009
v 0.25 -0.40625 0.06698749999999995
v 0.25 -0.625 0.06698749999999992
v 0.1830125 -0.40625 0.18301249999999994
v 0.1830125 -0.625 0.18301249999999994
v 0.0669875 -0.40625 0.24999999999999994
v 0.0669875 -0.625 0.24999999999999994
v -0.0669875 -0.40625 0.24999999999999994
v -0.0669875 -0.625 0.24999999999999994
v -0.1830125 -0.40625 0.18301249999999994
v -0.1830125 -0.625 0.18301249999999994
v -0.25 -0.40625 0.06698749999999995
v -0.25 -0.625 0.06698749999999992
v -0.25 -0.40625 -0.06698750000000006
v -0.25 -0.625 -0.06698750000000009
v -0.1830125 -0.40625 -0.18301250000000005
v -0.1830125 -0.625 -0.18301250000000005
v -0.0669875 -0.40625 -0.25000000000000006
v -0.0669875 -0.625 -0.25000000000000006
vt 0.795753125 0.24887812499999995
vt 0.766746875 0.265625
vt 0.75 0.203125
vt 0.71875 0.390625
vt 0.75 0.390625
vt 0.75 0.453125
vt 0.71875 0.453125
vt 0.766746875 0.140625
vt 0.795753125 0.15737187500000005
vt 0.75 0.203125
vt 0.8125 0.21987187500000005
vt 0.795753125 0.24887812499999995
vt 0.75 0.203125
vt 0.71875 0.390625
vt 0.75 0.390625
vt 0.75 0.453125
vt 0.71875 0.453125
vt 0.795753125 0.15737187500000005
vt 0.8125 0.18637812499999995
vt 0.75 0.203125
vt 0.8125 0.18637812499999995
vt 0.8125 0.21987187500000005
vt 0.75 0.203125
vt 0.71875 0.390625
vt 0.75 0.390625
vt 0.75 0.453125
vt 0.71875 0.453125
vt 0.8125 0.18637812499999995
vt 0.8125 0.21987187500000005
vt 0.75 0.203125
vt 0.795753125 0.15737187500000005
vt 0.8125 0.18637812499999995
vt 0.75 0.203125
vt 0.71875 0.390625
vt 0.75 0.390625
vt 0.75 0.453125
vt 0.71875 0.453125
vt 0.8125 0.21987187500000005
vt 0.795753125 0.24887812499999995
vt 0.75 0.203125
vt 0.766746875 0.140625
vt 0.795753125 0.15737187500000005
vt 0.75 0.203125
vt 0.71875 0.390625
vt 0.75 0.390625
vt 0.75 0.453125
vt 0.71875 0.453125
vt 0.795753125 0.24887812499999995
vt 0.766746875 0.265625
vt 0.75 0.203125
vt 0.733253125 0.140625
vt 0.766746875 0.140625
vt 0.75 0.203125
vt 0.71875 0.390625
vt 0.75 0.390625
vt 0.75 0.453125
vt 0.71875 0.453125
vt 0.766746875 0.265625
vt 0.733253125 0.265625
vt 0.75 0.203125
vt 0.704246875 0.15737187500000005
vt 0.733253125 0.140625
vt 0.75 0.203125
vt 0.71875 0.390625
vt 0.75 0.390625
vt 0.75 0.453125
vt 0.71875 0.453125
vt 0.733253125 0.265625
vt 0.704246875 0.24887812499999995
vt 0.75 0.203125
vt 0.6875 0.18637812499999995
vt 0.704246875 0.15737187500000005
vt 0.75 0.203125
vt 0.71875 0.390625
vt 0.75 0.390625
vt 0.75 0.453125
vt 0.71875 0.453125
vt 0.704246875 0.24887812499999995
vt 0.6875 0.21987187500000005
vt 0.75 0.203125
vt 0.6875 0.21987187500000005
vt 0.6875 0.18637812499999995
vt 0.75 0.203125
vt 0.71875 0.390625
vt 0.75 0.390625
vt 0.75 0.453125
vt 0.71875 0.453125
vt 0.6875 0.21987187500000005
vt 0.6875 0.18637812499999995
vt 0.75 0.203125
vt 0.704246875 0.24887812499999995
vt 0.6875 0.21987187500000005
vt 0.75 0.203125
vt 0.71875 0.390625
vt 0.75 0.390625
vt 0.75 0.453125
vt 0.71875 0.453125
vt 0.6875 0.18637812499999995
vt 0.704246875 0.15737187500000005
vt 0.75 0.203125
vt 0.733253125 0.265625
vt 0.704246875 0.24887812499999995
vt 0.75 0.203125
vt 0.71875 0.390625
vt 0.75 0.390625
vt 0.75 0.453125
vt 0.71875 0.453125
vt 0.704246875 0.15737187500000005
vt 0.733253125 0.140625
vt 0.75 0.203125
vt 0.766746875 0.265625
vt 0.733253125 0.265625
vt 0.75 0.203125
vt 0.71875 0.390625
vt 0.75 0.390625
vt 0.75 0.453125
vt 0.71875 0.453125
vt 0.733253125 0.140625
vt 0.766746875 0.140625
vt 0.75 0.203125
vn 0 1 1.2246467991473532e-16
vn 0.500002435262396 1.0605735168666514e-16 -0.8660239977804736
vn 0 -1 -1.2246467991473532e-16
vn 0 1 1.2246467991473532e-16
vn 0.8660239977804736 6.123263819099749e-17 -0.500002435262396
vn 0 -1 -1.2246467991473532e-16
vn 0 1 1.2246467991473532e-16
vn 1 0 0
vn 0 -1 -1.2246467991473532e-16
vn 0 1 1.2246467991473532e-16
vn 0.8660239977804736 -6.123263819099749e-17 0.500002435262396
vn 0 -1 -1.2246467991473532e-16
vn 0 1 1.2246467991473532e-16
vn 0.500002435262396 -1.0605735168666514e-16 0.8660239977804736
vn 0 -1 -1.2246467991473532e-16
vn 0 1 1.2246467991473532e-16
vn 0 -1.2246467991473532e-16 1
vn 0 -1 -1.2246467991473532e-16
vn 0 1 1.2246467991473532e-16
vn -0.500002435262396 -1.0605735168666514e-16 0.8660239977804736
vn 0 -1 -1.2246467991473532e-16
vn 0 1 1.2246467991473532e-16
vn -0.8660239977804736 -6.123263819099749e-17 0.500002435262396
vn 0 -1 -1.2246467991473532e-16
vn 0 1 1.2246467991473532e-16
vn -1 0 0
vn 0 -1 -1.2246467991473532e-16
vn 0 1 1.2246467991473532e-16
vn -0.8660239977804736 6.123263819099749e-17 -0.500002435262396
vn 0 -1 -1.2246467991473532e-16
vn 0 1 1.2246467991473532e-16
vn -0.500002435262396 1.0605735168666514e-16 -0.8660239977804736
vn 0 -1 -1.2246467991473532e-16
vn 0 1 1.2246467991473532e-16
vn 0 1.2246467991473532e-16 -1
vn 0 -1 -1.2246467991473532e-16
usemtl m_028fd148-5ac3-9770-0dc8-b5f43008d6ba
f 177/673/181 175/674/181 173/675/181
f 175/676/182 177/677/182 178/678/182 176/679/182
f 176/680/183 178/681/183 174/682/183
f 179/683/184 177/684/184 173/685/184
f 177/686/185 179/687/185 180/688/185 178/689/185
f 178/690/186 180/691/186 174/692/186
f 181/693/187 179/694/187 173/695/187
f 179/696/188 181/697/188 182/698/188 180/699/188
f 180/700/189 182/701/189 174/702/189
f 183/703/190 181/704/190 173/705/190
f 181/706/191 183/707/191 184/708/191 182/709/191
f 182/710/192 184/711/192 174/712/192
f 185/713/193 183/714/193 173/715/193
f 183/716/194 185/717/194 186/718/194 184/719/194
f 184/720/195 186/721/195 174/722/195
f 187/723/196 185/724/196 173/725/196
f 185/726/197 187/727/197 188/728/197 186/729/197
f 186/730/198 188/731/198 174/732/198
f 189/733/199 187/734/199 173/735/199
f 187/736/200 189/737/200 190/738/200 188/739/200
f 188/740/201 190/741/201 174/742/201
f 191/743/202 189/744/202 173/745/202
f 189/746/203 191/747/203 192/748/203 190/749/203
f 190/750/204 192/751/204 174/752/204
f 193/753/205 191/754/205 173/755/205
f 191/756/206 193/757/206 194/758/206 192/759/206
f 192/760/207 194/761/207 174/762/207
f 195/763/208 193/764/208 173/765/208
f 193/766/209 195/767/209 196/768/209 194/769/209
f 194/770/210 196/771/210 174/772/210
f 197/773/211 195/774/211 173/775/211
f 195/776/212 197/777/212 198/778/212 196/779/212
f 196/780/213 198/781/213 174/782/213
f 175/783/214 197/784/214 173/785/214
f 197/786/215 175/787/215 176/788/215 198/789/215
f 198/790/216 176/791/216 174/792/216
o rim
v 0.259575625 -0.546875 0.96875
v 0.259575625 0.546875 0.96875
v 0.23523875 -0.546875 0.87792375
v 0.23523875 0.546875 0.87792375
v 0.709174375 -0.546875 0.709174375
v 0.709174375 0.546875 0.709174375
v 0.642685 -0.546875 0.642685
v 0.642685 0.546875 0.642685
v 0.96875 -0.546875 0.259575625
v 0.96875 0.546875 0.259575625
v 0.87792375 -0.546875 0.23523875
v 0.87792375 0.546875 0.23523875
v 0.96875 -0.546875 -0.259575625
v 0.96875 0.546875 -0.259575625
v 0.87792375 -0.546875 -0.23523875
v 0.87792375 0.546875 -0.23523875
v 0.709174375 -0.546875 -0.709174375
v 0.709174375 0.546875 -0.709174375
v 0.642685 -0.546875 -0.642685
v 0.642685 0.546875 -0.642685
v 0.259575625 -0.546875 -0.96875
v 0.259575625 0.546875 -0.96875
v 0.23523875 -0.546875 -0.87792375
v 0.23523875 0.546875 -0.87792375
v -0.259575625 -0.546875 -0.96875
v -0.259575625 0.546875 -0.96875
v -0.23523875 -0.546875 -0.87792375
v -0.23523875 0.546875 -0.87792375
v -0.709174375 -0.546875 -0.709174375
v -0.709174375 0.546875 -0.709174375
v -0.642685 -0.546875 -0.642685
v -0.642685 0.546875 -0.642685
v -0.96875 -0.546875 -0.259575625
v -0.96875 0.546875 -0.259575625
v -0.87792375 -0.546875 -0.23523875
v -0.87792375 0.546875 -0.23523875
v -0.96875 -0.546875 0.259575625
v -0.96875 0.546875 0.259575625
v -0.87792375 -0.546875 0.23523875
v -0.87792375 0.546875 0.23523875
v -0.709174375 -0.546875 0.709174375
v -0.709174375 0.546875 0.709174375
v -0.642685 -0.546875 0.642685
v -0.642685 0.546875 0.642685
v -0.259575625 -0.546875 0.96875
v -0.259575625 0.546875 0.96875
v -0.23523875 -0.546875 0.87792375
v -0.23523875 0.546875 0.87792375
vt 0 0
vt 0.125 0
vt 0.125 0.28125
vt 0 0.28125
vt 0.125 0.28125
vt 0 0.28125
vt 0 0
vt 0.125 0
vt 0.521484375 0.015625
vt 0.634765625 0.015625
vt 0.640625 0.031249375000000024
vt 0.515625 0.03125
vt 0.640625 0.03125
vt 0.515625 0.03125
vt 0.521485 0.015625
vt 0.634765625 0.015625
vt 0 0
vt 0.125 0
vt 0.125 0.28125
vt 0 0.28125
vt 0.125 0.28125
vt 0 0.28125
vt 0 0
vt 0.125 0
vt 0.521485 0.015625
vt 0.634765625 0.015625
vt 0.640625 0.03125
vt 0.515625 0.031249375000000024
vt 0.640625 0.03125
vt 0.515625 0.03125
vt 0.521484375 0.015625
vt 0.634765625 0.015625
vt 0 0
vt 0.125 0
vt 0.125 0.28125
vt 0 0.28125
vt 0.125 0.28125
vt 0 0.28125
vt 0 0
vt 0.125 0
vt 0.521485 0.015625
vt 0.634765 0.015625
vt 0.640625 0.03125
vt 0.515625 0.03125
vt 0.640625 0.03125
vt 0.515625 0.03125
vt 0.521485 0.015625
vt 0.634765 0.015625
vt 0 0
vt 0.125 0
vt 0.125 0.28125
vt 0 0.28125
vt 0.125 0.28125
vt 0 0.28125
vt 0 0
vt 0.125 0
vt 0.521484375 0.015625
vt 0.634765625 0.015625
vt 0.640625 0.031249375000000024
vt 0.515625 0.03125
vt 0.640625 0.03125
vt 0.515625 0.03125
vt 0.521485 0.015625
vt 0.634765625 0.015625
vt 0 0
vt 0.125 0
vt 0.125 0.28125
vt 0 0.28125
vt 0.125 0.28125
vt 0 0.28125
vt 0 0
vt 0.125 0
vt 0.521485 0.015625
vt 0.634765625 0.015625
vt 0.640625 0.03125
vt 0.515625 0.031249375000000024
vt 0.640625 0.03125
vt 0.515625 0.03125
vt 0.521484375 0.015625
vt 0.634765625 0.015625
vt 0 0
vt 0.125 0
vt 0.125 0.28125
vt 0 0.28125
vt 0.125 0.28125
vt 0 0.28125
vt 0 0
vt 0.125 0
vt 0.521485 0.015625
vt 0.634765 0.015625
vt 0.640625 0.03125
vt 0.515625 0.03125
vt 0.640625 0.03125
vt 0.515625 0.03125
vt 0.521485 0.015625
vt 0.634765 0.015625
vt 0 0
vt 0.125 0
vt 0.125 0.28125
vt 0 0.28125
vt 0.125 0.28125
vt 0 0.28125
vt 0 0
vt 0.125 0
vt 0.521484375 0.015625
vt 0.634765625 0.015625
vt 0.640625 0.031249375000000024
vt 0.515625 0.03125
vt 0.640625 0.03125
vt 0.515625 0.03125
vt 0.521485 0.015625
vt 0.634765625 0.015625
vt 0 0
vt 0.125 0
vt 0.125 0.28125
vt 0 0.28125
vt 0.125 0.28125
vt 0 0.28125
vt 0 0
vt 0.125 0
vt 0.521485 0.015625
vt 0.634765625 0.015625
vt 0.640625 0.03125
vt 0.515625 0.031249375000000024
vt 0.640625 0.03125
vt 0.515625 0.03125
vt 0.521484375 0.015625
vt 0.634765625 0.015625
vt 0 0
vt 0.125 0
vt 0.125 0.28125
vt 0 0.28125
vt 0.125 0.28125
vt 0 0.28125
vt 0 0
vt 0.125 0
vt 0.521485 0.015625
vt 0.634765 0.015625
vt 0.640625 0.03125
vt 0.515625 0.03125
vt 0.640625 0.03125
vt 0.515625 0.03125
vt 0.521485 0.015625
vt 0.634765 0.015625
vt 0 0
vt 0.125 0
vt 0.125 0.28125
vt 0 0.28125
vt 0.125 0.28125
vt 0 0.28125
vt 0 0
vt 0.125 0
vt 0.521484375 0.015625
vt 0.634765625 0.015625
vt 0.640625 0.031249375000000024
vt 0.515625 0.03125
vt 0.640625 0.03125
vt 0.515625 0.03125
vt 0.521485 0.015625
vt 0.634765625 0.015625
vt 0 0
vt 0.125 0
vt 0.125 0.28125
vt 0 0.28125
vt 0.125 0.28125
vt 0 0.28125
vt 0 0
vt 0.125 0
vt 0.521485 0.015625
vt 0.634765625 0.015625
vt 0.640625 0.03125
vt 0.515625 0.031249375000000024
vt 0.640625 0.03125
vt 0.515625 0.03125
vt 0.521484375 0.015625
vt 0.634765625 0.015625
vt 0 0
vt 0.125 0
vt 0.125 0.28125
vt 0 0.28125
vt 0.125 0.28125
vt 0 0.28125
vt 0 0
vt 0.125 0
vt 0.521485 0.015625
vt 0.634765 0.015625
vt 0.640625 0.03125
vt 0.515625 0.03125
vt 0.640625 0.03125
vt 0.515625 0.03125
vt 0.521485 0.015625
vt 0.634765 0.015625
vn 0.49999951699112244 0 0.8660256826495648
vn -0.4999992792685191 0 -0.8660258198985533
vn 0 -1 0
vn 0 1 0
vn 0.8660256826495648 0 0.49999951699112244
vn -0.8660258198985533 0 -0.4999992792685191
vn 0 -1 0
vn 0 1 0
vn 1 0 0
vn -1 0 0
vn 0 -1 0
vn 0 1 0
vn 0.8660256826495648 0 -0.49999951699112244
vn -0.8660258198985533 0 0.4999992792685191
vn 0 -1 0
vn 0 1 0
vn 0.49999951699112244 0 -0.8660256826495648
vn -0.4999992792685191 0 0.8660258198985533
vn 0 -1 0
vn 0 1 0
vn 0 0 -1
vn 0 0 1
vn 0 -1 0
vn 0 1 0
vn -0.49999951699112244 0 -0.8660256826495648
vn 0.4999992792685191 0 0.8660258198985533
vn 0 -1 0
vn 0 1 0
vn -0.8660256826495648 0 -0.49999951699112244
vn 0.8660258198985533 0 0.4999992792685191
vn 0 -1 0
vn 0 1 0
vn -1 0 0
vn 1 0 0
vn 0 -1 0
vn 0 1 0
vn -0.8660256826495648 0 0.49999951699112244
vn 0.8660258198985533 0 -0.4999992792685191
vn 0 -1 0
vn 0 1 0
vn -0.49999951699112244 0 0.8660256826495648
vn 0.4999992792685191 0 -0.8660258198985533
vn 0 -1 0
vn 0 1 0
vn 0 0 1
vn 0 0 -1
vn 0 -1 0
vn 0 1 0
usemtl m_028fd148-5ac3-9770-0dc8-b5f43008d6ba
f 199/793/217 203/794/217 204/795/217 200/796/217
f 202/797/218 206/798/218 205/799/218 201/800/218
f 201/801/219 205/802/219 203/803/219 199/804/219
f 200/805/220 204/806/220 206/807/220 202/808/220
f 203/809/221 207/810/221 208/811/221 204/812/221
f 206/813/222 210/814/222 209/815/222 205/816/222
f 205/817/223 209/818/223 207/819/223 203/820/223
f 204/821/224 208/822/224 210/823/224 206/824/224
f 207/825/225 211/826/225 212/827/225 208/828/225
f 210/829/226 214/830/226 213/831/226 209/832/226
f 209/833/227 213/834/227 211/835/227 207/836/227
f 208/837/228 212/838/228 214/839/228 210/840/228
f 211/841/229 215/842/229 216/843/229 212/844/229
f 214/845/230 218/846/230 217/847/230 213/848/230
f 213/849/231 217/850/231 215/851/231 211/852/231
f 212/853/232 216/854/232 218/855/232 214/856/232
f 215/857/233 219/858/233 220/859/233 216/860/233
f 218/861/234 222/862/234 221/863/234 217/864/234
f 217/865/235 221/866/235 219/867/235 215/868/235
f 216/869/236 220/870/236 222/871/236 218/872/236
f 219/873/237 223/874/237 224/875/237 220/876/237
f 222/877/238 226/878/238 225/879/238 221/880/238
f 221/881/239 225/882/239 223/883/239 219/884/239
f 220/885/240 224/886/240 226/887/240 222/888/240
f 223/889/241 227/890/241 228/891/241 224/892/241
f 226/893/242 230/894/242 229/895/242 225/896/242
f 225/897/243 229/898/243 227/899/243 223/900/243
f 224/901/244 228/902/244 230/903/244 226/904/244
f 227/905/245 231/906/245 232/907/245 228/908/245
f 230/909/246 234/910/246 233/911/246 229/912/246
f 229/913/247 233/914/247 231/915/247 227/916/247
f 228/917/248 232/918/248 234/919/248 230/920/248
f 231/921/249 235/922/249 236/923/249 232/924/249
f 234/925/250 238/926/250 237/927/250 233/928/250
f 233/929/251 237/930/251 235/931/251 231/932/251
f 232/933/252 236/934/252 238/935/252 234/936/252
f 235/937/253 239/938/253 240/939/253 236/940/253
f 238/941/254 242/942/254 241/943/254 237/944/254
f 237/945/255 241/946/255 239/947/255 235/948/255
f 236/949/256 240/950/256 242/951/256 238/952/256
f 239/953/257 243/954/257 244/955/257 240/956/257
f 242/957/258 246/958/258 245/959/258 241/960/258
f 241/961/259 245/962/259 243/963/259 239/964/259
f 240/965/260 244/966/260 246/967/260 242/968/260
f 243/969/261 199/970/261 200/971/261 244/972/261
f 246/973/262 202/974/262 201/975/262 245/976/262
f 245/977/263 201/978/263 199/979/263 243/980/263
f 244/981/264 200/982/264 202/983/264 246/984/264
o tire
v 0.393550625 -0.5 1.46875
v 0.393550625 0.5 1.46875
v 0.256711875 -0.5 0.958061875
v 0.256711875 0.5 0.958061875
v 1.075199375 -0.5 1.075199375
v 1.075199375 0.5 1.075199375
v 0.70135 -0.5 0.70135
v 0.70135 0.5 0.70135
v 1.46875 -0.5 0.393550625
v 1.46875 0.5 0.393550625
v 0.958061875 -0.5 0.256711875
v 0.958061875 0.5 0.256711875
v 1.46875 -0.5 -0.393550625
v 1.46875 0.5 -0.393550625
v 0.958061875 -0.5 -0.256711875
v 0.958061875 0.5 -0.256711875
v 1.075199375 -0.5 -1.075199375
v 1.075199375 0.5 -1.075199375
v 0.70135 -0.5 -0.70135
v 0.70135 0.5 -0.70135
v 0.393550625 -0.5 -1.46875
v 0.393550625 0.5 -1.46875
v 0.256711875 -0.5 -0.958061875
v 0.256711875 0.5 -0.958061875
v -0.393550625 -0.5 -1.46875
v -0.393550625 0.5 -1.46875
v -0.256711875 -0.5 -0.958061875
v -0.256711875 0.5 -0.958061875
v -1.075199375 -0.5 -1.075199375
v -1.075199375 0.5 -1.075199375
v -0.70135 -0.5 -0.70135
v -0.70135 0.5 -0.70135
v -1.46875 -0.5 -0.393550625
v -1.46875 0.5 -0.393550625
v -0.958061875 -0.5 -0.256711875
v -0.958061875 0.5 -0.256711875
v -1.46875 -0.5 0.393550625
v -1.46875 0.5 0.393550625
v -0.958061875 -0.5 0.256711875
v -0.958061875 0.5 0.256711875
v -1.075199375 -0.5 1.075199375
v -1.075199375 0.5 1.075199375
v -0.70135 -0.5 0.70135
v -0.70135 0.5 0.70135
v -0.393550625 -0.5 1.46875
v -0.393550625 0.5 1.46875
v -0.256711875 -0.5 0.958061875
v -0.256711875 0.5 0.958061875
vt 0.140625 0
vt 0.34375 0
vt 0.34375 0.25
vt 0.140625 0.25
vt 0.484375 0.25
vt 0.359375 0.25
vt 0.359375 0
vt 0.484375 0
vt 0.431365625 0.872328125
vt 0.542525 0.80815
vt 0.6359875 0.9016125
vt 0.465575 1
vt 0.465575 0.265625
vt 0.6359875 0.36401249999999996
vt 0.542525 0.45747499999999997
vt 0.431365625 0.393296875
vt 0.140625 0
vt 0.34375 0
vt 0.34375 0.25
vt 0.140625 0.25
vt 0.484375 0.25
vt 0.359375 0.25
vt 0.359375 0
vt 0.484375 0
vt 0.542525 0.80815
vt 0.606703125 0.696990625
vt 0.734375 0.7312000000000001
vt 0.6359875 0.9016125
vt 0.6359875 0.36401249999999996
vt 0.734375 0.5344249999999999
vt 0.606703125 0.568634375
vt 0.542525 0.45747499999999997
vt 0.140625 0
vt 0.34375 0
vt 0.34375 0.25
vt 0.140625 0.25
vt 0.484375 0.25
vt 0.359375 0.25
vt 0.359375 0
vt 0.484375 0
vt 0.606703125 0.696990625
vt 0.606703125 0.568634375
vt 0.734375 0.5344249999999999
vt 0.734375 0.7312000000000001
vt 0.734375 0.5344249999999999
vt 0.734375 0.7312000000000001
vt 0.606703125 0.696990625
vt 0.606703125 0.568634375
vt 0.140625 0
vt 0.34375 0
vt 0.34375 0.25
vt 0.140625 0.25
vt 0.484375 0.25
vt 0.359375 0.25
vt 0.359375 0
vt 0.484375 0
vt 0.606703125 0.568634375
vt 0.542525 0.45747499999999997
vt 0.6359875 0.36401249999999996
vt 0.734375 0.5344249999999999
vt 0.734375 0.7312000000000001
vt 0.6359875 0.9016125
vt 0.542525 0.80815
vt 0.606703125 0.696990625
vt 0.140625 0
vt 0.34375 0
vt 0.34375 0.25
vt 0.140625 0.25
vt 0.484375 0.25
vt 0.359375 0.25
vt 0.359375 0
vt 0.484375 0
vt 0.542525 0.45747499999999997
vt 0.431365625 0.393296875
vt 0.465575 0.265625
vt 0.6359875 0.36401249999999996
vt 0.6359875 0.9016125
vt 0.465575 1
vt 0.431365625 0.872328125
vt 0.542525 0.80815
vt 0.140625 0
vt 0.34375 0
vt 0.34375 0.25
vt 0.140625 0.25
vt 0.484375 0.25
vt 0.359375 0.25
vt 0.359375 0
vt 0.484375 0
vt 0.431365625 0.393296875
vt 0.303009375 0.393296875
vt 0.2688 0.265625
vt 0.465575 0.265625
vt 0.465575 1
vt 0.2688 1
vt 0.303009375 0.872328125
vt 0.431365625 0.872328125
vt 0.140625 0
vt 0.34375 0
vt 0.34375 0.25
vt 0.140625 0.25
vt 0.484375 0.25
vt 0.359375 0.25
vt 0.359375 0
vt 0.484375 0
vt 0.303009375 0.393296875
vt 0.19185 0.45747499999999997
vt 0.0983875 0.36401249999999996
vt 0.2688 0.265625
vt 0.2688 1
vt 0.0983875 0.9016125
vt 0.19185 0.80815
vt 0.303009375 0.872328125
vt 0.140625 0
vt 0.34375 0
vt 0.34375 0.25
vt 0.140625 0.25
vt 0.484375 0.25
vt 0.359375 0.25
vt 0.359375 0
vt 0.484375 0
vt 0.19185 0.45747499999999997
vt 0.127671875 0.568634375
vt 0 0.5344249999999999
vt 0.0983875 0.36401249999999996
vt 0.0983875 0.9016125
vt 0 0.7312000000000001
vt 0.127671875 0.696990625
vt 0.19185 0.80815
vt 0.140625 0
vt 0.34375 0
vt 0.34375 0.25
vt 0.140625 0.25
vt 0.484375 0.25
vt 0.359375 0.25
vt 0.359375 0
vt 0.484375 0
vt 0.127671875 0.568634375
vt 0.127671875 0.696990625
vt 0 0.7312000000000001
vt 0 0.5344249999999999
vt 0 0.7312000000000001
vt 0 0.5344249999999999
vt 0.127671875 0.568634375
vt 0.127671875 0.696990625
vt 0.140625 0
vt 0.34375 0
vt 0.34375 0.25
vt 0.140625 0.25
vt 0.484375 0.25
vt 0.359375 0.25
vt 0.359375 0
vt 0.484375 0
vt 0.127671875 0.696990625
vt 0.19185 0.80815
vt 0.0983875 0.9016125
vt 0 0.7312000000000001
vt 0 0.5344249999999999
vt 0.0983875 0.36401249999999996
vt 0.19185 0.45747499999999997
vt 0.127671875 0.568634375
vt 0.140625 0
vt 0.34375 0
vt 0.34375 0.25
vt 0.140625 0.25
vt 0.484375 0.25
vt 0.359375 0.25
vt 0.359375 0
vt 0.484375 0
vt 0.19185 0.80815
vt 0.303009375 0.872328125
vt 0.2688 1
vt 0.0983875 0.9016125
vt 0.0983875 0.36401249999999996
vt 0.2688 0.265625
vt 0.303009375 0.393296875
vt 0.19185 0.45747499999999997
vt 0.140625 0
vt 0.34375 0
vt 0.34375 0.25
vt 0.140625 0.25
vt 0.484375 0.25
vt 0.359375 0.25
vt 0.359375 0
vt 0.484375 0
vt 0.303009375 0.872328125
vt 0.431365625 0.872328125
vt 0.465575 1
vt 0.2688 1
vt 0.2688 0.265625
vt 0.465575 0.265625
vt 0.431365625 0.393296875
vt 0.303009375 0.393296875
vn 0.5000005104443526 0 0.8660251090790537
vn -0.4999999033536481 0 -0.8660254595832289
vn 0 -1 0
vn 0 1 0
vn 0.8660251090790537 0 0.5000005104443526
vn -0.8660254595832289 0 -0.4999999033536481
vn 0 -1 0
vn 0 1 0
vn 1 0 0
vn -1 0 0
vn 0 -1 0
vn 0 1 0
vn 0.8660251090790537 0 -0.5000005104443526
vn -0.8660254595832289 0 0.4999999033536481
vn 0 -1 0
vn 0 1 0
vn 0.5000005104443526 0 -0.8660251090790537
vn -0.4999999033536481 0 0.8660254595832289
vn 0 -1 0
vn 0 1 0
vn 0 0 -1
vn 0 0 1
vn 0 -1 0
vn 0 1 0
vn -0.5000005104443526 0 -0.8660251090790537
vn 0.4999999033536481 0 0.8660254595832289
vn 0 -1 0
vn 0 1 0
vn -0.8660251090790537 0 -0.5000005104443526
vn 0.8660254595832289 0 0.4999999033536481
vn 0 -1 0
vn 0 1 0
vn -1 0 0
vn 1 0 0
vn 0 -1 0
vn 0 1 0
vn -0.8660251090790537 0 0.5000005104443526
vn 0.8660254595832289 0 -0.4999999033536481
vn 0 -1 0
vn 0 1 0
vn -0.5000005104443526 0 0.8660251090790537
vn 0.4999999033536481 0 -0.8660254595832289
vn 0 -1 0
vn 0 1 0
vn 0 0 1
vn 0 0 -1
vn 0 -1 0
vn 0 1 0
usemtl m_028fd148-5ac3-9770-0dc8-b5f43008d6ba
f 247/985/265 251/986/265 252/987/265 248/988/265
f 250/989/266 254/990/266 253/991/266 249/992/266
f 249/993/267 253/994/267 251/995/267 247/996/267
f 248/997/268 252/998/268 254/999/268 250/1000/268
f 251/1001/269 255/1002/269 256/1003/269 252/1004/269
f 254/1005/270 258/1006/270 257/1007/270 253/1008/270
f 253/1009/271 257/1010/271 255/1011/271 251/1012/271
f 252/1013/272 256/1014/272 258/1015/272 254/1016/272
f 255/1017/273 259/1018/273 260/1019/273 256/1020/273
f 258/1021/274 262/1022/274 261/1023/274 257/1024/274
f 257/1025/275 261/1026/275 259/1027/275 255/1028/275
f 256/1029/276 260/1030/276 262/1031/276 258/1032/276
f 259/1033/277 263/1034/277 264/1035/277 260/1036/277
f 262/1037/278 266/1038/278 265/1039/278 261/1040/278
f 261/1041/279 265/1042/279 263/1043/279 259/1044/279
f 260/1045/280 264/1046/280 266/1047/280 262/1048/280
f 263/1049/281 267/1050/281 268/1051/281 264/1052/281
f 266/1053/282 270/1054/282 269/1055/282 265/1056/282
f 265/1057/283 269/1058/283 267/1059/283 263/1060/283
f 264/1061/284 268/1062/284 270/1063/284 266/1064/284
f 267/1065/285 271/1066/285 272/1067/285 268/1068/285
f 270/1069/286 274/1070/286 273/1071/286 269/1072/286
f 269/1073/287 273/1074/287 271/1075/287 267/1076/287
f 268/1077/288 272/1078/288 274/1079/288 270/1080/288
f 271/1081/289 275/1082/289 276/1083/289 272/1084/289
f 274/1085/290 278/1086/290 277/1087/290 273/1088/290
f 273/1089/291 277/1090/291 275/1091/291 271/1092/291
f 272/1093/292 276/1094/292 278/1095/292 274/1096/292
f 275/1097/293 279/1098/293 280/1099/293 276/1100/293
f 278/1101/294 282/1102/294 281/1103/294 277/1104/294
f 277/1105/295 281/1106/295 279/1107/295 275/1108/295
f 276/1109/296 280/1110/296 282/1111/296 278/1112/296
f 279/1113/297 283/1114/297 284/1115/297 280/1116/297
f 282/1117/298 286/1118/298 285/1119/298 281/1120/298
f 281/1121/299 285/1122/299 283/1123/299 279/1124/299
f 280/1125/300 284/1126/300 286/1127/300 282/1128/300
f 283/1129/301 287/1130/301 288/1131/301 284/1132/301
f 286/1133/302 290/1134/302 289/1135/302 285/1136/302
f 285/1137/303 289/1138/303 287/1139/303 283/1140/303
f 284/1141/304 288/1142/304 290/1143/304 286/1144/304
f 287/1145/305 291/1146/305 292/1147/305 288/1148/305
f 290/1149/306 294/1150/306 293/1151/306 289/1152/306
f 289/1153/307 293/1154/307 291/1155/307 287/1156/307
f 288/1157/308 292/1158/308 294/1159/308 290/1160/308
f 291/1161/309 247/1162/309 248/1163/309 292/1164/309
f 294/1165/310 250/1166/310 249/1167/310 293/1168/310
f 293/1169/311 249/1170/311 247/1171/311 291/1172/311
f 292/1173/312 248/1174/312 250/1175/312 294/1176/312