# Made in Blockbench 5.1.4
mtllib wooden_wheel.mtl

o rim
v 0 -0.34375 0
v 0 0.34375 0
v 0.075360625 -0.34375 0.28125
v 0.075360625 0.34375 0.28125
v 0.205889375 -0.34375 0.205889375
v 0.205889375 0.34375 0.205889375
v 0.28125 -0.34375 0.075360625
v 0.28125 0.34375 0.075360625
v 0.28125 -0.34375 -0.075360625
v 0.28125 0.34375 -0.075360625
v 0.205889375 -0.34375 -0.205889375
v 0.205889375 0.34375 -0.205889375
v 0.075360625 -0.34375 -0.28125
v 0.075360625 0.34375 -0.28125
v -0.075360625 -0.34375 -0.28125
v -0.075360625 0.34375 -0.28125
v -0.205889375 -0.34375 -0.205889375
v -0.205889375 0.34375 -0.205889375
v -0.28125 -0.34375 -0.075360625
v -0.28125 0.34375 -0.075360625
v -0.28125 -0.34375 0.075360625
v -0.28125 0.34375 0.075360625
v -0.205889375 -0.34375 0.205889375
v -0.205889375 0.34375 0.205889375
v -0.075360625 -0.34375 0.28125
v -0.075360625 0.34375 0.28125
vt 0.625 0.84375
vt 0.71875 0.84375
vt 0.67187125 0.6875
vt 0.125 0.09375
vt 0.21875 0.09375
vt 0.21875 0.4375
vt 0.125 0.4375
vt 0.625 0.84375
vt 0.71875 0.84375
vt 0.67187875 0.6875
vt 0.625 0.84375
vt 0.71875 0.843746875
vt 0.671871875 0.6875
vt 0.125 0.09375
vt 0.21875 0.09375
vt 0.21875 0.4375
vt 0.125 0.4375
vt 0.625 0.843746875
vt 0.71875 0.84375
vt 0.671878125 0.6875
vt 0.625 0.84375
vt 0.71875 0.84375
vt 0.671875 0.6875
vt 0.125 0.09375
vt 0.21875 0.09375
vt 0.21875 0.4375
vt 0.125 0.4375
vt 0.625 0.84375
vt 0.71875 0.84375
vt 0.671875 0.6875
vt 0.625 0.843746875
vt 0.71875 0.84375
vt 0.671878125 0.6875
vt 0.125 0.09375
vt 0.21875 0.09375
vt 0.21875 0.4375
vt 0.125 0.4375
vt 0.625 0.84375
vt 0.71875 0.843746875
vt 0.671871875 0.6875
vt 0.625 0.84375
vt 0.71875 0.84375
vt 0.67187875 0.6875
vt 0.125 0.09375
vt 0.21875 0.09375
vt 0.21875 0.4375
vt 0.125 0.4375
vt 0.625 0.84375
vt 0.71875 0.84375
vt 0.67187125 0.6875
vt 0.71875 0.84375
vt 0.8125 0.84375
vt 0.765625 0.6875
vt 0.125 0.09375
vt 0.21875 0.09375
vt 0.21875 0.4375
vt 0.125 0.4375
vt 0.8125 0.84375
vt 0.71875 0.84375
vt 0.765625 0.6875
vt 0.90625 0.84375
vt 0.8125 0.84375
vt 0.85937875 0.6875
vt 0.125 0.09375
vt 0.21875 0.09375
vt 0.21875 0.4375
vt 0.125 0.4375
vt 0.8125 0.84375
vt 0.90625 0.84375
vt 0.85937875 0.6875
vt 1 0.84375
vt 0.90625 0.843746875
vt 0.953128125 0.6875
vt 0.125 0.09375
vt 0.21875 0.09375
vt 0.21875 0.4375
vt 0.125 0.4375
vt 0.90625 0.843746875
vt 1 0.84375
vt 0.953128125 0.6875
vt 0.71875 0.84375
vt 0.625 0.84375
vt 0.671875 0.6875
vt 0.125 0.09375
vt 0.21875 0.09375
vt 0.21875 0.4375
vt 0.125 0.4375
vt 0.71875 0.84375
vt 0.625 0.84375
vt 0.671875 0.6875
vt 0.71875 0.843746875
vt 0.625 0.84375
vt 0.671871875 0.6875
vt 0.125 0.09375
vt 0.21875 0.09375
vt 0.21875 0.4375
vt 0.125 0.4375
vt 0.71875 0.84375
vt 0.625 0.843746875
vt 0.671878125 0.6875
vt 0.75 0.625
vt 0.65625 0.625
vt 0.70312125 0.46875
vt 0.125 0.09375
vt 0.21875 0.09375
vt 0.21875 0.4375
vt 0.125 0.4375
vt 0.65625 0.625
vt 0.75 0.625
vt 0.70312125 0.46875
vt 0.84375 0.625
vt 0.75 0.625
vt 0.796875 0.46875
vt 0.125 0.09375
vt 0.21875 0.09375
vt 0.21875 0.4375
vt 0.125 0.4375
vt 0.75 0.625
vt 0.84375 0.625
vt 0.796875 0.46875
vn 0 -1 0
vn 0.49999908465525894 0 0.8660259322583266
vn 0 1 0
vn 0 -1 0
vn 0.8660259322583266 0 0.49999908465525894
vn 0 1 0
vn 0 -1 0
vn 1 0 0
vn 0 1 0
vn 0 -1 0
vn 0.8660259322583266 0 -0.49999908465525894
vn 0 1 0
vn 0 -1 0
vn 0.49999908465525894 0 -0.8660259322583266
vn 0 1 0
vn 0 -1 0
vn 0 0 -1
vn 0 1 0
vn 0 -1 0
vn -0.49999908465525894 0 -0.8660259322583266
vn 0 1 0
vn 0 -1 0
vn -0.8660259322583266 0 -0.49999908465525894
vn 0 1 0
vn 0 -1 0
vn -1 0 0
vn 0 1 0
vn 0 -1 0
vn -0.8660259322583266 0 0.49999908465525894
vn 0 1 0
vn 0 -1 0
vn -0.49999908465525894 0 0.8660259322583266
vn 0 1 0
vn 0 -1 0
vn 0 0 1
vn 0 1 0
usemtl m_6b460001-2b3d-169c-2b23-35d4cc7791d6
f 5/1/1 3/2/1 1/3/1
f 3/4/2 5/5/2 6/6/2 4/7/2
f 4/8/3 6/9/3 2/10/3
f 7/11/4 5/12/4 1/13/4
f 5/14/5 7/15/5 8/16/5 6/17/5
f 6/18/6 8/19/6 2/20/6
f 9/21/7 7/22/7 1/23/7
f 7/24/8 9/25/8 10/26/8 8/27/8
f 8/28/9 10/29/9 2/30/9
f 11/31/10 9/32/10 1/33/10
f 9/34/11 11/35/11 12/36/11 10/37/11
f 10/38/12 12/39/12 2/40/12
f 13/41/13 11/42/13 1/43/13
f 11/44/14 13/45/14 14/46/14 12/47/14
f 12/48/15 14/49/15 2/50/15
f 15/51/16 13/52/16 1/53/16
f 13/54/17 15/55/17 16/56/17 14/57/17
f 14/58/18 16/59/18 2/60/18
f 17/61/19 15/62/19 1/63/19
f 15/64/20 17/65/20 18/66/20 16/67/20
f 16/68/21 18/69/21 2/70/21
f 19/71/22 17/72/22 1/73/22
f 17/74/23 19/75/23 20/76/23 18/77/23
f 18/78/24 20/79/24 2/80/24
f 21/81/25 19/82/25 1/83/25
f 19/84/26 21/85/26 22/86/26 20/87/26
f 20/88/27 22/89/27 2/90/27
f 23/91/28 21/92/28 1/93/28
f 21/94/29 23/95/29 24/96/29 22/97/29
f 22/98/30 24/99/30 2/100/30
f 25/101/31 23/102/31 1/103/31
f 23/104/32 25/105/32 26/106/32 24/107/32
f 24/108/33 26/109/33 2/110/33
f 3/111/34 25/112/34 1/113/34
f 25/114/35 3/115/35 4/116/35 26/117/35
f 26/118/36 4/119/36 2/120/36
o rim
v -0.06629126073623885 0.21875 -0.1988737822087165
v -0.9501747372194232 0.140625 -1.082757258691901
v -0.06629126073623885 -0.21875 -0.1988737822087165
v -0.9501747372194232 -0.140625 -1.082757258691901
v -0.1988737822087165 0.21875 -0.06629126073623881
v -1.082757258691901 0.140625 -0.9501747372194232
v -0.1988737822087165 -0.21875 -0.06629126073623881
v -1.082757258691901 -0.140625 -0.9501747372194232
vt 0.6249734375 0.6472996875
vt 0 0.6875
vt 0.0000265625 0.46875
vt 0.625 0.5065234375000001
vt 0 0.6875
vt 0 0.46875
vt 0.625 0.5065968750000001
vt 0.625 0.6472215625
vt 0.25 0.4375
vt 0.25 0.34375
vt 0.875 0.34375
vt 0.875 0.4375
vt 0.25 0.34375
vt 0.875 0.34375
vt 0.875 0.4375
vt 0.25 0.4375
vt 0.09375 0.03125
vt 0.09375 0.25
vt 0 0.25
vt 0 0.03125
vt 0.09375 0.4375
vt 0 0.4375
vt 0 0.28125
vt 0.09375 0.28125
vn 0.7071067811865475 0 -0.7071067811865476
vn -0.7071067811865475 0 0.7071067811865476
vn -0.044108109139123094 0.9980525784828886 -0.04410810913912309
vn -0.044108109139123094 -0.9980525784828886 -0.04410810913912309
vn 0.7071067811865476 0 0.7071067811865475
vn -0.7071067811865476 0 -0.7071067811865475
usemtl m_6b460001-2b3d-169c-2b23-35d4cc7791d6
f 28/121/37 27/122/37 29/123/37 30/124/37
f 33/125/38 31/126/38 32/127/38 34/128/38
f 31/129/39 27/130/39 28/131/39 32/132/39
f 30/133/40 29/134/40 33/135/40 34/136/40
f 29/137/41 27/138/41 31/139/41 33/140/41
f 32/141/42 28/142/42 30/143/42 34/144/42
o rim
v -0.1988737822087165 0.21875 0.06629126073623881
v -1.0827572586919012 0.140625 0.9501747372194232
v -0.1988737822087165 -0.21875 0.06629126073623881
v -1.0827572586919012 -0.140625 0.9501747372194232
v -0.06629126073623885 0.21875 0.1988737822087165
v -0.9501747372194235 0.140625 1.082757258691901
v -0.06629126073623885 -0.21875 0.1988737822087165
v -0.9501747372194235 -0.140625 1.082757258691901
vt 0.6249734375 0.6472996875
vt 0 0.6875
vt 0.0000265625 0.46875
vt 0.625 0.5065234375000001
vt 0 0.6875
vt 0 0.46875
vt 0.625 0.5065968750000001
vt 0.625 0.6472215625
vt 0.25 0.4375
vt 0.25 0.34375
vt 0.875 0.34375
vt 0.875 0.4375
vt 0.25 0.34375
vt 0.875 0.34375
vt 0.875 0.4375
vt 0.25 0.4375
vt 0.09375 0.03125
vt 0.09375 0.25
vt 0 0.25
vt 0 0.03125
vt 0.09375 0.4375
vt 0 0.4375
vt 0 0.28125
vt 0.09375 0.28125
vn -0.7071067811865475 0 -0.7071067811865477
vn 0.7071067811865475 0 0.7071067811865477
vn -0.0441081091391231 0.9980525784828886 0.04410810913912309
vn -0.0441081091391231 -0.9980525784828886 0.04410810913912309
vn 0.7071067811865477 0 -0.7071067811865475
vn -0.7071067811865477 0 0.7071067811865475
usemtl m_6b460001-2b3d-169c-2b23-35d4cc7791d6
f 36/145/43 35/146/43 37/147/43 38/148/43
f 41/149/44 39/150/44 40/151/44 42/152/44
f 39/153/45 35/154/45 36/155/45 40/156/45
f 38/157/46 37/158/46 41/159/46 42/160/46
f 37/161/47 35/162/47 39/163/47 41/164/47
f 40/165/48 36/166/48 38/167/48 42/168/48
o rim
v 0.06629126073623885 0.21875 0.1988737822087165
v 0.9501747372194235 0.140625 1.082757258691901
v 0.06629126073623885 -0.21875 0.1988737822087165
v 0.9501747372194235 -0.140625 1.082757258691901
v 0.1988737822087165 0.21875 0.06629126073623881
v 1.0827572586919012 0.140625 0.9501747372194232
v 0.1988737822087165 -0.21875 0.06629126073623881
v 1.0827572586919012 -0.140625 0.9501747372194232
vt 0.6249734375 0.6472996875
vt 0 0.6875
vt 0.0000265625 0.46875
vt 0.625 0.5065234375000001
vt 0 0.6875
vt 0 0.46875
vt 0.625 0.5065968750000001
vt 0.625 0.6472215625
vt 0.25 0.4375
vt 0.25 0.34375
vt 0.875 0.34375
vt 0.875 0.4375
vt 0.25 0.34375
vt 0.875 0.34375
vt 0.875 0.4375
vt 0.25 0.4375
vt 0.09375 0.03125
vt 0.09375 0.25
vt 0 0.25
vt 0 0.03125
vt 0.09375 0.4375
vt 0 0.4375
vt 0 0.28125
vt 0.09375 0.28125
vn -0.7071067811865475 0 0.7071067811865477
vn 0.7071067811865475 0 -0.7071067811865477
vn 0.0441081091391231 0.9980525784828886 0.04410810913912309
vn 0.0441081091391231 -0.9980525784828886 0.04410810913912309
vn -0.7071067811865477 0 -0.7071067811865475
vn 0.7071067811865477 0 0.7071067811865475
usemtl m_6b460001-2b3d-169c-2b23-35d4cc7791d6
f 44/169/49 43/170/49 45/171/49 46/172/49
f 49/173/50 47/174/50 48/175/50 50/176/50
f 47/177/51 43/178/51 44/179/51 48/180/51
f 46/181/52 45/182/52 49/183/52 50/184/52
f 45/185/53 43/186/53 47/187/53 49/188/53
f 48/189/54 44/190/54 46/191/54 50/192/54
o rim
v 0.1988737822087165 0.21875 -0.06629126073623881
v 1.082757258691901 0.140625 -0.9501747372194232
v 0.1988737822087165 -0.21875 -0.06629126073623881
v 1.082757258691901 -0.140625 -0.9501747372194232
v 0.06629126073623885 0.21875 -0.1988737822087165
v 0.9501747372194232 0.140625 -1.082757258691901
v 0.06629126073623885 -0.21875 -0.1988737822087165
v 0.9501747372194232 -0.140625 -1.082757258691901
vt 0.6249734375 0.6472996875
vt 0 0.6875
vt 0.0000265625 0.46875
vt 0.625 0.5065234375000001
vt 0 0.6875
vt 0 0.46875
vt 0.625 0.5065968750000001
vt 0.625 0.6472215625
vt 0.25 0.4375
vt 0.25 0.34375
vt 0.875 0.34375
vt 0.875 0.4375
vt 0.25 0.34375
vt 0.875 0.34375
vt 0.875 0.4375
vt 0.25 0.4375
vt 0.09375 0.03125
vt 0.09375 0.25
vt 0 0.25
vt 0 0.03125
vt 0.09375 0.4375
vt 0 0.4375
vt 0 0.28125
vt 0.09375 0.28125
vn 0.7071067811865475 0 0.7071067811865476
vn -0.7071067811865475 0 -0.7071067811865476
vn 0.044108109139123094 0.9980525784828886 -0.04410810913912309
vn 0.044108109139123094 -0.9980525784828886 -0.04410810913912309
vn -0.7071067811865476 0 0.7071067811865475
vn 0.7071067811865476 0 -0.7071067811865475
usemtl m_6b460001-2b3d-169c-2b23-35d4cc7791d6
f 52/193/55 51/194/55 53/195/55 54/196/55
f 57/197/56 55/198/56 56/199/56 58/200/56
f 55/201/57 51/202/57 52/203/57 56/204/57
f 54/205/58 53/206/58 57/207/58 58/208/58
f 53/209/59 51/210/59 55/211/59 57/212/59
f 56/213/60 52/214/60 54/215/60 58/216/60
o rim
v 0.09375 0.21875 -0.21875
v 0.09375 0.140625 -1.40625
v 0.09375 -0.21875 -0.21875
v 0.09375 -0.140625 -1.40625
v -0.09375 0.21875 -0.21875
v -0.09375 0.140625 -1.40625
v -0.09375 -0.21875 -0.21875
v -0.09375 -0.140625 -1.40625
vt 0.5937190625 0.8659306250000001
vt 3.125e-7 0.90625
vt 0.0000309375 0.6875
vt 0.5937503125 0.7251375
vt 3.125e-7 0.90625
vt 0 0.6875
vt 0.59375 0.72521875
vt 0.59375 0.86584375
vt 0.25 0.28125
vt 0.25 0.1875
vt 0.84375 0.1875
vt 0.84375 0.28125
vt 0.25 0.1875
vt 0.84375 0.1875
vt 0.84375 0.28125
vt 0.25 0.28125
vt 0.09375 0.03125
vt 0.09375 0.25
vt 0 0.25
vt 0 0.03125
vt 0.09375 0.4375
vt 0 0.4375
vt 0 0.28125
vt 0.09375 0.28125
vn 1 0 0
vn -1 0 0
vn 0 0.997842872504086 -0.06564755740158461
vn 0 -0.997842872504086 -0.06564755740158461
vn 0 0 1
vn 0 0 -1
usemtl m_6b460001-2b3d-169c-2b23-35d4cc7791d6
f 60/217/61 59/218/61 61/219/61 62/220/61
f 65/221/62 63/222/62 64/223/62 66/224/62
f 63/225/63 59/226/63 60/227/63 64/228/63
f 62/229/64 61/230/64 65/231/64 66/232/64
f 61/233/65 59/234/65 63/235/65 65/236/65
f 64/237/66 60/238/66 62/239/66 66/240/66
o rim
v -0.21874999999999997 0.21875 -0.09375000000000006
v -1.40625 0.140625 -0.0937500000000003
v -0.21874999999999997 -0.21875 -0.09375000000000006
v -1.40625 -0.140625 -0.0937500000000003
v -0.21875000000000003 0.21875 0.09374999999999994
v -1.40625 0.140625 0.0937499999999997
v -0.21875000000000003 -0.21875 0.09374999999999994
v -1.40625 -0.140625 0.0937499999999997
vt 0.5937196875 0.8659306250000001
vt 9.375e-7 0.90625
vt 0.0000309375 0.6875
vt 0.5937509375 0.7251375
vt 3.125e-7 0.90625
vt 0 0.6875
vt 0.59375 0.72521875
vt 0.59375 0.86584375
vt 0.25 0.28125
vt 0.25 0.1875
vt 0.84375 0.1875
vt 0.84375 0.28125
vt 0.25 0.1875
vt 0.84375 0.1875
vt 0.84375 0.28125
vt 0.25 0.28125
vt 0.09375 0.03125
vt 0.09375 0.25
vt 0 0.25
vt 0 0.03125
vt 0.09375 0.4375
vt 0 0.4375
vt 0 0.28125
vt 0.09375 0.28125
vn 2.220446049250313e-16 0 -1
vn -2.220446049250313e-16 0 1
vn -0.06564755740158461 0.997842872504086 -1.457668594752817e-17
vn -0.06564755740158461 -0.997842872504086 -1.457668594752817e-17
vn 1 0 2.220446049250313e-16
vn -1 0 -2.220446049250313e-16
usemtl m_6b460001-2b3d-169c-2b23-35d4cc7791d6
f 68/241/67 67/242/67 69/243/67 70/244/67
f 73/245/68 71/246/68 72/247/68 74/248/68
f 71/249/69 67/250/69 68/251/69 72/252/69
f 70/253/70 69/254/70 73/255/70 74/256/70
f 69/257/71 67/258/71 71/259/71 73/260/71
f 72/261/72 68/262/72 70/263/72 74/264/72
o rim
v -0.09374999999999997 0.21875 0.21875
v -0.09374999999999983 0.140625 1.40625
v -0.09374999999999997 -0.21875 0.21875
v -0.09374999999999983 -0.140625 1.40625
v 0.09375000000000003 0.21875 0.21875
v 0.09375000000000017 0.140625 1.40625
v 0.09375000000000003 -0.21875 0.21875
v 0.09375000000000017 -0.140625 1.40625
vt 0.5937190625 0.8659306250000001
vt 3.125e-7 0.90625
vt 0.0000309375 0.6875
vt 0.5937503125 0.7251375
vt 3.125e-7 0.90625
vt 0 0.6875
vt 0.59375 0.72521875
vt 0.59375 0.86584375
vt 0.25 0.28125
vt 0.25 0.1875
vt 0.84375 0.1875
vt 0.84375 0.28125
vt 0.25 0.1875
vt 0.84375 0.1875
vt 0.84375 0.28125
vt 0.25 0.28125
vt 0.09375 0.03125
vt 0.09375 0.25
vt 0 0.25
vt 0 0.03125
vt 0.09375 0.4375
vt 0 0.4375
vt 0 0.28125
vt 0.09375 0.28125
vn -1 0 1.2246467991473532e-16
vn 1 0 -1.2246467991473532e-16
vn 8.039507104369272e-18 0.997842872504086 0.06564755740158461
vn 8.039507104369272e-18 -0.997842872504086 0.06564755740158461
vn -1.2246467991473532e-16 0 -1
vn 1.2246467991473532e-16 0 1
usemtl m_6b460001-2b3d-169c-2b23-35d4cc7791d6
f 76/265/73 75/266/73 77/267/73 78/268/73
f 81/269/74 79/270/74 80/271/74 82/272/74
f 79/273/75 75/274/75 76/275/75 80/276/75
f 78/277/76 77/278/76 81/279/76 82/280/76
f 77/281/77 75/282/77 79/283/77 81/284/77
f 80/285/78 76/286/78 78/287/78 82/288/78
o rim
v 0.21875000000000003 0.21875 0.09374999999999994
v 1.40625 0.140625 0.0937499999999997
v 0.21875000000000003 -0.21875 0.09374999999999994
v 1.40625 -0.140625 0.0937499999999997
v 0.21874999999999997 0.21875 -0.09375000000000006
v 1.40625 0.140625 -0.0937500000000003
v 0.21874999999999997 -0.21875 -0.09375000000000006
v 1.40625 -0.140625 -0.0937500000000003
vt 0.5937190625 0.8659306250000001
vt 3.125e-7 0.90625
vt 0.0000309375 0.6875
vt 0.5937503125 0.7251375
vt 3.125e-7 0.90625
vt 0 0.6875
vt 0.59375 0.72521875
vt 0.59375 0.86584375
vt 0.25 0.28125
vt 0.25 0.1875
vt 0.84375 0.1875
vt 0.84375 0.28125
vt 0.25 0.1875
vt 0.84375 0.1875
vt 0.84375 0.28125
vt 0.25 0.28125
vt 0.09375 0.03125
vt 0.09375 0.25
vt 0 0.25
vt 0 0.03125
vt 0.09375 0.4375
vt 0 0.4375
vt 0 0.28125
vt 0.09375 0.28125
vn 2.220446049250313e-16 0 1
vn -2.220446049250313e-16 0 -1
vn 0.06564755740158461 0.997842872504086 -1.457668594752817e-17
vn 0.06564755740158461 -0.997842872504086 -1.457668594752817e-17
vn -1 0 2.220446049250313e-16
vn 1 0 -2.220446049250313e-16
usemtl m_6b460001-2b3d-169c-2b23-35d4cc7791d6
f 84/289/79 83/290/79 85/291/79 86/292/79
f 89/293/80 87/294/80 88/295/80 90/296/80
f 87/297/81 83/298/81 84/299/81 88/300/81
f 86/301/82 85/302/82 89/303/82 90/304/82
f 85/305/83 83/306/83 87/307/83 89/308/83
f 88/309/84 84/310/84 86/311/84 90/312/84
o tire
v 0.40192375 -0.125 1.5
v 0.40192375 0.125 1.5
v 0.365861875 -0.125 1.365414375
v 0.365861875 0.125 1.365414375
v 1.09807625 -0.125 1.09807625
v 1.09807625 0.125 1.09807625
v 0.9995525 -0.125 0.9995525
v 0.9995525 0.125 0.9995525
v 1.5 -0.125 0.40192375
v 1.5 0.125 0.40192375
v 1.365414375 -0.125 0.365861875
v 1.365414375 0.125 0.365861875
v 1.5 -0.125 -0.40192375
v 1.5 0.125 -0.40192375
v 1.365414375 -0.125 -0.365861875
v 1.365414375 0.125 -0.365861875
v 1.09807625 -0.125 -1.09807625
v 1.09807625 0.125 -1.09807625
v 0.9995525 -0.125 -0.9995525
v 0.9995525 0.125 -0.9995525
v 0.40192375 -0.125 -1.5
v 0.40192375 0.125 -1.5
v 0.365861875 -0.125 -1.365414375
v 0.365861875 0.125 -1.365414375
v -0.40192375 -0.125 -1.5
v -0.40192375 0.125 -1.5
v -0.365861875 -0.125 -1.365414375
v -0.365861875 0.125 -1.365414375
v -1.09807625 -0.125 -1.09807625
v -1.09807625 0.125 -1.09807625
v -0.9995525 -0.125 -0.9995525
v -0.9995525 0.125 -0.9995525
v -1.5 -0.125 -0.40192375
v -1.5 0.125 -0.40192375
v -1.365414375 -0.125 -0.365861875
v -1.365414375 0.125 -0.365861875
v -1.5 -0.125 0.40192375
v -1.5 0.125 0.40192375
v -1.365414375 -0.125 0.365861875
v -1.365414375 0.125 0.365861875
v -1.09807625 -0.125 1.09807625
v -1.09807625 0.125 1.09807625
v -0.9995525 -0.125 0.9995525
v -0.9995525 0.125 0.9995525
v -0.40192375 -0.125 1.5
v -0.40192375 0.125 1.5
v -0.365861875 -0.125 1.365414375
v -0.365861875 0.125 1.365414375
vt 0.25 0.03125
vt 0.65625 0.03125
vt 0.65625 0.15625
vt 0.25 0.15625
vt 1 1
vt 0.625 1
vt 0.625 0.875
vt 1 0.875
vt 0.388024375 0.9375
vt 0.0182253125 0.9375
vt 0 1
vt 0.40625 0.9999996875
vt 0 1
vt 0.40625 1
vt 0.3880246875 0.9375
vt 0.018225625 0.9375003125
vt 0.25 0.03125
vt 0.65625 0.03125
vt 0.65625 0.15625
vt 0.25 0.15625
vt 1 1
vt 0.625 1
vt 0.625 0.875
vt 1 0.875
vt 0.3880246875 0.9375
vt 0.018225625 0.9375
vt 0 0.9999996875
vt 0.40625 1
vt 0 1
vt 0.40625 1
vt 0.388024375 0.9375003125
vt 0.0182253125 0.9375
vt 0.25 0.03125
vt 0.65625 0.03125
vt 0.65625 0.15625
vt 0.25 0.15625
vt 1 1
vt 0.625 1
vt 0.625 0.875
vt 1 0.875
vt 0.3880246875 0.9375
vt 0.0182253125 0.9375
vt 0 1
vt 0.40625 1
vt 0 1
vt 0.40625 1
vt 0.3880246875 0.9375
vt 0.0182253125 0.9375
vt 0.25 0.03125
vt 0.65625 0.03125
vt 0.65625 0.15625
vt 0.25 0.15625
vt 1 1
vt 0.625 1
vt 0.625 0.875
vt 1 0.875
vt 0.388024375 0.9375
vt 0.0182253125 0.9375
vt 0 1
vt 0.40625 0.9999996875
vt 0 1
vt 0.40625 1
vt 0.3880246875 0.9375
vt 0.018225625 0.9375003125
vt 0.25 0.03125
vt 0.65625 0.03125
vt 0.65625 0.15625
vt 0.25 0.15625
vt 1 1
vt 0.625 1
vt 0.625 0.875
vt 1 0.875
vt 0.3880246875 0.9375
vt 0.018225625 0.9375
vt 0 0.9999996875
vt 0.40625 1
vt 0 1
vt 0.40625 1
vt 0.388024375 0.9375003125
vt 0.0182253125 0.9375
vt 0.25 0.03125
vt 0.65625 0.03125
vt 0.65625 0.15625
vt 0.25 0.15625
vt 1 1
vt 0.625 1
vt 0.625 0.875
vt 1 0.875
vt 0.3880246875 0.9375
vt 0.0182253125 0.9375
vt 0 1
vt 0.40625 1
vt 0.40625 1
vt 0 1
vt 0.0182253125 0.9375
vt 0.3880246875 0.9375
vt 0.25 0.03125
vt 0.65625 0.03125
vt 0.65625 0.15625
vt 0.25 0.15625
vt 1 1
vt 0.625 1
vt 0.625 0.875
vt 1 0.875
vt 0.018225625 0.9375
vt 0.3880246875 0.9375
vt 0.40625 1
vt 0 0.9999996875
vt 0.40625 1
vt 0 1
vt 0.0182253125 0.9375
vt 0.388024375 0.9375003125
vt 0.25 0.03125
vt 0.65625 0.03125
vt 0.65625 0.15625
vt 0.25 0.15625
vt 1 1
vt 0.625 1
vt 0.625 0.875
vt 1 0.875
vt 0.0182253125 0.9375
vt 0.388024375 0.9375
vt 0.40625 0.9999996875
vt 0 1
vt 0.40625 1
vt 0 1
vt 0.018225625 0.9375003125
vt 0.3880246875 0.9375
vt 0.25 0.03125
vt 0.65625 0.03125
vt 0.65625 0.15625
vt 0.25 0.15625
vt 1 1
vt 0.625 1
vt 0.625 0.875
vt 1 0.875
vt 0.0182253125 0.9375
vt 0.3880246875 0.9375
vt 0.40625 1
vt 0 1
vt 0.40625 1
vt 0 1
vt 0.0182253125 0.9375
vt 0.3880246875 0.9375
vt 0.25 0.03125
vt 0.65625 0.03125
vt 0.65625 0.15625
vt 0.25 0.15625
vt 1 1
vt 0.625 1
vt 0.625 0.875
vt 1 0.875
vt 0.018225625 0.9375
vt 0.3880246875 0.9375
vt 0.40625 1
vt 0 0.9999996875
vt 0.40625 1
vt 0 1
vt 0.0182253125 0.9375
vt 0.388024375 0.9375003125
vt 0.25 0.03125
vt 0.65625 0.03125
vt 0.65625 0.15625
vt 0.25 0.15625
vt 1 1
vt 0.625 1
vt 0.625 0.875
vt 1 0.875
vt 0.0182253125 0.9375
vt 0.388024375 0.9375
vt 0.40625 0.9999996875
vt 0 1
vt 0.40625 1
vt 0 1
vt 0.018225625 0.9375003125
vt 0.3880246875 0.9375
vt 0.25 0.03125
vt 0.65625 0.03125
vt 0.65625 0.15625
vt 0.25 0.15625
vt 1 1
vt 0.625 1
vt 0.625 0.875
vt 1 0.875
vt 0.0182253125 0.9375
vt 0.3880246875 0.9375
vt 0.40625 1
vt 0 1
vt 0 1
vt 0.40625 1
vt 0.3880246875 0.9375
vt 0.0182253125 0.9375
vn 0.49999992230614 0 0.8660254486410052
vn -0.5000004326157368 0 -0.8660251540134826
vn 0 -1 0
vn 0 1 0
vn 0.8660254486410052 0 0.49999992230614
vn -0.8660251540134826 0 -0.5000004326157368
vn 0 -1 0
vn 0 1 0
vn 1 0 0
vn -1 0 0
vn 0 -1 0
vn 0 1 0
vn 0.8660254486410052 0 -0.49999992230614
vn -0.8660251540134826 0 0.5000004326157368
vn 0 -1 0
vn 0 1 0
vn 0.49999992230614 0 -0.8660254486410052
vn -0.5000004326157368 0 0.8660251540134826
vn 0 -1 0
vn 0 1 0
vn 0 0 -1
vn 0 0 1
vn 0 -1 0
vn 0 1 0
vn -0.49999992230614 0 -0.8660254486410052
vn 0.5000004326157368 0 0.8660251540134826
vn 0 -1 0
vn 0 1 0
vn -0.8660254486410052 0 -0.49999992230614
vn 0.8660251540134826 0 0.5000004326157368
vn 0 -1 0
vn 0 1 0
vn -1 0 0
vn 1 0 0
vn 0 -1 0
vn 0 1 0
vn -0.8660254486410052 0 0.49999992230614
vn 0.8660251540134826 0 -0.5000004326157368
vn 0 -1 0
vn 0 1 0
vn -0.49999992230614 0 0.8660254486410052
vn 0.5000004326157368 0 -0.8660251540134826
vn 0 -1 0
vn 0 1 0
vn 0 0 1
vn 0 0 -1
vn 0 -1 0
vn 0 1 0
usemtl m_6b460001-2b3d-169c-2b23-35d4cc7791d6
f 91/313/85 95/314/85 96/315/85 92/316/85
f 94/317/86 98/318/86 97/319/86 93/320/86
f 93/321/87 97/322/87 95/323/87 91/324/87
f 92/325/88 96/326/88 98/327/88 94/328/88
f 95/329/89 99/330/89 100/331/89 96/332/89
f 98/333/90 102/334/90 101/335/90 97/336/90
f 97/337/91 101/338/91 99/339/91 95/340/91
f 96/341/92 100/342/92 102/343/92 98/344/92
f 99/345/93 103/346/93 104/347/93 100/348/93
f 102/349/94 106/350/94 105/351/94 101/352/94
f 101/353/95 105/354/95 103/355/95 99/356/95
f 100/357/96 104/358/96 106/359/96 102/360/96
f 103/361/97 107/362/97 108/363/97 104/364/97
f 106/365/98 110/366/98 109/367/98 105/368/98
f 105/369/99 109/370/99 107/371/99 103/372/99
f 104/373/100 108/374/100 110/375/100 106/376/100
f 107/377/101 111/378/101 112/379/101 108/380/101
f 110/381/102 114/382/102 113/383/102 109/384/102
f 109/385/103 113/386/103 111/387/103 107/388/103
f 108/389/104 112/390/104 114/391/104 110/392/104
f 111/393/105 115/394/105 116/395/105 112/396/105
f 114/397/106 118/398/106 117/399/106 113/400/106
f 113/401/107 117/402/107 115/403/107 111/404/107
f 112/405/108 116/406/108 118/407/108 114/408/108
f 115/409/109 119/410/109 120/411/109 116/412/109
f 118/413/110 122/414/110 121/415/110 117/416/110
f 117/417/111 121/418/111 119/419/111 115/420/111
f 116/421/112 120/422/112 122/423/112 118/424/112
f 119/425/113 123/426/113 124/427/113 120/428/113
f 122/429/114 126/430/114 125/431/114 121/432/114
f 121/433/115 125/434/115 123/435/115 119/436/115
f 120/437/116 124/438/116 126/439/116 122/440/116
f 123/441/117 127/442/117 128/443/117 124/444/117
f 126/445/118 130/446/118 129/447/118 125/448/118
f 125/449/119 129/450/119 127/451/119 123/452/119
f 124/453/120 128/454/120 130/455/120 126/456/120
f 127/457/121 131/458/121 132/459/121 128/460/121
f 130/461/122 134/462/122 133/463/122 129/464/122
f 129/465/123 133/466/123 131/467/123 127/468/123
f 128/469/124 132/470/124 134/471/124 130/472/124
f 131/473/125 135/474/125 136/475/125 132/476/125
f 134/477/126 138/478/126 137/479/126 133/480/126
f 133/481/127 137/482/127 135/483/127 131/484/127
f 132/485/128 136/486/128 138/487/128 134/488/128
f 135/489/129 91/490/129 92/491/129 136/492/129
f 138/493/130 94/494/130 93/495/130 137/496/130
f 137/497/131 93/498/131 91/499/131 135/500/131
f 136/501/132 92/502/132 94/503/132 138/504/132