# Made in Blockbench 5.1.6
mtllib tractor_tire.mtl

o tire
v 0.222520625 -0.3125 1
v 0.222520625 0.3125 1
v 0.116983125 -0.3125 0.525716875
v 0.116983125 0.3125 0.525716875
v 0.62349 -0.3125 0.801938125
v 0.62349 0.3125 0.801938125
v 0.327779375 -0.3125 0.421591875
v 0.327779375 0.3125 0.421591875
v 0.90096875 -0.3125 0.445041875
v 0.90096875 0.3125 0.445041875
v 0.473654375 -0.3125 0.233965625
v 0.473654375 0.3125 0.233965625
v 1 -0.3125 0
v 1 0.3125 0
v 0.525716875 -0.3125 0
v 0.525716875 0.3125 0
v 0.90096875 -0.3125 -0.445041875
v 0.90096875 0.3125 -0.445041875
v 0.473654375 -0.3125 -0.233965625
v 0.473654375 0.3125 -0.233965625
v 0.62349 -0.3125 -0.801938125
v 0.62349 0.3125 -0.801938125
v 0.327779375 -0.3125 -0.421591875
v 0.327779375 0.3125 -0.421591875
v 0.222520625 -0.3125 -1
v 0.222520625 0.3125 -1
v 0.116983125 -0.3125 -0.525716875
v 0.116983125 0.3125 -0.525716875
v -0.222520625 -0.3125 1
v -0.222520625 0.3125 1
v -0.116983125 -0.3125 0.525716875
v -0.116983125 0.3125 0.525716875
v -0.62349 -0.3125 0.801938125
v -0.62349 0.3125 0.801938125
v -0.327779375 -0.3125 0.421591875
v -0.327779375 0.3125 0.421591875
v -0.90096875 -0.3125 0.445041875
v -0.90096875 0.3125 0.445041875
v -0.473654375 -0.3125 0.233965625
v -0.473654375 0.3125 0.233965625
v -1 -0.3125 0
v -1 0.3125 0
v -0.525716875 -0.3125 0
v -0.525716875 0.3125 0
v -0.90096875 -0.3125 -0.445041875
v -0.90096875 0.3125 -0.445041875
v -0.473654375 -0.3125 -0.233965625
v -0.473654375 0.3125 -0.233965625
v -0.62349 -0.3125 -0.801938125
v -0.62349 0.3125 -0.801938125
v -0.327779375 -0.3125 -0.421591875
v -0.327779375 0.3125 -0.421591875
v -0.222520625 -0.3125 -1
v -0.222520625 0.3125 -1
v -0.116983125 -0.3125 -0.525716875
v -0.116983125 0.3125 -0.525716875
vt 0.8125 0.5
vt 0.921875 0.5
vt 0.921875 0.65625
vt 0.8125 0.65625
vt 0.24917359375 0.86188578125
vt 0.19345859375 0.8328315625
vt 0.11257375 0.93612828125
vt 0.22122203125 0.98991921875
vt 0.3436140625 0.44628
vt 0.4524709375 0.5000506250000001
vt 0.37219015625 0.6033087500000001
vt 0.3149621875 0.5750403125
vt 0.8125 0.5
vt 0.921875 0.5
vt 0.921875 0.65625
vt 0.8125 0.65625
vt 0.19345859375 0.8328315625
vt 0.15355796875 0.7818753125
vt 0.03667578125 0.8392003125
vt 0.11257375 0.93612828125
vt 0.4524709375 0.5000506250000001
vt 0.52780203125 0.59694234375
vt 0.4117928125 0.6542462499999999
vt 0.37219015625 0.6033087500000001
vt 0.8125 0.5
vt 0.921875 0.5
vt 0.921875 0.65625
vt 0.8125 0.65625
vt 0.15355796875 0.7818753125
vt 0.13931765625 0.7183332812500001
vt 0.00958890625 0.7183332812500001
vt 0.03667578125 0.8392003125
vt 0.52780203125 0.59694234375
vt 0.5546875 0.717764375
vt 0.42592703125 0.717764375
vt 0.4117928125 0.6542462499999999
vt 0.8125 0.5
vt 0.921875 0.5
vt 0.921875 0.65625
vt 0.8125 0.65625
vt 0.13931765625 0.7183332812500001
vt 0.15355796875 0.65479109375
vt 0.03667578125 0.59746625
vt 0.00958890625 0.7183332812500001
vt 0.5546875 0.717764375
vt 0.52780203125 0.83858625
vt 0.4117928125 0.78128234375
vt 0.42592703125 0.717764375
vt 0.8125 0.5
vt 0.921875 0.5
vt 0.921875 0.65625
vt 0.8125 0.65625
vt 0.15355796875 0.65479109375
vt 0.19345859375 0.603835
vt 0.11257375 0.50053828125
vt 0.03667578125 0.59746625
vt 0.52780203125 0.83858625
vt 0.4524709375 0.93547796875
vt 0.37219015625 0.83221984375
vt 0.4117928125 0.78128234375
vt 0.8125 0.5
vt 0.921875 0.5
vt 0.921875 0.65625
vt 0.8125 0.65625
vt 0.19345859375 0.603835
vt 0.251116875 0.5755560937499999
vt 0.22224953125 0.44674734375
vt 0.11257375 0.50053828125
vt 0.4524709375 0.93547796875
vt 0.3436140625 0.98924875
vt 0.3149621875 0.86048828125
vt 0.37219015625 0.83221984375
vt 0.8125 0.5
vt 0.921875 0.5
vt 0.921875 0.65625
vt 0.8125 0.65625
vt 0.251116875 0.5755560937499999
vt 0.31511265625 0.5755560937499999
vt 0.34398 0.44674734375
vt 0.22224953125 0.44674734375
vt 0.3436140625 0.98924875
vt 0.2227921875 0.98924875
vt 0.2514440625 0.86048828125
vt 0.3149621875 0.86048828125
vt 0.8125 0.5
vt 0.921875 0.5
vt 0.921875 0.65625
vt 0.8125 0.65625
vt 0.31511265625 0.86111046875
vt 0.24917359375 0.86188578125
vt 0.22122203125 0.98991921875
vt 0.34398 0.98991921875
vt 0.2227921875 0.44628
vt 0.3436140625 0.44628
vt 0.3149621875 0.5750403125
vt 0.2514440625 0.5750403125
vt 0.8125 0.65625
vt 0.8125 0.5
vt 0.921875 0.5
vt 0.921875 0.65625
vt 0.45365578125 0.93612828125
vt 0.37277078125 0.8328315625
vt 0.31511265625 0.86111046875
vt 0.34398 0.98991921875
vt 0.19421609375 0.6033087500000001
vt 0.1139353125 0.5000506250000001
vt 0.2227921875 0.44628
vt 0.2514440625 0.5750403125
vt 0.8125 0.65625
vt 0.8125 0.5
vt 0.921875 0.5
vt 0.921875 0.65625
vt 0.52955375 0.8392003125
vt 0.4126715625 0.7818753125
vt 0.37277078125 0.8328315625
vt 0.45365578125 0.93612828125
vt 0.1546134375 0.6542462499999999
vt 0.03860421875 0.59694234375
vt 0.1139353125 0.5000506250000001
vt 0.19421609375 0.6033087500000001
vt 0.8125 0.65625
vt 0.8125 0.5
vt 0.921875 0.5
vt 0.921875 0.65625
vt 0.14047921875 0.717764375
vt 0.01171875 0.717764375
vt 0.03860421875 0.59694234375
vt 0.1546134375 0.6542462499999999
vt 0.8125 0.65625
vt 0.8125 0.5
vt 0.921875 0.5
vt 0.921875 0.65625
vt 0.52955375 0.59746625
vt 0.4126715625 0.65479109375
vt 0.426911875 0.7183332812500001
vt 0.556640625 0.7183332812500001
vt 0.1546134375 0.78128234375
vt 0.03860421875 0.83858625
vt 0.01171875 0.717764375
vt 0.14047921875 0.717764375
vt 0.8125 0.65625
vt 0.8125 0.5
vt 0.921875 0.5
vt 0.921875 0.65625
vt 0.45365578125 0.50053828125
vt 0.37277078125 0.603835
vt 0.4126715625 0.65479109375
vt 0.52955375 0.59746625
vt 0.19421609375 0.83221984375
vt 0.1139353125 0.93547796875
vt 0.03860421875 0.83858625
vt 0.1546134375 0.78128234375
vt 0.8125 0.65625
vt 0.8125 0.5
vt 0.921875 0.5
vt 0.921875 0.65625
vt 0.34398 0.44674734375
vt 0.31511265625 0.5755560937499999
vt 0.37277078125 0.603835
vt 0.45365578125 0.50053828125
vt 0.2514440625 0.86048828125
vt 0.2227921875 0.98924875
vt 0.1139353125 0.93547796875
vt 0.19421609375 0.83221984375
vt 0.556640625 0.7183332812500001
vt 0.426911875 0.7183332812500001
vt 0.4126715625 0.7818753125
vt 0.52955375 0.8392003125
vn 0.44287434012554194 0 0.8965836931700051
vn 0 -1 0
vn 0 1 0
vn 0.7894671443059621 0 0.6137928217740815
vn 0 -1 0
vn 0 1 0
vn 0.9761252201755832 0 0.21720855079201987
vn 0 -1 0
vn 0 1 0
vn 0.9761252201755832 0 -0.21720855079201987
vn 0 -1 0
vn 0 1 0
vn 0.7894671443059621 0 -0.6137928217740815
vn 0 -1 0
vn 0 1 0
vn 0.44287434012554194 0 -0.8965836931700051
vn 0 -1 0
vn 0 1 0
vn 0 0 -1
vn 0 -1 0
vn 0 1 0
vn 0 0 1
vn 0 -1 0
vn 0 1 0
vn -0.44287434012554194 0 0.8965836931700051
vn 0 -1 0
vn 0 1 0
vn -0.7894671443059621 0 0.6137928217740815
vn 0 -1 0
vn 0 1 0
vn -0.9761252201755832 0 0.21720855079201987
vn 0 1 0
vn -0.9761252201755832 0 -0.21720855079201987
vn 0 -1 0
vn 0 1 0
vn -0.7894671443059621 0 -0.6137928217740815
vn 0 -1 0
vn 0 1 0
vn -0.44287434012554194 0 -0.8965836931700051
vn 0 -1 0
vn 0 1 0
vn 0 -1 0
usemtl m_baa2c184-32bc-0145-c772-8978b846e51f
f 1/1/1 5/2/1 6/3/1 2/4/1
f 3/5/2 7/6/2 5/7/2 1/8/2
f 2/9/3 6/10/3 8/11/3 4/12/3
f 5/13/4 9/14/4 10/15/4 6/16/4
f 7/17/5 11/18/5 9/19/5 5/20/5
f 6/21/6 10/22/6 12/23/6 8/24/6
f 9/25/7 13/26/7 14/27/7 10/28/7
f 11/29/8 15/30/8 13/31/8 9/32/8
f 10/33/9 14/34/9 16/35/9 12/36/9
f 13/37/10 17/38/10 18/39/10 14/40/10
f 15/41/11 19/42/11 17/43/11 13/44/11
f 14/45/12 18/46/12 20/47/12 16/48/12
f 17/49/13 21/50/13 22/51/13 18/52/13
f 19/53/14 23/54/14 21/55/14 17/56/14
f 18/57/15 22/58/15 24/59/15 20/60/15
f 21/61/16 25/62/16 26/63/16 22/64/16
f 23/65/17 27/66/17 25/67/17 21/68/17
f 22/69/18 26/70/18 28/71/18 24/72/18
f 25/73/19 53/74/19 54/75/19 26/76/19
f 27/77/20 55/78/20 53/79/20 25/80/20
f 26/81/21 54/82/21 56/83/21 28/84/21
f 29/85/22 1/86/22 2/87/22 30/88/22
f 31/89/23 3/90/23 1/91/23 29/92/23
f 30/93/24 2/94/24 4/95/24 32/96/24
f 34/97/25 33/98/25 29/99/25 30/100/25
f 33/101/26 35/102/26 31/103/26 29/104/26
f 36/105/27 34/106/27 30/107/27 32/108/27
f 38/109/28 37/110/28 33/111/28 34/112/28
f 37/113/29 39/114/29 35/115/29 33/116/29
f 40/117/30 38/118/30 34/119/30 36/120/30
f 42/121/31 41/122/31 37/123/31 38/124/31
f 44/125/32 42/126/32 38/127/32 40/128/32
f 46/129/33 45/130/33 41/131/33 42/132/33
f 45/133/34 47/134/34 43/135/34 41/136/34
f 48/137/35 46/138/35 42/139/35 44/140/35
f 50/141/36 49/142/36 45/143/36 46/144/36
f 49/145/37 51/146/37 47/147/37 45/148/37
f 52/149/38 50/150/38 46/151/38 48/152/38
f 54/153/39 53/154/39 49/155/39 50/156/39
f 53/157/40 55/158/40 51/159/40 49/160/40
f 56/161/41 54/162/41 50/163/41 52/164/41
f 41/165/42 43/166/42 39/167/42 37/168/42
o rim
v 0.5625 0.0625 0.5625
v 0.5625 0.0625 -0.5625
v -0.5625 0.0625 0.5625
v -0.5625 0.0625 -0.5625
vt 0.921875 0.671875
vt 0.921875 0.953125
vt 0.640625 0.953125
vt 0.640625 0.671875
vn 0 1 0
usemtl m_baa2c184-32bc-0145-c772-8978b846e51f
f 57/169/43 58/170/43 60/171/43 59/172/43
o rim
v -0.06933196880574677 -0.06250000000000007 0.7924680297031036
v -0.7924680297031036 -0.06250000000000007 -0.06933196880574677
v 0.7924680297031036 -0.06249999999999993 0.06933196880574677
v 0.06933196880574677 -0.06249999999999993 -0.7924680297031036
vt 0.921875 0.671875
vt 0.921875 0.953125
vt 0.640625 0.953125
vt 0.640625 0.671875
vn 9.381338752702732e-17 -1 -7.871877887341986e-17
usemtl m_baa2c184-32bc-0145-c772-8978b846e51f
f 61/173/44 62/174/44 64/175/44 63/176/44
o rim
v 0.116983125 -0.3125 0.525716875
v 0.116983125 0.3125 0.525716875
v 0.327779375 -0.3125 0.421591875
v 0.327779375 0.3125 0.421591875
v 0.473654375 -0.3125 0.233965625
v 0.473654375 0.3125 0.233965625
v 0.525716875 -0.3125 0
v 0.525716875 0.3125 0
v 0.473654375 -0.3125 -0.233965625
v 0.473654375 0.3125 -0.233965625
v 0.327779375 -0.3125 -0.421591875
v 0.327779375 0.3125 -0.421591875
v 0.116983125 -0.3125 -0.525716875
v 0.116983125 0.3125 -0.525716875
v -0.116983125 -0.3125 0.525716875
v -0.116983125 0.3125 0.525716875
v -0.327779375 -0.3125 0.421591875
v -0.327779375 0.3125 0.421591875
v -0.473654375 -0.3125 0.233965625
v -0.473654375 0.3125 0.233965625
v -0.525716875 -0.3125 0
v -0.525716875 0.3125 0
v -0.473654375 -0.3125 -0.233965625
v -0.473654375 0.3125 -0.233965625
v -0.327779375 -0.3125 -0.421591875
v -0.327779375 0.3125 -0.421591875
v -0.116983125 -0.3125 -0.525716875
v -0.116983125 0.3125 -0.525716875
vt 0.78125 0.65625
vt 0.71875 0.65625
vt 0.71875 0.5
vt 0.78125 0.5
vt 0.78125 0.65625
vt 0.71875 0.65625
vt 0.71875 0.5
vt 0.78125 0.5
vt 0.78125 0.65625
vt 0.71875 0.65625
vt 0.71875 0.5
vt 0.78125 0.5
vt 0.78125 0.65625
vt 0.71875 0.65625
vt 0.71875 0.5
vt 0.78125 0.5
vt 0.78125 0.65625
vt 0.71875 0.65625
vt 0.71875 0.5
vt 0.78125 0.5
vt 0.78125 0.65625
vt 0.71875 0.65625
vt 0.71875 0.5
vt 0.78125 0.5
vt 0.78125 0.65625
vt 0.71875 0.65625
vt 0.71875 0.5
vt 0.78125 0.5
vt 0.78125 0.65625
vt 0.71875 0.65625
vt 0.71875 0.5
vt 0.78125 0.5
vt 0.78125 0.5
vt 0.78125 0.65625
vt 0.71875 0.65625
vt 0.71875 0.5
vt 0.78125 0.5
vt 0.78125 0.65625
vt 0.71875 0.65625
vt 0.71875 0.5
vt 0.78125 0.5
vt 0.78125 0.65625
vt 0.71875 0.65625
vt 0.71875 0.5
vt 0.78125 0.5
vt 0.78125 0.65625
vt 0.71875 0.65625
vt 0.71875 0.5
vt 0.78125 0.5
vt 0.78125 0.65625
vt 0.71875 0.65625
vt 0.71875 0.5
vt 0.78125 0.5
vt 0.78125 0.65625
vt 0.71875 0.65625
vt 0.71875 0.5
vn -0.4428763495530579 0 -0.8965827005951864
vn -0.7894674690737191 0 -0.6137924040539572
vn -0.9761250525856913 0 -0.2172093039319024
vn -0.9761250525856913 0 0.2172093039319024
vn -0.7894674690737191 0 0.6137924040539572
vn -0.4428763495530579 0 0.8965827005951864
vn 0 0 1
vn 0 0 -1
vn 0.4428763495530579 0 -0.8965827005951864
vn 0.7894674690737191 0 -0.6137924040539572
vn 0.9761250525856913 0 -0.2172093039319024
vn 0.9761250525856913 0 0.2172093039319024
vn 0.7894674690737191 0 0.6137924040539572
vn 0.4428763495530579 0 0.8965827005951864
usemtl m_baa2c184-32bc-0145-c772-8978b846e51f
f 66/177/45 68/178/45 67/179/45 65/180/45
f 68/181/46 70/182/46 69/183/46 67/184/46
f 70/185/47 72/186/47 71/187/47 69/188/47
f 72/189/48 74/190/48 73/191/48 71/192/48
f 74/193/49 76/194/49 75/195/49 73/196/49
f 76/197/50 78/198/50 77/199/50 75/200/50
f 78/201/51 92/202/51 91/203/51 77/204/51
f 80/205/52 66/206/52 65/207/52 79/208/52
f 81/209/53 82/210/53 80/211/53 79/212/53
f 83/213/54 84/214/54 82/215/54 81/216/54
f 85/217/55 86/218/55 84/219/55 83/220/55
f 87/221/56 88/222/56 86/223/56 85/224/56
f 89/225/57 90/226/57 88/227/57 87/228/57
f 91/229/58 92/230/58 90/231/58 89/232/58
o shaft
v 0 -0.25 0
v 0 0.25 0
v 0.055630625 -0.25 0.25
v 0.055630625 0.25 0.25
v 0.1558725 -0.25 0.200484375
v 0.1558725 0.25 0.200484375
v 0.2252425 -0.25 0.111260625
v 0.2252425 0.25 0.111260625
v 0.25 -0.25 0
v 0.25 0.25 0
v 0.2252425 -0.25 -0.11126
v 0.2252425 0.25 -0.11126
v 0.1558725 -0.25 -0.200484375
v 0.1558725 0.25 -0.200484375
v 0.055630625 -0.25 -0.25
v 0.055630625 0.25 -0.25
v -0.05563 -0.25 0.25
v -0.05563 0.25 0.25
v -0.1558725 -0.25 0.200484375
v -0.1558725 0.25 0.200484375
v -0.225241875 -0.25 0.111260625
v -0.225241875 0.25 0.111260625
v -0.25 -0.25 0
v -0.25 0.25 0
v -0.225241875 -0.25 -0.11126
v -0.225241875 0.25 -0.11126
v -0.1558725 -0.25 -0.200484375
v -0.1558725 0.25 -0.200484375
v -0.05563 -0.25 -0.25
v -0.05563 0.25 -0.25
vt 0.31914046875 0.7686810937499999
vt 0.2943221875 0.7809406249999999
vt 0.28054859375 0.71904390625
vt 0.640625 0.46875
vt 0.703125 0.46875
vt 0.703125 0.65625
vt 0.640625 0.65625
vt 0.2943221875 0.6571471875
vt 0.31914046875 0.6694065625000001
vt 0.28054859375 0.71904390625
vt 0.33631609375 0.74659015625
vt 0.31914046875 0.7686810937499999
vt 0.28054859375 0.71904390625
vt 0.640625 0.46875
vt 0.703125 0.46875
vt 0.703125 0.65625
vt 0.640625 0.65625
vt 0.31914046875 0.6694065625000001
vt 0.33631609375 0.6914975
vt 0.28054859375 0.71904390625
vt 0.640625 0.46875
vt 0.703125 0.46875
vt 0.703125 0.65625
vt 0.640625 0.65625
vt 0.33631609375 0.6914975
vt 0.3424453125 0.71904390625
vt 0.28054859375 0.71904390625
vt 0.33631609375 0.6914975
vt 0.3424453125 0.71904390625
vt 0.28054859375 0.71904390625
vt 0.640625 0.46875
vt 0.703125 0.46875
vt 0.703125 0.65625
vt 0.640625 0.65625
vt 0.3424453125 0.71904390625
vt 0.33631609375 0.74659015625
vt 0.28054859375 0.71904390625
vt 0.31914046875 0.6694065625000001
vt 0.33631609375 0.6914975
vt 0.28054859375 0.71904390625
vt 0.640625 0.46875
vt 0.703125 0.46875
vt 0.703125 0.65625
vt 0.640625 0.65625
vt 0.33631609375 0.74659015625
vt 0.31914046875 0.7686810937499999
vt 0.28054859375 0.71904390625
vt 0.2943221875 0.6571471875
vt 0.31914046875 0.6694065625000001
vt 0.28054859375 0.71904390625
vt 0.640625 0.46875
vt 0.703125 0.46875
vt 0.703125 0.65625
vt 0.640625 0.65625
vt 0.31914046875 0.7686810937499999
vt 0.2943221875 0.7809406249999999
vt 0.28054859375 0.71904390625
vt 0.266621875 0.6571471875
vt 0.2941690625 0.6571471875
vt 0.28039546875 0.71904390625
vt 0.640625 0.46875
vt 0.703125 0.46875
vt 0.703125 0.65625
vt 0.640625 0.65625
vt 0.2941690625 0.7809406249999999
vt 0.266621875 0.7809406249999999
vt 0.28039546875 0.71904390625
vt 0.2941690625 0.7809406249999999
vt 0.266621875 0.7809406249999999
vt 0.28039546875 0.71904390625
vt 0.640625 0.46875
vt 0.703125 0.46875
vt 0.703125 0.65625
vt 0.640625 0.65625
vt 0.266621875 0.6571471875
vt 0.2941690625 0.6571471875
vt 0.28039546875 0.71904390625
vt 0.26677515625 0.7809406249999999
vt 0.241956875 0.7686810937499999
vt 0.28054859375 0.71904390625
vt 0.640625 0.65625
vt 0.640625 0.46875
vt 0.703125 0.46875
vt 0.703125 0.65625
vt 0.241956875 0.6694065625000001
vt 0.26677515625 0.6571471875
vt 0.28054859375 0.71904390625
vt 0.241956875 0.7686810937499999
vt 0.22478125 0.74659015625
vt 0.28054859375 0.71904390625
vt 0.640625 0.65625
vt 0.640625 0.46875
vt 0.703125 0.46875
vt 0.703125 0.65625
vt 0.22478125 0.6914975
vt 0.241956875 0.6694065625000001
vt 0.28054859375 0.71904390625
vt 0.22478125 0.74659015625
vt 0.218651875 0.71904390625
vt 0.28054859375 0.71904390625
vt 0.640625 0.65625
vt 0.640625 0.46875
vt 0.703125 0.46875
vt 0.703125 0.65625
vt 0.218651875 0.71904390625
vt 0.22478125 0.6914975
vt 0.28054859375 0.71904390625
vt 0.218651875 0.71904390625
vt 0.22478125 0.6914975
vt 0.28054859375 0.71904390625
vt 0.640625 0.65625
vt 0.640625 0.46875
vt 0.703125 0.46875
vt 0.703125 0.65625
vt 0.22478125 0.74659015625
vt 0.218651875 0.71904390625
vt 0.28054859375 0.71904390625
vt 0.22478125 0.6914975
vt 0.241956875 0.6694065625000001
vt 0.28054859375 0.71904390625
vt 0.640625 0.65625
vt 0.640625 0.46875
vt 0.703125 0.46875
vt 0.703125 0.65625
vt 0.241956875 0.7686810937499999
vt 0.22478125 0.74659015625
vt 0.28054859375 0.71904390625
vt 0.241956875 0.6694065625000001
vt 0.26677515625 0.6571471875
vt 0.28054859375 0.71904390625
vt 0.640625 0.65625
vt 0.640625 0.46875
vt 0.703125 0.46875
vt 0.703125 0.65625
vt 0.26677515625 0.7809406249999999
vt 0.241956875 0.7686810937499999
vt 0.28054859375 0.71904390625
vt 0.3424453125 0.71904375
vt 0.336315625 0.7465906250000001
vt 0.2803953125 0.71904375
vn 0 -1 0
vn 0.44287712831240733 0 0.896582315918486
vn 0 1 0
vn 0 -1 0
vn 0.7894647627361112 0 0.6137958849634101
vn 0 1 0
vn 0.976125866141811 0 0.21720564782919272
vn 0 1 0
vn 0 -1 0
vn 0.9761256074456062 0 -0.21720681041106044
vn 0 1 0
vn 0 -1 0
vn 0.789466846158833 0 -0.613793205254038
vn 0 1 0
vn 0 -1 0
vn 0.44287712831240733 0 -0.896582315918486
vn 0 1 0
vn 0 -1 0
vn 0 0 -1
vn 0 1 0
vn 0 -1 0
vn 0 0 1
vn 0 1 0
vn 0 -1 0
vn -0.44287490862144135 0 0.8965834123569041
vn 0 1 0
vn 0 -1 0
vn -0.7894674424552186 0 0.6137924382910043
vn 0 1 0
vn 0 -1 0
vn -0.9761247035534144 0 0.21721087245522275
vn 0 1 0
vn 0 -1 0
vn -0.9761244448450722 0 -0.2172120350622856
vn 0 1 0
vn 0 -1 0
vn -0.7894695258616138 0 -0.6137897585784882
vn 0 1 0
vn 0 -1 0
vn -0.44287490862144135 0 -0.8965834123569041
vn 0 1 0
vn 0 -1 0
usemtl m_baa2c184-32bc-0145-c772-8978b846e51f
f 97/233/59 95/234/59 93/235/59
f 95/236/60 97/237/60 98/238/60 96/239/60
f 96/240/61 98/241/61 94/242/61
f 99/243/62 97/244/62 93/245/62
f 97/246/63 99/247/63 100/248/63 98/249/63
f 98/250/64 100/251/64 94/252/64
f 99/253/65 101/254/65 102/255/65 100/256/65
f 100/257/66 102/258/66 94/259/66
f 103/260/67 101/261/67 93/262/67
f 101/263/68 103/264/68 104/265/68 102/266/68
f 102/267/69 104/268/69 94/269/69
f 105/270/70 103/271/70 93/272/70
f 103/273/71 105/274/71 106/275/71 104/276/71
f 104/277/72 106/278/72 94/279/72
f 107/280/73 105/281/73 93/282/73
f 105/283/74 107/284/74 108/285/74 106/286/74
f 106/287/75 108/288/75 94/289/75
f 121/290/76 107/291/76 93/292/76
f 107/293/77 121/294/77 122/295/77 108/296/77
f 108/297/78 122/298/78 94/299/78
f 95/300/79 109/301/79 93/302/79
f 109/303/80 95/304/80 96/305/80 110/306/80
f 110/307/81 96/308/81 94/309/81
f 109/310/82 111/311/82 93/312/82
f 112/313/83 111/314/83 109/315/83 110/316/83
f 112/317/84 110/318/84 94/319/84
f 111/320/85 113/321/85 93/322/85
f 114/323/86 113/324/86 111/325/86 112/326/86
f 114/327/87 112/328/87 94/329/87
f 113/330/88 115/331/88 93/332/88
f 116/333/89 115/334/89 113/335/89 114/336/89
f 116/337/90 114/338/90 94/339/90
f 115/340/91 117/341/91 93/342/91
f 118/343/92 117/344/92 115/345/92 116/346/92
f 118/347/93 116/348/93 94/349/93
f 117/350/94 119/351/94 93/352/94
f 120/353/95 119/354/95 117/355/95 118/356/95
f 120/357/96 118/358/96 94/359/96
f 119/360/97 121/361/97 93/362/97
f 122/363/98 121/364/98 119/365/98 120/366/98
f 122/367/99 120/368/99 94/369/99
f 101/370/100 99/371/100 93/372/100