# Made in Blockbench 5.1.4
mtllib truck_tire.mtl

o tire
v 0.393550625 -0.75 1.46875
v 0.393550625 0.75 1.46875
v 0.223218125 -0.75 0.833061875
v 0.223218125 0.75 0.833061875
v 1.075199375 -0.75 1.075199375
v 1.075199375 0.75 1.075199375
v 0.60984375 -0.75 0.60984375
v 0.60984375 0.75 0.60984375
v 1.46875 -0.75 0.393550625
v 1.46875 0.75 0.393550625
v 0.833061875 -0.75 0.223218125
v 0.833061875 0.75 0.223218125
v 1.46875 -0.75 -0.393550625
v 1.46875 0.75 -0.393550625
v 0.833061875 -0.75 -0.223218125
v 0.833061875 0.75 -0.223218125
v 1.075199375 -0.75 -1.075199375
v 1.075199375 0.75 -1.075199375
v 0.60984375 -0.75 -0.60984375
v 0.60984375 0.75 -0.60984375
v 0.393550625 -0.75 -1.46875
v 0.393550625 0.75 -1.46875
v 0.223218125 -0.75 -0.833061875
v 0.223218125 0.75 -0.833061875
v -0.393550625 -0.75 -1.46875
v -0.393550625 0.75 -1.46875
v -0.223218125 -0.75 -0.833061875
v -0.223218125 0.75 -0.833061875
v -1.075199375 -0.75 -1.075199375
v -1.075199375 0.75 -1.075199375
v -0.60984375 -0.75 -0.60984375
v -0.60984375 0.75 -0.60984375
v -1.46875 -0.75 -0.393550625
v -1.46875 0.75 -0.393550625
v -0.833061875 -0.75 -0.223218125
v -0.833061875 0.75 -0.223218125
v -1.46875 -0.75 0.393550625
v -1.46875 0.75 0.393550625
v -0.833061875 -0.75 0.223218125
v -0.833061875 0.75 0.223218125
v -1.075199375 -0.75 1.075199375
v -1.075199375 0.75 1.075199375
v -0.60984375 -0.75 0.60984375
v -0.60984375 0.75 0.60984375
v -0.393550625 -0.75 1.46875
v -0.393550625 0.75 1.46875
v -0.223218125 -0.75 0.833061875
v -0.223218125 0.75 0.833061875
vt 0.3984375 0.7421875
vt 0.3984375 0.640625
vt 0.5859375 0.640625
vt 0.5859375 0.7421875
vt 0.5859375 0.6875
vt 0.5859375 0.7421875
vt 0.3984375 0.7421875
vt 0.3984375 0.6875
vt 0.227121015625 0.912726484375
vt 0.27544921875 0.88482421875
vt 0.333618671875 0.942993671875
vt 0.248412578125 0.9921875
vt 0.248412578125 0.625
vt 0.333618671875 0.674193828125
vt 0.27544921875 0.73236328125
vt 0.227121015625 0.704461015625
vt 0.3984375 0.7421875
vt 0.3984375 0.640625
vt 0.5859375 0.640625
vt 0.5859375 0.7421875
vt 0.5859375 0.6875
vt 0.5859375 0.7421875
vt 0.3984375 0.7421875
vt 0.3984375 0.6875
vt 0.27544921875 0.88482421875
vt 0.303351484375 0.836496015625
vt 0.3828125 0.857787578125
vt 0.333618671875 0.942993671875
vt 0.333618671875 0.674193828125
vt 0.3828125 0.759399921875
vt 0.303351484375 0.780691484375
vt 0.27544921875 0.73236328125
vt 0.3984375 0.7421875
vt 0.3984375 0.640625
vt 0.5859375 0.640625
vt 0.5859375 0.7421875
vt 0.5859375 0.6875
vt 0.5859375 0.7421875
vt 0.3984375 0.7421875
vt 0.3984375 0.6875
vt 0.303351484375 0.836496015625
vt 0.303351484375 0.780691484375
vt 0.3828125 0.759399921875
vt 0.3828125 0.857787578125
vt 0.3828125 0.759399921875
vt 0.3828125 0.857787578125
vt 0.303351484375 0.836496015625
vt 0.303351484375 0.780691484375
vt 0.3984375 0.7421875
vt 0.3984375 0.640625
vt 0.5859375 0.640625
vt 0.5859375 0.7421875
vt 0.5859375 0.6875
vt 0.5859375 0.7421875
vt 0.3984375 0.7421875
vt 0.3984375 0.6875
vt 0.303351484375 0.780691484375
vt 0.27544921875 0.73236328125
vt 0.333618671875 0.674193828125
vt 0.3828125 0.759399921875
vt 0.3828125 0.857787578125
vt 0.333618671875 0.942993671875
vt 0.27544921875 0.88482421875
vt 0.303351484375 0.836496015625
vt 0.3984375 0.7421875
vt 0.3984375 0.640625
vt 0.5859375 0.640625
vt 0.5859375 0.7421875
vt 0.5859375 0.6875
vt 0.5859375 0.7421875
vt 0.3984375 0.7421875
vt 0.3984375 0.6875
vt 0.27544921875 0.73236328125
vt 0.227121015625 0.704461015625
vt 0.248412578125 0.625
vt 0.333618671875 0.674193828125
vt 0.333618671875 0.942993671875
vt 0.248412578125 0.9921875
vt 0.227121015625 0.912726484375
vt 0.27544921875 0.88482421875
vt 0.3984375 0.7421875
vt 0.3984375 0.640625
vt 0.5859375 0.640625
vt 0.5859375 0.7421875
vt 0.5859375 0.6875
vt 0.5859375 0.7421875
vt 0.3984375 0.7421875
vt 0.3984375 0.6875
vt 0.227121015625 0.704461015625
vt 0.171316484375 0.704461015625
vt 0.150024921875 0.625
vt 0.248412578125 0.625
vt 0.248412578125 0.9921875
vt 0.150024921875 0.9921875
vt 0.171316484375 0.912726484375
vt 0.227121015625 0.912726484375
vt 0.3984375 0.7421875
vt 0.3984375 0.640625
vt 0.5859375 0.640625
vt 0.5859375 0.7421875
vt 0.5859375 0.6875
vt 0.5859375 0.7421875
vt 0.3984375 0.7421875
vt 0.3984375 0.6875
vt 0.171316484375 0.704461015625
vt 0.12298828125 0.73236328125
vt 0.064818828125 0.674193828125
vt 0.150024921875 0.625
vt 0.150024921875 0.9921875
vt 0.064818828125 0.942993671875
vt 0.12298828125 0.88482421875
vt 0.171316484375 0.912726484375
vt 0.3984375 0.7421875
vt 0.3984375 0.640625
vt 0.5859375 0.640625
vt 0.5859375 0.7421875
vt 0.5859375 0.6875
vt 0.5859375 0.7421875
vt 0.3984375 0.7421875
vt 0.3984375 0.6875
vt 0.12298828125 0.73236328125
vt 0.095086015625 0.780691484375
vt 0.015625 0.759399921875
vt 0.064818828125 0.674193828125
vt 0.064818828125 0.942993671875
vt 0.015625 0.857787578125
vt 0.095086015625 0.836496015625
vt 0.12298828125 0.88482421875
vt 0.3984375 0.7421875
vt 0.3984375 0.640625
vt 0.5859375 0.640625
vt 0.5859375 0.7421875
vt 0.5859375 0.6875
vt 0.5859375 0.7421875
vt 0.3984375 0.7421875
vt 0.3984375 0.6875
vt 0.095086015625 0.780691484375
vt 0.095086015625 0.836496015625
vt 0.015625 0.857787578125
vt 0.015625 0.759399921875
vt 0.015625 0.857787578125
vt 0.015625 0.759399921875
vt 0.095086015625 0.780691484375
vt 0.095086015625 0.836496015625
vt 0.3984375 0.7421875
vt 0.3984375 0.640625
vt 0.5859375 0.640625
vt 0.5859375 0.7421875
vt 0.5859375 0.6875
vt 0.5859375 0.7421875
vt 0.3984375 0.7421875
vt 0.3984375 0.6875
vt 0.095086015625 0.836496015625
vt 0.12298828125 0.88482421875
vt 0.064818828125 0.942993671875
vt 0.015625 0.857787578125
vt 0.015625 0.759399921875
vt 0.064818828125 0.674193828125
vt 0.12298828125 0.73236328125
vt 0.095086015625 0.780691484375
vt 0.3984375 0.7421875
vt 0.3984375 0.640625
vt 0.5859375 0.640625
vt 0.5859375 0.7421875
vt 0.5859375 0.6875
vt 0.5859375 0.7421875
vt 0.3984375 0.7421875
vt 0.3984375 0.6875
vt 0.12298828125 0.88482421875
vt 0.171316484375 0.912726484375
vt 0.150024921875 0.9921875
vt 0.064818828125 0.942993671875
vt 0.064818828125 0.674193828125
vt 0.150024921875 0.625
vt 0.171316484375 0.704461015625
vt 0.12298828125 0.73236328125
vt 0.3984375 0.7421875
vt 0.3984375 0.640625
vt 0.5859375 0.640625
vt 0.5859375 0.7421875
vt 0.5859375 0.6875
vt 0.5859375 0.7421875
vt 0.3984375 0.7421875
vt 0.3984375 0.6875
vt 0.171316484375 0.912726484375
vt 0.227121015625 0.912726484375
vt 0.248412578125 0.9921875
vt 0.150024921875 0.9921875
vt 0.150024921875 0.625
vt 0.248412578125 0.625
vt 0.227121015625 0.704461015625
vt 0.171316484375 0.704461015625
vn 0.5000005104443526 0 0.8660251090790538
vn -0.4999995234440549 0 -0.8660256789239671
vn 0 -1 0
vn 0 1 0
vn 0.8660251090790538 0 0.5000005104443526
vn -0.8660256789239671 0 -0.4999995234440549
vn 0 -1 0
vn 0 1 0
vn 1 0 0
vn -1 0 0
vn 0 -1 0
vn 0 1 0
vn 0.8660251090790538 0 -0.5000005104443526
vn -0.8660256789239671 0 0.4999995234440549
vn 0 -1 0
vn 0 1 0
vn 0.5000005104443526 0 -0.8660251090790538
vn -0.4999995234440549 0 0.8660256789239671
vn 0 -1 0
vn 0 1 0
vn 0 0 -1
vn 0 0 1
vn 0 -1 0
vn 0 1 0
vn -0.5000005104443526 0 -0.8660251090790538
vn 0.4999995234440549 0 0.8660256789239671
vn 0 -1 0
vn 0 1 0
vn -0.8660251090790538 0 -0.5000005104443526
vn 0.8660256789239671 0 0.4999995234440549
vn 0 -1 0
vn 0 1 0
vn -1 0 0
vn 1 0 0
vn 0 -1 0
vn 0 1 0
vn -0.8660251090790538 0 0.5000005104443526
vn 0.8660256789239671 0 -0.4999995234440549
vn 0 -1 0
vn 0 1 0
vn -0.5000005104443526 0 0.8660251090790538
vn 0.4999995234440549 0 -0.8660256789239671
vn 0 -1 0
vn 0 1 0
vn 0 0 1
vn 0 0 -1
vn 0 -1 0
vn 0 1 0
usemtl m_8b7b66d4-9892-45ec-2e1f-7f3703d17d3e
f 1/1/1 5/2/1 6/3/1 2/4/1
f 4/5/2 8/6/2 7/7/2 3/8/2
f 3/9/3 7/10/3 5/11/3 1/12/3
f 2/13/4 6/14/4 8/15/4 4/16/4
f 5/17/5 9/18/5 10/19/5 6/20/5
f 8/21/6 12/22/6 11/23/6 7/24/6
f 7/25/7 11/26/7 9/27/7 5/28/7
f 6/29/8 10/30/8 12/31/8 8/32/8
f 9/33/9 13/34/9 14/35/9 10/36/9
f 12/37/10 16/38/10 15/39/10 11/40/10
f 11/41/11 15/42/11 13/43/11 9/44/11
f 10/45/12 14/46/12 16/47/12 12/48/12
f 13/49/13 17/50/13 18/51/13 14/52/13
f 16/53/14 20/54/14 19/55/14 15/56/14
f 15/57/15 19/58/15 17/59/15 13/60/15
f 14/61/16 18/62/16 20/63/16 16/64/16
f 17/65/17 21/66/17 22/67/17 18/68/17
f 20/69/18 24/70/18 23/71/18 19/72/18
f 19/73/19 23/74/19 21/75/19 17/76/19
f 18/77/20 22/78/20 24/79/20 20/80/20
f 21/81/21 25/82/21 26/83/21 22/84/21
f 24/85/22 28/86/22 27/87/22 23/88/22
f 23/89/23 27/90/23 25/91/23 21/92/23
f 22/93/24 26/94/24 28/95/24 24/96/24
f 25/97/25 29/98/25 30/99/25 26/100/25
f 28/101/26 32/102/26 31/103/26 27/104/26
f 27/105/27 31/106/27 29/107/27 25/108/27
f 26/109/28 30/110/28 32/111/28 28/112/28
f 29/113/29 33/114/29 34/115/29 30/116/29
f 32/117/30 36/118/30 35/119/30 31/120/30
f 31/121/31 35/122/31 33/123/31 29/124/31
f 30/125/32 34/126/32 36/127/32 32/128/32
f 33/129/33 37/130/33 38/131/33 34/132/33
f 36/133/34 40/134/34 39/135/34 35/136/34
f 35/137/35 39/138/35 37/139/35 33/140/35
f 34/141/36 38/142/36 40/143/36 36/144/36
f 37/145/37 41/146/37 42/147/37 38/148/37
f 40/149/38 44/150/38 43/151/38 39/152/38
f 39/153/39 43/154/39 41/155/39 37/156/39
f 38/157/40 42/158/40 44/159/40 40/160/40
f 41/161/41 45/162/41 46/163/41 42/164/41
f 44/165/42 48/166/42 47/167/42 43/168/42
f 43/169/43 47/170/43 45/171/43 41/172/43
f 42/173/44 46/174/44 48/175/44 44/176/44
f 45/177/45 1/178/45 2/179/45 46/180/45
f 48/181/46 4/182/46 3/183/46 47/184/46
f 47/185/47 3/186/47 1/187/47 45/188/47
f 46/189/48 2/190/48 4/191/48 48/192/48
o rim
v -1 0.3125 1
v -1 0.3125 -1
v -1 -0.3125 1
v -1 -0.3125 -1
v 1 0.3125 1
v 1 0.3125 -1
v 1 -0.3125 1
v 1 -0.3125 -1
vt 0.3671875 0.54052734375
vt 0.3671875 0.6015625
vt 0.171875 0.6015625
vt 0.171875 0.54052734375
vt 0.3984375 0.75
vt 0.6484375 0.75
vt 0.6484375 1
vt 0.3984375 1
vt 0.6484375 0.75
vt 0.6484375 1
vt 0.3984375 1
vt 0.3984375 0.75
vt 0.3671875 0.54052734375
vt 0.3671875 0.6015625
vt 0.171875 0.6015625
vt 0.171875 0.54052734375
vt 0.3671875 0.6015625
vt 0.171875 0.6015625
vt 0.171875 0.54052734375
vt 0.3671875 0.54052734375
vt 0.3671875 0.6015625
vt 0.171875 0.6015625
vt 0.171875 0.54052734375
vt 0.3671875 0.54052734375
vn -1 0 0
vn 0 1 0
vn 0 -1 0
vn 0 0 1
vn 0 0 -1
vn 1 0 0
usemtl m_8b7b66d4-9892-45ec-2e1f-7f3703d17d3e
f 51/193/49 49/194/49 50/195/49 52/196/49
f 49/197/50 53/198/50 54/199/50 50/200/50
f 56/201/51 55/202/51 51/203/51 52/204/51
f 55/205/52 53/206/52 49/207/52 51/208/52
f 50/209/53 54/210/53 56/211/53 52/212/53
f 54/213/54 53/214/54 55/215/54 56/216/54
o rim
v 0 -0.46875 0
v 0 0.53125 0
v 0.129441875 -0.46875 0.3125
v 0.129441875 0.53125 0.3125
v 0.3125 -0.46875 0.129441875
v 0.3125 0.53125 0.129441875
v 0.3125 -0.46875 -0.129441875
v 0.3125 0.53125 -0.129441875
v 0.129441875 -0.46875 -0.3125
v 0.129441875 0.53125 -0.3125
v -0.129441875 -0.46875 -0.3125
v -0.129441875 0.53125 -0.3125
v -0.3125 -0.46875 -0.129441875
v -0.3125 0.53125 -0.129441875
v -0.3125 -0.46875 0.129441875
v -0.3125 0.53125 0.129441875
v -0.129441875 -0.46875 0.3125
v -0.129441875 0.53125 0.3125
vt 0.203125 0.85211796875
vt 0.18024296875 0.875
vt 0.1640625 0.8359375
vt 0.21875 0.75
vt 0.25 0.75
vt 0.25 0.875
vt 0.21875 0.875
vt 0.18024296875 0.796875
vt 0.203125 0.81975703125
vt 0.1640625 0.8359375
vt 0.203125 0.81975703125
vt 0.203125 0.85211796875
vt 0.1640625 0.8359375
vt 0.21875 0.75
vt 0.25 0.75
vt 0.25 0.875
vt 0.21875 0.875
vt 0.203125 0.81975703125
vt 0.203125 0.85211796875
vt 0.1640625 0.8359375
vt 0.18024296875 0.796875
vt 0.203125 0.81975703125
vt 0.1640625 0.8359375
vt 0.21875 0.75
vt 0.25 0.75
vt 0.25 0.875
vt 0.21875 0.875
vt 0.203125 0.85211796875
vt 0.18024296875 0.875
vt 0.1640625 0.8359375
vt 0.14788203125 0.796875
vt 0.18024296875 0.796875
vt 0.1640625 0.8359375
vt 0.21875 0.75
vt 0.25 0.75
vt 0.25 0.875
vt 0.21875 0.875
vt 0.18024296875 0.875
vt 0.14788203125 0.875
vt 0.1640625 0.8359375
vt 0.125 0.81975703125
vt 0.14788203125 0.796875
vt 0.1640625 0.8359375
vt 0.21875 0.75
vt 0.25 0.75
vt 0.25 0.875
vt 0.21875 0.875
vt 0.14788203125 0.875
vt 0.125 0.85211796875
vt 0.1640625 0.8359375
vt 0.125 0.85211796875
vt 0.125 0.81975703125
vt 0.1640625 0.8359375
vt 0.21875 0.75
vt 0.25 0.75
vt 0.25 0.875
vt 0.21875 0.875
vt 0.125 0.85211796875
vt 0.125 0.81975703125
vt 0.1640625 0.8359375
vt 0.14788203125 0.875
vt 0.125 0.85211796875
vt 0.1640625 0.8359375
vt 0.21875 0.75
vt 0.25 0.75
vt 0.25 0.875
vt 0.21875 0.875
vt 0.125 0.81975703125
vt 0.14788203125 0.796875
vt 0.1640625 0.8359375
vt 0.18024296875 0.875
vt 0.14788203125 0.875
vt 0.1640625 0.8359375
vt 0.21875 0.75
vt 0.25 0.75
vt 0.25 0.875
vt 0.21875 0.875
vt 0.14788203125 0.796875
vt 0.18024296875 0.796875
vt 0.1640625 0.8359375
vn 0 -1 0
vn 0.7071067811865476 0 0.7071067811865476
vn 0 1 0
vn 0 -1 0
vn 1 0 0
vn 0 1 0
vn 0 -1 0
vn 0.7071067811865476 0 -0.7071067811865476
vn 0 1 0
vn 0 -1 0
vn 0 0 -1
vn 0 1 0
vn 0 -1 0
vn -0.7071067811865476 0 -0.7071067811865476
vn 0 1 0
vn 0 -1 0
vn -1 0 0
vn 0 1 0
vn 0 -1 0
vn -0.7071067811865476 0 0.7071067811865476
vn 0 1 0
vn 0 -1 0
vn 0 0 1
vn 0 1 0
usemtl m_8b7b66d4-9892-45ec-2e1f-7f3703d17d3e
f 61/217/55 59/218/55 57/219/55
f 59/220/56 61/221/56 62/222/56 60/223/56
f 60/224/57 62/225/57 58/226/57
f 63/227/58 61/228/58 57/229/58
f 61/230/59 63/231/59 64/232/59 62/233/59
f 62/234/60 64/235/60 58/236/60
f 65/237/61 63/238/61 57/239/61
f 63/240/62 65/241/62 66/242/62 64/243/62
f 64/244/63 66/245/63 58/246/63
f 67/247/64 65/248/64 57/249/64
f 65/250/65 67/251/65 68/252/65 66/253/65
f 66/254/66 68/255/66 58/256/66
f 69/257/67 67/258/67 57/259/67
f 67/260/68 69/261/68 70/262/68 68/263/68
f 68/264/69 70/265/69 58/266/69
f 71/267/70 69/268/70 57/269/70
f 69/270/71 71/271/71 72/272/71 70/273/71
f 70/274/72 72/275/72 58/276/72
f 73/277/73 71/278/73 57/279/73
f 71/280/74 73/281/74 74/282/74 72/283/74
f 72/284/75 74/285/75 58/286/75
f 59/287/76 73/288/76 57/289/76
f 73/290/77 59/291/77 60/292/77 74/293/77
f 74/294/78 60/295/78 58/296/78
o rim
v 0.34375 0.578125 0.03125
v 0.34375 0.578125 -0.03125
v 0.34375 -0.515625 0.03125
v 0.34375 -0.515625 -0.03125
v 0.28125 0.578125 0.03125
v 0.28125 0.578125 -0.03125
v 0.28125 -0.515625 0.03125
v 0.28125 -0.515625 -0.03125
vt 0.0078125 1
vt 0 1
vt 0 0.859375
vt 0.0078125 0.859375
vt 0.0078125 0.859375
vt 0.0078125 1
vt 0 1
vt 0 0.859375
vt 0.015625 0.9921875
vt 0.0234375 0.9921875
vt 0.0234375 1
vt 0.015625 1
vt 0.0234375 0.9921875
vt 0.0234375 1
vt 0.015625 1
vt 0.015625 0.9921875
vt 0.0078125 0.859375
vt 0.0078125 1
vt 0 1
vt 0 0.859375
vt 0.0078125 1
vt 0 1
vt 0 0.859375
vt 0.0078125 0.859375
vn 1 0 0
vn -1 0 0
vn 0 1 0
vn 0 -1 0
vn 0 0 1
vn 0 0 -1
usemtl m_8b7b66d4-9892-45ec-2e1f-7f3703d17d3e
f 76/297/79 75/298/79 77/299/79 78/300/79
f 81/301/80 79/302/80 80/303/80 82/304/80
f 79/305/81 75/306/81 76/307/81 80/308/81
f 78/309/82 77/310/82 81/311/82 82/312/82
f 77/313/83 75/314/83 79/315/83 81/316/83
f 80/317/84 76/318/84 78/319/84 82/320/84
o rim
v -0.28125 0.578125 0.03125
v -0.28125 0.578125 -0.03125
v -0.28125 -0.515625 0.03125
v -0.28125 -0.515625 -0.03125
v -0.34375 0.578125 0.03125
v -0.34375 0.578125 -0.03125
v -0.34375 -0.515625 0.03125
v -0.34375 -0.515625 -0.03125
vt 0.0078125 1
vt 0 1
vt 0 0.859375
vt 0.0078125 0.859375
vt 0.0078125 0.859375
vt 0.0078125 1
vt 0 1
vt 0 0.859375
vt 0.015625 0.9921875
vt 0.0234375 0.9921875
vt 0.0234375 1
vt 0.015625 1
vt 0.0234375 0.9921875
vt 0.0234375 1
vt 0.015625 1
vt 0.015625 0.9921875
vt 0.0078125 0.859375
vt 0.0078125 1
vt 0 1
vt 0 0.859375
vt 0.0078125 1
vt 0 1
vt 0 0.859375
vt 0.0078125 0.859375
vn 1 0 0
vn -1 0 0
vn 0 1 0
vn 0 -1 0
vn 0 0 1
vn 0 0 -1
usemtl m_8b7b66d4-9892-45ec-2e1f-7f3703d17d3e
f 84/321/85 83/322/85 85/323/85 86/324/85
f 89/325/86 87/326/86 88/327/86 90/328/86
f 87/329/87 83/330/87 84/331/87 88/332/87
f 86/333/88 85/334/88 89/335/88 90/336/88
f 85/337/89 83/338/89 87/339/89 89/340/89
f 88/341/90 84/342/90 86/343/90 90/344/90
o rim
v 0.031249999999999938 0.578125 0.28125
v -0.03125000000000006 0.578125 0.28125
v 0.031249999999999938 -0.515625 0.28125
v -0.03125000000000006 -0.515625 0.28125
v 0.031249999999999924 0.578125 0.34375
v -0.031250000000000076 0.578125 0.34375
v 0.031249999999999924 -0.515625 0.34375
v -0.031250000000000076 -0.515625 0.34375
vt 0.0078125 1
vt 0 1
vt 0 0.859375
vt 0.0078125 0.859375
vt 0.0078125 0.859375
vt 0.0078125 1
vt 0 1
vt 0 0.859375
vt 0.015625 0.9921875
vt 0.0234375 0.9921875
vt 0.0234375 1
vt 0.015625 1
vt 0.0234375 0.9921875
vt 0.0234375 1
vt 0.015625 1
vt 0.015625 0.9921875
vt 0.0078125 0.859375
vt 0.0078125 1
vt 0 1
vt 0 0.859375
vt 0.0078125 1
vt 0 1
vt 0 0.859375
vt 0.0078125 0.859375
vn 2.220446049250313e-16 0 -1
vn -2.220446049250313e-16 0 1
vn 0 1 0
vn 0 -1 0
vn 1 0 2.220446049250313e-16
vn -1 0 -2.220446049250313e-16
usemtl m_8b7b66d4-9892-45ec-2e1f-7f3703d17d3e
f 92/345/91 91/346/91 93/347/91 94/348/91
f 97/349/92 95/350/92 96/351/92 98/352/92
f 95/353/93 91/354/93 92/355/93 96/356/93
f 94/357/94 93/358/94 97/359/94 98/360/94
f 93/361/95 91/362/95 95/363/95 97/364/95
f 96/365/96 92/366/96 94/367/96 98/368/96
o rim
v -0.03125000000000006 0.578125 -0.28125
v 0.031249999999999938 0.578125 -0.28125
v -0.03125000000000006 -0.515625 -0.28125
v 0.031249999999999938 -0.515625 -0.28125
v -0.031250000000000076 0.578125 -0.34375
v 0.031249999999999924 0.578125 -0.34375
v -0.031250000000000076 -0.515625 -0.34375
v 0.031249999999999924 -0.515625 -0.34375
vt 0.0078125 1
vt 0 1
vt 0 0.859375
vt 0.0078125 0.859375
vt 0.0078125 0.859375
vt 0.0078125 1
vt 0 1
vt 0 0.859375
vt 0.015625 0.9921875
vt 0.0234375 0.9921875
vt 0.0234375 1
vt 0.015625 1
vt 0.0234375 0.9921875
vt 0.0234375 1
vt 0.015625 1
vt 0.015625 0.9921875
vt 0.0078125 0.859375
vt 0.0078125 1
vt 0 1
vt 0 0.859375
vt 0.0078125 1
vt 0 1
vt 0 0.859375
vt 0.0078125 0.859375
vn 2.220446049250313e-16 0 1
vn -2.220446049250313e-16 0 -1
vn 0 1 0
vn 0 -1 0
vn -1 0 2.220446049250313e-16
vn 1 0 -2.220446049250313e-16
usemtl m_8b7b66d4-9892-45ec-2e1f-7f3703d17d3e
f 100/369/97 99/370/97 101/371/97 102/372/97
f 105/373/98 103/374/98 104/375/98 106/376/98
f 103/377/99 99/378/99 100/379/99 104/380/99
f 102/381/100 101/382/100 105/383/100 106/384/100
f 101/385/101 99/386/101 103/387/101 105/388/101
f 104/389/102 100/390/102 102/391/102 106/392/102
o rim
v 0.234455625 -0.8125 0.875
v 0.234455625 0.8125 0.875
v 0.2092325 -0.8125 0.780866875
v 0.2092325 0.8125 0.780866875
v 0.640544375 -0.8125 0.640544375
v 0.640544375 0.8125 0.640544375
v 0.571634375 -0.8125 0.571634375
v 0.571634375 0.8125 0.571634375
v 0.875 -0.8125 0.234455625
v 0.875 0.8125 0.234455625
v 0.780866875 -0.8125 0.2092325
v 0.780866875 0.8125 0.2092325
v 0.875 -0.8125 -0.234455625
v 0.875 0.8125 -0.234455625
v 0.780866875 -0.8125 -0.2092325
v 0.780866875 0.8125 -0.2092325
v 0.640544375 -0.8125 -0.640544375
v 0.640544375 0.8125 -0.640544375
v 0.571634375 -0.8125 -0.571634375
v 0.571634375 0.8125 -0.571634375
v 0.234455625 -0.8125 -0.875
v 0.234455625 0.8125 -0.875
v 0.2092325 -0.8125 -0.780866875
v 0.2092325 0.8125 -0.780866875
v -0.234455625 -0.8125 -0.875
v -0.234455625 0.8125 -0.875
v -0.2092325 -0.8125 -0.780866875
v -0.2092325 0.8125 -0.780866875
v -0.640544375 -0.8125 -0.640544375
v -0.640544375 0.8125 -0.640544375
v -0.571634375 -0.8125 -0.571634375
v -0.571634375 0.8125 -0.571634375
v -0.875 -0.8125 -0.234455625
v -0.875 0.8125 -0.234455625
v -0.780866875 -0.8125 -0.2092325
v -0.780866875 0.8125 -0.2092325
v -0.875 -0.8125 0.234455625
v -0.875 0.8125 0.234455625
v -0.780866875 -0.8125 0.2092325
v -0.780866875 0.8125 0.2092325
v -0.640544375 -0.8125 0.640544375
v -0.640544375 0.8125 0.640544375
v -0.571634375 -0.8125 0.571634375
v -0.571634375 0.8125 0.571634375
v -0.234455625 -0.8125 0.875
v -0.234455625 0.8125 0.875
v -0.2092325 -0.8125 0.780866875
v -0.2092325 0.8125 0.780866875
vt 0.5859375 0.5390625
vt 0.5859375 0.6015625
vt 0.3828125 0.6015625
vt 0.3828125 0.5390625
vt 0.6484375 0.7421875
vt 0.59375 0.7421875
vt 0.59375 0.5390625
vt 0.6484375 0.5390625
vt 0.13617421875 0.7578125
vt 0.191950625 0.7578125
vt 0.1953125 0.7734375
vt 0.1328125 0.773436796875
vt 0.1328125 0.7734375
vt 0.1953125 0.7734375
vt 0.191950078125 0.757812734375
vt 0.1361740625 0.7578125
vt 0.5859375 0.5390625
vt 0.5859375 0.6015625
vt 0.3828125 0.6015625
vt 0.3828125 0.5390625
vt 0.6484375 0.7421875
vt 0.59375 0.7421875
vt 0.59375 0.5390625
vt 0.6484375 0.5390625
vt 0.136174375 0.7578125
vt 0.19195078125 0.7578125
vt 0.1953125 0.773436796875
vt 0.1328125 0.7734375
vt 0.1328125 0.7734375
vt 0.1953125 0.7734375
vt 0.1919509375 0.757812578125
vt 0.13617375 0.7578125
vt 0.5859375 0.5390625
vt 0.5859375 0.6015625
vt 0.3828125 0.6015625
vt 0.3828125 0.5390625
vt 0.6484375 0.7421875
vt 0.59375 0.7421875
vt 0.59375 0.5390625
vt 0.6484375 0.5390625
vt 0.1361746875 0.7578125
vt 0.1919503125 0.7578125
vt 0.1953125 0.7734375
vt 0.1328125 0.7734375
vt 0.1953125 0.7734375
vt 0.1328125 0.7734375
vt 0.1361746875 0.7578125
vt 0.1919503125 0.7578125
vt 0.5859375 0.5390625
vt 0.5859375 0.6015625
vt 0.3828125 0.6015625
vt 0.3828125 0.5390625
vt 0.6484375 0.7421875
vt 0.59375 0.7421875
vt 0.59375 0.5390625
vt 0.6484375 0.5390625
vt 0.19195109375 0.7578125
vt 0.136174296875 0.7578125
vt 0.1328125 0.773436640625
vt 0.1953125 0.7734375
vt 0.1953125 0.7734375
vt 0.1328125 0.7734375
vt 0.136174921875 0.757812734375
vt 0.1919509375 0.7578125
vt 0.5859375 0.5390625
vt 0.5859375 0.6015625
vt 0.3828125 0.6015625
vt 0.3828125 0.5390625
vt 0.6484375 0.7421875
vt 0.59375 0.7421875
vt 0.59375 0.5390625
vt 0.6484375 0.5390625
vt 0.191950703125 0.7578125
vt 0.13617390625 0.7578125
vt 0.1328125 0.7734375
vt 0.1953125 0.773436640625
vt 0.1953125 0.7734375
vt 0.1328125 0.7734375
vt 0.1361740625 0.757812578125
vt 0.19195125 0.7578125
vt 0.5859375 0.5390625
vt 0.5859375 0.6015625
vt 0.3828125 0.6015625
vt 0.3828125 0.5390625
vt 0.6484375 0.7421875
vt 0.59375 0.7421875
vt 0.59375 0.5390625
vt 0.6484375 0.5390625
vt 0.1919503125 0.7578125
vt 0.1361746875 0.7578125
vt 0.1328125 0.7734375
vt 0.1953125 0.7734375
vt 0.1953125 0.7734375
vt 0.1328125 0.7734375
vt 0.1361746875 0.7578125
vt 0.1919503125 0.7578125
vt 0.5859375 0.5390625
vt 0.5859375 0.6015625
vt 0.3828125 0.6015625
vt 0.3828125 0.5390625
vt 0.6484375 0.7421875
vt 0.59375 0.7421875
vt 0.59375 0.5390625
vt 0.6484375 0.5390625
vt 0.136173984375 0.7578125
vt 0.191950078125 0.7578125
vt 0.1953125 0.7734371875
vt 0.1328125 0.7734375
vt 0.1953125 0.7734375
vt 0.1328125 0.7734375
vt 0.136174921875 0.757812734375
vt 0.1919509375 0.7578125
vt 0.5859375 0.5390625
vt 0.5859375 0.6015625
vt 0.3828125 0.6015625
vt 0.3828125 0.5390625
vt 0.6484375 0.7421875
vt 0.59375 0.7421875
vt 0.59375 0.5390625
vt 0.6484375 0.5390625
vt 0.13617375 0.7578125
vt 0.1919509375 0.7578125
vt 0.1953125 0.77343734375
vt 0.1328125 0.7734375
vt 0.1953125 0.7734375
vt 0.1328125 0.7734375
vt 0.1361740625 0.757812578125
vt 0.19195125 0.7578125
vt 0.5859375 0.5390625
vt 0.5859375 0.6015625
vt 0.3828125 0.6015625
vt 0.3828125 0.5390625
vt 0.6484375 0.7421875
vt 0.59375 0.7421875
vt 0.59375 0.5390625
vt 0.6484375 0.5390625
vt 0.1361746875 0.7578125
vt 0.1919503125 0.7578125
vt 0.1953125 0.7734375
vt 0.1328125 0.7734375
vt 0.1953125 0.7734375
vt 0.1328125 0.7734375
vt 0.1361746875 0.7578125
vt 0.1919503125 0.7578125
vt 0.5859375 0.5390625
vt 0.5859375 0.6015625
vt 0.3828125 0.6015625
vt 0.3828125 0.5390625
vt 0.6484375 0.7421875
vt 0.59375 0.7421875
vt 0.59375 0.5390625
vt 0.6484375 0.5390625
vt 0.136173984375 0.7578125
vt 0.191950078125 0.7578125
vt 0.1953125 0.7734371875
vt 0.1328125 0.7734375
vt 0.1953125 0.7734375
vt 0.1328125 0.7734375
vt 0.136174921875 0.757812734375
vt 0.1919509375 0.7578125
vt 0.5859375 0.5390625
vt 0.5859375 0.6015625
vt 0.3828125 0.6015625
vt 0.3828125 0.5390625
vt 0.6484375 0.7421875
vt 0.59375 0.7421875
vt 0.59375 0.5390625
vt 0.6484375 0.5390625
vt 0.13617375 0.7578125
vt 0.1919509375 0.7578125
vt 0.1953125 0.77343734375
vt 0.1328125 0.7734375
vt 0.1953125 0.7734375
vt 0.1328125 0.7734375
vt 0.1361740625 0.757812578125
vt 0.19195125 0.7578125
vt 0.5859375 0.5390625
vt 0.5859375 0.6015625
vt 0.3828125 0.6015625
vt 0.3828125 0.5390625
vt 0.6484375 0.7421875
vt 0.59375 0.7421875
vt 0.59375 0.5390625
vt 0.6484375 0.5390625
vt 0.1361746875 0.7578125
vt 0.1919503125 0.7578125
vt 0.1953125 0.7734375
vt 0.1328125 0.7734375
vt 0.1328125 0.7734375
vt 0.1953125 0.7734375
vt 0.1919503125 0.7578125
vt 0.1361746875 0.7578125
vn 0.5000002812995589 0 0.8660252413760017
vn -0.49999942632161143 0 -0.8660257349975574
vn 0 -1 0
vn 0 1 0
vn 0.8660252413760017 0 0.5000002812995589
vn -0.8660257349975574 0 -0.49999942632161143
vn 0 -1 0
vn 0 1 0
vn 1 0 0
vn -1 0 0
vn 0 -1 0
vn 0 1 0
vn 0.8660252413760017 0 -0.5000002812995589
vn -0.8660257349975574 0 0.49999942632161143
vn 0 -1 0
vn 0 1 0
vn 0.5000002812995589 0 -0.8660252413760017
vn -0.49999942632161143 0 0.8660257349975574
vn 0 -1 0
vn 0 1 0
vn 0 0 -1
vn 0 0 1
vn 0 -1 0
vn 0 1 0
vn -0.5000002812995589 0 -0.8660252413760017
vn 0.49999942632161143 0 0.8660257349975574
vn 0 -1 0
vn 0 1 0
vn -0.8660252413760017 0 -0.5000002812995589
vn 0.8660257349975574 0 0.49999942632161143
vn 0 -1 0
vn 0 1 0
vn -1 0 0
vn 1 0 0
vn 0 -1 0
vn 0 1 0
vn -0.8660252413760017 0 0.5000002812995589
vn 0.8660257349975574 0 -0.49999942632161143
vn 0 -1 0
vn 0 1 0
vn -0.5000002812995589 0 0.8660252413760017
vn 0.49999942632161143 0 -0.8660257349975574
vn 0 -1 0
vn 0 1 0
vn 0 0 1
vn 0 0 -1
vn 0 -1 0
vn 0 1 0
usemtl m_8b7b66d4-9892-45ec-2e1f-7f3703d17d3e
f 107/393/103 111/394/103 112/395/103 108/396/103
f 110/397/104 114/398/104 113/399/104 109/400/104
f 109/401/105 113/402/105 111/403/105 107/404/105
f 108/405/106 112/406/106 114/407/106 110/408/106
f 111/409/107 115/410/107 116/411/107 112/412/107
f 114/413/108 118/414/108 117/415/108 113/416/108
f 113/417/109 117/418/109 115/419/109 111/420/109
f 112/421/110 116/422/110 118/423/110 114/424/110
f 115/425/111 119/426/111 120/427/111 116/428/111
f 118/429/112 122/430/112 121/431/112 117/432/112
f 117/433/113 121/434/113 119/435/113 115/436/113
f 116/437/114 120/438/114 122/439/114 118/440/114
f 119/441/115 123/442/115 124/443/115 120/444/115
f 122/445/116 126/446/116 125/447/116 121/448/116
f 121/449/117 125/450/117 123/451/117 119/452/117
f 120/453/118 124/454/118 126/455/118 122/456/118
f 123/457/119 127/458/119 128/459/119 124/460/119
f 126/461/120 130/462/120 129/463/120 125/464/120
f 125/465/121 129/466/121 127/467/121 123/468/121
f 124/469/122 128/470/122 130/471/122 126/472/122
f 127/473/123 131/474/123 132/475/123 128/476/123
f 130/477/124 134/478/124 133/479/124 129/480/124
f 129/481/125 133/482/125 131/483/125 127/484/125
f 128/485/126 132/486/126 134/487/126 130/488/126
f 131/489/127 135/490/127 136/491/127 132/492/127
f 134/493/128 138/494/128 137/495/128 133/496/128
f 133/497/129 137/498/129 135/499/129 131/500/129
f 132/501/130 136/502/130 138/503/130 134/504/130
f 135/505/131 139/506/131 140/507/131 136/508/131
f 138/509/132 142/510/132 141/511/132 137/512/132
f 137/513/133 141/514/133 139/515/133 135/516/133
f 136/517/134 140/518/134 142/519/134 138/520/134
f 139/521/135 143/522/135 144/523/135 140/524/135
f 142/525/136 146/526/136 145/527/136 141/528/136
f 141/529/137 145/530/137 143/531/137 139/532/137
f 140/533/138 144/534/138 146/535/138 142/536/138
f 143/537/139 147/538/139 148/539/139 144/540/139
f 146/541/140 150/542/140 149/543/140 145/544/140
f 145/545/141 149/546/141 147/547/141 143/548/141
f 144/549/142 148/550/142 150/551/142 146/552/142
f 147/553/143 151/554/143 152/555/143 148/556/143
f 150/557/144 154/558/144 153/559/144 149/560/144
f 149/561/145 153/562/145 151/563/145 147/564/145
f 148/565/146 152/566/146 154/567/146 150/568/146
f 151/569/147 107/570/147 108/571/147 152/572/147
f 154/573/148 110/574/148 109/575/148 153/576/148
f 153/577/149 109/578/149 107/579/149 151/580/149
f 152/581/150 108/582/150 110/583/150 154/584/150