# Made in Blockbench 5.1.4
mtllib iron_wheel.mtl

o tire
v 0.40192375 -0.125 1.5
v 0.40192375 0.125 1.5
v 0.351683125 -0.125 1.3125
v 0.351683125 0.125 1.3125
v 1.09807625 -0.125 1.09807625
v 1.09807625 0.125 1.09807625
v 0.960816875 -0.125 0.960816875
v 0.960816875 0.125 0.960816875
v 1.5 -0.125 0.40192375
v 1.5 0.125 0.40192375
v 1.3125 -0.125 0.351683125
v 1.3125 0.125 0.351683125
v 1.5 -0.125 -0.40192375
v 1.5 0.125 -0.40192375
v 1.3125 -0.125 -0.351683125
v 1.3125 0.125 -0.351683125
v 1.09807625 -0.125 -1.09807625
v 1.09807625 0.125 -1.09807625
v 0.960816875 -0.125 -0.960816875
v 0.960816875 0.125 -0.960816875
v 0.40192375 -0.125 -1.5
v 0.40192375 0.125 -1.5
v 0.351683125 -0.125 -1.3125
v 0.351683125 0.125 -1.3125
v -0.40192375 -0.125 -1.5
v -0.40192375 0.125 -1.5
v -0.351683125 -0.125 -1.3125
v -0.351683125 0.125 -1.3125
v -1.09807625 -0.125 -1.09807625
v -1.09807625 0.125 -1.09807625
v -0.960816875 -0.125 -0.960816875
v -0.960816875 0.125 -0.960816875
v -1.5 -0.125 -0.40192375
v -1.5 0.125 -0.40192375
v -1.3125 -0.125 -0.351683125
v -1.3125 0.125 -0.351683125
v -1.5 -0.125 0.40192375
v -1.5 0.125 0.40192375
v -1.3125 -0.125 0.351683125
v -1.3125 0.125 0.351683125
v -1.09807625 -0.125 1.09807625
v -1.09807625 0.125 1.09807625
v -0.960816875 -0.125 0.960816875
v -0.960816875 0.125 0.960816875
v -0.40192375 -0.125 1.5
v -0.40192375 0.125 1.5
v -0.351683125 -0.125 1.3125
v -0.351683125 0.125 1.3125
vt 0 0.40625
vt 0.40625 0.40625
vt 0.40625 0.5625
vt 0 0.5625
vt 0.375 0.5625
vt 0.03125 0.5625
vt 0.03125 0.40625
vt 0.375 0.40625
vt 0.02538875 0
vt 0.380859375 0
vt 0.40625 0.09374749999999998
vt 0 0.09375093749999996
vt 0 0.09375093749999996
vt 0.40625 0.09375093749999996
vt 0.3808603125 0.000003124999999992717
vt 0.025389375 3.1249999998816946e-7
vt 0 0.40625
vt 0.40625 0.40625
vt 0.40625 0.5625
vt 0 0.5625
vt 0.375 0.5625
vt 0.03125 0.5625
vt 0.03125 0.40625
vt 0.375 0.40625
vt 0.025390625 0
vt 0.38086125 0
vt 0.40625 0.09375093749999996
vt 0 0.09374749999999998
vt 0 0.09375093749999996
vt 0.40625 0.09375093749999996
vt 0.380860625 3.1249999998816946e-7
vt 0.0253896875 0.000003124999999992717
vt 0 0.40625
vt 0.40625 0.40625
vt 0.40625 0.5625
vt 0 0.5625
vt 0.375 0.5625
vt 0.03125 0.5625
vt 0.03125 0.40625
vt 0.375 0.40625
vt 0.0253921875 9.374999999645084e-7
vt 0.3808578125 9.374999999645084e-7
vt 0.40625 0.09375093749999996
vt 0 0.09375093749999996
vt 0.40625 0.09375093749999996
vt 0 0.09375093749999996
vt 0.0253921875 9.374999999645084e-7
vt 0.3808578125 9.374999999645084e-7
vt 0 0.40625
vt 0.40625 0.40625
vt 0.40625 0.5625
vt 0 0.5625
vt 0.375 0.5625
vt 0.03125 0.5625
vt 0.03125 0.40625
vt 0.375 0.40625
vt 0.38086125 0
vt 0.025390625 0
vt 0 0.09374749999999998
vt 0.40625 0.09375093749999996
vt 0.40625 0.09375093749999996
vt 0 0.09375093749999996
vt 0.0253896875 0.000003124999999992717
vt 0.380860625 3.1249999998816946e-7
vt 0 0.40625
vt 0.40625 0.40625
vt 0.40625 0.5625
vt 0 0.5625
vt 0.375 0.5625
vt 0.03125 0.5625
vt 0.03125 0.40625
vt 0.375 0.40625
vt 0.380859375 0
vt 0.02538875 0
vt 0 0.09375093749999996
vt 0.40625 0.09374749999999998
vt 0.40625 0.09375093749999996
vt 0 0.09375093749999996
vt 0.025389375 3.1249999998816946e-7
vt 0.3808603125 0.000003124999999992717
vt 0 0.40625
vt 0.40625 0.40625
vt 0.40625 0.5625
vt 0 0.5625
vt 0.375 0.5625
vt 0.03125 0.5625
vt 0.03125 0.40625
vt 0.375 0.40625
vt 0.3808578125 9.374999999645084e-7
vt 0.0253921875 9.374999999645084e-7
vt 0 0.09375093749999996
vt 0.40625 0.09375093749999996
vt 0.40625 0.09375093749999996
vt 0 0.09375093749999996
vt 0.0253921875 9.374999999645084e-7
vt 0.3808578125 9.374999999645084e-7
vt 0 0.40625
vt 0.40625 0.40625
vt 0.40625 0.5625
vt 0 0.5625
vt 0.375 0.5625
vt 0.03125 0.5625
vt 0.03125 0.40625
vt 0.375 0.40625
vt 0.38086125 0
vt 0.025390625 0
vt 0 0.09374749999999998
vt 0.40625 0.09375093749999996
vt 0.40625 0.09375093749999996
vt 0 0.09375093749999996
vt 0.0253896875 0.000003124999999992717
vt 0.380860625 3.1249999998816946e-7
vt 0 0.40625
vt 0.40625 0.40625
vt 0.40625 0.5625
vt 0 0.5625
vt 0.375 0.5625
vt 0.03125 0.5625
vt 0.03125 0.40625
vt 0.375 0.40625
vt 0.380859375 0
vt 0.02538875 0
vt 0 0.09375093749999996
vt 0.40625 0.09374749999999998
vt 0.40625 0.09375093749999996
vt 0 0.09375093749999996
vt 0.025389375 3.1249999998816946e-7
vt 0.3808603125 0.000003124999999992717
vt 0 0.40625
vt 0.40625 0.40625
vt 0.40625 0.5625
vt 0 0.5625
vt 0.375 0.5625
vt 0.03125 0.5625
vt 0.03125 0.40625
vt 0.375 0.40625
vt 0.3808578125 9.374999999645084e-7
vt 0.0253921875 9.374999999645084e-7
vt 0 0.09375093749999996
vt 0.40625 0.09375093749999996
vt 0 0.09375093749999996
vt 0.40625 0.09375093749999996
vt 0.3808578125 9.374999999645084e-7
vt 0.0253921875 9.374999999645084e-7
vt 0 0.40625
vt 0.40625 0.40625
vt 0.40625 0.5625
vt 0 0.5625
vt 0.375 0.5625
vt 0.03125 0.5625
vt 0.03125 0.40625
vt 0.375 0.40625
vt 0.02538875 0
vt 0.380859375 0
vt 0.40625 0.09374749999999998
vt 0 0.09375093749999996
vt 0 0.09375093749999996
vt 0.40625 0.09375093749999996
vt 0.3808603125 0.000003124999999992717
vt 0.025389375 3.1249999998816946e-7
vt 0 0.40625
vt 0.40625 0.40625
vt 0.40625 0.5625
vt 0 0.5625
vt 0.375 0.5625
vt 0.03125 0.5625
vt 0.03125 0.40625
vt 0.375 0.40625
vt 0.025390625 0
vt 0.38086125 0
vt 0.40625 0.09375093749999996
vt 0 0.09374749999999998
vt 0 0.09375093749999996
vt 0.40625 0.09375093749999996
vt 0.380860625 3.1249999998816946e-7
vt 0.0253896875 0.000003124999999992717
vt 0 0.40625
vt 0.40625 0.40625
vt 0.40625 0.5625
vt 0 0.5625
vt 0.375 0.5625
vt 0.03125 0.5625
vt 0.03125 0.40625
vt 0.375 0.40625
vt 0.0253921875 9.374999999645084e-7
vt 0.3808578125 9.374999999645084e-7
vt 0.40625 0.09375093749999996
vt 0 0.09375093749999996
vt 0 0.09375093749999996
vt 0.40625 0.09375093749999996
vt 0.3808578125 9.374999999645084e-7
vt 0.0253921875 9.374999999645084e-7
vn 0.49999992230614 0 0.8660254486410052
vn -0.4999995633128316 0 -0.8660256559057463
vn 0 -1 0
vn 0 1 0
vn 0.8660254486410052 0 0.49999992230614
vn -0.8660256559057463 0 -0.4999995633128316
vn 0 -1 0
vn 0 1 0
vn 1 0 0
vn -1 0 0
vn 0 -1 0
vn 0 1 0
vn 0.8660254486410052 0 -0.49999992230614
vn -0.8660256559057463 0 0.4999995633128316
vn 0 -1 0
vn 0 1 0
vn 0.49999992230614 0 -0.8660254486410052
vn -0.4999995633128316 0 0.8660256559057463
vn 0 -1 0
vn 0 1 0
vn 0 0 -1
vn 0 0 1
vn 0 -1 0
vn 0 1 0
vn -0.49999992230614 0 -0.8660254486410052
vn 0.4999995633128316 0 0.8660256559057463
vn 0 -1 0
vn 0 1 0
vn -0.8660254486410052 0 -0.49999992230614
vn 0.8660256559057463 0 0.4999995633128316
vn 0 -1 0
vn 0 1 0
vn -1 0 0
vn 1 0 0
vn 0 -1 0
vn 0 1 0
vn -0.8660254486410052 0 0.49999992230614
vn 0.8660256559057463 0 -0.4999995633128316
vn 0 -1 0
vn 0 1 0
vn -0.49999992230614 0 0.8660254486410052
vn 0.4999995633128316 0 -0.8660256559057463
vn 0 -1 0
vn 0 1 0
vn 0 0 1
vn 0 0 -1
vn 0 -1 0
vn 0 1 0
usemtl m_1ec6d1a7-220f-71cb-00a4-c9a6777924d4
f 1/1/1 5/2/1 6/3/1 2/4/1
f 4/5/2 8/6/2 7/7/2 3/8/2
f 3/9/3 7/10/3 5/11/3 1/12/3
f 2/13/4 6/14/4 8/15/4 4/16/4
f 5/17/5 9/18/5 10/19/5 6/20/5
f 8/21/6 12/22/6 11/23/6 7/24/6
f 7/25/7 11/26/7 9/27/7 5/28/7
f 6/29/8 10/30/8 12/31/8 8/32/8
f 9/33/9 13/34/9 14/35/9 10/36/9
f 12/37/10 16/38/10 15/39/10 11/40/10
f 11/41/11 15/42/11 13/43/11 9/44/11
f 10/45/12 14/46/12 16/47/12 12/48/12
f 13/49/13 17/50/13 18/51/13 14/52/13
f 16/53/14 20/54/14 19/55/14 15/56/14
f 15/57/15 19/58/15 17/59/15 13/60/15
f 14/61/16 18/62/16 20/63/16 16/64/16
f 17/65/17 21/66/17 22/67/17 18/68/17
f 20/69/18 24/70/18 23/71/18 19/72/18
f 19/73/19 23/74/19 21/75/19 17/76/19
f 18/77/20 22/78/20 24/79/20 20/80/20
f 21/81/21 25/82/21 26/83/21 22/84/21
f 24/85/22 28/86/22 27/87/22 23/88/22
f 23/89/23 27/90/23 25/91/23 21/92/23
f 22/93/24 26/94/24 28/95/24 24/96/24
f 25/97/25 29/98/25 30/99/25 26/100/25
f 28/101/26 32/102/26 31/103/26 27/104/26
f 27/105/27 31/106/27 29/107/27 25/108/27
f 26/109/28 30/110/28 32/111/28 28/112/28
f 29/113/29 33/114/29 34/115/29 30/116/29
f 32/117/30 36/118/30 35/119/30 31/120/30
f 31/121/31 35/122/31 33/123/31 29/124/31
f 30/125/32 34/126/32 36/127/32 32/128/32
f 33/129/33 37/130/33 38/131/33 34/132/33
f 36/133/34 40/134/34 39/135/34 35/136/34
f 35/137/35 39/138/35 37/139/35 33/140/35
f 34/141/36 38/142/36 40/143/36 36/144/36
f 37/145/37 41/146/37 42/147/37 38/148/37
f 40/149/38 44/150/38 43/151/38 39/152/38
f 39/153/39 43/154/39 41/155/39 37/156/39
f 38/157/40 42/158/40 44/159/40 40/160/40
f 41/161/41 45/162/41 46/163/41 42/164/41
f 44/165/42 48/166/42 47/167/42 43/168/42
f 43/169/43 47/170/43 45/171/43 41/172/43
f 42/173/44 46/174/44 48/175/44 44/176/44
f 45/177/45 1/178/45 2/179/45 46/180/45
f 48/181/46 4/182/46 3/183/46 47/184/46
f 47/185/47 3/186/47 1/187/47 45/188/47
f 46/189/48 2/190/48 4/191/48 48/192/48
o rim
v 0.7844465853788261 0.046875 0.961223280675463
v 0.961223280675463 0.046875 0.7844465853788263
v 0.7844465853788261 -0.046875 0.961223280675463
v 0.961223280675463 -0.046875 0.7844465853788263
v 0.03314563036811938 0.09375 0.2983106733130747
v 0.2983106733130747 0.09375 0.03314563036811943
v 0.03314563036811938 -0.09375 0.2983106733130747
v 0.2983106733130747 -0.09375 0.03314563036811943
vt 0.375 0.625
vt 0.25 0.625
vt 0.25 0.5625
vt 0.375 0.5625
vt 1 0.71875
vt 1 0.8125
vt 0.8125 0.8125
vt 0.8125 0.71875
vt 0.8125 0.71875
vt 0.84375 0.21875
vt 0.96875 0.21875
vt 1 0.71875
vt 0.84375 0.21875
vt 0.96875 0.21875
vt 1 0.71875
vt 0.8125 0.71875
vt 0.5 0.3359375
vt 0.5 0.3828125
vt 0 0.40625
vt 0 0.3125
vt 0 0.40625
vt 0.5 0.3828125
vt 0.5 0.3359375
vt 0 0.3125
vn 0.7071067811865475 0 0.7071067811865476
vn -0.7071067811865475 0 -0.7071067811865476
vn 0.033109275391203785 0.9989031743698381 0.03310927539120379
vn 0.033109275391203785 -0.9989031743698381 0.03310927539120379
vn -0.6616216370868464 0 0.7498378553650925
vn 0.7498378553650926 0 -0.6616216370868463
usemtl m_1ec6d1a7-220f-71cb-00a4-c9a6777924d4
f 50/193/49 49/194/49 51/195/49 52/196/49
f 55/197/50 53/198/50 54/199/50 56/200/50
f 53/201/51 49/202/51 50/203/51 54/204/51
f 52/205/52 51/206/52 55/207/52 56/208/52
f 51/209/53 49/210/53 53/211/53 55/212/53
f 54/213/54 50/214/54 52/215/54 56/216/54
o rim
v 0.961223280675463 0.046875 -0.7844465853788263
v 0.7844465853788261 0.046875 -0.961223280675463
v 0.961223280675463 -0.046875 -0.7844465853788263
v 0.7844465853788261 -0.046875 -0.961223280675463
v 0.2983106733130747 0.09375 -0.03314563036811943
v 0.03314563036811938 0.09375 -0.2983106733130747
v 0.2983106733130747 -0.09375 -0.03314563036811943
v 0.03314563036811938 -0.09375 -0.2983106733130747
vt 0.375 0.625
vt 0.25 0.625
vt 0.25 0.5625
vt 0.375 0.5625
vt 1 0.71875
vt 1 0.8125
vt 0.8125 0.8125
vt 0.8125 0.71875
vt 0.8125 0.71875
vt 0.84375 0.21875
vt 0.96875 0.21875
vt 1 0.71875
vt 0.84375 0.21875
vt 0.96875 0.21875
vt 1 0.71875
vt 0.8125 0.71875
vt 0.5 0.3359375
vt 0.5 0.3828125
vt 0 0.40625
vt 0 0.3125
vt 0 0.40625
vt 0.5 0.3828125
vt 0.5 0.3359375
vt 0 0.3125
vn 0.7071067811865475 0 -0.7071067811865476
vn -0.7071067811865475 0 0.7071067811865476
vn 0.033109275391203785 0.9989031743698381 -0.03310927539120379
vn 0.033109275391203785 -0.9989031743698381 -0.03310927539120379
vn 0.7498378553650926 0 0.6616216370868463
vn -0.6616216370868464 0 -0.7498378553650925
usemtl m_1ec6d1a7-220f-71cb-00a4-c9a6777924d4
f 58/217/55 57/218/55 59/219/55 60/220/55
f 63/221/56 61/222/56 62/223/56 64/224/56
f 61/225/57 57/226/57 58/227/57 62/228/57
f 60/229/58 59/230/58 63/231/58 64/232/58
f 59/233/59 57/234/59 61/235/59 63/236/59
f 62/237/60 58/238/60 60/239/60 64/240/60
o rim
v -0.7844465853788261 0.046875 -0.9612232806754633
v -0.961223280675463 0.046875 -0.7844465853788263
v -0.7844465853788261 -0.046875 -0.9612232806754633
v -0.961223280675463 -0.046875 -0.7844465853788263
v -0.03314563036811938 0.09375 -0.29831067331307476
v -0.2983106733130747 0.09375 -0.03314563036811946
v -0.03314563036811938 -0.09375 -0.29831067331307476
v -0.2983106733130747 -0.09375 -0.03314563036811946
vt 0.375 0.625
vt 0.25 0.625
vt 0.25 0.5625
vt 0.375 0.5625
vt 1 0.71875
vt 1 0.8125
vt 0.8125 0.8125
vt 0.8125 0.71875
vt 0.8125 0.71875
vt 0.84375 0.21875
vt 0.96875 0.21875
vt 1 0.71875
vt 0.84375 0.21875
vt 0.96875 0.21875
vt 1 0.71875
vt 0.8125 0.71875
vt 0.5 0.3359375
vt 0.5 0.3828125
vt 0 0.40625
vt 0 0.3125
vt 0 0.40625
vt 0.5 0.3828125
vt 0.5 0.3359375
vt 0 0.3125
vn -0.7071067811865475 0 -0.7071067811865477
vn 0.7071067811865475 0 0.7071067811865477
vn -0.033109275391203785 0.9989031743698381 -0.03310927539120379
vn -0.033109275391203785 -0.9989031743698381 -0.03310927539120379
vn 0.6616216370868465 0 -0.7498378553650925
vn -0.7498378553650927 0 0.6616216370868463
usemtl m_1ec6d1a7-220f-71cb-00a4-c9a6777924d4
f 66/241/61 65/242/61 67/243/61 68/244/61
f 71/245/62 69/246/62 70/247/62 72/248/62
f 69/249/63 65/250/63 66/251/63 70/252/63
f 68/253/64 67/254/64 71/255/64 72/256/64
f 67/257/65 65/258/65 69/259/65 71/260/65
f 70/261/66 66/262/66 68/263/66 72/264/66
o rim
v 1.21875 0.0625 0.125
v 1.21875 0.0625 -0.125
v 1.21875 -0.0625 0.125
v 1.21875 -0.0625 -0.125
v 0.21875 0.125 0.1875
v 0.21875 0.125 -0.1875
v 0.21875 -0.125 0.1875
v 0.21875 -0.125 -0.1875
vt 0.375 0.625
vt 0.25 0.625
vt 0.25 0.5625
vt 0.375 0.5625
vt 0.6875 0.6875
vt 0.6875 0.8125
vt 0.5 0.8125
vt 0.5 0.6875
vt 0.8125 0.71875
vt 0.84375 0.21875
vt 0.96875 0.21875
vt 1 0.71875
vt 0.96875 0.21875
vt 0.84375 0.21875
vt 0.8125 0.71875
vt 1 0.71875
vt 0.5 0.21875
vt 0.5 0.28125
vt 0 0.3125
vt 0 0.1875
vt 0 0.3125
vt 0.5 0.28125
vt 0.5 0.21875
vt 0 0.1875
vn 1 0 0
vn -1 0 0
vn 0.06237828615518055 0.9980525784828888 0
vn 0.06237828615518055 -0.9980525784828888 0
vn 0.06237828615518055 0 0.9980525784828888
vn 0.06237828615518055 0 -0.9980525784828888
usemtl m_1ec6d1a7-220f-71cb-00a4-c9a6777924d4
f 74/265/67 73/266/67 75/267/67 76/268/67
f 79/269/68 77/270/68 78/271/68 80/272/68
f 77/273/69 73/274/69 74/275/69 78/276/69
f 76/277/70 75/278/70 79/279/70 80/280/70
f 75/281/71 73/282/71 77/283/71 79/284/71
f 78/285/72 74/286/72 76/287/72 80/288/72
o rim
v 0.12500000000000028 0.0625 -1.21875
v -0.12499999999999972 0.0625 -1.21875
v 0.12500000000000028 -0.0625 -1.21875
v -0.12499999999999972 -0.0625 -1.21875
v 0.18750000000000006 0.125 -0.21874999999999994
v -0.18749999999999994 0.125 -0.21875000000000006
v 0.18750000000000006 -0.125 -0.21874999999999994
v -0.18749999999999994 -0.125 -0.21875000000000006
vt 0.375 0.625
vt 0.25 0.625
vt 0.25 0.5625
vt 0.375 0.5625
vt 0.6875 0.6875
vt 0.6875 0.8125
vt 0.5 0.8125
vt 0.5 0.6875
vt 0.8125 0.71875
vt 0.84375 0.21875
vt 0.96875 0.21875
vt 1 0.71875
vt 0.96875 0.21875
vt 0.84375 0.21875
vt 0.8125 0.71875
vt 1 0.71875
vt 0.5 0.21875
vt 0.5 0.28125
vt 0 0.3125
vt 0 0.1875
vt 0 0.3125
vt 0.5 0.28125
vt 0.5 0.21875
vt 0 0.1875
vn 2.220446049250313e-16 0 -1
vn -2.220446049250313e-16 0 1
vn 1.3850761905227615e-17 0.9980525784828888 -0.06237828615518055
vn 1.3850761905227615e-17 -0.9980525784828888 -0.06237828615518055
vn 0.9980525784828888 0 -0.062378286155180325
vn -0.9980525784828888 0 -0.06237828615518077
usemtl m_1ec6d1a7-220f-71cb-00a4-c9a6777924d4
f 82/289/73 81/290/73 83/291/73 84/292/73
f 87/293/74 85/294/74 86/295/74 88/296/74
f 85/297/75 81/298/75 82/299/75 86/300/75
f 84/301/76 83/302/76 87/303/76 88/304/76
f 83/305/77 81/306/77 85/307/77 87/308/77
f 86/309/78 82/310/78 84/311/78 88/312/78
o rim
v -1.21875 0.0625 -0.12499999999999985
v -1.21875 0.0625 0.12500000000000014
v -1.21875 -0.0625 -0.12499999999999985
v -1.21875 -0.0625 0.12500000000000014
v -0.21875000000000003 0.125 -0.18749999999999997
v -0.21874999999999997 0.125 0.18750000000000003
v -0.21875000000000003 -0.125 -0.18749999999999997
v -0.21874999999999997 -0.125 0.18750000000000003
vt 0.375 0.625
vt 0.25 0.625
vt 0.25 0.5625
vt 0.375 0.5625
vt 0.6875 0.6875
vt 0.6875 0.8125
vt 0.5 0.8125
vt 0.5 0.6875
vt 0.8125 0.71875
vt 0.84375 0.21875
vt 0.96875 0.21875
vt 1 0.71875
vt 0.96875 0.21875
vt 0.84375 0.21875
vt 0.8125 0.71875
vt 1 0.71875
vt 0.5 0.21875
vt 0.5 0.28125
vt 0 0.3125
vt 0 0.1875
vt 0 0.3125
vt 0.5 0.28125
vt 0.5 0.21875
vt 0 0.1875
vn -1 0 1.2246467991473532e-16
vn 1 0 -1.2246467991473532e-16
vn -0.06237828615518055 0.9980525784828888 7.639136847623951e-18
vn -0.06237828615518055 -0.9980525784828888 7.639136847623951e-18
vn -0.06237828615518067 0 -0.9980525784828888
vn -0.06237828615518042 0 0.9980525784828888
usemtl m_1ec6d1a7-220f-71cb-00a4-c9a6777924d4
f 90/313/79 89/314/79 91/315/79 92/316/79
f 95/317/80 93/318/80 94/319/80 96/320/80
f 93/321/81 89/322/81 90/323/81 94/324/81
f 92/325/82 91/326/82 95/327/82 96/328/82
f 91/329/83 89/330/83 93/331/83 95/332/83
f 94/333/84 90/334/84 92/335/84 96/336/84
o rim
v -0.12499999999999972 0.0625 1.21875
v 0.12500000000000028 0.0625 1.21875
v -0.12499999999999972 -0.0625 1.21875
v 0.12500000000000028 -0.0625 1.21875
v -0.18749999999999994 0.125 0.21875000000000006
v 0.18750000000000006 0.125 0.21874999999999994
v -0.18749999999999994 -0.125 0.21875000000000006
v 0.18750000000000006 -0.125 0.21874999999999994
vt 0.375 0.625
vt 0.25 0.625
vt 0.25 0.5625
vt 0.375 0.5625
vt 0.6875 0.6875
vt 0.6875 0.8125
vt 0.5 0.8125
vt 0.5 0.6875
vt 0.8125 0.71875
vt 0.84375 0.21875
vt 0.96875 0.21875
vt 1 0.71875
vt 0.96875 0.21875
vt 0.84375 0.21875
vt 0.8125 0.71875
vt 1 0.71875
vt 0.5 0.21875
vt 0.5 0.28125
vt 0 0.3125
vt 0 0.1875
vt 0 0.3125
vt 0.5 0.28125
vt 0.5 0.21875
vt 0 0.1875
vn 2.220446049250313e-16 0 1
vn -2.220446049250313e-16 0 -1
vn 1.3850761905227615e-17 0.9980525784828888 0.06237828615518055
vn 1.3850761905227615e-17 -0.9980525784828888 0.06237828615518055
vn -0.9980525784828888 0 0.06237828615518077
vn 0.9980525784828888 0 0.062378286155180325
usemtl m_1ec6d1a7-220f-71cb-00a4-c9a6777924d4
f 98/337/85 97/338/85 99/339/85 100/340/85
f 103/341/86 101/342/86 102/343/86 104/344/86
f 101/345/87 97/346/87 98/347/87 102/348/87
f 100/349/88 99/350/88 103/351/88 104/352/88
f 99/353/89 97/354/89 101/355/89 103/356/89
f 102/357/90 98/358/90 100/359/90 104/360/90
o rim
v 0.351683125 -0.15625 1.3125
v 0.351683125 0.15625 1.3125
v 0.318189375 -0.15625 1.1875
v 0.318189375 0.15625 1.1875
v 0.960816875 -0.15625 0.960816875
v 0.960816875 0.15625 0.960816875
v 0.869310625 -0.15625 0.869310625
v 0.869310625 0.15625 0.869310625
v 1.3125 -0.15625 0.351683125
v 1.3125 0.15625 0.351683125
v 1.1875 -0.15625 0.318189375
v 1.1875 0.15625 0.318189375
v 1.3125 -0.15625 -0.351683125
v 1.3125 0.15625 -0.351683125
v 1.1875 -0.15625 -0.318189375
v 1.1875 0.15625 -0.318189375
v 0.960816875 -0.15625 -0.960816875
v 0.960816875 0.15625 -0.960816875
v 0.869310625 -0.15625 -0.869310625
v 0.869310625 0.15625 -0.869310625
v 0.351683125 -0.15625 -1.3125
v 0.351683125 0.15625 -1.3125
v 0.318189375 -0.15625 -1.1875
v 0.318189375 0.15625 -1.1875
v -0.351683125 -0.15625 -1.3125
v -0.351683125 0.15625 -1.3125
v -0.318189375 -0.15625 -1.1875
v -0.318189375 0.15625 -1.1875
v -0.960816875 -0.15625 -0.960816875
v -0.960816875 0.15625 -0.960816875
v -0.869310625 -0.15625 -0.869310625
v -0.869310625 0.15625 -0.869310625
v -1.3125 -0.15625 -0.351683125
v -1.3125 0.15625 -0.351683125
v -1.1875 -0.15625 -0.318189375
v -1.1875 0.15625 -0.318189375
v -1.3125 -0.15625 0.351683125
v -1.3125 0.15625 0.351683125
v -1.1875 -0.15625 0.318189375
v -1.1875 0.15625 0.318189375
v -0.960816875 -0.15625 0.960816875
v -0.960816875 0.15625 0.960816875
v -0.869310625 -0.15625 0.869310625
v -0.869310625 0.15625 0.869310625
v -0.351683125 -0.15625 1.3125
v -0.351683125 0.15625 1.3125
v -0.318189375 -0.15625 1.1875
v -0.318189375 0.15625 1.1875
vt 0 0.8125
vt 0.34375 0.8125
vt 0.34375 1
vt 0 1
vt 0.65625 1
vt 0.34375 1
vt 0.34375 0.8125
vt 0.65625 0.8125
vt 0.6726184375 0.9375
vt 0.983630625 0.9375
vt 1 0.999999375
vt 0.65625 1
vt 0.65625 0.9999996875
vt 1 0.9999996875
vt 0.983630625 0.9375
vt 0.67261875 0.9375
vt 0 0.8125
vt 0.34375 0.8125
vt 0.34375 1
vt 0 1
vt 0.65625 1
vt 0.34375 1
vt 0.34375 0.8125
vt 0.65625 0.8125
vt 0.672619375 0.9375
vt 0.98363125 0.9375
vt 1 0.9999996875
vt 0.65625 0.9999996875
vt 0.65625 0.9999996875
vt 1 0.9999996875
vt 0.98363125 0.9375
vt 0.672619375 0.9375
vt 0 0.8125
vt 0.34375 0.8125
vt 0.34375 1
vt 0 1
vt 0.65625 1
vt 0.34375 1
vt 0.34375 0.8125
vt 0.65625 0.8125
vt 0.6726190625 0.9375
vt 0.983630625 0.9375
vt 1 0.9999996875
vt 0.65625 1
vt 1 0.9999996875
vt 0.65625 1
vt 0.6726190625 0.9375
vt 0.983630625 0.9375
vt 0 0.8125
vt 0.34375 0.8125
vt 0.34375 1
vt 0 1
vt 0.65625 1
vt 0.34375 1
vt 0.34375 0.8125
vt 0.65625 0.8125
vt 0.9836315625 0.9375
vt 0.672619375 0.9375
vt 0.65625 0.999999375
vt 1 0.9999996875
vt 1 0.9999996875
vt 0.65625 1
vt 0.672619375 0.9375
vt 0.98363125 0.9375
vt 0 0.8125
vt 0.34375 0.8125
vt 0.34375 1
vt 0 1
vt 0.65625 1
vt 0.34375 1
vt 0.34375 0.8125
vt 0.65625 0.8125
vt 0.983630625 0.9375
vt 0.6726184375 0.9375
vt 0.65625 0.9999996875
vt 1 0.999999375
vt 1 0.9999996875
vt 0.65625 1
vt 0.6726184375 0.9375
vt 0.983630625 0.9375
vt 0 0.8125
vt 0.34375 0.8125
vt 0.34375 1
vt 0 1
vt 0.65625 1
vt 0.34375 1
vt 0.34375 0.8125
vt 0.65625 0.8125
vt 0.9836309375 0.9375
vt 0.6726190625 0.9375
vt 0.65625 0.9999996875
vt 1 0.9999996875
vt 1 1
vt 0.65625 1
vt 0.6726190625 0.9375
vt 0.9836309375 0.9375
vt 0 0.8125
vt 0.34375 0.8125
vt 0.34375 1
vt 0 1
vt 0.65625 1
vt 0.34375 1
vt 0.34375 0.8125
vt 0.65625 0.8125
vt 0.9836315625 0.9375
vt 0.672619375 0.9375
vt 0.65625 0.999999375
vt 1 1
vt 1 1
vt 0.65625 1
vt 0.672619375 0.9375
vt 0.98363125 0.9375
vt 0 0.8125
vt 0.34375 0.8125
vt 0.34375 1
vt 0 1
vt 0.65625 1
vt 0.34375 1
vt 0.34375 0.8125
vt 0.65625 0.8125
vt 0.983630625 0.9375
vt 0.6726184375 0.9375
vt 0.65625 0.9999996875
vt 1 0.9999996875
vt 1 1
vt 0.65625 1
vt 0.67261875 0.9375
vt 0.983630625 0.9375
vt 0 0.8125
vt 0.34375 0.8125
vt 0.34375 1
vt 0 1
vt 0.65625 1
vt 0.34375 1
vt 0.34375 0.8125
vt 0.65625 0.8125
vt 0.9836309375 0.9375
vt 0.6726190625 0.9375
vt 0.65625 0.9999996875
vt 1 1
vt 0.65625 0.9999996875
vt 1 1
vt 0.9836309375 0.9375
vt 0.6726190625 0.9375
vt 0 0.8125
vt 0.34375 0.8125
vt 0.34375 1
vt 0 1
vt 0.65625 1
vt 0.34375 1
vt 0.34375 0.8125
vt 0.65625 0.8125
vt 0.6726184375 0.9375
vt 0.983630625 0.9375
vt 1 0.9999996875
vt 0.65625 1
vt 0.65625 0.9999996875
vt 1 1
vt 0.983630625 0.9375
vt 0.67261875 0.9375
vt 0 0.8125
vt 0.34375 0.8125
vt 0.34375 1
vt 0 1
vt 0.65625 1
vt 0.34375 1
vt 0.34375 0.8125
vt 0.65625 0.8125
vt 0.672619375 0.9375
vt 0.9836315625 0.9375
vt 1 1
vt 0.65625 0.9999996875
vt 0.65625 0.9999996875
vt 1 1
vt 0.98363125 0.9375
vt 0.672619375 0.9375
vt 0 0.8125
vt 0.34375 0.8125
vt 0.34375 1
vt 0 1
vt 0.65625 1
vt 0.34375 1
vt 0.34375 0.8125
vt 0.65625 0.8125
vt 0.6726190625 0.9375
vt 0.9836309375 0.9375
vt 1 1
vt 0.65625 1
vt 0.65625 0.9999996875
vt 1 0.9999996875
vt 0.9836309375 0.9375
vt 0.6726190625 0.9375
vn 0.4999995633128316 0 0.8660256559057462
vn -0.4999992610027628 0 -0.8660258304442721
vn 0 -1 0
vn 0 1 0
vn 0.8660256559057462 0 0.4999995633128316
vn -0.8660258304442721 0 -0.4999992610027628
vn 0 -1 0
vn 0 1 0
vn 1 0 0
vn -1 0 0
vn 0 -1 0
vn 0 1 0
vn 0.8660256559057462 0 -0.4999995633128316
vn -0.8660258304442721 0 0.4999992610027628
vn 0 -1 0
vn 0 1 0
vn 0.4999995633128316 0 -0.8660256559057462
vn -0.4999992610027628 0 0.8660258304442721
vn 0 -1 0
vn 0 1 0
vn 0 0 -1
vn 0 0 1
vn 0 -1 0
vn 0 1 0
vn -0.4999995633128316 0 -0.8660256559057462
vn 0.4999992610027628 0 0.8660258304442721
vn 0 -1 0
vn 0 1 0
vn -0.8660256559057462 0 -0.4999995633128316
vn 0.8660258304442721 0 0.4999992610027628
vn 0 -1 0
vn 0 1 0
vn -1 0 0
vn 1 0 0
vn 0 -1 0
vn 0 1 0
vn -0.8660256559057462 0 0.4999995633128316
vn 0.8660258304442721 0 -0.4999992610027628
vn 0 -1 0
vn 0 1 0
vn -0.4999995633128316 0 0.8660256559057462
vn 0.4999992610027628 0 -0.8660258304442721
vn 0 -1 0
vn 0 1 0
vn 0 0 1
vn 0 0 -1
vn 0 -1 0
vn 0 1 0
usemtl m_1ec6d1a7-220f-71cb-00a4-c9a6777924d4
f 105/361/91 109/362/91 110/363/91 106/364/91
f 108/365/92 112/366/92 111/367/92 107/368/92
f 107/369/93 111/370/93 109/371/93 105/372/93
f 106/373/94 110/374/94 112/375/94 108/376/94
f 109/377/95 113/378/95 114/379/95 110/380/95
f 112/381/96 116/382/96 115/383/96 111/384/96
f 111/385/97 115/386/97 113/387/97 109/388/97
f 110/389/98 114/390/98 116/391/98 112/392/98
f 113/393/99 117/394/99 118/395/99 114/396/99
f 116/397/100 120/398/100 119/399/100 115/400/100
f 115/401/101 119/402/101 117/403/101 113/404/101
f 114/405/102 118/406/102 120/407/102 116/408/102
f 117/409/103 121/410/103 122/411/103 118/412/103
f 120/413/104 124/414/104 123/415/104 119/416/104
f 119/417/105 123/418/105 121/419/105 117/420/105
f 118/421/106 122/422/106 124/423/106 120/424/106
f 121/425/107 125/426/107 126/427/107 122/428/107
f 124/429/108 128/430/108 127/431/108 123/432/108
f 123/433/109 127/434/109 125/435/109 121/436/109
f 122/437/110 126/438/110 128/439/110 124/440/110
f 125/441/111 129/442/111 130/443/111 126/444/111
f 128/445/112 132/446/112 131/447/112 127/448/112
f 127/449/113 131/450/113 129/451/113 125/452/113
f 126/453/114 130/454/114 132/455/114 128/456/114
f 129/457/115 133/458/115 134/459/115 130/460/115
f 132/461/116 136/462/116 135/463/116 131/464/116
f 131/465/117 135/466/117 133/467/117 129/468/117
f 130/469/118 134/470/118 136/471/118 132/472/118
f 133/473/119 137/474/119 138/475/119 134/476/119
f 136/477/120 140/478/120 139/479/120 135/480/120
f 135/481/121 139/482/121 137/483/121 133/484/121
f 134/485/122 138/486/122 140/487/122 136/488/122
f 137/489/123 141/490/123 142/491/123 138/492/123
f 140/493/124 144/494/124 143/495/124 139/496/124
f 139/497/125 143/498/125 141/499/125 137/500/125
f 138/501/126 142/502/126 144/503/126 140/504/126
f 141/505/127 145/506/127 146/507/127 142/508/127
f 144/509/128 148/510/128 147/511/128 143/512/128
f 143/513/129 147/514/129 145/515/129 141/516/129
f 142/517/130 146/518/130 148/519/130 144/520/130
f 145/521/131 149/522/131 150/523/131 146/524/131
f 148/525/132 152/526/132 151/527/132 147/528/132
f 147/529/133 151/530/133 149/531/133 145/532/133
f 146/533/134 150/534/134 152/535/134 148/536/134
f 149/537/135 105/538/135 106/539/135 150/540/135
f 152/541/136 108/542/136 107/543/136 151/544/136
f 151/545/137 107/546/137 105/547/137 149/548/137
f 150/549/138 106/550/138 108/551/138 152/552/138
o rim
v 0.125 0.3125 0.125
v 0.125 0.3125 -0.125
v 0.125 -0.3125 0.125
v 0.125 -0.3125 -0.125
v -0.125 0.3125 0.125
v -0.125 0.3125 -0.125
v -0.125 -0.3125 0.125
v -0.125 -0.3125 -0.125
vt 0.4375 0.5625
vt 0.4375 0.4375
vt 0.75 0.4375
vt 0.75 0.5625
vt 0.75 0.5625
vt 0.4375 0.5625
vt 0.4375 0.4375
vt 0.75 0.4375
vt 0.6875 0.6875
vt 0.8125 0.6875
vt 0.8125 0.8125
vt 0.6875 0.8125
vt 0.8125 0.6875
vt 0.8125 0.8125
vt 0.6875 0.8125
vt 0.6875 0.6875
vt 0.75 0.5625
vt 0.4375 0.5625
vt 0.4375 0.4375
vt 0.75 0.4375
vt 0.4375 0.5625
vt 0.4375 0.4375
vt 0.75 0.4375
vt 0.75 0.5625
vn 1 0 0
vn -1 0 0
vn 0 1 0
vn 0 -1 0
vn 0 0 1
vn 0 0 -1
usemtl m_1ec6d1a7-220f-71cb-00a4-c9a6777924d4
f 154/553/139 153/554/139 155/555/139 156/556/139
f 159/557/140 157/558/140 158/559/140 160/560/140
f 157/561/141 153/562/141 154/563/141 158/564/141
f 156/565/142 155/566/142 159/567/142 160/568/142
f 155/569/143 153/570/143 157/571/143 159/572/143
f 158/573/144 154/574/144 156/575/144 160/576/144
o rim
v 0.25 0.1875 0.25
v 0.25 0.1875 -0.25
v 0.25 -0.1875 0.25
v 0.25 -0.1875 -0.25
v -0.25 0.1875 0.25
v -0.25 0.1875 -0.25
v -0.25 -0.1875 0.25
v -0.25 -0.1875 -0.25
vt 0.5 0.8125
vt 0.25 0.8125
vt 0.25 0.625
vt 0.5 0.625
vt 0.5 0.625
vt 0.5 0.8125
vt 0.25 0.8125
vt 0.25 0.625
vt 0 0.5625
vt 0.25 0.5625
vt 0.25 0.8125
vt 0 0.8125
vt 0.25 0.5625
vt 0.25 0.8125
vt 0 0.8125
vt 0 0.5625
vt 0.5 0.625
vt 0.5 0.8125
vt 0.25 0.8125
vt 0.25 0.625
vt 0.5 0.8125
vt 0.25 0.8125
vt 0.25 0.625
vt 0.5 0.625
vn 1 0 0
vn -1 0 0
vn 0 1 0
vn 0 -1 0
vn 0 0 1
vn 0 0 -1
usemtl m_1ec6d1a7-220f-71cb-00a4-c9a6777924d4
f 162/577/145 161/578/145 163/579/145 164/580/145
f 167/581/146 165/582/146 166/583/146 168/584/146
f 165/585/147 161/586/147 162/587/147 166/588/147
f 164/589/148 163/590/148 167/591/148 168/592/148
f 163/593/149 161/594/149 165/595/149 167/596/149
f 166/597/150 162/598/150 164/599/150 168/600/150
o rim
v -0.961223280675463 0.046875 0.7844465853788263
v -0.7844465853788261 0.046875 0.9612232806754633
v -0.961223280675463 -0.046875 0.7844465853788263
v -0.7844465853788261 -0.046875 0.9612232806754633
v -0.2983106733130747 0.09375 0.03314563036811946
v -0.03314563036811938 0.09375 0.29831067331307476
v -0.2983106733130747 -0.09375 0.03314563036811946
v -0.03314563036811938 -0.09375 0.29831067331307476
vt 0.375 0.625
vt 0.25 0.625
vt 0.25 0.5625
vt 0.375 0.5625
vt 1 0.71875
vt 1 0.8125
vt 0.8125 0.8125
vt 0.8125 0.71875
vt 0.8125 0.71875
vt 0.84375 0.21875
vt 0.96875 0.21875
vt 1 0.71875
vt 0.84375 0.21875
vt 0.96875 0.21875
vt 1 0.71875
vt 0.8125 0.71875
vt 0.5 0.3359375
vt 0.5 0.3828125
vt 0 0.40625
vt 0 0.3125
vt 0 0.40625
vt 0.5 0.3828125
vt 0.5 0.3359375
vt 0 0.3125
vn -0.7071067811865475 0 0.7071067811865477
vn 0.7071067811865475 0 -0.7071067811865477
vn -0.033109275391203785 0.9989031743698381 0.03310927539120379
vn -0.033109275391203785 -0.9989031743698381 0.03310927539120379
vn -0.7498378553650927 0 -0.6616216370868463
vn 0.6616216370868465 0 0.7498378553650925
usemtl m_1ec6d1a7-220f-71cb-00a4-c9a6777924d4
f 170/601/151 169/602/151 171/603/151 172/604/151
f 175/605/152 173/606/152 174/607/152 176/608/152
f 173/609/153 169/610/153 170/611/153 174/612/153
f 172/613/154 171/614/154 175/615/154 176/616/154
f 171/617/155 169/618/155 173/619/155 175/620/155
f 174/621/156 170/622/156 172/623/156 176/624/156