# Made in Blockbench 5.1.6
mtllib huge_rowing_wide_tire.mtl

o shaft
v 0.46875 3.1875 0.46875
v 0.46875 3.1875 -0.46875
v -0.46875 3.1875 0.46875
v -0.46875 3.1875 -0.46875
v 0.46875 -3.1875 0.46875
v 0.46875 -3.1875 -0.46875
v -0.46875 -3.1875 0.46875
v -0.46875 -3.1875 -0.46875
v -0.75 -2.86875 0.46875
v -0.75 2.8687500000000004 0.46875
v -0.75 -2.86875 -0.46875
v -0.75 2.8687500000000004 -0.46875
v 0.75 -2.86875 0.46875
v 0.75 2.8687500000000004 0.46875
v 0.75 -2.86875 -0.46875
v 0.75 2.8687500000000004 -0.46875
v 0.46875 -2.86875 -0.75
v 0.46875 2.8687500000000004 -0.75
v -0.46875 -2.86875 -0.75
v -0.46875 2.8687500000000004 -0.75
v 0.46875 -2.86875 0.75
v 0.46875 2.8687500000000004 0.75
v -0.46875 -2.86875 0.75
v -0.46875 2.8687500000000004 0.75
vt 0.1484375 0.9375
vt 0.08984375 0.9375
vt 0.08984375 0.69921875
vt 0.1484375 0.69921875
vt 0.1484375 0.69921875
vt 0.1484375 0.9375
vt 0.08984375 0.9375
vt 0.08984375 0.69921875
vt 0.14453125 0.94140625
vt 0.14453125 1
vt 0.0859375 1
vt 0.0859375 0.94140625
vt 0.0859375 0.94140625
vt 0.14453125 0.94140625
vt 0.14453125 1
vt 0.0859375 1
vt 0.1484375 0.69921875
vt 0.1484375 0.9375
vt 0.08984375 0.9375
vt 0.08984375 0.69921875
vt 0.1484375 0.9375
vt 0.08984375 0.9375
vt 0.08984375 0.69921875
vt 0.1484375 0.69921875
vt 0.20703125 0.96875
vt 0.1484375 0.96875
vt 0.1484375 0.94140625
vt 0.20703125 0.94140625
vt 0.20703125 0.94140625
vt 0.20703125 0.96875
vt 0.1484375 0.96875
vt 0.1484375 0.94140625
vt 0.224609375 0.9765625
vt 0.224609375 1
vt 0.166015625 1
vt 0.166015625 0.9765625
vt 0.224609375 1
vt 0.166015625 1
vt 0.166015625 0.9765625
vt 0.224609375 0.9765625
vt 0.1484375 0.94140625
vt 0.1484375 0.96875
vt 0.20703125 0.96875
vt 0.20703125 0.94140625
vt 0.1484375 0.96875
vt 0.20703125 0.96875
vt 0.20703125 0.94140625
vt 0.1484375 0.94140625
vt 0.166015625 1
vt 0.224609375 1
vt 0.224609375 0.9765625
vt 0.166015625 0.9765625
vt 0.166015625 0.9765625
vt 0.166015625 1
vt 0.224609375 1
vt 0.224609375 0.9765625
vt 0.15234375 0.69921875
vt 0.17578125 0.69921875
vt 0.17578125 0.9375
vt 0.15234375 0.9375
vt 0.15234375 0.9375
vt 0.15234375 0.69921875
vt 0.17578125 0.69921875
vt 0.17578125 0.9375
vt 0.15234375 0.9375
vt 0.15234375 0.69921875
vt 0.17578125 0.69921875
vt 0.17578125 0.9375
vt 0.15234375 0.69921875
vt 0.17578125 0.69921875
vt 0.17578125 0.9375
vt 0.15234375 0.9375
vt 0.224609375 1
vt 0.24552515625 0.9914828125
vt 0.224609375 0.9765625
vt 0.166015625 1
vt 0.166015625 0.9765625
vt 0.14549046875 0.9914828125
vt 0.166015625 1
vt 0.166015625 0.9765625
vt 0.14549046875 0.9914828125
vt 0.224609375 1
vt 0.24552515625 0.9914828125
vt 0.224609375 0.9765625
vt 0.224609375 1
vt 0.224609375 0.9765625
vt 0.24552515625 0.9914828125
vt 0.166015625 1
vt 0.14549046875 0.9914828125
vt 0.166015625 0.9765625
vt 0.166015625 1
vt 0.14549046875 0.9914828125
vt 0.166015625 0.9765625
vt 0.224609375 1
vt 0.224609375 0.9765625
vt 0.24552515625 0.9914828125
vn 1 0 0
vn -1 0 0
vn 0 1 0
vn 0 -1 0
vn 0 0 1
vn 0 0 -1
vn 0.7498378553650922 0.6616216370868467 0
vn -0.7498378553650922 0.6616216370868467 0
vn 0 0.6616216370868467 0.7498378553650922
vn 0 0.6616216370868467 -0.7498378553650922
vn 0.7498378553650925 -0.6616216370868463 0
vn -0.7498378553650925 -0.6616216370868463 0
vn 0 -0.6616216370868463 0.7498378553650925
vn 0 -0.6616216370868463 -0.7498378553650925
vn 0.7071067811865476 0 -0.7071067811865476
vn 0.7071067811865476 0 0.7071067811865476
vn -0.7071067811865476 0 -0.7071067811865476
vn -0.7071067811865476 0 0.7071067811865476
vn 0.5999169722544977 -0.5293385049304392 0.5999169722544977
vn -0.5999169722544977 -0.5293385049304392 0.5999169722544977
vn 0.5999169722544977 -0.5293385049304392 -0.5999169722544977
vn -0.5999169722544977 -0.5293385049304392 -0.5999169722544977
vn 0.5999169722544975 0.5293385049304395 0.5999169722544975
vn -0.5999169722544975 0.5293385049304395 0.5999169722544975
vn 0.5999169722544975 0.5293385049304395 -0.5999169722544975
vn -0.5999169722544975 0.5293385049304395 -0.5999169722544975
usemtl m_7d3d79da-8346-2a30-98f8-34a2b0d3a67d
f 16/1/1 14/2/1 13/3/1 15/4/1
f 9/5/2 10/6/2 12/7/2 11/8/2
f 1/9/3 2/10/3 4/11/3 3/12/3
f 8/13/4 6/14/4 5/15/4 7/16/4
f 21/17/5 22/18/5 24/19/5 23/20/5
f 20/21/6 18/22/6 17/23/6 19/24/6
f 2/25/7 1/26/7 14/27/7 16/28/7
f 10/29/8 3/30/8 4/31/8 12/32/8
f 22/33/9 1/34/9 3/35/9 24/36/9
f 4/37/10 2/38/10 18/39/10 20/40/10
f 13/41/11 5/42/11 6/43/11 15/44/11
f 8/45/12 7/46/12 9/47/12 11/48/12
f 7/49/13 5/50/13 21/51/13 23/52/13
f 17/53/14 6/54/14 8/55/14 19/56/14
f 15/57/15 17/58/15 18/59/15 16/60/15
f 22/61/16 21/62/16 13/63/16 14/64/16
f 20/65/17 19/66/17 11/67/17 12/68/17
f 9/69/18 23/70/18 24/71/18 10/72/18
f 5/73/19 13/74/19 21/75/19
f 7/76/20 23/77/20 9/78/20
f 6/79/21 17/80/21 15/81/21
f 8/82/22 11/83/22 19/84/22
f 1/85/23 22/86/23 14/87/23
f 3/88/24 10/89/24 24/90/24
f 2/91/25 16/92/25 18/93/25
f 4/94/26 20/95/26 12/96/26
o tire
v 6.290010258902112 1.7058906250000003 -1.4460939037736051
v 6.160600736350852 1.7058906250000003 -1.9290568169181392
v 6.290010258902112 -1.7058906249999999 -1.4460939037736051
v 6.160600736350852 -1.7058906249999999 -1.9290568169181392
v 5.565565889185311 2.640625 -1.2519796199467146
v 5.436156366634051 2.640625 -1.7349425330912487
v 5.565565889185311 -2.640625 -1.2519796199467146
v 5.436156366634051 -2.640625 -1.7349425330912487
vt 0.06640625 0.80859375
vt 0.04296875 0.80859375
vt 0.04296875 0.58984375
vt 0.06640625 0.58984375
vt 0.06640625 0.58984375
vt 0.06640625 0.80859375
vt 0.04296875 0.80859375
vt 0.04296875 0.58984375
vt 0.2109375 0.9453125
vt 0.25 0.9453125
vt 0.25 0.96875
vt 0.2109375 0.96875
vt 0.25 0.9453125
vt 0.25 0.96875
vt 0.2109375 0.96875
vt 0.2109375 0.9453125
vt 0 0.58984375
vt 0 0.80859375
vt 0.0390625 0.80859375
vt 0.0390625 0.58984375
vt 0.0390625 0.80859375
vt 0 0.80859375
vt 0 0.58984375
vt 0.0390625 0.58984375
vn 0.9659258262890683 0 -0.25881904510252074
vn -0.9659258262890683 0 0.25881904510252074
vn 0.7533906819979672 0.6258201114210146 -0.20187042482648807
vn 0.7533906819979675 -0.6258201114210145 -0.20187042482648815
vn 0.25881904510252074 0 0.9659258262890683
vn -0.25881904510252074 0 -0.9659258262890683
usemtl m_7d3d79da-8346-2a30-98f8-34a2b0d3a67d
f 26/97/27 25/98/27 27/99/27 28/100/27
f 31/101/28 29/102/28 30/103/28 32/104/28
f 29/105/29 25/106/29 26/107/29 30/108/29
f 28/109/30 27/110/30 31/111/30 32/112/30
f 27/113/31 25/114/31 29/115/31 31/116/31
f 30/117/32 26/118/32 28/119/32 32/120/32
o tire
v -6.290010258902111 1.7058906250000003 1.446093903773604
v -6.160600736350851 1.7058906250000003 1.9290568169181381
v -6.290010258902111 -1.7058906249999999 1.446093903773604
v -6.160600736350851 -1.7058906249999999 1.9290568169181381
v -5.565565889185311 2.640625 1.2519796199467135
v -5.436156366634051 2.640625 1.7349425330912476
v -5.565565889185311 -2.640625 1.2519796199467135
v -5.436156366634051 -2.640625 1.7349425330912476
vt 0.06640625 0.80859375
vt 0.04296875 0.80859375
vt 0.04296875 0.58984375
vt 0.06640625 0.58984375
vt 0.06640625 0.58984375
vt 0.06640625 0.80859375
vt 0.04296875 0.80859375
vt 0.04296875 0.58984375
vt 0.2109375 0.9453125
vt 0.25 0.9453125
vt 0.25 0.96875
vt 0.2109375 0.96875
vt 0.25 0.9453125
vt 0.25 0.96875
vt 0.2109375 0.96875
vt 0.2109375 0.9453125
vt 0 0.58984375
vt 0 0.80859375
vt 0.0390625 0.80859375
vt 0.0390625 0.58984375
vt 0.0390625 0.80859375
vt 0 0.80859375
vt 0 0.58984375
vt 0.0390625 0.58984375
vn -0.9659258262890684 0 0.25881904510252063
vn 0.9659258262890684 0 -0.25881904510252063
vn -0.7533906819979672 0.6258201114210146 0.20187042482648795
vn -0.7533906819979675 -0.6258201114210145 0.20187042482648807
vn -0.25881904510252063 0 -0.9659258262890684
vn 0.25881904510252063 0 0.9659258262890684
usemtl m_7d3d79da-8346-2a30-98f8-34a2b0d3a67d
f 34/121/33 33/122/33 35/123/33 36/124/33
f 39/125/34 37/126/34 38/127/34 40/128/34
f 37/129/35 33/130/35 34/131/35 38/132/35
f 36/133/36 35/134/36 39/135/36 40/136/36
f 35/137/37 33/138/37 37/139/37 39/140/37
f 38/141/38 34/142/38 36/143/38 40/144/38
o tire
v -1.4460939037736051 1.7058906250000003 -6.290010258902112
v -1.9290568169181392 1.7058906250000003 -6.160600736350852
v -1.4460939037736051 -1.7058906249999999 -6.290010258902112
v -1.9290568169181392 -1.7058906249999999 -6.160600736350852
v -1.2519796199467146 2.640625 -5.565565889185311
v -1.7349425330912487 2.640625 -5.436156366634051
v -1.2519796199467146 -2.640625 -5.565565889185311
v -1.7349425330912487 -2.640625 -5.436156366634051
vt 0.06640625 0.80859375
vt 0.04296875 0.80859375
vt 0.04296875 0.58984375
vt 0.06640625 0.58984375
vt 0.06640625 0.58984375
vt 0.06640625 0.80859375
vt 0.04296875 0.80859375
vt 0.04296875 0.58984375
vt 0.2109375 0.9453125
vt 0.25 0.9453125
vt 0.25 0.96875
vt 0.2109375 0.96875
vt 0.25 0.9453125
vt 0.25 0.96875
vt 0.2109375 0.96875
vt 0.2109375 0.9453125
vt 0 0.58984375
vt 0 0.80859375
vt 0.0390625 0.80859375
vt 0.0390625 0.58984375
vt 0.0390625 0.80859375
vt 0 0.80859375
vt 0 0.58984375
vt 0.0390625 0.58984375
vn -0.25881904510252074 0 -0.9659258262890683
vn 0.25881904510252074 0 0.9659258262890683
vn -0.20187042482648807 0.6258201114210146 -0.7533906819979672
vn -0.20187042482648815 -0.6258201114210145 -0.7533906819979675
vn 0.9659258262890683 0 -0.25881904510252074
vn -0.9659258262890683 0 0.25881904510252074
usemtl m_7d3d79da-8346-2a30-98f8-34a2b0d3a67d
f 42/145/39 41/146/39 43/147/39 44/148/39
f 47/149/40 45/150/40 46/151/40 48/152/40
f 45/153/41 41/154/41 42/155/41 46/156/41
f 44/157/42 43/158/42 47/159/42 48/160/42
f 43/161/43 41/162/43 45/163/43 47/164/43
f 46/165/44 42/166/44 44/167/44 48/168/44
o tire
v 1.4460939037736051 1.7058906250000003 6.290010258902112
v 1.9290568169181392 1.7058906250000003 6.160600736350852
v 1.4460939037736051 -1.7058906249999999 6.290010258902112
v 1.9290568169181392 -1.7058906249999999 6.160600736350852
v 1.2519796199467146 2.640625 5.565565889185311
v 1.7349425330912487 2.640625 5.436156366634051
v 1.2519796199467146 -2.640625 5.565565889185311
v 1.7349425330912487 -2.640625 5.436156366634051
vt 0.06640625 0.80859375
vt 0.04296875 0.80859375
vt 0.04296875 0.58984375
vt 0.06640625 0.58984375
vt 0.06640625 0.58984375
vt 0.06640625 0.80859375
vt 0.04296875 0.80859375
vt 0.04296875 0.58984375
vt 0.2109375 0.9453125
vt 0.25 0.9453125
vt 0.25 0.96875
vt 0.2109375 0.96875
vt 0.25 0.9453125
vt 0.25 0.96875
vt 0.2109375 0.96875
vt 0.2109375 0.9453125
vt 0 0.58984375
vt 0 0.80859375
vt 0.0390625 0.80859375
vt 0.0390625 0.58984375
vt 0.0390625 0.80859375
vt 0 0.80859375
vt 0 0.58984375
vt 0.0390625 0.58984375
vn 0.25881904510252074 0 0.9659258262890683
vn -0.25881904510252074 0 -0.9659258262890683
vn 0.20187042482648807 0.6258201114210146 0.7533906819979672
vn 0.20187042482648815 -0.6258201114210145 0.7533906819979675
vn -0.9659258262890683 0 0.25881904510252074
vn 0.9659258262890683 0 -0.25881904510252074
usemtl m_7d3d79da-8346-2a30-98f8-34a2b0d3a67d
f 50/169/45 49/170/45 51/171/45 52/172/45
f 55/173/46 53/174/46 54/175/46 56/176/46
f 53/177/47 49/178/47 50/179/47 54/180/47
f 52/181/48 51/182/48 55/183/48 56/184/48
f 51/185/49 49/186/49 53/187/49 55/188/49
f 54/189/50 50/190/50 52/191/50 56/192/50
o tire
v 4.397359186376807 1.7058906250000003 4.724261722387161
v 4.750912576970081 1.7058906250000003 4.370708331793887
v 4.397359186376807 -1.7058906249999999 4.724261722387161
v 4.750912576970081 -1.7058906249999999 4.370708331793887
v 3.8670291004868966 2.640625 4.1939316364972505
v 4.220582491080171 2.640625 3.8403782459039766
v 3.8670291004868966 -2.640625 4.1939316364972505
v 4.220582491080171 -2.640625 3.8403782459039766
vt 0.06640625 0.80859375
vt 0.04296875 0.80859375
vt 0.04296875 0.58984375
vt 0.06640625 0.58984375
vt 0.06640625 0.58984375
vt 0.06640625 0.80859375
vt 0.04296875 0.80859375
vt 0.04296875 0.58984375
vt 0.2109375 0.9453125
vt 0.25 0.9453125
vt 0.25 0.96875
vt 0.2109375 0.96875
vt 0.25 0.9453125
vt 0.25 0.96875
vt 0.2109375 0.96875
vt 0.2109375 0.9453125
vt 0 0.58984375
vt 0 0.80859375
vt 0.0390625 0.80859375
vt 0.0390625 0.58984375
vt 0.0390625 0.80859375
vt 0 0.80859375
vt 0 0.58984375
vt 0.0390625 0.58984375
vn 0.7071067811865475 0 0.7071067811865476
vn -0.7071067811865475 0 -0.7071067811865476
vn 0.551520257171479 0.6258201114210146 0.5515202571714791
vn 0.5515202571714792 -0.6258201114210145 0.5515202571714793
vn -0.7071067811865476 0 0.7071067811865475
vn 0.7071067811865476 0 -0.7071067811865475
usemtl m_7d3d79da-8346-2a30-98f8-34a2b0d3a67d
f 58/193/51 57/194/51 59/195/51 60/196/51
f 63/197/52 61/198/52 62/199/52 64/200/52
f 61/201/53 57/202/53 58/203/53 62/204/53
f 60/205/54 59/206/54 63/207/54 64/208/54
f 59/209/55 57/210/55 61/211/55 63/212/55
f 62/213/56 58/214/56 60/215/56 64/216/56
o tire
v 6.170355626160766 1.7058906250000003 1.8926510725253043
v 6.299765148712026 1.7058906250000003 1.4096881593807702
v 6.170355626160766 -1.7058906249999999 1.8926510725253043
v 6.299765148712026 -1.7058906249999999 1.4096881593807702
v 5.4459112564439645 2.640625 1.6985367886984137
v 5.575320778995224 2.640625 1.2155738755538796
v 5.4459112564439645 -2.640625 1.6985367886984137
v 5.575320778995224 -2.640625 1.2155738755538796
vt 0.06640625 0.80859375
vt 0.04296875 0.80859375
vt 0.04296875 0.58984375
vt 0.06640625 0.58984375
vt 0.06640625 0.58984375
vt 0.06640625 0.80859375
vt 0.04296875 0.80859375
vt 0.04296875 0.58984375
vt 0.2109375 0.9453125
vt 0.25 0.9453125
vt 0.25 0.96875
vt 0.2109375 0.96875
vt 0.25 0.9453125
vt 0.25 0.96875
vt 0.2109375 0.96875
vt 0.2109375 0.9453125
vt 0 0.58984375
vt 0 0.80859375
vt 0.0390625 0.80859375
vt 0.0390625 0.58984375
vt 0.0390625 0.80859375
vt 0 0.80859375
vt 0 0.58984375
vt 0.0390625 0.58984375
vn 0.9659258262890683 0 0.25881904510252074
vn -0.9659258262890683 0 -0.25881904510252074
vn 0.7533906819979672 0.6258201114210146 0.20187042482648807
vn 0.7533906819979675 -0.6258201114210145 0.20187042482648815
vn -0.25881904510252074 0 0.9659258262890683
vn 0.25881904510252074 0 -0.9659258262890683
usemtl m_7d3d79da-8346-2a30-98f8-34a2b0d3a67d
f 66/217/57 65/218/57 67/219/57 68/220/57
f 71/221/58 69/222/58 70/223/58 72/224/58
f 69/225/59 65/226/59 66/227/59 70/228/59
f 68/229/60 67/230/60 71/231/60 72/232/60
f 67/233/61 65/234/61 69/235/61 71/236/61
f 70/237/62 66/238/62 68/239/62 72/240/62
o tire
v 4.72426172238716 1.7058906250000003 -4.397359186376808
v 4.370708331793886 1.7058906250000003 -4.750912576970082
v 4.72426172238716 -1.7058906249999999 -4.397359186376808
v 4.370708331793886 -1.7058906249999999 -4.750912576970082
v 4.19393163649725 2.640625 -3.8670291004868975
v 3.8403782459039757 2.640625 -4.2205824910801715
v 4.19393163649725 -2.640625 -3.8670291004868975
v 3.8403782459039757 -2.640625 -4.2205824910801715
vt 0.06640625 0.80859375
vt 0.04296875 0.80859375
vt 0.04296875 0.58984375
vt 0.06640625 0.58984375
vt 0.06640625 0.58984375
vt 0.06640625 0.80859375
vt 0.04296875 0.80859375
vt 0.04296875 0.58984375
vt 0.2109375 0.9453125
vt 0.25 0.9453125
vt 0.25 0.96875
vt 0.2109375 0.96875
vt 0.25 0.9453125
vt 0.25 0.96875
vt 0.2109375 0.96875
vt 0.2109375 0.9453125
vt 0 0.58984375
vt 0 0.80859375
vt 0.0390625 0.80859375
vt 0.0390625 0.58984375
vt 0.0390625 0.80859375
vt 0 0.80859375
vt 0 0.58984375
vt 0.0390625 0.58984375
vn 0.7071067811865475 0 -0.7071067811865476
vn -0.7071067811865475 0 0.7071067811865476
vn 0.551520257171479 0.6258201114210146 -0.5515202571714791
vn 0.5515202571714792 -0.6258201114210145 -0.5515202571714793
vn 0.7071067811865476 0 0.7071067811865475
vn -0.7071067811865476 0 -0.7071067811865475
usemtl m_7d3d79da-8346-2a30-98f8-34a2b0d3a67d
f 74/241/63 73/242/63 75/243/63 76/244/63
f 79/245/64 77/246/64 78/247/64 80/248/64
f 77/249/65 73/250/65 74/251/65 78/252/65
f 76/253/66 75/254/66 79/255/66 80/256/66
f 75/257/67 73/258/67 77/259/67 79/260/67
f 78/261/68 74/262/68 76/263/68 80/264/68
o tire
v 1.8926510725253043 1.7058906250000003 -6.170355626160766
v 1.4096881593807702 1.7058906250000003 -6.299765148712026
v 1.8926510725253043 -1.7058906249999999 -6.170355626160766
v 1.4096881593807702 -1.7058906249999999 -6.299765148712026
v 1.6985367886984137 2.640625 -5.4459112564439645
v 1.2155738755538796 2.640625 -5.575320778995224
v 1.6985367886984137 -2.640625 -5.4459112564439645
v 1.2155738755538796 -2.640625 -5.575320778995224
vt 0.06640625 0.80859375
vt 0.04296875 0.80859375
vt 0.04296875 0.58984375
vt 0.06640625 0.58984375
vt 0.06640625 0.58984375
vt 0.06640625 0.80859375
vt 0.04296875 0.80859375
vt 0.04296875 0.58984375
vt 0.2109375 0.9453125
vt 0.25 0.9453125
vt 0.25 0.96875
vt 0.2109375 0.96875
vt 0.25 0.9453125
vt 0.25 0.96875
vt 0.2109375 0.96875
vt 0.2109375 0.9453125
vt 0 0.58984375
vt 0 0.80859375
vt 0.0390625 0.80859375
vt 0.0390625 0.58984375
vt 0.0390625 0.80859375
vt 0 0.80859375
vt 0 0.58984375
vt 0.0390625 0.58984375
vn 0.25881904510252074 0 -0.9659258262890683
vn -0.25881904510252074 0 0.9659258262890683
vn 0.20187042482648807 0.6258201114210146 -0.7533906819979672
vn 0.20187042482648815 -0.6258201114210145 -0.7533906819979675
vn 0.9659258262890683 0 0.25881904510252074
vn -0.9659258262890683 0 -0.25881904510252074
usemtl m_7d3d79da-8346-2a30-98f8-34a2b0d3a67d
f 82/265/69 81/266/69 83/267/69 84/268/69
f 87/269/70 85/270/70 86/271/70 88/272/70
f 85/273/71 81/274/71 82/275/71 86/276/71
f 84/277/72 83/278/72 87/279/72 88/280/72
f 83/281/73 81/282/73 85/283/73 87/284/73
f 86/285/74 82/286/74 84/287/74 88/288/74
o tire
v -4.397359186376807 1.7058906250000003 -4.724261722387162
v -4.750912576970081 1.7058906250000003 -4.370708331793888
v -4.397359186376807 -1.7058906249999999 -4.724261722387162
v -4.750912576970081 -1.7058906249999999 -4.370708331793888
v -3.8670291004868966 2.640625 -4.1939316364972505
v -4.220582491080171 2.640625 -3.8403782459039766
v -3.8670291004868966 -2.640625 -4.1939316364972505
v -4.220582491080171 -2.640625 -3.8403782459039766
vt 0.06640625 0.80859375
vt 0.04296875 0.80859375
vt 0.04296875 0.58984375
vt 0.06640625 0.58984375
vt 0.06640625 0.58984375
vt 0.06640625 0.80859375
vt 0.04296875 0.80859375
vt 0.04296875 0.58984375
vt 0.2109375 0.9453125
vt 0.25 0.9453125
vt 0.25 0.96875
vt 0.2109375 0.96875
vt 0.25 0.9453125
vt 0.25 0.96875
vt 0.2109375 0.96875
vt 0.2109375 0.9453125
vt 0 0.58984375
vt 0 0.80859375
vt 0.0390625 0.80859375
vt 0.0390625 0.58984375
vt 0.0390625 0.80859375
vt 0 0.80859375
vt 0 0.58984375
vt 0.0390625 0.58984375
vn -0.7071067811865475 0 -0.7071067811865477
vn 0.7071067811865475 0 0.7071067811865477
vn -0.551520257171479 0.6258201114210146 -0.5515202571714792
vn -0.5515202571714792 -0.6258201114210145 -0.5515202571714793
vn 0.7071067811865477 0 -0.7071067811865475
vn -0.7071067811865477 0 0.7071067811865475
usemtl m_7d3d79da-8346-2a30-98f8-34a2b0d3a67d
f 90/289/75 89/290/75 91/291/75 92/292/75
f 95/293/76 93/294/76 94/295/76 96/296/76
f 93/297/77 89/298/77 90/299/77 94/300/77
f 92/301/78 91/302/78 95/303/78 96/304/78
f 91/305/79 89/306/79 93/307/79 95/308/79
f 94/309/80 90/310/80 92/311/80 96/312/80
o tire
v -6.170355626160765 1.7058906250000003 -1.8926510725253032
v -6.299765148712025 1.7058906250000003 -1.409688159380769
v -6.170355626160765 -1.7058906249999999 -1.8926510725253032
v -6.299765148712025 -1.7058906249999999 -1.409688159380769
v -5.4459112564439645 2.640625 -1.6985367886984126
v -5.575320778995224 2.640625 -1.2155738755538785
v -5.4459112564439645 -2.640625 -1.6985367886984126
v -5.575320778995224 -2.640625 -1.2155738755538785
vt 0.06640625 0.80859375
vt 0.04296875 0.80859375
vt 0.04296875 0.58984375
vt 0.06640625 0.58984375
vt 0.06640625 0.58984375
vt 0.06640625 0.80859375
vt 0.04296875 0.80859375
vt 0.04296875 0.58984375
vt 0.2109375 0.9453125
vt 0.25 0.9453125
vt 0.25 0.96875
vt 0.2109375 0.96875
vt 0.25 0.9453125
vt 0.25 0.96875
vt 0.2109375 0.96875
vt 0.2109375 0.9453125
vt 0 0.58984375
vt 0 0.80859375
vt 0.0390625 0.80859375
vt 0.0390625 0.58984375
vt 0.0390625 0.80859375
vt 0 0.80859375
vt 0 0.58984375
vt 0.0390625 0.58984375
vn -0.9659258262890684 0 -0.25881904510252063
vn 0.9659258262890684 0 0.25881904510252063
vn -0.7533906819979672 0.6258201114210146 -0.20187042482648795
vn -0.7533906819979675 -0.6258201114210145 -0.20187042482648807
vn 0.25881904510252063 0 -0.9659258262890684
vn -0.25881904510252063 0 0.9659258262890684
usemtl m_7d3d79da-8346-2a30-98f8-34a2b0d3a67d
f 98/313/81 97/314/81 99/315/81 100/316/81
f 103/317/82 101/318/82 102/319/82 104/320/82
f 101/321/83 97/322/83 98/323/83 102/324/83
f 100/325/84 99/326/84 103/327/84 104/328/84
f 99/329/85 97/330/85 101/331/85 103/332/85
f 102/333/86 98/334/86 100/335/86 104/336/86
o tire
v -4.72426172238716 1.7058906250000003 4.397359186376809
v -4.370708331793886 1.7058906250000003 4.750912576970083
v -4.72426172238716 -1.7058906249999999 4.397359186376809
v -4.370708331793886 -1.7058906249999999 4.750912576970083
v -4.19393163649725 2.640625 3.8670291004868975
v -3.8403782459039757 2.640625 4.2205824910801715
v -4.19393163649725 -2.640625 3.8670291004868975
v -3.8403782459039757 -2.640625 4.2205824910801715
vt 0.06640625 0.80859375
vt 0.04296875 0.80859375
vt 0.04296875 0.58984375
vt 0.06640625 0.58984375
vt 0.06640625 0.58984375
vt 0.06640625 0.80859375
vt 0.04296875 0.80859375
vt 0.04296875 0.58984375
vt 0.2109375 0.9453125
vt 0.25 0.9453125
vt 0.25 0.96875
vt 0.2109375 0.96875
vt 0.25 0.9453125
vt 0.25 0.96875
vt 0.2109375 0.96875
vt 0.2109375 0.9453125
vt 0 0.58984375
vt 0 0.80859375
vt 0.0390625 0.80859375
vt 0.0390625 0.58984375
vt 0.0390625 0.80859375
vt 0 0.80859375
vt 0 0.58984375
vt 0.0390625 0.58984375
vn -0.7071067811865475 0 0.7071067811865477
vn 0.7071067811865475 0 -0.7071067811865477
vn -0.551520257171479 0.6258201114210146 0.5515202571714792
vn -0.5515202571714792 -0.6258201114210145 0.5515202571714793
vn -0.7071067811865477 0 -0.7071067811865475
vn 0.7071067811865477 0 0.7071067811865475
usemtl m_7d3d79da-8346-2a30-98f8-34a2b0d3a67d
f 106/337/87 105/338/87 107/339/87 108/340/87
f 111/341/88 109/342/88 110/343/88 112/344/88
f 109/345/89 105/346/89 106/347/89 110/348/89
f 108/349/90 107/350/90 111/351/90 112/352/90
f 107/353/91 105/354/91 109/355/91 111/356/91
f 110/357/92 106/358/92 108/359/92 112/360/92
o tire
v -1.8926510725253043 1.7058906250000003 6.170355626160766
v -1.4096881593807702 1.7058906250000003 6.299765148712026
v -1.8926510725253043 -1.7058906249999999 6.170355626160766
v -1.4096881593807702 -1.7058906249999999 6.299765148712026
v -1.6985367886984137 2.640625 5.4459112564439645
v -1.2155738755538796 2.640625 5.575320778995224
v -1.6985367886984137 -2.640625 5.4459112564439645
v -1.2155738755538796 -2.640625 5.575320778995224
vt 0.06640625 0.80859375
vt 0.04296875 0.80859375
vt 0.04296875 0.58984375
vt 0.06640625 0.58984375
vt 0.06640625 0.58984375
vt 0.06640625 0.80859375
vt 0.04296875 0.80859375
vt 0.04296875 0.58984375
vt 0.2109375 0.9453125
vt 0.25 0.9453125
vt 0.25 0.96875
vt 0.2109375 0.96875
vt 0.25 0.9453125
vt 0.25 0.96875
vt 0.2109375 0.96875
vt 0.2109375 0.9453125
vt 0 0.58984375
vt 0 0.80859375
vt 0.0390625 0.80859375
vt 0.0390625 0.58984375
vt 0.0390625 0.80859375
vt 0 0.80859375
vt 0 0.58984375
vt 0.0390625 0.58984375
vn -0.25881904510252074 0 0.9659258262890683
vn 0.25881904510252074 0 -0.9659258262890683
vn -0.20187042482648807 0.6258201114210146 0.7533906819979672
vn -0.20187042482648815 -0.6258201114210145 0.7533906819979675
vn -0.9659258262890683 0 -0.25881904510252074
vn 0.9659258262890683 0 0.25881904510252074
usemtl m_7d3d79da-8346-2a30-98f8-34a2b0d3a67d
f 114/361/93 113/362/93 115/363/93 116/364/93
f 119/365/94 117/366/94 118/367/94 120/368/94
f 117/369/95 113/370/95 114/371/95 118/372/95
f 116/373/96 115/374/96 119/375/96 120/376/96
f 115/377/97 113/378/97 117/379/97 119/380/97
f 118/381/98 114/382/98 116/383/98 120/384/98
o tire
v 1.118688125 3.6875 4.175
v 1.51351875 2.60745625 5.648528125
v 1.607695 0 6
v 1.51351875 -2.60745625 5.648528125
v 1.118688125 -3.6875 4.175
v 0.686474375 -2.97620625 2.5619575
v 0.625414375 0 2.33407875
v 0.686474375 2.97620625 2.5619575
v 3.056311875 3.6875 3.056311875
v 4.135009375 2.60745625 4.135009375
v 4.392305 0 4.392305
v 4.135009375 -2.60745625 4.135009375
v 3.056311875 -3.6875 3.056311875
v 1.875483125 -2.97620625 1.875483125
v 1.708664375 0 1.708664375
v 1.875483125 2.97620625 1.875483125
v 4.175 3.6875 1.118688125
v 5.648528125 2.60745625 1.51351875
v 6 0 1.607695
v 5.648528125 -2.60745625 1.51351875
v 4.175 -3.6875 1.118688125
v 2.5619575 -2.97620625 0.686474375
v 2.33407875 0 0.625414375
v 2.5619575 2.97620625 0.686474375
v 4.175 3.6875 -1.118688125
v 5.648528125 2.60745625 -1.51351875
v 6 0 -1.607695
v 5.648528125 -2.60745625 -1.51351875
v 4.175 -3.6875 -1.118688125
v 2.5619575 -2.97620625 -0.686474375
v 2.33407875 0 -0.625414375
v 2.5619575 2.97620625 -0.686474375
v 3.056311875 3.6875 -3.056311875
v 4.135009375 2.60745625 -4.135009375
v 4.392305 0 -4.392305
v 4.135009375 -2.60745625 -4.135009375
v 3.056311875 -3.6875 -3.056311875
v 1.875483125 -2.97620625 -1.875483125
v 1.708664375 0 -1.708664375
v 1.875483125 2.97620625 -1.875483125
v 1.118688125 3.6875 -4.175
v 1.51351875 2.60745625 -5.648528125
v 1.607695 0 -6
v 1.51351875 -2.60745625 -5.648528125
v 1.118688125 -3.6875 -4.175
v 0.686474375 -2.97620625 -2.5619575
v 0.625414375 0 -2.33407875
v 0.686474375 2.97620625 -2.5619575
v -1.118688125 3.6875 -4.175
v -1.51351875 2.60745625 -5.648528125
v -1.607695 0 -6
v -1.51351875 -2.60745625 -5.648528125
v -1.118688125 -3.6875 -4.175
v -0.686474375 -2.97620625 -2.5619575
v -0.625414375 0 -2.33407875
v -0.686474375 2.97620625 -2.5619575
v -3.056311875 3.6875 -3.056311875
v -4.135009375 2.60745625 -4.135009375
v -4.392305 0 -4.392305
v -4.135009375 -2.60745625 -4.135009375
v -3.056311875 -3.6875 -3.056311875
v -1.875483125 -2.97620625 -1.875483125
v -1.708664375 0 -1.708664375
v -1.875483125 2.97620625 -1.875483125
v -4.175 3.6875 -1.118688125
v -5.648528125 2.60745625 -1.51351875
v -6 0 -1.607695
v -5.648528125 -2.60745625 -1.51351875
v -4.175 -3.6875 -1.118688125
v -2.5619575 -2.97620625 -0.686474375
v -2.33407875 0 -0.625414375
v -2.5619575 2.97620625 -0.686474375
v -4.175 3.6875 1.118688125
v -5.648528125 2.60745625 1.51351875
v -6 0 1.607695
v -5.648528125 -2.60745625 1.51351875
v -4.175 -3.6875 1.118688125
v -2.5619575 -2.97620625 0.686474375
v -2.33407875 0 0.625414375
v -2.5619575 2.97620625 0.686474375
v -3.056311875 3.6875 3.056311875
v -4.135009375 2.60745625 4.135009375
v -4.392305 0 4.392305
v -4.135009375 -2.60745625 4.135009375
v -3.056311875 -3.6875 3.056311875
v -1.875483125 -2.97620625 1.875483125
v -1.708664375 0 1.708664375
v -1.875483125 2.97620625 1.875483125
v -1.118688125 3.6875 4.175
v -1.51351875 2.60745625 5.648528125
v -1.607695 0 6
v -1.51351875 -2.60745625 5.648528125
v -1.118688125 -3.6875 4.175
v -0.686474375 -2.97620625 2.5619575
v -0.625414375 0 2.33407875
v -0.686474375 2.97620625 2.5619575
vt 0.2744565625 0.88671875
vt 0.25 1
vt 0.4375 1
vt 0.4130434375 0.88671875
vt 0.665991171875 1
vt 0.66015625 0.8359375
vt 0.859375 0.8359375
vt 0.853540078125 1
vt 0.66015625 0.8359375
vt 0.665991171875 0.671875
vt 0.853540078125 0.671875
vt 0.859375 0.8359375
vt 0.25 1
vt 0.2744565625 0.88671875
vt 0.4130434375 0.88671875
vt 0.4375 1
vt 0.21484375 0.58203125
vt 0.187678046875 0.69140625
vt 0.101384453125 0.69140625
vt 0.07421875 0.58203125
vt 0.0859375 1
vt 0.082115390625 0.8125
vt 0.003822109375 0.8125
vt 0 1
vt 0.082115390625 0.8125
vt 0.0859375 1
vt 0 1
vt 0.003822109375 0.8125
vt 0.187678046875 0.69140625
vt 0.21484375 0.58203125
vt 0.07421875 0.58203125
vt 0.101384453125 0.69140625
vt 0.2744565625 0.88671875
vt 0.25 1
vt 0.4375 1
vt 0.4130434375 0.88671875
vt 0.665991171875 1
vt 0.66015625 0.8359375
vt 0.859375 0.8359375
vt 0.853540078125 1
vt 0.66015625 0.8359375
vt 0.665991171875 0.671875
vt 0.853540078125 0.671875
vt 0.859375 0.8359375
vt 0.25 1
vt 0.2744565625 0.88671875
vt 0.4130434375 0.88671875
vt 0.4375 1
vt 0.21484375 0.58203125
vt 0.187678046875 0.69140625
vt 0.101384453125 0.69140625
vt 0.07421875 0.58203125
vt 0.0859375 1
vt 0.082115390625 0.8125
vt 0.003822109375 0.8125
vt 0 1
vt 0.082115390625 0.8125
vt 0.0859375 1
vt 0 1
vt 0.003822109375 0.8125
vt 0.496271796875 0.437500390625
vt 0.5234375 0.546875
vt 0.3828125 0.546875
vt 0.409978203125 0.4375
vt 0.2744565625 0.88671875
vt 0.25 1
vt 0.4375 1
vt 0.4130434375 0.88671875
vt 0.665991171875 1
vt 0.66015625 0.8359375
vt 0.859375 0.8359375
vt 0.853540078125 1
vt 0.66015625 0.8359375
vt 0.665991171875 0.671875
vt 0.853540078125 0.671875
vt 0.859375 0.8359375
vt 0.25 1
vt 0.2744565625 0.88671875
vt 0.4130434375 0.88671875
vt 0.4375 1
vt 0.21484375 0.58203125
vt 0.187678046875 0.69140625
vt 0.101384453125 0.69140625
vt 0.07421875 0.58203125
vt 0.0859375 1
vt 0.082115390625 0.8125
vt 0.003822109375 0.8125
vt 0 1
vt 0.082115390625 0.8125
vt 0.0859375 1
vt 0 1
vt 0.003822109375 0.8125
vt 0.187678046875 0.69140625
vt 0.21484375 0.58203125
vt 0.07421875 0.58203125
vt 0.101384453125 0.69140625
vt 0.2744565625 0.88671875
vt 0.25 1
vt 0.4375 1
vt 0.4130434375 0.88671875
vt 0.665991171875 1
vt 0.66015625 0.8359375
vt 0.859375 0.8359375
vt 0.853540078125 1
vt 0.66015625 0.8359375
vt 0.665991171875 0.671875
vt 0.853540078125 0.671875
vt 0.859375 0.8359375
vt 0.25 1
vt 0.2744565625 0.88671875
vt 0.4130434375 0.88671875
vt 0.4375 1
vt 0.21484375 0.58203125
vt 0.187678046875 0.69140625
vt 0.101384453125 0.69140625
vt 0.07421875 0.58203125
vt 0.0859375 1
vt 0.082115390625 0.8125
vt 0.003822109375 0.8125
vt 0 1
vt 0.082115390625 0.8125
vt 0.0859375 1
vt 0 1
vt 0.003822109375 0.8125
vt 0.187678046875 0.69140625
vt 0.21484375 0.58203125
vt 0.07421875 0.58203125
vt 0.101384453125 0.69140625
vt 0.2744565625 0.88671875
vt 0.25 1
vt 0.4375 1
vt 0.4130434375 0.88671875
vt 0.665991171875 1
vt 0.66015625 0.8359375
vt 0.859375 0.8359375
vt 0.853540078125 1
vt 0.66015625 0.8359375
vt 0.665991171875 0.671875
vt 0.853540078125 0.671875
vt 0.859375 0.8359375
vt 0.25 1
vt 0.2744565625 0.88671875
vt 0.4130434375 0.88671875
vt 0.4375 1
vt 0.21484375 0.58203125
vt 0.187678046875 0.69140625
vt 0.101384453125 0.69140625
vt 0.07421875 0.58203125
vt 0.0859375 1
vt 0.082115390625 0.8125
vt 0.003822109375 0.8125
vt 0 1
vt 0.082115390625 0.8125
vt 0.0859375 1
vt 0 1
vt 0.003822109375 0.8125
vt 0.187678046875 0.691405859375
vt 0.21484375 0.58203125
vt 0.07421875 0.58203125
vt 0.101384453125 0.69140625
vt 0.6161684375 0.88671875
vt 0.640625 1
vt 0.453125 1
vt 0.4775815625 0.88671875
vt 0.665991171875 1
vt 0.66015625 0.8359375
vt 0.859375 0.8359375
vt 0.853540078125 1
vt 0.66015625 0.8359375
vt 0.665991171875 0.671875
vt 0.853540078125 0.671875
vt 0.859375 0.8359375
vt 0.453125 1
vt 0.4775815625 0.88671875
vt 0.6161684375 0.88671875
vt 0.640625 1
vt 0.23046875 0.546875
vt 0.257634453125 0.4375
vt 0.343928046875 0.4375
vt 0.37109375 0.546875
vt 0.0859375 1
vt 0.082115390625 0.8125
vt 0.003822109375 0.8125
vt 0 1
vt 0.082115390625 0.8125
vt 0.0859375 1
vt 0 1
vt 0.003822109375 0.8125
vt 0.343928046875 0.4375
vt 0.37109375 0.546875
vt 0.23046875 0.546875
vt 0.257634453125 0.4375
vt 0.2744565625 0.88671875
vt 0.25 1
vt 0.4375 1
vt 0.4130434375 0.88671875
vt 0.665991171875 1
vt 0.66015625 0.8359375
vt 0.859375 0.8359375
vt 0.853540078125 1
vt 0.66015625 0.8359375
vt 0.665991171875 0.671875
vt 0.853540078125 0.671875
vt 0.859375 0.8359375
vt 0.25 1
vt 0.2744565625 0.88671875
vt 0.4130434375 0.88671875
vt 0.4375 1
vt 0.21484375 0.58203125
vt 0.187678046875 0.69140625
vt 0.101384453125 0.69140625
vt 0.07421875 0.58203125
vt 0.0859375 1
vt 0.082115390625 0.8125
vt 0.003822109375 0.8125
vt 0 1
vt 0.082115390625 0.8125
vt 0.0859375 1
vt 0 1
vt 0.003822109375 0.8125
vt 0.187678046875 0.69140625
vt 0.21484375 0.58203125
vt 0.07421875 0.58203125
vt 0.101384453125 0.69140625
vt 0.2744565625 0.88671875
vt 0.25 1
vt 0.4375 1
vt 0.4130434375 0.88671875
vt 0.665991171875 1
vt 0.66015625 0.8359375
vt 0.859375 0.8359375
vt 0.853540078125 1
vt 0.66015625 0.8359375
vt 0.665991171875 0.671875
vt 0.853540078125 0.671875
vt 0.859375 0.8359375
vt 0.25 1
vt 0.2744565625 0.88671875
vt 0.4130434375 0.88671875
vt 0.4375 1
vt 0.21484375 0.58203125
vt 0.187678046875 0.69140625
vt 0.101384453125 0.69140625
vt 0.07421875 0.58203125
vt 0.0859375 1
vt 0.082115390625 0.8125
vt 0.003822109375 0.8125
vt 0 1
vt 0.082115390625 0.8125
vt 0.0859375 1
vt 0 1
vt 0.003822109375 0.8125
vt 0.187678046875 0.691405859375
vt 0.21484375 0.58203125
vt 0.07421875 0.58203125
vt 0.101384453125 0.69140625
vt 0.2744565625 0.88671875
vt 0.25 1
vt 0.4375 1
vt 0.4130434375 0.88671875
vt 0.665991171875 1
vt 0.66015625 0.8359375
vt 0.859375 0.8359375
vt 0.853540078125 1
vt 0.66015625 0.8359375
vt 0.665991171875 0.671875
vt 0.853540078125 0.671875
vt 0.859375 0.8359375
vt 0.25 1
vt 0.2744565625 0.88671875
vt 0.4130434375 0.88671875
vt 0.4375 1
vt 0.21484375 0.58203125
vt 0.187678046875 0.69140625
vt 0.101384453125 0.69140625
vt 0.07421875 0.58203125
vt 0.0859375 1
vt 0.082115390625 0.8125
vt 0.003822109375 0.8125
vt 0 1
vt 0.082115390625 0.8125
vt 0.0859375 1
vt 0 1
vt 0.003822109375 0.8125
vt 0.187678046875 0.69140625
vt 0.21484375 0.58203125
vt 0.07421875 0.58203125
vt 0.101384453125 0.69140625
vt 0.2744565625 0.88671875
vt 0.25 1
vt 0.4375 1
vt 0.4130434375 0.88671875
vt 0.665991171875 1
vt 0.66015625 0.8359375
vt 0.859375 0.8359375
vt 0.853540078125 1
vt 0.66015625 0.8359375
vt 0.665991171875 0.671875
vt 0.853540078125 0.671875
vt 0.859375 0.8359375
vt 0.25 1
vt 0.2744565625 0.88671875
vt 0.4130434375 0.88671875
vt 0.4375 1
vt 0.3828125 0.546875
vt 0.409978203125 0.4375
vt 0.496271796875 0.4375
vt 0.5234375 0.546875
vt 0.0859375 1
vt 0.082115390625 0.8125
vt 0.003822109375 0.8125
vt 0 1
vt 0.082115390625 0.8125
vt 0.0859375 1
vt 0 1
vt 0.003822109375 0.8125
vt 0.187678046875 0.69140625
vt 0.21484375 0.58203125
vt 0.07421875 0.58203125
vt 0.101384453125 0.69140625
vt 0.2744565625 0.88671875
vt 0.25 1
vt 0.4375 1
vt 0.4130434375 0.88671875
vt 0.665991171875 1
vt 0.66015625 0.8359375
vt 0.859375 0.8359375
vt 0.853540078125 1
vt 0.66015625 0.8359375
vt 0.665991171875 0.671875
vt 0.853540078125 0.671875
vt 0.859375 0.8359375
vt 0.25 1
vt 0.2744565625 0.88671875
vt 0.4130434375 0.88671875
vt 0.4375 1
vt 0.21484375 0.58203125
vt 0.187678046875 0.69140625
vt 0.101384453125 0.69140625
vt 0.07421875 0.58203125
vt 0.0859375 1
vt 0.082115390625 0.8125
vt 0.003822109375 0.8125
vt 0 1
vt 0.082115390625 0.8125
vt 0.0859375 1
vt 0 1
vt 0.003822109375 0.8125
vt 0.187678046875 0.691405859375
vt 0.21484375 0.58203125
vt 0.07421875 0.58203125
vt 0.101384453125 0.69140625
vt 0.2744565625 0.88671875
vt 0.25 1
vt 0.4375 1
vt 0.4130434375 0.88671875
vt 0.665991171875 1
vt 0.66015625 0.8359375
vt 0.859375 0.8359375
vt 0.853540078125 1
vt 0.66015625 0.8359375
vt 0.665991171875 0.671875
vt 0.853540078125 0.671875
vt 0.859375 0.8359375
vt 0.25 1
vt 0.2744565625 0.88671875
vt 0.4130434375 0.88671875
vt 0.4375 1
vt 0.078125 0.546875
vt 0.105290703125 0.4375
vt 0.191584296875 0.4375
vt 0.21875 0.546875
vt 0.0859375 1
vt 0.082115390625 0.8125
vt 0.003822109375 0.8125
vt 0 1
vt 0.082115390625 0.8125
vt 0.0859375 1
vt 0 1
vt 0.003822109375 0.8125
vt 0.191584296875 0.4375
vt 0.21875 0.546875
vt 0.078125 0.546875
vt 0.105290703125 0.4375
vn 0.29558516166660537 0.8065468358566534 0.5119683718474681
vn 0.4955184872520631 0.1335867131724061 0.858263373828349
vn 0.4955186708256189 -0.1335867056736456 0.8582632690092677
vn 0.29558520791953824 -0.806546829657105 0.5119683549099848
vn -0.2017386981859758 -0.9149895837487091 -0.34942174987483565
vn -0.4985406095851897 -0.07634341669949704 -0.8634980853024947
vn -0.49854071148108325 0.07634341430183171 -0.8634980266848756
vn -0.20173881592611592 0.9149895718420707 -0.3494217130760377
vn 0.5119683303391288 0.8065468709874237 0.2955851377017476
vn 0.8582633456920428 0.13358695419773992 0.4955184710075624
vn 0.858263239122218 -0.13358696169648454 0.49551865357031777
vn 0.5119682987516558 -0.8065468771869624 0.2955851754964965
vn -0.34942187092282073 -0.9149895221133219 -0.20173876807304755
vn -0.8634980888773529 -0.07634336278725738 -0.4985406116491339
vn -0.8634980299417605 0.07634336518492689 -0.4985407133614462
vn -0.34942178735622953 0.9149895340199692 -0.20173885881182513
vn 0.5911701780343089 0.8065468496019828 0
vn 0.9910371199910345 0.1335867762912028 0
vn 0.9910371199910345 -0.13358677629120283 0
vn 0.5911701780343089 -0.8065468496019828 0
vn -0.4034775024636554 -0.9149895655173841 0
vn -0.9970815840420199 -0.07634340026653574 0
vn -0.9970815840420199 0.07634340026653573 0
vn -0.40347750246365527 0.914989565517384 0
vn 0.5119683718474681 0.8065468358566534 -0.29558516166660537
vn 0.858263373828349 0.1335867131724061 -0.4955184872520631
vn 0.8582632690092677 -0.1335867056736456 -0.4955186708256189
vn 0.5119683549099848 -0.806546829657105 -0.29558520791953824
vn -0.34942174987483565 -0.9149895837487091 0.2017386981859758
vn -0.8634980853024947 -0.07634341669949704 0.4985406095851897
vn -0.8634980266848756 0.07634341430183171 0.49854071148108325
vn -0.3494217130760377 0.9149895718420707 0.20173881592611592
vn 0.2955851377017476 0.8065468709874237 -0.5119683303391288
vn 0.4955184710075624 0.13358695419773992 -0.8582633456920428
vn 0.4955186535703177 -0.13358696169648454 -0.8582632391222179
vn 0.2955851754964965 -0.8065468771869624 -0.5119682987516558
vn -0.20173876807304755 -0.9149895221133219 0.34942187092282073
vn -0.4985406116491339 -0.07634336278725738 0.8634980888773529
vn -0.4985407133614462 0.07634336518492689 0.8634980299417605
vn -0.20173885881182513 0.9149895340199692 0.34942178735622953
vn 0 0.8065468496019828 -0.5911701780343089
vn 0 0.1335867762912028 -0.9910371199910345
vn 0 -0.13358677629120283 -0.9910371199910345
vn 0 -0.8065468496019828 -0.5911701780343089
vn 0 -0.9149895655173841 0.4034775024636554
vn 0 -0.07634340026653574 0.9970815840420199
vn 0 0.07634340026653573 0.9970815840420199
vn 0 0.914989565517384 0.40347750246365527
vn -0.29558516166660537 0.8065468358566534 -0.5119683718474681
vn -0.4955184872520631 0.1335867131724061 -0.858263373828349
vn -0.4955186708256189 -0.1335867056736456 -0.8582632690092677
vn -0.29558520791953824 -0.806546829657105 -0.5119683549099848
vn 0.2017386981859758 -0.9149895837487091 0.34942174987483565
vn 0.4985406095851897 -0.07634341669949704 0.8634980853024947
vn 0.49854071148108325 0.07634341430183171 0.8634980266848756
vn 0.20173881592611592 0.9149895718420707 0.3494217130760377
vn -0.5119683303391288 0.8065468709874237 -0.2955851377017476
vn -0.8582633456920428 0.13358695419773992 -0.4955184710075624
vn -0.858263239122218 -0.13358696169648454 -0.49551865357031777
vn -0.5119682987516558 -0.8065468771869624 -0.2955851754964965
vn 0.34942187092282073 -0.9149895221133219 0.20173876807304755
vn 0.8634980888773529 -0.07634336278725738 0.4985406116491339
vn 0.8634980299417605 0.07634336518492689 0.4985407133614462
vn 0.34942178735622953 0.9149895340199692 0.20173885881182513
vn -0.5911701780343089 0.8065468496019828 0
vn -0.9910371199910345 0.1335867762912028 0
vn -0.9910371199910345 -0.13358677629120283 0
vn -0.5911701780343089 -0.8065468496019828 0
vn 0.4034775024636554 -0.9149895655173841 0
vn 0.9970815840420199 -0.07634340026653574 0
vn 0.9970815840420199 0.07634340026653573 0
vn 0.40347750246365527 0.914989565517384 0
vn -0.5119683718474681 0.8065468358566534 0.29558516166660537
vn -0.858263373828349 0.1335867131724061 0.4955184872520631
vn -0.8582632690092677 -0.1335867056736456 0.4955186708256189
vn -0.5119683549099848 -0.806546829657105 0.29558520791953824
vn 0.34942174987483565 -0.9149895837487091 -0.2017386981859758
vn 0.8634980853024947 -0.07634341669949704 -0.4985406095851897
vn 0.8634980266848756 0.07634341430183171 -0.49854071148108325
vn 0.3494217130760377 0.9149895718420707 -0.20173881592611592
vn -0.2955851377017476 0.8065468709874237 0.5119683303391288
vn -0.4955184710075624 0.13358695419773992 0.8582633456920428
vn -0.4955186535703177 -0.13358696169648454 0.8582632391222179
vn -0.2955851754964965 -0.8065468771869624 0.5119682987516558
vn 0.20173876807304755 -0.9149895221133219 -0.34942187092282073
vn 0.4985406116491339 -0.07634336278725738 -0.8634980888773529
vn 0.4985407133614462 0.07634336518492689 -0.8634980299417605
vn 0.20173885881182513 0.9149895340199692 -0.34942178735622953
vn 0 0.8065468496019828 0.5911701780343089
vn 0 0.1335867762912028 0.9910371199910345
vn 0 -0.13358677629120283 0.9910371199910345
vn 0 -0.8065468496019828 0.5911701780343089
vn 0 -0.9149895655173841 -0.4034775024636554
vn 0 -0.07634340026653574 -0.9970815840420199
vn 0 0.07634340026653573 -0.9970815840420199
vn 0 0.914989565517384 -0.40347750246365527
usemtl m_7d3d79da-8346-2a30-98f8-34a2b0d3a67d
f 121/385/99 122/386/99 130/387/99 129/388/99
f 122/389/100 123/390/100 131/391/100 130/392/100
f 123/393/101 124/394/101 132/395/101 131/396/101
f 124/397/102 125/398/102 133/399/102 132/400/102
f 125/401/103 126/402/103 134/403/103 133/404/103
f 126/405/104 127/406/104 135/407/104 134/408/104
f 127/409/105 128/410/105 136/411/105 135/412/105
f 128/413/106 121/414/106 129/415/106 136/416/106
f 129/417/107 130/418/107 138/419/107 137/420/107
f 130/421/108 131/422/108 139/423/108 138/424/108
f 131/425/109 132/426/109 140/427/109 139/428/109
f 132/429/110 133/430/110 141/431/110 140/432/110
f 133/433/111 134/434/111 142/435/111 141/436/111
f 134/437/112 135/438/112 143/439/112 142/440/112
f 135/441/113 136/442/113 144/443/113 143/444/113
f 136/445/114 129/446/114 137/447/114 144/448/114
f 137/449/115 138/450/115 146/451/115 145/452/115
f 138/453/116 139/454/116 147/455/116 146/456/116
f 139/457/117 140/458/117 148/459/117 147/460/117
f 140/461/118 141/462/118 149/463/118 148/464/118
f 141/465/119 142/466/119 150/467/119 149/468/119
f 142/469/120 143/470/120 151/471/120 150/472/120
f 143/473/121 144/474/121 152/475/121 151/476/121
f 144/477/122 137/478/122 145/479/122 152/480/122
f 145/481/123 146/482/123 154/483/123 153/484/123
f 146/485/124 147/486/124 155/487/124 154/488/124
f 147/489/125 148/490/125 156/491/125 155/492/125
f 148/493/126 149/494/126 157/495/126 156/496/126
f 149/497/127 150/498/127 158/499/127 157/500/127
f 150/501/128 151/502/128 159/503/128 158/504/128
f 151/505/129 152/506/129 160/507/129 159/508/129
f 152/509/130 145/510/130 153/511/130 160/512/130
f 153/513/131 154/514/131 162/515/131 161/516/131
f 154/517/132 155/518/132 163/519/132 162/520/132
f 155/521/133 156/522/133 164/523/133 163/524/133
f 156/525/134 157/526/134 165/527/134 164/528/134
f 157/529/135 158/530/135 166/531/135 165/532/135
f 158/533/136 159/534/136 167/535/136 166/536/136
f 159/537/137 160/538/137 168/539/137 167/540/137
f 160/541/138 153/542/138 161/543/138 168/544/138
f 161/545/139 162/546/139 170/547/139 169/548/139
f 162/549/140 163/550/140 171/551/140 170/552/140
f 163/553/141 164/554/141 172/555/141 171/556/141
f 164/557/142 165/558/142 173/559/142 172/560/142
f 165/561/143 166/562/143 174/563/143 173/564/143
f 166/565/144 167/566/144 175/567/144 174/568/144
f 167/569/145 168/570/145 176/571/145 175/572/145
f 168/573/146 161/574/146 169/575/146 176/576/146
f 169/577/147 170/578/147 178/579/147 177/580/147
f 170/581/148 171/582/148 179/583/148 178/584/148
f 171/585/149 172/586/149 180/587/149 179/588/149
f 172/589/150 173/590/150 181/591/150 180/592/150
f 173/593/151 174/594/151 182/595/151 181/596/151
f 174/597/152 175/598/152 183/599/152 182/600/152
f 175/601/153 176/602/153 184/603/153 183/604/153
f 176/605/154 169/606/154 177/607/154 184/608/154
f 177/609/155 178/610/155 186/611/155 185/612/155
f 178/613/156 179/614/156 187/615/156 186/616/156
f 179/617/157 180/618/157 188/619/157 187/620/157
f 180/621/158 181/622/158 189/623/158 188/624/158
f 181/625/159 182/626/159 190/627/159 189/628/159
f 182/629/160 183/630/160 191/631/160 190/632/160
f 183/633/161 184/634/161 192/635/161 191/636/161
f 184/637/162 177/638/162 185/639/162 192/640/162
f 185/641/163 186/642/163 194/643/163 193/644/163
f 186/645/164 187/646/164 195/647/164 194/648/164
f 187/649/165 188/650/165 196/651/165 195/652/165
f 188/653/166 189/654/166 197/655/166 196/656/166
f 189/657/167 190/658/167 198/659/167 197/660/167
f 190/661/168 191/662/168 199/663/168 198/664/168
f 191/665/169 192/666/169 200/667/169 199/668/169
f 192/669/170 185/670/170 193/671/170 200/672/170
f 193/673/171 194/674/171 202/675/171 201/676/171
f 194/677/172 195/678/172 203/679/172 202/680/172
f 195/681/173 196/682/173 204/683/173 203/684/173
f 196/685/174 197/686/174 205/687/174 204/688/174
f 197/689/175 198/690/175 206/691/175 205/692/175
f 198/693/176 199/694/176 207/695/176 206/696/176
f 199/697/177 200/698/177 208/699/177 207/700/177
f 200/701/178 193/702/178 201/703/178 208/704/178
f 201/705/179 202/706/179 210/707/179 209/708/179
f 202/709/180 203/710/180 211/711/180 210/712/180
f 203/713/181 204/714/181 212/715/181 211/716/181
f 204/717/182 205/718/182 213/719/182 212/720/182
f 205/721/183 206/722/183 214/723/183 213/724/183
f 206/725/184 207/726/184 215/727/184 214/728/184
f 207/729/185 208/730/185 216/731/185 215/732/185
f 208/733/186 201/734/186 209/735/186 216/736/186
f 209/737/187 210/738/187 122/739/187 121/740/187
f 210/741/188 211/742/188 123/743/188 122/744/188
f 211/745/189 212/746/189 124/747/189 123/748/189
f 212/749/190 213/750/190 125/751/190 124/752/190
f 213/753/191 214/754/191 126/755/191 125/756/191
f 214/757/192 215/758/192 127/759/192 126/760/192
f 215/761/193 216/762/193 128/763/193 127/764/193
f 216/765/194 209/766/194 121/767/194 128/768/194
o rim
v 0 -2.25 0
v 0 2.25 0
v 0.552645 -2.25 2.0625
v 0.552645 2.25 2.0625
v 1.509855 -2.25 1.509855
v 1.509855 2.25 1.509855
v 2.0625 -2.25 0.552645
v 2.0625 2.25 0.552645
v 2.0625 -2.25 -0.552645
v 2.0625 2.25 -0.552645
v 1.509855 -2.25 -1.509855
v 1.509855 2.25 -1.509855
v 0.552645 -2.25 -2.0625
v 0.552645 2.25 -2.0625
v -0.552645 -2.25 -2.0625
v -0.552645 2.25 -2.0625
v -1.509855 -2.25 -1.509855
v -1.509855 2.25 -1.509855
v -2.0625 -2.25 -0.552645
v -2.0625 2.25 -0.552645
v -2.0625 -2.25 0.552645
v -2.0625 2.25 0.552645
v -1.509855 -2.25 1.509855
v -1.509855 2.25 1.509855
v -0.552645 -2.25 2.0625
v -0.552645 2.25 2.0625
vt 0.460942265625 0.8124069921875
vt 0.40141125 0.8467771875
vt 0.367041015625 0.718505703125
vt 0 0.4375
vt 0.03515625 0.4375
vt 0.03515625 0.578125
vt 0 0.578125
vt 0.40141125 0.8467775
vt 0.460942265625 0.812407265625
vt 0.367041015625 0.718506015625
vt 0.4953125 0.7528759375
vt 0.460942265625 0.8124069921875
vt 0.367041015625 0.718505703125
vt 0 0.4375
vt 0.03515625 0.4375
vt 0.03515625 0.578125
vt 0 0.578125
vt 0.460942265625 0.812407265625
vt 0.4953125 0.7528762109375
vt 0.367041015625 0.718506015625
vt 0.4953125 0.6841355078125
vt 0.4953125 0.7528759375
vt 0.367041015625 0.718505703125
vt 0 0.4375
vt 0.03515625 0.4375
vt 0.03515625 0.578125
vt 0 0.578125
vt 0.4953125 0.7528762109375
vt 0.4953125 0.68413578125
vt 0.367041015625 0.718506015625
vt 0.460942265625 0.624604453125
vt 0.4953125 0.6841355078125
vt 0.367041015625 0.718505703125
vt 0 0.4375
vt 0.03515625 0.4375
vt 0.03515625 0.578125
vt 0 0.578125
vt 0.4953125 0.68413578125
vt 0.460942265625 0.6246047265625
vt 0.367041015625 0.718506015625
vt 0.40141125 0.59023421875
vt 0.460942265625 0.624604453125
vt 0.367041015625 0.718505703125
vt 0 0.4375
vt 0.03515625 0.4375
vt 0.03515625 0.578125
vt 0 0.578125
vt 0.460942265625 0.6246047265625
vt 0.40141125 0.59023453125
vt 0.367041015625 0.718506015625
vt 0.33267078125 0.59023421875
vt 0.40141125 0.59023421875
vt 0.367041015625 0.718505703125
vt 0 0.4375
vt 0.03515625 0.4375
vt 0.03515625 0.578125
vt 0 0.578125
vt 0.40141125 0.59023453125
vt 0.33267078125 0.59023453125
vt 0.367041015625 0.718506015625
vt 0.273139765625 0.624604453125
vt 0.33267078125 0.59023421875
vt 0.367041015625 0.718505703125
vt 0 0.4375
vt 0.03515625 0.4375
vt 0.03515625 0.578125
vt 0 0.578125
vt 0.33267078125 0.59023453125
vt 0.273139765625 0.6246047265625
vt 0.367041015625 0.718506015625
vt 0.23876953125 0.6841355078125
vt 0.273139765625 0.624604453125
vt 0.367041015625 0.718505703125
vt 0 0.4375
vt 0.03515625 0.4375
vt 0.03515625 0.578125
vt 0 0.578125
vt 0.273139765625 0.6246047265625
vt 0.23876953125 0.68413578125
vt 0.367041015625 0.718506015625
vt 0.23876953125 0.7528759375
vt 0.23876953125 0.6841355078125
vt 0.367041015625 0.718505703125
vt 0 0.4375
vt 0.03515625 0.4375
vt 0.03515625 0.578125
vt 0 0.578125
vt 0.23876953125 0.68413578125
vt 0.23876953125 0.7528762109375
vt 0.367041015625 0.718506015625
vt 0.273139765625 0.8124069921875
vt 0.23876953125 0.7528759375
vt 0.367041015625 0.718505703125
vt 0 0.4375
vt 0.03515625 0.4375
vt 0.03515625 0.578125
vt 0 0.578125
vt 0.23876953125 0.7528762109375
vt 0.273139765625 0.812407265625
vt 0.367041015625 0.718506015625
vt 0.33267078125 0.8467771875
vt 0.273139765625 0.8124069921875
vt 0.367041015625 0.718505703125
vt 0 0.4375
vt 0.03515625 0.4375
vt 0.03515625 0.578125
vt 0 0.578125
vt 0.273139765625 0.812407265625
vt 0.33267078125 0.8467775
vt 0.367041015625 0.718506015625
vt 0.40141125 0.8467771875
vt 0.33267078125 0.8467771875
vt 0.367041015625 0.718505703125
vt 0 0.4375
vt 0.03515625 0.4375
vt 0.03515625 0.578125
vt 0 0.578125
vt 0.33267078125 0.8467775
vt 0.40141125 0.8467775
vt 0.367041015625 0.718506015625
vn 0 -1 0
vn 0.4999996938558401 0 0.8660255805367797
vn 0 1 0
vn 0 -1 0
vn 0.8660255805367797 0 0.4999996938558401
vn 0 1 0
vn 0 -1 0
vn 1 0 0
vn 0 1 0
vn 0 -1 0
vn 0.8660255805367797 0 -0.4999996938558401
vn 0 1 0
vn 0 -1 0
vn 0.4999996938558401 0 -0.8660255805367797
vn 0 1 0
vn 0 -1 0
vn 0 0 -1
vn 0 1 0
vn 0 -1 0
vn -0.4999996938558401 0 -0.8660255805367797
vn 0 1 0
vn 0 -1 0
vn -0.8660255805367797 0 -0.4999996938558401
vn 0 1 0
vn 0 -1 0
vn -1 0 0
vn 0 1 0
vn 0 -1 0
vn -0.8660255805367797 0 0.4999996938558401
vn 0 1 0
vn 0 -1 0
vn -0.4999996938558401 0 0.8660255805367797
vn 0 1 0
vn 0 -1 0
vn 0 0 1
vn 0 1 0
usemtl m_7d3d79da-8346-2a30-98f8-34a2b0d3a67d
f 221/769/195 219/770/195 217/771/195
f 219/772/196 221/773/196 222/774/196 220/775/196
f 220/776/197 222/777/197 218/778/197
f 223/779/198 221/780/198 217/781/198
f 221/782/199 223/783/199 224/784/199 222/785/199
f 222/786/200 224/787/200 218/788/200
f 225/789/201 223/790/201 217/791/201
f 223/792/202 225/793/202 226/794/202 224/795/202
f 224/796/203 226/797/203 218/798/203
f 227/799/204 225/800/204 217/801/204
f 225/802/205 227/803/205 228/804/205 226/805/205
f 226/806/206 228/807/206 218/808/206
f 229/809/207 227/810/207 217/811/207
f 227/812/208 229/813/208 230/814/208 228/815/208
f 228/816/209 230/817/209 218/818/209
f 231/819/210 229/820/210 217/821/210
f 229/822/211 231/823/211 232/824/211 230/825/211
f 230/826/212 232/827/212 218/828/212
f 233/829/213 231/830/213 217/831/213
f 231/832/214 233/833/214 234/834/214 232/835/214
f 232/836/215 234/837/215 218/838/215
f 235/839/216 233/840/216 217/841/216
f 233/842/217 235/843/217 236/844/217 234/845/217
f 234/846/218 236/847/218 218/848/218
f 237/849/219 235/850/219 217/851/219
f 235/852/220 237/853/220 238/854/220 236/855/220
f 236/856/221 238/857/221 218/858/221
f 239/859/222 237/860/222 217/861/222
f 237/862/223 239/863/223 240/864/223 238/865/223
f 238/866/224 240/867/224 218/868/224
f 241/869/225 239/870/225 217/871/225
f 239/872/226 241/873/226 242/874/226 240/875/226
f 240/876/227 242/877/227 218/878/227
f 219/879/228 241/880/228 217/881/228
f 241/882/229 219/883/229 220/884/229 242/885/229
f 242/886/230 220/887/230 218/888/230
o rim
v 0.703366875 -3 2.625
v 0.703366875 3 2.625
v 0.552336875 -3 2.06135
v 0.552336875 3 2.06135
v 1.921633125 -3 1.921633125
v 1.921633125 3 1.921633125
v 1.509013125 -3 1.509013125
v 1.509013125 3 1.509013125
v 2.625 -3 0.703366875
v 2.625 3 0.703366875
v 2.06135 -3 0.552336875
v 2.06135 3 0.552336875
v 2.625 -3 -0.703366875
v 2.625 3 -0.703366875
v 2.06135 -3 -0.552336875
v 2.06135 3 -0.552336875
v 1.921633125 -3 -1.921633125
v 1.921633125 3 -1.921633125
v 1.509013125 -3 -1.509013125
v 1.509013125 3 -1.509013125
v 0.703366875 -3 -2.625
v 0.703366875 3 -2.625
v 0.552336875 -3 -2.06135
v 0.552336875 3 -2.06135
v -0.703366875 -3 -2.625
v -0.703366875 3 -2.625
v -0.552336875 -3 -2.06135
v -0.552336875 3 -2.06135
v -1.921633125 -3 -1.921633125
v -1.921633125 3 -1.921633125
v -1.509013125 -3 -1.509013125
v -1.509013125 3 -1.509013125
v -2.625 -3 -0.703366875
v -2.625 3 -0.703366875
v -2.06135 -3 -0.552336875
v -2.06135 3 -0.552336875
v -2.625 -3 0.703366875
v -2.625 3 0.703366875
v -2.06135 -3 0.552336875
v -2.06135 3 0.552336875
v -1.921633125 -3 1.921633125
v -1.921633125 3 1.921633125
v -1.509013125 -3 1.509013125
v -1.509013125 3 1.509013125
v -0.703366875 -3 2.625
v -0.703366875 3 2.625
v -0.552336875 -3 2.06135
v -0.552336875 3 2.06135
vt 0 0.4375
vt 0.04296875 0.4375
vt 0.04296875 0.578125
vt 0 0.578125
vt 0.953125 1
vt 0.8828125 1
vt 0.8828125 0.625
vt 0.953125 0.625
vt 0.4014465234375 0.846677890625
vt 0.4609540625 0.81232125
vt 0.48662 0.8379871875
vt 0.4108409375 0.88173828125
vt 0.4108409375 0.881738671875
vt 0.48662 0.837987578125
vt 0.4609540625 0.8123216015625
vt 0.4014465234375 0.84667828125
vt 0 0.4375
vt 0.04296875 0.4375
vt 0.04296875 0.578125
vt 0 0.578125
vt 0.953125 1
vt 0.8828125 1
vt 0.8828125 0.625
vt 0.953125 0.625
vt 0.4609540625 0.81232125
vt 0.495310703125 0.7528137109374999
vt 0.53037109375 0.762208125
vt 0.48662 0.8379871875
vt 0.48662 0.837987578125
vt 0.53037109375 0.762208515625
vt 0.495310703125 0.7528140624999999
vt 0.4609540625 0.8123216015625
vt 0 0.4375
vt 0.04296875 0.4375
vt 0.04296875 0.578125
vt 0 0.578125
vt 0.953125 1
vt 0.8828125 1
vt 0.8828125 0.625
vt 0.953125 0.625
vt 0.495310703125 0.7528137109374999
vt 0.495310703125 0.6841003515624999
vt 0.53037109375 0.6747059375
vt 0.53037109375 0.762208125
vt 0.53037109375 0.762208515625
vt 0.53037109375 0.674706328125
vt 0.495310703125 0.6841007421875
vt 0.495310703125 0.7528140624999999
vt 0 0.4375
vt 0.04296875 0.4375
vt 0.04296875 0.578125
vt 0 0.578125
vt 0.953125 1
vt 0.8828125 1
vt 0.8828125 0.625
vt 0.953125 0.625
vt 0.495310703125 0.6841003515624999
vt 0.4609540625 0.6245928125
vt 0.48662 0.5989268750000001
vt 0.53037109375 0.6747059375
vt 0.53037109375 0.674706328125
vt 0.48662 0.598927265625
vt 0.4609540625 0.624593203125
vt 0.495310703125 0.6841007421875
vt 0 0.4375
vt 0.06640625 0.4375
vt 0.06640625 0.578125
vt 0 0.578125
vt 0.953125 1
vt 0.8828125 1
vt 0.8828125 0.625
vt 0.953125 0.625
vt 0.4609540625 0.6245928125
vt 0.4014465234375 0.590236171875
vt 0.4108409375 0.55517578125
vt 0.48662 0.5989268750000001
vt 0.48662 0.598927265625
vt 0.4108409375 0.555176171875
vt 0.4014465234375 0.5902365234375
vt 0.4609540625 0.624593203125
vt 0.00002234375 0.4375
vt 0.06642859375 0.4375
vt 0.06642859375 0.578125
vt 0.00002234375 0.578125
vt 0.953125 1
vt 0.8828125 1
vt 0.8828125 0.625
vt 0.953125 0.625
vt 0.4014465234375 0.590236171875
vt 0.3327331640625 0.590236171875
vt 0.32333875 0.55517578125
vt 0.4108409375 0.55517578125
vt 0.4108409375 0.555176171875
vt 0.32333875 0.555176171875
vt 0.3327331640625 0.5902365234375
vt 0.4014465234375 0.5902365234375
vt 0.0000446875 0.4375
vt 0.0664509375 0.4375
vt 0.0664509375 0.578125
vt 0.0000446875 0.578125
vt 0.953125 1
vt 0.8828125 1
vt 0.8828125 0.625
vt 0.953125 0.625
vt 0.3327331640625 0.590236171875
vt 0.273225625 0.6245928125
vt 0.2475596875 0.5989268750000001
vt 0.32333875 0.55517578125
vt 0.32333875 0.555176171875
vt 0.2475596875 0.598927265625
vt 0.273225625 0.624593203125
vt 0.3327331640625 0.5902365234375
vt 0 0.4375
vt 0.06640625 0.4375
vt 0.06640625 0.578125
vt 0 0.578125
vt 0.953125 1
vt 0.8828125 1
vt 0.8828125 0.625
vt 0.953125 0.625
vt 0.273225625 0.6245928125
vt 0.238868984375 0.6841003515624999
vt 0.20380859375 0.6747059375
vt 0.2475596875 0.5989268750000001
vt 0.2475596875 0.598927265625
vt 0.20380859375 0.674706328125
vt 0.238868984375 0.6841007421875
vt 0.273225625 0.624593203125
vt 0.00002234375 0.4375
vt 0.06642859375 0.4375
vt 0.06642859375 0.578125
vt 0.00002234375 0.578125
vt 0.953125 1
vt 0.8828125 1
vt 0.8828125 0.625
vt 0.953125 0.625
vt 0.238868984375 0.6841003515624999
vt 0.238868984375 0.7528137109374999
vt 0.20380859375 0.762208125
vt 0.20380859375 0.6747059375
vt 0.20380859375 0.674706328125
vt 0.20380859375 0.762208515625
vt 0.238868984375 0.7528140624999999
vt 0.238868984375 0.6841007421875
vt 0.0000446875 0.4375
vt 0.0664509375 0.4375
vt 0.0664509375 0.578125
vt 0.0000446875 0.578125
vt 0.953125 1
vt 0.8828125 1
vt 0.8828125 0.625
vt 0.953125 0.625
vt 0.238868984375 0.7528137109374999
vt 0.273225625 0.81232125
vt 0.2475596875 0.8379871875
vt 0.20380859375 0.762208125
vt 0.20380859375 0.762208515625
vt 0.2475596875 0.837987578125
vt 0.273225625 0.8123216015625
vt 0.238868984375 0.7528140624999999
vt 0 0.4375
vt 0.04296875 0.4375
vt 0.04296875 0.578125
vt 0 0.578125
vt 0.953125 1
vt 0.8828125 1
vt 0.8828125 0.625
vt 0.953125 0.625
vt 0.273225625 0.81232125
vt 0.3327331640625 0.846677890625
vt 0.32333875 0.88173828125
vt 0.2475596875 0.8379871875
vt 0.2475596875 0.837987578125
vt 0.32333875 0.881738671875
vt 0.3327331640625 0.84667828125
vt 0.273225625 0.8123216015625
vt 0 0.4375
vt 0.04296875 0.4375
vt 0.04296875 0.578125
vt 0 0.578125
vt 0.953125 1
vt 0.8828125 1
vt 0.8828125 0.625
vt 0.953125 0.625
vt 0.3327331640625 0.846677890625
vt 0.4014465234375 0.846677890625
vt 0.4108409375 0.88173828125
vt 0.32333875 0.88173828125
vt 0.32333875 0.881738671875
vt 0.4108409375 0.881738671875
vt 0.4014465234375 0.84667828125
vt 0.3327331640625 0.84667828125
vn 0.500000281299559 0 0.8660252413760017
vn -0.49999971792715286 0 -0.8660255666392118
vn 0 -1 0
vn 0 1 0
vn 0.8660252413760017 0 0.500000281299559
vn -0.8660255666392118 0 -0.49999971792715286
vn 0 -1 0
vn 0 1 0
vn 1 0 0
vn -1 0 0
vn 0 -1 0
vn 0 1 0
vn 0.8660252413760017 0 -0.500000281299559
vn -0.8660255666392118 0 0.49999971792715286
vn 0 -1 0
vn 0 1 0
vn 0.500000281299559 0 -0.8660252413760017
vn -0.49999971792715286 0 0.8660255666392118
vn 0 -1 0
vn 0 1 0
vn 0 0 -1
vn 0 0 1
vn 0 -1 0
vn 0 1 0
vn -0.500000281299559 0 -0.8660252413760017
vn 0.49999971792715286 0 0.8660255666392118
vn 0 -1 0
vn 0 1 0
vn -0.8660252413760017 0 -0.500000281299559
vn 0.8660255666392118 0 0.49999971792715286
vn 0 -1 0
vn 0 1 0
vn -1 0 0
vn 1 0 0
vn 0 -1 0
vn 0 1 0
vn -0.8660252413760017 0 0.500000281299559
vn 0.8660255666392118 0 -0.49999971792715286
vn 0 -1 0
vn 0 1 0
vn -0.500000281299559 0 0.8660252413760017
vn 0.49999971792715286 0 -0.8660255666392118
vn 0 -1 0
vn 0 1 0
vn 0 0 1
vn 0 0 -1
vn 0 -1 0
vn 0 1 0
usemtl m_7d3d79da-8346-2a30-98f8-34a2b0d3a67d
f 243/889/231 247/890/231 248/891/231 244/892/231
f 246/893/232 250/894/232 249/895/232 245/896/232
f 245/897/233 249/898/233 247/899/233 243/900/233
f 244/901/234 248/902/234 250/903/234 246/904/234
f 247/905/235 251/906/235 252/907/235 248/908/235
f 250/909/236 254/910/236 253/911/236 249/912/236
f 249/913/237 253/914/237 251/915/237 247/916/237
f 248/917/238 252/918/238 254/919/238 250/920/238
f 251/921/239 255/922/239 256/923/239 252/924/239
f 254/925/240 258/926/240 257/927/240 253/928/240
f 253/929/241 257/930/241 255/931/241 251/932/241
f 252/933/242 256/934/242 258/935/242 254/936/242
f 255/937/243 259/938/243 260/939/243 256/940/243
f 258/941/244 262/942/244 261/943/244 257/944/244
f 257/945/245 261/946/245 259/947/245 255/948/245
f 256/949/246 260/950/246 262/951/246 258/952/246
f 259/953/247 263/954/247 264/955/247 260/956/247
f 262/957/248 266/958/248 265/959/248 261/960/248
f 261/961/249 265/962/249 263/963/249 259/964/249
f 260/965/250 264/966/250 266/967/250 262/968/250
f 263/969/251 267/970/251 268/971/251 264/972/251
f 266/973/252 270/974/252 269/975/252 265/976/252
f 265/977/253 269/978/253 267/979/253 263/980/253
f 264/981/254 268/982/254 270/983/254 266/984/254
f 267/985/255 271/986/255 272/987/255 268/988/255
f 270/989/256 274/990/256 273/991/256 269/992/256
f 269/993/257 273/994/257 271/995/257 267/996/257
f 268/997/258 272/998/258 274/999/258 270/1000/258
f 271/1001/259 275/1002/259 276/1003/259 272/1004/259
f 274/1005/260 278/1006/260 277/1007/260 273/1008/260
f 273/1009/261 277/1010/261 275/1011/261 271/1012/261
f 272/1013/262 276/1014/262 278/1015/262 274/1016/262
f 275/1017/263 279/1018/263 280/1019/263 276/1020/263
f 278/1021/264 282/1022/264 281/1023/264 277/1024/264
f 277/1025/265 281/1026/265 279/1027/265 275/1028/265
f 276/1029/266 280/1030/266 282/1031/266 278/1032/266
f 279/1033/267 283/1034/267 284/1035/267 280/1036/267
f 282/1037/268 286/1038/268 285/1039/268 281/1040/268
f 281/1041/269 285/1042/269 283/1043/269 279/1044/269
f 280/1045/270 284/1046/270 286/1047/270 282/1048/270
f 283/1049/271 287/1050/271 288/1051/271 284/1052/271
f 286/1053/272 290/1054/272 289/1055/272 285/1056/272
f 285/1057/273 289/1058/273 287/1059/273 283/1060/273
f 284/1061/274 288/1062/274 290/1063/274 286/1064/274
f 287/1065/275 243/1066/275 244/1067/275 288/1068/275
f 290/1069/276 246/1070/276 245/1071/276 289/1072/276
f 289/1073/277 245/1074/277 243/1075/277 287/1076/277
f 288/1077/278 244/1078/278 246/1079/278 290/1080/278