# Made in Blockbench 5.1.4
mtllib huge_wide_tire.mtl

o tire
v 1.30583375 -2 4.8734375
v 1.30583375 2 4.8734375
v 0.778379375 -2 2.904953125
v 0.778379375 2 2.904953125
v 3.56760375 -2 3.56760375
v 3.56760375 2 3.56760375
v 2.126573125 -2 2.126573125
v 2.126573125 2 2.126573125
v 4.8734375 -2 1.30583375
v 4.8734375 2 1.30583375
v 2.904953125 -2 0.778379375
v 2.904953125 2 0.778379375
v 4.8734375 -2 -1.30583375
v 4.8734375 2 -1.30583375
v 2.904953125 -2 -0.778379375
v 2.904953125 2 -0.778379375
v 3.56760375 -2 -3.56760375
v 3.56760375 2 -3.56760375
v 2.126573125 -2 -2.126573125
v 2.126573125 2 -2.126573125
v 1.30583375 -2 -4.8734375
v 1.30583375 2 -4.8734375
v 0.778379375 -2 -2.904953125
v 0.778379375 2 -2.904953125
v -1.30583375 -2 -4.8734375
v -1.30583375 2 -4.8734375
v -0.778379375 -2 -2.904953125
v -0.778379375 2 -2.904953125
v -3.56760375 -2 -3.56760375
v -3.56760375 2 -3.56760375
v -2.126573125 -2 -2.126573125
v -2.126573125 2 -2.126573125
v -4.8734375 -2 -1.30583375
v -4.8734375 2 -1.30583375
v -2.904953125 -2 -0.778379375
v -2.904953125 2 -0.778379375
v -4.8734375 -2 1.30583375
v -4.8734375 2 1.30583375
v -2.904953125 -2 0.778379375
v -2.904953125 2 0.778379375
v -3.56760375 -2 3.56760375
v -3.56760375 2 3.56760375
v -2.126573125 -2 2.126573125
v -2.126573125 2 2.126573125
v -1.30583375 -2 4.8734375
v -1.30583375 2 4.8734375
v -0.778379375 -2 2.904953125
v -0.778379375 2 2.904953125
v 3.706006875 0 3.706006875
v 1.356493125 0 5.0625
v -1.356493125 0 5.0625
v -3.706006875 0 3.706006875
v -5.0625 0 1.356493125
v -5.0625 0 -1.356493125
v -3.706006875 0 -3.706006875
v -1.356493125 0 -5.0625
v 1.356493125 0 -5.0625
v 3.706006875 0 -3.706006875
v 5.0625 0 -1.356493125
v 5.0625 0 1.356493125
vt 0 0.36328125
vt 0 0.23828125
vt 0.16796875 0.23828125
vt 0.16796875 0.36328125
vt 0.79922109375 0.9453125
vt 0.703125 0.9453125
vt 0.703125 0.6953125
vt 0.79922109375 0.6953125
vt 0.361224296875 0.5082012499999999
vt 0.4439260546875 0.556247421875
vt 0.5408127734375 0.45875511718749995
vt 0.3966872265625 0.3750244140625
vt 0.39580640625 0.3759765625
vt 0.5392521875 0.4595796875
vt 0.442822421875 0.5569234765625
vt 0.36051078125 0.5089504687499999
vt 0 0.36328125
vt 0 0.23828125
vt 0.16796875 0.23828125
vt 0.16796875 0.36328125
vt 0.89687734375 0.94921875
vt 0.80078125 0.94921875
vt 0.80078125 0.69921875
vt 0.89687734375 0.69921875
vt 0.4439260546875 0.556247421875
vt 0.4916737890625 0.639466015625
vt 0.6240234375 0.6037815234375
vt 0.5408127734375 0.45875511718749995
vt 0.5392521875 0.4595796875
vt 0.6220703125 0.60438515625
vt 0.4903449609375 0.6400153125
vt 0.442822421875 0.5569234765625
vt 0 0.36328125
vt 0 0.23828125
vt 0.16796875 0.23828125
vt 0.16796875 0.36328125
vt 0.85000234375 0.94921875
vt 0.75390625 0.94921875
vt 0.75390625 0.69921875
vt 0.85000234375 0.69921875
vt 0.4916737890625 0.639466015625
vt 0.4916737890625 0.7355583984375
vt 0.6240234375 0.771242890625
vt 0.6240234375 0.6037815234375
vt 0.6220703125 0.60438515625
vt 0.6220703125 0.77159140625
vt 0.4903449609375 0.73596125
vt 0.4903449609375 0.6400153125
vt 0 0.36328125
vt 0 0.23828125
vt 0.16796875 0.23828125
vt 0.16796875 0.36328125
vt 0.79922109375 0.94921875
vt 0.703125 0.94921875
vt 0.703125 0.69921875
vt 0.79922109375 0.69921875
vt 0.4916737890625 0.7355583984375
vt 0.4439260546875 0.8187769921875
vt 0.5408127734375 0.916269296875
vt 0.6240234375 0.771242890625
vt 0.6220703125 0.77159140625
vt 0.5392521875 0.916396875
vt 0.442822421875 0.8190530859375
vt 0.4903449609375 0.73596125
vt 0 0.36328125
vt 0 0.23828125
vt 0.16796875 0.23828125
vt 0.16796875 0.36328125
vt 0.89687734375 0.9453125
vt 0.80078125 0.9453125
vt 0.80078125 0.6953125
vt 0.89687734375 0.6953125
vt 0.4439260546875 0.8187769921875
vt 0.361224296875 0.8668231640625
vt 0.3966872265625 1
vt 0.5408127734375 0.916269296875
vt 0.5392521875 0.916396875
vt 0.39580640625 1
vt 0.36051078125 0.8670260937500001
vt 0.442822421875 0.8190530859375
vt 0 0.36328125
vt 0 0.23828125
vt 0.16796875 0.23828125
vt 0.16796875 0.36328125
vt 0.85000234375 0.9453125
vt 0.75390625 0.9453125
vt 0.75390625 0.6953125
vt 0.85000234375 0.6953125
vt 0.361224296875 0.8668231640625
vt 0.265728828125 0.8668231640625
vt 0.2302658984375 1
vt 0.3966872265625 1
vt 0.39580640625 1
vt 0.23017015625 1
vt 0.26546578125 0.8670260937500001
vt 0.36051078125 0.8670260937500001
vt 0 0.36328125
vt 0 0.23828125
vt 0.16796875 0.23828125
vt 0.16796875 0.36328125
vt 0.80312734375 0.9453125
vt 0.70703125 0.9453125
vt 0.70703125 0.6953125
vt 0.80312734375 0.6953125
vt 0.265728828125 0.8668231640625
vt 0.1830270703125 0.8187769921875
vt 0.0861403515625 0.916269296875
vt 0.2302658984375 1
vt 0.23017015625 1
vt 0.086724375 0.916396875
vt 0.183154140625 0.8190530859375
vt 0.26546578125 0.8670260937500001
vt 0 0.36328125
vt 0 0.23828125
vt 0.16796875 0.23828125
vt 0.16796875 0.36328125
vt 0.89687734375 0.9453125
vt 0.80078125 0.9453125
vt 0.80078125 0.6953125
vt 0.89687734375 0.6953125
vt 0.1830270703125 0.8187769921875
vt 0.1352793359375 0.7355583984375
vt 0.0029296875 0.771242890625
vt 0.0861403515625 0.916269296875
vt 0.086724375 0.916396875
vt 0.00390625 0.77159140625
vt 0.1356316015625 0.73596125
vt 0.183154140625 0.8190530859375
vt 0 0.36328125
vt 0 0.23828125
vt 0.16796875 0.23828125
vt 0.16796875 0.36328125
vt 0.85000234375 0.9453125
vt 0.75390625 0.9453125
vt 0.75390625 0.6953125
vt 0.85000234375 0.6953125
vt 0.1352793359375 0.7355583984375
vt 0.1352793359375 0.639466015625
vt 0.0029296875 0.6037815234375
vt 0.0029296875 0.771242890625
vt 0.00390625 0.77159140625
vt 0.00390625 0.60438515625
vt 0.1356316015625 0.6400153125
vt 0.1356316015625 0.73596125
vt 0 0.36328125
vt 0 0.23828125
vt 0.16796875 0.23828125
vt 0.16796875 0.36328125
vt 0.79922109375 0.9453125
vt 0.703125 0.9453125
vt 0.703125 0.6953125
vt 0.79922109375 0.6953125
vt 0.1352793359375 0.639466015625
vt 0.1830270703125 0.556247421875
vt 0.0861403515625 0.45875511718749995
vt 0.0029296875 0.6037815234375
vt 0.00390625 0.60438515625
vt 0.086724375 0.4595796875
vt 0.183154140625 0.5569234765625
vt 0.1356316015625 0.6400153125
vt 0 0.36328125
vt 0 0.23828125
vt 0.16796875 0.23828125
vt 0.16796875 0.36328125
vt 0.89297109375 0.9453125
vt 0.796875 0.9453125
vt 0.796875 0.6953125
vt 0.89297109375 0.6953125
vt 0.1830270703125 0.556247421875
vt 0.265728828125 0.5082012499999999
vt 0.2302658984375 0.3750244140625
vt 0.0861403515625 0.45875511718749995
vt 0.086724375 0.4595796875
vt 0.23017015625 0.3759765625
vt 0.26546578125 0.5089504687499999
vt 0.183154140625 0.5569234765625
vt 0 0.36328125
vt 0 0.23828125
vt 0.16796875 0.23828125
vt 0.16796875 0.36328125
vt 0.84609609375 0.9453125
vt 0.75 0.9453125
vt 0.75 0.6953125
vt 0.84609609375 0.6953125
vt 0.265728828125 0.5082012499999999
vt 0.361224296875 0.5082012499999999
vt 0.3966872265625 0.3750244140625
vt 0.2302658984375 0.3750244140625
vt 0.23017015625 0.3759765625
vt 0.39580640625 0.3759765625
vt 0.36051078125 0.5089504687499999
vt 0.26546578125 0.5089504687499999
vt 0.16796875 0.11328125
vt 0.16796875 0.23828125
vt 0 0.23828125
vt 0 0.11328125
vt 0.16796875 0.11328125
vt 0.16796875 0.23828125
vt 0 0.23828125
vt 0 0.11328125
vt 0.16796875 0.11328125
vt 0.16796875 0.23828125
vt 0 0.23828125
vt 0 0.11328125
vt 0.16796875 0.11328125
vt 0.16796875 0.23828125
vt 0 0.23828125
vt 0 0.11328125
vt 0.16796875 0.11328125
vt 0.16796875 0.23828125
vt 0 0.23828125
vt 0 0.11328125
vt 0.16796875 0.11328125
vt 0.16796875 0.23828125
vt 0 0.23828125
vt 0 0.11328125
vt 0.16796875 0.11328125
vt 0.16796875 0.23828125
vt 0 0.23828125
vt 0 0.11328125
vt 0.16796875 0.11328125
vt 0.16796875 0.23828125
vt 0 0.23828125
vt 0 0.11328125
vt 0.16796875 0.11328125
vt 0.16796875 0.23828125
vt 0 0.23828125
vt 0 0.11328125
vt 0.16796875 0.11328125
vt 0.16796875 0.23828125
vt 0 0.23828125
vt 0 0.11328125
vt 0.16796875 0.11328125
vt 0.16796875 0.23828125
vt 0 0.23828125
vt 0 0.11328125
vt 0.16796875 0.11328125
vt 0.16796875 0.23828125
vt 0 0.23828125
vt 0 0.11328125
vn 0.49778102106628463 0.09411173794137445 0.8621815561979168
vn -0.4999999882051806 0 -0.8660254105941807
vn 0 -1 0
vn 0 1 0
vn 0.8621815726414619 0.0941115370831069 0.4977810305599749
vn -0.8660254105941807 0 -0.4999999882051806
vn 0 -1 0
vn 0 1 0
vn 0.9955616457074603 0.09411168682078352 0
vn -1 0 0
vn 0 -1 0
vn 0 1 0
vn 0.8621815561979168 0.09411173794137445 -0.49778102106628463
vn -0.8660254105941807 0 0.4999999882051806
vn 0 -1 0
vn 0 1 0
vn 0.4977810305599749 0.0941115370831069 -0.8621815726414619
vn -0.4999999882051806 0 0.8660254105941807
vn 0 -1 0
vn 0 1 0
vn 0 0.09411168682078352 -0.9955616457074603
vn 0 0 1
vn 0 -1 0
vn 0 1 0
vn -0.49778102106628463 0.09411173794137445 -0.8621815561979168
vn 0.4999999882051806 0 0.8660254105941807
vn 0 -1 0
vn 0 1 0
vn -0.8621815726414619 0.0941115370831069 -0.4977810305599749
vn 0.8660254105941807 0 0.4999999882051806
vn 0 -1 0
vn 0 1 0
vn -0.9955616457074603 0.09411168682078352 0
vn 1 0 0
vn 0 -1 0
vn 0 1 0
vn -0.8621815561979168 0.09411173794137445 0.49778102106628463
vn 0.8660254105941807 0 -0.4999999882051806
vn 0 -1 0
vn 0 1 0
vn -0.4977810305599749 0.0941115370831069 0.8621815726414619
vn 0.4999999882051806 0 -0.8660254105941807
vn 0 -1 0
vn 0 1 0
vn 0 0.09411168682078352 0.9955616457074603
vn 0 0 -1
vn 0 -1 0
vn 0 1 0
vn 0.4977810305599749 -0.0941115370831069 0.8621815726414619
vn 0 -0.09411168682078352 0.9955616457074603
vn -0.49778102106628463 -0.09411173794137445 0.8621815561979168
vn -0.8621815726414619 -0.0941115370831069 0.4977810305599749
vn -0.9955616457074603 -0.09411168682078352 0
vn -0.8621815561979168 -0.09411173794137445 -0.49778102106628463
vn -0.4977810305599749 -0.0941115370831069 -0.8621815726414619
vn 0 -0.09411168682078352 -0.9955616457074603
vn 0.49778102106628463 -0.09411173794137445 -0.8621815561979168
vn 0.8621815726414619 -0.0941115370831069 -0.4977810305599749
vn 0.9955616457074603 -0.09411168682078352 0
vn 0.8621815561979168 -0.09411173794137445 0.49778102106628463
usemtl m_e3325518-a4bc-db53-8344-3960e89276a6
f 2/1/1 50/2/1 49/3/1 6/4/1
f 4/5/2 8/6/2 7/7/2 3/8/2
f 3/9/3 7/10/3 5/11/3 1/12/3
f 2/13/4 6/14/4 8/15/4 4/16/4
f 6/17/5 49/18/5 60/19/5 10/20/5
f 8/21/6 12/22/6 11/23/6 7/24/6
f 7/25/7 11/26/7 9/27/7 5/28/7
f 6/29/8 10/30/8 12/31/8 8/32/8
f 10/33/9 60/34/9 59/35/9 14/36/9
f 12/37/10 16/38/10 15/39/10 11/40/10
f 11/41/11 15/42/11 13/43/11 9/44/11
f 10/45/12 14/46/12 16/47/12 12/48/12
f 14/49/13 59/50/13 58/51/13 18/52/13
f 16/53/14 20/54/14 19/55/14 15/56/14
f 15/57/15 19/58/15 17/59/15 13/60/15
f 14/61/16 18/62/16 20/63/16 16/64/16
f 18/65/17 58/66/17 57/67/17 22/68/17
f 20/69/18 24/70/18 23/71/18 19/72/18
f 19/73/19 23/74/19 21/75/19 17/76/19
f 18/77/20 22/78/20 24/79/20 20/80/20
f 22/81/21 57/82/21 56/83/21 26/84/21
f 24/85/22 28/86/22 27/87/22 23/88/22
f 23/89/23 27/90/23 25/91/23 21/92/23
f 22/93/24 26/94/24 28/95/24 24/96/24
f 26/97/25 56/98/25 55/99/25 30/100/25
f 28/101/26 32/102/26 31/103/26 27/104/26
f 27/105/27 31/106/27 29/107/27 25/108/27
f 26/109/28 30/110/28 32/111/28 28/112/28
f 30/113/29 55/114/29 54/115/29 34/116/29
f 32/117/30 36/118/30 35/119/30 31/120/30
f 31/121/31 35/122/31 33/123/31 29/124/31
f 30/125/32 34/126/32 36/127/32 32/128/32
f 34/129/33 54/130/33 53/131/33 38/132/33
f 36/133/34 40/134/34 39/135/34 35/136/34
f 35/137/35 39/138/35 37/139/35 33/140/35
f 34/141/36 38/142/36 40/143/36 36/144/36
f 38/145/37 53/146/37 52/147/37 42/148/37
f 40/149/38 44/150/38 43/151/38 39/152/38
f 39/153/39 43/154/39 41/155/39 37/156/39
f 38/157/40 42/158/40 44/159/40 40/160/40
f 42/161/41 52/162/41 51/163/41 46/164/41
f 44/165/42 48/166/42 47/167/42 43/168/42
f 43/169/43 47/170/43 45/171/43 41/172/43
f 42/173/44 46/174/44 48/175/44 44/176/44
f 46/177/45 51/178/45 50/179/45 2/180/45
f 48/181/46 4/182/46 3/183/46 47/184/46
f 47/185/47 3/186/47 1/187/47 45/188/47
f 46/189/48 2/190/48 4/191/48 48/192/48
f 5/193/49 49/194/49 50/195/49 1/196/49
f 1/197/50 50/198/50 51/199/50 45/200/50
f 45/201/51 51/202/51 52/203/51 41/204/51
f 41/205/52 52/206/52 53/207/52 37/208/52
f 37/209/53 53/210/53 54/211/53 33/212/53
f 33/213/54 54/214/54 55/215/54 29/216/54
f 29/217/55 55/218/55 56/219/55 25/220/55
f 25/221/56 56/222/56 57/223/56 21/224/56
f 21/225/57 57/226/57 58/227/57 17/228/57
f 17/229/58 58/230/58 59/231/58 13/232/58
f 13/233/59 59/234/59 60/235/59 9/236/59
f 9/237/60 60/238/60 49/239/60 5/240/60
o rim
v 2.092675 -2.125 2.092675
v 2.092675 2.125 2.092675
v 2.470050625 -2.125 2.470050625
v 2.470050625 2.125 2.470050625
v 2.092675 -2.125 -2.092675
v 2.092675 2.125 -2.092675
v 2.470050625 -2.125 -2.470050625
v 2.470050625 2.125 -2.470050625
v -2.092675 -2.125 -2.092675
v -2.092675 2.125 -2.092675
v -2.470050625 -2.125 -2.470050625
v -2.470050625 2.125 -2.470050625
v -2.092675 -2.125 2.092675
v -2.092675 2.125 2.092675
v -2.470050625 -2.125 2.470050625
v -2.470050625 2.125 2.470050625
v 0 2.125 3.11319875
v 0 -2.125 3.11319875
v 0 -2.125 2.57934375
v 0 2.125 2.57934375
v 0 2.125 -3.11319875
v 0 -2.125 -3.11319875
v 0 -2.125 -2.57934375
v 0 2.125 -2.57934375
v 3.11319875 2.125 0
v 3.11319875 -2.125 0
v 2.57934375 -2.125 0
v 2.57934375 2.125 0
v -3.11319875 2.125 0
v -3.11319875 -2.125 0
v -2.57934375 -2.125 0
v -2.57934375 2.125 0
v 2.39184375 -1.877736875 0
v 1.9405525 -1.877736875 -1.9405525
v 0 -1.877736875 -2.39184375
v -1.9405525 -1.877736875 -1.9405525
v -2.39184375 -1.877736875 0
v -1.9405525 -1.877736875 1.9405525
v 0 -1.877736875 2.39184375
v 1.9405525 -1.877736875 1.9405525
v 2.39184375 1.9636093749999999 0
v 1.9405525 1.9636093749999999 -1.9405525
v 0 1.9636093749999999 -2.39184375
v -1.9405525 1.9636093749999999 -1.9405525
v -2.39184375 1.9636093749999999 0
v -1.9405525 1.9636093749999999 1.9405525
v 0 1.9636093749999999 2.39184375
v 1.9405525 1.9636093749999999 1.9405525
v 1.9405525 1.8001481250000002 -1.9405525
v 2.39184375 1.8001481250000002 0
v 1.9405525 1.8001481250000002 1.9405525
v 0 1.8001481250000002 2.39184375
v -1.9405525 1.8001481250000002 1.9405525
v -2.39184375 1.8001481250000002 0
v -1.9405525 1.8001481250000002 -1.9405525
v 0 1.8001481250000002 -2.39184375
v 1.9405525 -1.714275 -1.9405525
v 2.39184375 -1.714275 0
v 1.9405525 -1.714275 1.9405525
v 0 -1.714275 2.39184375
v -1.9405525 -1.714275 1.9405525
v -2.39184375 -1.714275 0
v -1.9405525 -1.714275 -1.9405525
v 0 -1.714275 -2.39184375
vt 0.619841796875 0.421875
vt 0.744362890625 0.421875
vt 0.751469921875 0.40266289062500005
vt 0.6171875 0.40266289062500005
vt 0.66796875 0.98828125
vt 0.66796875 0.72265625
vt 0.82749453125 0.72265625
vt 0.82749453125 0.98828125
vt 0.878095859375 0.28000117187499995
vt 0.844729921875 0.28000117187499995
vt 0.814313125 0.14920898437499996
vt 0.8378991015625 0.12562300781250002
vt 0.84490515625 0.279960390625
vt 0.87827109375 0.279960390625
vt 0.8380743359375 0.43433855468750004
vt 0.814488359375 0.410752578125
vt 0.619841796875 0.421875
vt 0.744362890625 0.421875
vt 0.751469921875 0.40266289062500005
vt 0.6171875 0.40266289062500005
vt 0.68359375 0.9375
vt 0.68359375 0.671875
vt 0.84311953125 0.671875
vt 0.84311953125 0.9375
vt 0.6835209375 0.08542625000000004
vt 0.6835209375 0.11879218749999998
vt 0.55272875 0.14920898437499996
vt 0.5291427734375 0.12562300781250002
vt 0.683696171875 0.441169375
vt 0.683696171875 0.47453531250000003
vt 0.5293180078125 0.43433855468750004
vt 0.552903984375 0.410752578125
vt 0.619841796875 0.421875
vt 0.744362890625 0.421875
vt 0.751469921875 0.40266289062500005
vt 0.6171875 0.40266289062500005
vt 0.66796875 0.890625
vt 0.66796875 0.625
vt 0.82749453125 0.625
vt 0.82749453125 0.890625
vt 0.488946015625 0.28000117187499995
vt 0.522311953125 0.28000117187499995
vt 0.55272875 0.41079335937499994
vt 0.5291427734375 0.4343793359375
vt 0.5224871875 0.279960390625
vt 0.48912125 0.279960390625
vt 0.5293180078125 0.12558222656249995
vt 0.552903984375 0.149168203125
vt 0.619841796875 0.421875
vt 0.744362890625 0.421875
vt 0.751469921875 0.40266289062500005
vt 0.6171875 0.40266289062500005
vt 0.6953125 0.94140625
vt 0.6953125 0.67578125
vt 0.85483828125 0.67578125
vt 0.85483828125 0.94140625
vt 0.6835209375 0.47457609375
vt 0.6835209375 0.44121015625000004
vt 0.814313125 0.41079335937499994
vt 0.8378991015625 0.4343793359375
vt 0.683696171875 0.11875140625000002
vt 0.683696171875 0.08538546874999997
vt 0.8380743359375 0.12558222656249995
vt 0.814488359375 0.149168203125
vt 0.86265078125 0.671875
vt 0.86265078125 0.9375
vt 0.703125 0.9375
vt 0.703125 0.671875
vt 0.6835209375 0.44121015625000004
vt 0.6835209375 0.47457609375
vt 0.5291427734375 0.4343793359375
vt 0.55272875 0.41079335937499994
vt 0.744362890625 0.421875
vt 0.619841796875 0.421875
vt 0.6171875 0.40266289062500005
vt 0.751469921875 0.40266289062500005
vt 0.683696171875 0.08538546874999997
vt 0.683696171875 0.11875140625000002
vt 0.552903984375 0.149168203125
vt 0.5293180078125 0.12558222656249995
vt 0.83530703125 0.62890625
vt 0.83530703125 0.89453125
vt 0.67578125 0.89453125
vt 0.67578125 0.62890625
vt 0.6835209375 0.11879218749999998
vt 0.6835209375 0.08542625000000004
vt 0.8378991015625 0.12562300781250002
vt 0.814313125 0.14920898437499996
vt 0.744362890625 0.421875
vt 0.619841796875 0.421875
vt 0.6171875 0.40266289062500005
vt 0.751469921875 0.40266289062500005
vt 0.683696171875 0.47453531250000003
vt 0.683696171875 0.441169375
vt 0.814488359375 0.410752578125
vt 0.8380743359375 0.43433855468750004
vt 0.90171328125 0.71875
vt 0.90171328125 0.984375
vt 0.7421875 0.984375
vt 0.7421875 0.71875
vt 0.844729921875 0.28000117187499995
vt 0.878095859375 0.28000117187499995
vt 0.8378991015625 0.4343793359375
vt 0.814313125 0.41079335937499994
vt 0.744362890625 0.421875
vt 0.619841796875 0.421875
vt 0.6171875 0.40266289062500005
vt 0.751469921875 0.40266289062500005
vt 0.87827109375 0.279960390625
vt 0.84490515625 0.279960390625
vt 0.814488359375 0.149168203125
vt 0.8380743359375 0.12558222656249995
vt 0.90171328125 0.625
vt 0.90171328125 0.890625
vt 0.7421875 0.890625
vt 0.7421875 0.625
vt 0.522311953125 0.28000117187499995
vt 0.488946015625 0.28000117187499995
vt 0.5291427734375 0.12562300781250002
vt 0.55272875 0.14920898437499996
vt 0.744362890625 0.421875
vt 0.619841796875 0.421875
vt 0.6171875 0.40266289062500005
vt 0.751469921875 0.40266289062500005
vt 0.48912125 0.279960390625
vt 0.5224871875 0.279960390625
vt 0.552903984375 0.410752578125
vt 0.5293180078125 0.43433855468750004
vt 0 0.98828125
vt 0.125 0.98828125
vt 0.125 0.9999995703125
vt 0 1
vt 0 0.98828125
vt 0.125 0.98828125
vt 0.125 1
vt 0 1
vt 0 0.98828125
vt 0.125 0.98828125
vt 0.125 0.9999995703125
vt 0 1
vt 0 0.98828125
vt 0.125 0.98828125
vt 0.125 0.9999995703125
vt 0 1
vt 0 0.98828125
vt 0.125 0.98828125
vt 0.125 1
vt 0 1
vt 0 0.98828125
vt 0.125 0.98828125
vt 0.125 1
vt 0 0.9999995703125
vt 0 0.98828125
vt 0.125 0.98828125
vt 0.125 1
vt 0 1
vt 0 0.98828125
vt 0.125 0.98828125
vt 0.125 1
vt 0 1
vt 0.744362890625 0.421875
vt 0.619841796875 0.421875
vt 0.6171875 0.40273632812500004
vt 0.751469921875 0.40273632812500004
vt 0.619841796875 0.421875
vt 0.744362890625 0.421875
vt 0.751469921875 0.40273632812500004
vt 0.6171875 0.40273632812500004
vt 0.744362890625 0.421875
vt 0.619841796875 0.421875
vt 0.6171875 0.40273632812500004
vt 0.751469921875 0.40273632812500004
vt 0.619841796875 0.421875
vt 0.744362890625 0.421875
vt 0.751469921875 0.40273632812500004
vt 0.6171875 0.40273632812500004
vt 0.744362890625 0.421875
vt 0.619841796875 0.421875
vt 0.6171875 0.40273632812500004
vt 0.751469921875 0.40273632812500004
vt 0.619841796875 0.421875
vt 0.744362890625 0.421875
vt 0.751469921875 0.40273632812500004
vt 0.6171875 0.40273632812500004
vt 0.744362890625 0.421875
vt 0.619841796875 0.421875
vt 0.6171875 0.40273632812500004
vt 0.751469921875 0.40273632812500004
vt 0.619841796875 0.421875
vt 0.744362890625 0.421875
vt 0.751469921875 0.40273632812500004
vt 0.6171875 0.40273632812500004
vt 0.125 1
vt 0 1
vt 0 0.98828125
vt 0.125 0.98828125
vt 0.125 1
vt 0 1
vt 0 0.98828125
vt 0.125 0.98828125
vt 0.125 1
vt 0 1
vt 0 0.98828125
vt 0.125 0.98828125
vt 0.125 1
vt 0 1
vt 0 0.98828125
vt 0.125 0.98828125
vt 0.125 1
vt 0 1
vt 0 0.98828125
vt 0.125 0.98828125
vt 0.125 1
vt 0 1
vt 0 0.98828125
vt 0.125 0.98828125
vt 0.125 1
vt 0 1
vt 0 0.98828125
vt 0.125 0.98828125
vt 0.125 1
vt 0 1
vt 0 0.98828125
vt 0.125 0.98828125
vt 0.4565810546875 0.6880263671875
vt 0.4292115234375 0.57033828125
vt 0.3115234375 0.54296875
vt 0.4292115234375 0.805714453125
vt 0.1938353515625 0.805714453125
vt 0.3115234375 0.833083984375
vt 0.4292115234375 0.805714453125
vt 0.1664658203125 0.6880263671875
vt 0.3115234375 0.54296875
vt 0.1938353515625 0.57033828125
vt 0.1664658203125 0.6880263671875
vt 0.4292115234375 0.805714453125
vt 0.1938353515625 0.5701904296875
vt 0.1664658203125 0.6878785546874999
vt 0.1938353515625 0.8055666406249999
vt 0.3115234375 0.5428209374999999
vt 0.4565810546875 0.6878785546874999
vt 0.4292115234375 0.5701904296875
vt 0.3115234375 0.5428209374999999
vt 0.4292115234375 0.8055666406249999
vt 0.1938353515625 0.8055666406249999
vt 0.3115234375 0.832936171875
vt 0.4292115234375 0.8055666406249999
vt 0.3115234375 0.5428209374999999
vn -0.7834759664964258 -0.5941104452186144 0.18220370140211625
vn 0.9677332369465088 0 -0.2519769475746385
vn 0 -1 0
vn 0 1 0
vn 0.18220370140211625 -0.5941104452186144 0.7834759664964258
vn -0.2519769475746385 0 -0.9677332369465088
vn 0 -1 0
vn 0 1 0
vn 0.7834759664964258 -0.5941104452186144 -0.18220370140211625
vn -0.9677332369465088 0 0.2519769475746385
vn 0 -1 0
vn 0 1 0
vn -0.18220370140211625 -0.5941104452186144 -0.7834759664964258
vn 0.2519769475746385 0 0.9677332369465088
vn 0 -1 0
vn 0 1 0
vn -0.2519769475746385 0 0.9677332369465088
vn 0 -1 0
vn 0.18220364079537812 -0.5941108074804686 -0.783475705887435
vn 0 1 0
vn 0.2519769475746385 0 -0.9677332369465088
vn 0 -1 0
vn -0.18220364079537812 -0.5941108074804686 0.783475705887435
vn 0 1 0
vn 0.9677332369465088 0 0.2519769475746385
vn 0 -1 0
vn -0.783475705887435 -0.5941108074804686 -0.18220364079537812
vn 0 1 0
vn -0.9677332369465088 0 -0.2519769475746385
vn 0 -1 0
vn 0.783475705887435 -0.5941108074804686 0.18220364079537812
vn 0 1 0
vn -0.9740080302583028 0 0.2265134808181214
vn -0.2265134808181214 0 0.9740080302583028
vn 0.2265134808181214 0 0.9740080302583028
vn 0.9740080302583028 0 0.2265134808181214
vn 0.9740080302583028 0 -0.2265134808181214
vn 0.2265134808181214 0 -0.9740080302583028
vn -0.2265134808181214 0 -0.9740080302583028
vn -0.9740080302583028 0 -0.2265134808181214
vn -0.6449854317556338 0.7493295750864168 0.1499966023742155
vn -0.14999668174419212 0.7493292654322725 0.6449857730465552
vn 0.1499966023742155 0.7493295750864168 0.6449854317556338
vn 0.6449857730465552 0.7493292654322725 0.1499966817441921
vn 0.6449854317556338 0.7493295750864168 -0.1499966023742155
vn 0.14999668174419212 0.7493292654322725 -0.6449857730465552
vn -0.1499966023742155 0.7493295750864168 -0.6449854317556338
vn -0.6449857730465552 0.7493292654322725 -0.1499966817441921
vn -0.9740080302583028 0 0.22651348081812137
vn -0.9740080302583028 0 -0.22651348081812137
vn -0.22651348081812137 0 -0.9740080302583028
vn 0.22651348081812137 0 -0.9740080302583028
vn 0.9740080302583028 0 -0.22651348081812137
vn 0.9740080302583028 0 0.22651348081812137
vn 0.22651348081812137 0 0.9740080302583028
vn -0.22651348081812137 0 0.9740080302583028
vn 0 1 0
vn 0 1 0
vn 0 1 0
vn 0 -1 0
vn 0 -1 0
vn 0 -1 0
usemtl m_e3325518-a4bc-db53-8344-3960e89276a6
f 93/241/61 94/242/61 65/243/61 87/244/61
f 85/245/62 86/246/62 67/247/62 68/248/62
f 86/249/63 87/250/63 65/251/63 67/252/63
f 88/253/64 85/254/64 68/255/64 66/256/64
f 95/257/65 96/258/65 69/259/65 83/260/65
f 81/261/66 82/262/66 71/263/66 72/264/66
f 82/265/67 83/266/67 69/267/67 71/268/67
f 84/269/68 81/270/68 72/271/68 70/272/68
f 97/273/69 98/274/69 73/275/69 91/276/69
f 89/277/70 90/278/70 75/279/70 76/280/70
f 90/281/71 91/282/71 73/283/71 75/284/71
f 92/285/72 89/286/72 76/287/72 74/288/72
f 99/289/73 100/290/73 61/291/73 79/292/73
f 77/293/74 78/294/74 63/295/74 64/296/74
f 78/297/75 79/298/75 61/299/75 63/300/75
f 80/301/76 77/302/76 64/303/76 62/304/76
f 78/305/77 77/306/77 76/307/77 75/308/77
f 79/309/78 78/310/78 75/311/78 73/312/78
f 98/313/79 99/314/79 79/315/79 73/316/79
f 77/317/80 80/318/80 74/319/80 76/320/80
f 82/321/81 81/322/81 68/323/81 67/324/81
f 83/325/82 82/326/82 67/327/82 65/328/82
f 94/329/83 95/330/83 83/331/83 65/332/83
f 81/333/84 84/334/84 66/335/84 68/336/84
f 86/337/85 85/338/85 64/339/85 63/340/85
f 87/341/86 86/342/86 63/343/86 61/344/86
f 100/345/87 93/346/87 87/347/87 61/348/87
f 85/349/88 88/350/88 62/351/88 64/352/88
f 90/353/89 89/354/89 72/355/89 71/356/89
f 91/357/90 90/358/90 71/359/90 69/360/90
f 96/361/91 97/362/91 91/363/91 69/364/91
f 89/365/92 92/366/92 70/367/92 72/368/92
f 109/369/93 110/370/93 101/371/93 102/372/93
f 116/373/94 109/374/94 102/375/94 103/376/94
f 115/377/95 116/378/95 103/379/95 104/380/95
f 114/381/96 115/382/96 104/383/96 105/384/96
f 113/385/97 114/386/97 105/387/97 106/388/97
f 112/389/98 113/390/98 106/391/98 107/392/98
f 111/393/99 112/394/99 107/395/99 108/396/99
f 110/397/100 111/398/100 108/399/100 101/400/100
f 102/401/101 101/402/101 88/403/101 66/404/101
f 103/405/102 102/406/102 66/407/102 84/408/102
f 104/409/103 103/410/103 84/411/103 70/412/103
f 105/413/104 104/414/104 70/415/104 92/416/104
f 106/417/105 105/418/105 92/419/105 74/420/105
f 107/421/106 106/422/106 74/423/106 80/424/106
f 108/425/107 107/426/107 80/427/107 62/428/107
f 101/429/108 108/430/108 62/431/108 88/432/108
f 118/433/109 117/434/109 94/435/109 93/436/109
f 119/437/110 118/438/110 93/439/110 100/440/110
f 120/441/111 119/442/111 100/443/111 99/444/111
f 121/445/112 120/446/112 99/447/112 98/448/112
f 122/449/113 121/450/113 98/451/113 97/452/113
f 123/453/114 122/454/114 97/455/114 96/456/114
f 124/457/115 123/458/115 96/459/115 95/460/115
f 117/461/116 124/462/116 95/463/116 94/464/116
f 110/465/117 109/466/117 116/467/117 111/468/117
f 113/469/118 112/470/118 111/471/118 114/472/118
f 116/473/119 115/474/119 114/475/119 111/476/119
f 121/477/120 122/478/120 123/479/120 120/480/120
f 118/481/121 119/482/121 120/483/121 117/484/121
f 123/485/122 124/486/122 117/487/122 120/488/122
o rim
v 0 -2.0625 0
v 0 2.0625 0
v 1.482898125 -2.0625 1.482898125
v 1.482898125 2.0625 1.482898125
v 1.972135 -2.0625 0
v 1.972135 2.0625 0
v 1.482898125 -2.0625 -1.482898125
v 1.482898125 2.0625 -1.482898125
v 0 -2.0625 -1.909635
v 0 2.0625 -1.909635
v -1.482898125 -2.0625 -1.482898125
v -1.482898125 2.0625 -1.482898125
v -1.972135 -2.0625 0
v -1.972135 2.0625 0
v -1.482898125 -2.0625 1.482898125
v -1.482898125 2.0625 1.482898125
v 0 -2.0625 1.909635
v 0 2.0625 1.909635
vt 0.7807965234375 0.28114828125
vt 0.7578388671875 0.35543390625000004
vt 0.683553359375 0.28114828125
vt 0.1796875 0.09765625
vt 0.25390625 0.09765625
vt 0.25390625 0.36328125
vt 0.1796875 0.36328125
vt 0.757919765625 0.35562871093750004
vt 0.683634140625 0.37858636718750005
vt 0.683634140625 0.28134324218749995
vt 0.7578390234375 0.20686277343750004
vt 0.7807965234375 0.28114828125
vt 0.683553359375 0.28114828125
vt 0.1796875 0.09765625
vt 0.25390625 0.09765625
vt 0.25390625 0.36328125
vt 0.1796875 0.36328125
vt 0.683634140625 0.37858636718750005
vt 0.6093486328125 0.3556288671875
vt 0.683634140625 0.28134324218749995
vt 0.683553359375 0.18390511718750002
vt 0.7578390234375 0.20686277343750004
vt 0.683553359375 0.28114828125
vt 0.1796875 0.09765625
vt 0.25390625 0.09765625
vt 0.25390625 0.36328125
vt 0.1796875 0.36328125
vt 0.6093486328125 0.3556288671875
vt 0.5863909765625 0.28134324218749995
vt 0.683634140625 0.28134324218749995
vt 0.609267890625 0.20686265625
vt 0.683553359375 0.18390511718750002
vt 0.683553359375 0.28114828125
vt 0.1796875 0.09765625
vt 0.25390625 0.09765625
vt 0.25390625 0.36328125
vt 0.1796875 0.36328125
vt 0.5863909765625 0.28134324218749995
vt 0.6093484765625 0.20705773437499997
vt 0.683634140625 0.28134324218749995
vt 0.586310234375 0.28114828125
vt 0.609267890625 0.20686265625
vt 0.683553359375 0.28114828125
vt 0.1796875 0.09765625
vt 0.25390625 0.09765625
vt 0.25390625 0.36328125
vt 0.1796875 0.36328125
vt 0.6093484765625 0.20705773437499997
vt 0.683634140625 0.18410007812499996
vt 0.683634140625 0.28134324218749995
vt 0.609267734375 0.3554337890625
vt 0.586310234375 0.28114828125
vt 0.683553359375 0.28114828125
vt 0.1796875 0.09765625
vt 0.25390625 0.09765625
vt 0.25390625 0.36328125
vt 0.1796875 0.36328125
vt 0.683634140625 0.18410007812499996
vt 0.757919609375 0.20705757812500003
vt 0.683634140625 0.28134324218749995
vt 0.683553359375 0.3783914453125
vt 0.609267734375 0.3554337890625
vt 0.683553359375 0.28114828125
vt 0.1796875 0.09765625
vt 0.25390625 0.09765625
vt 0.25390625 0.36328125
vt 0.1796875 0.36328125
vt 0.757919609375 0.20705757812500003
vt 0.780877265625 0.28134324218749995
vt 0.683634140625 0.28134324218749995
vt 0.7578388671875 0.35543390625000004
vt 0.683553359375 0.3783914453125
vt 0.683553359375 0.28114828125
vt 0.1796875 0.09765625
vt 0.25390625 0.09765625
vt 0.25390625 0.36328125
vt 0.1796875 0.36328125
vt 0.780877265625 0.28134324218749995
vt 0.757919765625 0.35562871093750004
vt 0.683634140625 0.28134324218749995
vn 0 -1 0
vn 0.9496514219459565 0 0.3133084371606082
vn 0 1 0
vn 0 -1 0
vn 0.9496514219459565 0 -0.3133084371606082
vn 0 1 0
vn 0 -1 0
vn 0.27654904093397725 0 -0.9609998064299999
vn 0 1 0
vn 0 -1 0
vn -0.27654904093397725 0 -0.9609998064299999
vn 0 1 0
vn 0 -1 0
vn -0.9496514219459565 0 -0.3133084371606082
vn 0 1 0
vn 0 -1 0
vn -0.9496514219459565 0 0.3133084371606082
vn 0 1 0
vn 0 -1 0
vn -0.27654904093397725 0 0.9609998064299999
vn 0 1 0
vn 0 -1 0
vn 0.27654904093397725 0 0.9609998064299999
vn 0 1 0
usemtl m_e3325518-a4bc-db53-8344-3960e89276a6
f 129/489/123 127/490/123 125/491/123
f 127/492/124 129/493/124 130/494/124 128/495/124
f 128/496/125 130/497/125 126/498/125
f 131/499/126 129/500/126 125/501/126
f 129/502/127 131/503/127 132/504/127 130/505/127
f 130/506/128 132/507/128 126/508/128
f 133/509/129 131/510/129 125/511/129
f 131/512/130 133/513/130 134/514/130 132/515/130
f 132/516/131 134/517/131 126/518/131
f 135/519/132 133/520/132 125/521/132
f 133/522/133 135/523/133 136/524/133 134/525/133
f 134/526/134 136/527/134 126/528/134
f 137/529/135 135/530/135 125/531/135
f 135/532/136 137/533/136 138/534/136 136/535/136
f 136/536/137 138/537/137 126/538/137
f 139/539/138 137/540/138 125/541/138
f 137/542/139 139/543/139 140/544/139 138/545/139
f 138/546/140 140/547/140 126/548/140
f 141/549/141 139/550/141 125/551/141
f 139/552/142 141/553/142 142/554/142 140/555/142
f 140/556/143 142/557/143 126/558/143
f 127/559/144 141/560/144 125/561/144
f 141/562/145 127/563/145 128/564/145 142/565/145
f 142/566/146 128/567/146 126/568/146