# Made in Blockbench 5.1.4
mtllib small_truck_tire.mtl

o rim
v 0.175841875 -0.46875 0.65625
v 0.175841875 0.46875 0.65625
v 0.15428 -0.46875 0.575781875
v 0.15428 0.46875 0.575781875
v 0.480408125 -0.46875 0.480408125
v 0.480408125 0.46875 0.480408125
v 0.42150125 -0.46875 0.42150125
v 0.42150125 0.46875 0.42150125
v 0.65625 -0.46875 0.175841875
v 0.65625 0.46875 0.175841875
v 0.575781875 -0.46875 0.15428
v 0.575781875 0.46875 0.15428
v 0.65625 -0.46875 -0.175841875
v 0.65625 0.46875 -0.175841875
v 0.575781875 -0.46875 -0.15428
v 0.575781875 0.46875 -0.15428
v 0.480408125 -0.46875 -0.480408125
v 0.480408125 0.46875 -0.480408125
v 0.42150125 -0.46875 -0.42150125
v 0.42150125 0.46875 -0.42150125
v 0.175841875 -0.46875 -0.65625
v 0.175841875 0.46875 -0.65625
v 0.15428 -0.46875 -0.575781875
v 0.15428 0.46875 -0.575781875
v -0.175841875 -0.46875 -0.65625
v -0.175841875 0.46875 -0.65625
v -0.15428 -0.46875 -0.575781875
v -0.15428 0.46875 -0.575781875
v -0.480408125 -0.46875 -0.480408125
v -0.480408125 0.46875 -0.480408125
v -0.42150125 -0.46875 -0.42150125
v -0.42150125 0.46875 -0.42150125
v -0.65625 -0.46875 -0.175841875
v -0.65625 0.46875 -0.175841875
v -0.575781875 -0.46875 -0.15428
v -0.575781875 0.46875 -0.15428
v -0.65625 -0.46875 0.175841875
v -0.65625 0.46875 0.175841875
v -0.575781875 -0.46875 0.15428
v -0.575781875 0.46875 0.15428
v -0.480408125 -0.46875 0.480408125
v -0.480408125 0.46875 0.480408125
v -0.42150125 -0.46875 0.42150125
v -0.42150125 0.46875 0.42150125
v -0.175841875 -0.46875 0.65625
v -0.175841875 0.46875 0.65625
v -0.15428 -0.46875 0.575781875
v -0.15428 0.46875 0.575781875
vt 0.15625 0.3125
vt 0.3125 0.3125
vt 0.3125 0.59375
vt 0.15625 0.59375
vt 0.15625000000000003 0.59375
vt 0 0.59375
vt 0 0.3125
vt 0.15625000000000003 0.3125
vt 0.3125 0.6658305052074802
vt 0.3125 0.8029201190109982
vt 0.28125 0.8125
vt 0.28125187265917606 0.65625
vt 0.28125 0.8125
vt 0.28125 0.65625
vt 0.3125 0.6658298809890018
vt 0.3124987515605493 0.8029194947925198
vt 0.15625 0.3125
vt 0.3125 0.3125
vt 0.3125 0.59375
vt 0.15625 0.59375
vt 0.15625000000000003 0.59375
vt 0 0.59375
vt 0 0.3125
vt 0.15625000000000003 0.3125
vt 0.3125 0.6658298809890018
vt 0.3125 0.8029188705740413
vt 0.28125187265917606 0.8125
vt 0.28125 0.65625
vt 0.28125 0.8125
vt 0.28125 0.65625
vt 0.3124987515605493 0.6658298809890018
vt 0.3125 0.8029194947925198
vt 0.15625 0.3125
vt 0.3125 0.3125
vt 0.3125 0.59375
vt 0.15625 0.59375
vt 0.15625000000000003 0.59375
vt 0 0.59375
vt 0 0.3125
vt 0.15625000000000003 0.3125
vt 0.3125 0.6658286325520449
vt 0.3125 0.8029213674479552
vt 0.28125 0.8125
vt 0.28125 0.65625
vt 0.28125 0.8125
vt 0.28125 0.65625
vt 0.3125 0.6658286325520449
vt 0.3125 0.8029213674479552
vt 0.15625 0.3125
vt 0.3125 0.3125
vt 0.3125 0.59375
vt 0.15625 0.59375
vt 0.15625000000000003 0.59375
vt 0 0.59375
vt 0 0.3125
vt 0.15625000000000003 0.3125
vt 0.3125 0.6658305052074802
vt 0.3125 0.8029201190109982
vt 0.28125 0.8125
vt 0.28125187265917606 0.65625
vt 0.28125 0.8125
vt 0.28125 0.65625
vt 0.3125 0.6658298809890018
vt 0.3124987515605493 0.8029194947925198
vt 0.15625 0.3125
vt 0.3125 0.3125
vt 0.3125 0.59375
vt 0.15625 0.59375
vt 0.15625000000000003 0.59375
vt 0 0.59375
vt 0 0.3125
vt 0.15625000000000003 0.3125
vt 0.3125 0.6658298809890018
vt 0.3125 0.8029188705740413
vt 0.28125187265917606 0.8125
vt 0.28125 0.65625
vt 0.28125 0.8125
vt 0.28125 0.65625
vt 0.3124987515605493 0.6658298809890018
vt 0.3125 0.8029194947925198
vt 0.15625 0.3125
vt 0.3125 0.3125
vt 0.3125 0.59375
vt 0.15625 0.59375
vt 0.15625000000000003 0.59375
vt 0 0.59375
vt 0 0.3125
vt 0.15625000000000003 0.3125
vt 0.3125 0.6658286325520449
vt 0.3125 0.8029213674479552
vt 0.28125 0.8125
vt 0.28125 0.65625
vt 0.28125 0.8125
vt 0.28125 0.65625
vt 0.3125 0.6658286325520449
vt 0.3125 0.8029213674479552
vt 0.15625 0.3125
vt 0.3125 0.3125
vt 0.3125 0.59375
vt 0.15625 0.59375
vt 0.15625000000000003 0.59375
vt 0 0.59375
vt 0 0.3125
vt 0.15625000000000003 0.3125
vt 0.3125 0.6658305052074802
vt 0.3125 0.8029201190109982
vt 0.28125 0.8125
vt 0.28125187265917606 0.65625
vt 0.28125 0.8125
vt 0.28125 0.65625
vt 0.3125 0.6658298809890018
vt 0.3124987515605493 0.8029194947925198
vt 0.15625 0.3125
vt 0.3125 0.3125
vt 0.3125 0.59375
vt 0.15625 0.59375
vt 0.15625000000000003 0.59375
vt 0 0.59375
vt 0 0.3125
vt 0.15625000000000003 0.3125
vt 0.3125 0.6658298809890018
vt 0.3125 0.8029188705740413
vt 0.28125187265917606 0.8125
vt 0.28125 0.65625
vt 0.28125 0.8125
vt 0.28125 0.65625
vt 0.3124987515605493 0.6658298809890018
vt 0.3125 0.8029194947925198
vt 0.15625 0.3125
vt 0.3125 0.3125
vt 0.3125 0.59375
vt 0.15625 0.59375
vt 0.15625000000000003 0.59375
vt 0 0.59375
vt 0 0.3125
vt 0.15625000000000003 0.3125
vt 0.3125 0.6658286325520449
vt 0.3125 0.8029213674479552
vt 0.28125 0.8125
vt 0.28125 0.65625
vt 0.28125 0.8125
vt 0.28125 0.65625
vt 0.3125 0.6658286325520449
vt 0.3125 0.8029213674479552
vt 0.15625 0.3125
vt 0.3125 0.3125
vt 0.3125 0.59375
vt 0.15625 0.59375
vt 0.15625000000000003 0.59375
vt 0 0.59375
vt 0 0.3125
vt 0.15625000000000003 0.3125
vt 0.3125 0.6658305052074802
vt 0.3125 0.8029201190109982
vt 0.28125 0.8125
vt 0.28125187265917606 0.65625
vt 0.28125 0.8125
vt 0.28125 0.65625
vt 0.3125 0.6658298809890018
vt 0.3124987515605493 0.8029194947925198
vt 0.15625 0.3125
vt 0.3125 0.3125
vt 0.3125 0.59375
vt 0.15625 0.59375
vt 0.15625000000000003 0.59375
vt 0 0.59375
vt 0 0.3125
vt 0.15625000000000003 0.3125
vt 0.3125 0.6658298809890018
vt 0.3125 0.8029188705740413
vt 0.28125187265917606 0.8125
vt 0.28125 0.65625
vt 0.28125 0.8125
vt 0.28125 0.65625
vt 0.3124987515605493 0.6658298809890018
vt 0.3125 0.8029194947925198
vt 0.15625 0.3125
vt 0.3125 0.3125
vt 0.3125 0.59375
vt 0.15625 0.59375
vt 0.15625000000000003 0.59375
vt 0 0.59375
vt 0 0.3125
vt 0.15625000000000003 0.3125
vt 0.3125 0.6658286325520449
vt 0.3125 0.8029213674479552
vt 0.28125 0.8125
vt 0.28125 0.65625
vt 0.28125 0.8125
vt 0.28125 0.65625
vt 0.3125 0.6658286325520449
vt 0.3125 0.8029213674479552
vn 0.5000009992867289 0 0.8660248268452082
vn -0.5000008856746828 0 -0.8660248924393184
vn 0 -1 0
vn 0 1 0
vn 0.8660248268452082 0 0.5000009992867289
vn -0.8660248924393184 0 -0.5000008856746828
vn 0 -1 0
vn 0 1 0
vn 1 0 0
vn -1 0 0
vn 0 -1 0
vn 0 1 0
vn 0.8660248268452082 0 -0.5000009992867289
vn -0.8660248924393184 0 0.5000008856746828
vn 0 -1 0
vn 0 1 0
vn 0.5000009992867289 0 -0.8660248268452082
vn -0.5000008856746828 0 0.8660248924393184
vn 0 -1 0
vn 0 1 0
vn 0 0 -1
vn 0 0 1
vn 0 -1 0
vn 0 1 0
vn -0.5000009992867289 0 -0.8660248268452082
vn 0.5000008856746828 0 0.8660248924393184
vn 0 -1 0
vn 0 1 0
vn -0.8660248268452082 0 -0.5000009992867289
vn 0.8660248924393184 0 0.5000008856746828
vn 0 -1 0
vn 0 1 0
vn -1 0 0
vn 1 0 0
vn 0 -1 0
vn 0 1 0
vn -0.8660248268452082 0 0.5000009992867289
vn 0.8660248924393184 0 -0.5000008856746828
vn 0 -1 0
vn 0 1 0
vn -0.5000009992867289 0 0.8660248268452082
vn 0.5000008856746828 0 -0.8660248924393184
vn 0 -1 0
vn 0 1 0
vn 0 0 1
vn 0 0 -1
vn 0 -1 0
vn 0 1 0
usemtl m_ee1e311b-a002-2c64-ee28-9a0c674561a5
f 1/1/1 5/2/1 6/3/1 2/4/1
f 4/5/2 8/6/2 7/7/2 3/8/2
f 3/9/3 7/10/3 5/11/3 1/12/3
f 2/13/4 6/14/4 8/15/4 4/16/4
f 5/17/5 9/18/5 10/19/5 6/20/5
f 8/21/6 12/22/6 11/23/6 7/24/6
f 7/25/7 11/26/7 9/27/7 5/28/7
f 6/29/8 10/30/8 12/31/8 8/32/8
f 9/33/9 13/34/9 14/35/9 10/36/9
f 12/37/10 16/38/10 15/39/10 11/40/10
f 11/41/11 15/42/11 13/43/11 9/44/11
f 10/45/12 14/46/12 16/47/12 12/48/12
f 13/49/13 17/50/13 18/51/13 14/52/13
f 16/53/14 20/54/14 19/55/14 15/56/14
f 15/57/15 19/58/15 17/59/15 13/60/15
f 14/61/16 18/62/16 20/63/16 16/64/16
f 17/65/17 21/66/17 22/67/17 18/68/17
f 20/69/18 24/70/18 23/71/18 19/72/18
f 19/73/19 23/74/19 21/75/19 17/76/19
f 18/77/20 22/78/20 24/79/20 20/80/20
f 21/81/21 25/82/21 26/83/21 22/84/21
f 24/85/22 28/86/22 27/87/22 23/88/22
f 23/89/23 27/90/23 25/91/23 21/92/23
f 22/93/24 26/94/24 28/95/24 24/96/24
f 25/97/25 29/98/25 30/99/25 26/100/25
f 28/101/26 32/102/26 31/103/26 27/104/26
f 27/105/27 31/106/27 29/107/27 25/108/27
f 26/109/28 30/110/28 32/111/28 28/112/28
f 29/113/29 33/114/29 34/115/29 30/116/29
f 32/117/30 36/118/30 35/119/30 31/120/30
f 31/121/31 35/122/31 33/123/31 29/124/31
f 30/125/32 34/126/32 36/127/32 32/128/32
f 33/129/33 37/130/33 38/131/33 34/132/33
f 36/133/34 40/134/34 39/135/34 35/136/34
f 35/137/35 39/138/35 37/139/35 33/140/35
f 34/141/36 38/142/36 40/143/36 36/144/36
f 37/145/37 41/146/37 42/147/37 38/148/37
f 40/149/38 44/150/38 43/151/38 39/152/38
f 39/153/39 43/154/39 41/155/39 37/156/39
f 38/157/40 42/158/40 44/159/40 40/160/40
f 41/161/41 45/162/41 46/163/41 42/164/41
f 44/165/42 48/166/42 47/167/42 43/168/42
f 43/169/43 47/170/43 45/171/43 41/172/43
f 42/173/44 46/174/44 48/175/44 44/176/44
f 45/177/45 1/178/45 2/179/45 46/180/45
f 48/181/46 4/182/46 3/183/46 47/184/46
f 47/185/47 3/186/47 1/187/47 45/188/47
f 46/189/48 2/190/48 4/191/48 48/192/48
o rim
v 0.125 0.46875 0.125
v 0.125 0.46875 -0.125
v 0.125 -0.46875 0.125
v 0.125 -0.46875 -0.125
v -0.125 0.46875 0.125
v -0.125 0.46875 -0.125
v -0.125 -0.46875 0.125
v -0.125 -0.46875 -0.125
vt 0.40625 1
vt 0.28125 1
vt 0.28125 0.8125
vt 0.40625 0.8125
vt 0.40625 0.8125
vt 0.40625 1
vt 0.28125 1
vt 0.28125 0.8125
vt 0.59375 0.4375
vt 0.71875 0.4375
vt 0.71875 0.5625
vt 0.59375 0.5625
vt 0.71875 0.4375
vt 0.71875 0.5625
vt 0.59375 0.5625
vt 0.59375 0.4375
vt 0.40625 0.8125
vt 0.40625 1
vt 0.28125 1
vt 0.28125 0.8125
vt 0.40625 1
vt 0.28125 1
vt 0.28125 0.8125
vt 0.40625 0.8125
vn 1 0 0
vn -1 0 0
vn 0 1 0
vn 0 -1 0
vn 0 0 1
vn 0 0 -1
usemtl m_ee1e311b-a002-2c64-ee28-9a0c674561a5
f 50/193/49 49/194/49 51/195/49 52/196/49
f 55/197/50 53/198/50 54/199/50 56/200/50
f 53/201/51 49/202/51 50/203/51 54/204/51
f 52/205/52 51/206/52 55/207/52 56/208/52
f 51/209/53 49/210/53 53/211/53 55/212/53
f 54/213/54 50/214/54 52/215/54 56/216/54
o rim
v 0 -0.40625 0
v 0 0.40625 0
v 0.175841875 -0.40625 0.65625
v 0.175841875 0.40625 0.65625
v 0.480408125 -0.40625 0.480408125
v 0.480408125 0.40625 0.480408125
v 0.65625 -0.40625 0.175841875
v 0.65625 0.40625 0.175841875
v 0.65625 -0.40625 -0.175841875
v 0.65625 0.40625 -0.175841875
v 0.480408125 -0.40625 -0.480408125
v 0.480408125 0.40625 -0.480408125
v 0.175841875 -0.40625 -0.65625
v 0.175841875 0.40625 -0.65625
v -0.175841875 -0.40625 -0.65625
v -0.175841875 0.40625 -0.65625
v -0.480408125 -0.40625 -0.480408125
v -0.480408125 0.40625 -0.480408125
v -0.65625 -0.40625 -0.175841875
v -0.65625 0.40625 -0.175841875
v -0.65625 -0.40625 0.175841875
v -0.65625 0.40625 0.175841875
v -0.480408125 -0.40625 0.480408125
v -0.480408125 0.40625 0.480408125
v -0.175841875 -0.40625 0.65625
v -0.175841875 0.40625 0.65625
vt 0.8831192733790756 0.7260617692722986
vt 0.7395390222580865 0.808828674749295
vt 0.6566423581371623 0.4999383769866447
vt 0 0.5942591075293968
vt 0.2808976128760574 0.5942591075293968
vt 0.2808976128760574 1
vt 0 1
vt 0.7395390222580865 0.19104807922399447
vt 0.8831192733790756 0.27381498470099086
vt 0.6566429745677747 0.4999383769866447
vt 0.9660153210693875 0.5827052824636411
vt 0.8831192733790756 0.7260617692722986
vt 0.6566423581371623 0.4999383769866447
vt 0 0.5942591075293968
vt 0.2808976128760574 0.5942591075293968
vt 0.2808976128760574 1
vt 0 1
vt 0.8831192733790757 0.27381498470099086
vt 0.9660159375000001 0.4171714715096484
vt 0.6566429745677747 0.4999383769866447
vt 0.9660153210693875 0.4171714715096484
vt 0.9660153210693875 0.5827052824636411
vt 0.6566423581371623 0.4999383769866447
vt 0 0.5942591075293968
vt 0.2808976128760574 0.5942591075293968
vt 0.2808976128760574 1
vt 0 1
vt 0.9660159375000001 0.4171714715096484
vt 0.9660159375000001 0.5827052824636411
vt 0.6566429745677747 0.4999383769866447
vt 0.8831192733790756 0.27381498470099086
vt 0.9660153210693875 0.4171714715096484
vt 0.6566423581371623 0.4999383769866447
vt 0 0.5942591075293968
vt 0.2808976128760574 0.5942591075293968
vt 0.2808976128760574 1
vt 0 1
vt 0.9660159375000001 0.5827052824636411
vt 0.8831192733790757 0.7260617692722986
vt 0.6566429745677747 0.4999383769866447
vt 0.7395390222580865 0.19104807922399447
vt 0.8831192733790756 0.27381498470099086
vt 0.6566423581371623 0.4999383769866447
vt 0 0.5942591075293968
vt 0.2808976128760574 0.5942591075293968
vt 0.2808976128760574 1
vt 0 1
vt 0.8831192733790756 0.7260617692722986
vt 0.7395390222580865 0.808828674749295
vt 0.6566429745677747 0.4999383769866447
vt 0.5737466186621566 0.19104807922399447
vt 0.7395390222580865 0.19104807922399447
vt 0.6566423581371623 0.4999383769866447
vt 0 0.5942591075293968
vt 0.2808976128760574 0.5942591075293968
vt 0.2808976128760574 1
vt 0 1
vt 0.7395390222580865 0.808828674749295
vt 0.5737466186621566 0.808828674749295
vt 0.6566429745677747 0.4999383769866447
vt 0.43016605932586127 0.27381498470099086
vt 0.5737466186621566 0.19104807922399447
vt 0.6566423581371623 0.4999383769866447
vt 0 0.5942591075293968
vt 0.2808976128760574 0.5942591075293968
vt 0.2808976128760574 1
vt 0 1
vt 0.5737466186621566 0.808828674749295
vt 0.43016605932586127 0.7260617692722986
vt 0.6566429745677747 0.4999383769866447
vt 0.34726939520493694 0.4171714715096484
vt 0.4301660593258613 0.27381498470099086
vt 0.6566423581371623 0.4999383769866447
vt 0 0.5942591075293968
vt 0.2808976128760574 0.5942591075293968
vt 0.2808976128760574 1
vt 0 1
vt 0.4301660593258612 0.7260617692722986
vt 0.34727001163554944 0.5827052824636411
vt 0.6566429745677747 0.4999383769866447
vt 0.34726939520493694 0.5827052824636411
vt 0.34726939520493694 0.4171714715096484
vt 0.6566423581371623 0.4999383769866447
vt 0 0.5942591075293968
vt 0.2808976128760574 0.5942591075293968
vt 0.2808976128760574 1
vt 0 1
vt 0.34727001163554944 0.5827052824636411
vt 0.34727001163554944 0.4171714715096484
vt 0.6566429745677747 0.4999383769866447
vt 0.4301660593258613 0.7260617692722986
vt 0.34726939520493694 0.5827052824636411
vt 0.6566423581371623 0.4999383769866447
vt 0 0.5942591075293968
vt 0.2808976128760574 0.5942591075293968
vt 0.2808976128760574 1
vt 0 1
vt 0.34727001163554944 0.4171714715096484
vt 0.4301660593258612 0.27381498470099086
vt 0.6566429745677747 0.4999383769866447
vt 0.5737466186621566 0.808828674749295
vt 0.43016605932586127 0.7260617692722986
vt 0.6566423581371623 0.4999383769866447
vt 0 0.5942591075293968
vt 0.2808976128760574 0.5942591075293968
vt 0.2808976128760574 1
vt 0 1
vt 0.43016605932586127 0.27381498470099086
vt 0.5737466186621566 0.19104807922399447
vt 0.6566429745677747 0.4999383769866447
vt 0.7395390222580865 0.808828674749295
vt 0.5737466186621566 0.808828674749295
vt 0.6566423581371623 0.4999383769866447
vt 0 0.5942591075293968
vt 0.2808976128760574 0.5942591075293968
vt 0.2808976128760574 1
vt 0 1
vt 0.5737466186621566 0.19104807922399447
vt 0.7395390222580865 0.19104807922399447
vt 0.6566429745677747 0.4999383769866447
vn 0 -1 0
vn 0.5000009992867288 0 0.8660248268452081
vn 0 1 0
vn 0 -1 0
vn 0.8660248268452081 0 0.5000009992867288
vn 0 1 0
vn 0 -1 0
vn 1 0 0
vn 0 1 0
vn 0 -1 0
vn 0.8660248268452081 0 -0.5000009992867288
vn 0 1 0
vn 0 -1 0
vn 0.5000009992867288 0 -0.8660248268452081
vn 0 1 0
vn 0 -1 0
vn 0 0 -1
vn 0 1 0
vn 0 -1 0
vn -0.5000009992867288 0 -0.8660248268452081
vn 0 1 0
vn 0 -1 0
vn -0.8660248268452081 0 -0.5000009992867288
vn 0 1 0
vn 0 -1 0
vn -1 0 0
vn 0 1 0
vn 0 -1 0
vn -0.8660248268452081 0 0.5000009992867288
vn 0 1 0
vn 0 -1 0
vn -0.5000009992867288 0 0.8660248268452081
vn 0 1 0
vn 0 -1 0
vn 0 0 1
vn 0 1 0
usemtl m_ee1e311b-a002-2c64-ee28-9a0c674561a5
f 61/217/55 59/218/55 57/219/55
f 59/220/56 61/221/56 62/222/56 60/223/56
f 60/224/57 62/225/57 58/226/57
f 63/227/58 61/228/58 57/229/58
f 61/230/59 63/231/59 64/232/59 62/233/59
f 62/234/60 64/235/60 58/236/60
f 65/237/61 63/238/61 57/239/61
f 63/240/62 65/241/62 66/242/62 64/243/62
f 64/244/63 66/245/63 58/246/63
f 67/247/64 65/248/64 57/249/64
f 65/250/65 67/251/65 68/252/65 66/253/65
f 66/254/66 68/255/66 58/256/66
f 69/257/67 67/258/67 57/259/67
f 67/260/68 69/261/68 70/262/68 68/263/68
f 68/264/69 70/265/69 58/266/69
f 71/267/70 69/268/70 57/269/70
f 69/270/71 71/271/71 72/272/71 70/273/71
f 70/274/72 72/275/72 58/276/72
f 73/277/73 71/278/73 57/279/73
f 71/280/74 73/281/74 74/282/74 72/283/74
f 72/284/75 74/285/75 58/286/75
f 75/287/76 73/288/76 57/289/76
f 73/290/77 75/291/77 76/292/77 74/293/77
f 74/294/78 76/295/78 58/296/78
f 77/297/79 75/298/79 57/299/79
f 75/300/80 77/301/80 78/302/80 76/303/80
f 76/304/81 78/305/81 58/306/81
f 79/307/82 77/308/82 57/309/82
f 77/310/83 79/311/83 80/312/83 78/313/83
f 78/314/84 80/315/84 58/316/84
f 81/317/85 79/318/85 57/319/85
f 79/320/86 81/321/86 82/322/86 80/323/86
f 80/324/87 82/325/87 58/326/87
f 59/327/88 81/328/88 57/329/88
f 81/330/89 59/331/89 60/332/89 82/333/89
f 82/334/90 60/335/90 58/336/90
o tire
v 0.267949375 -0.40625 1
v 0.267949375 0.40625 1
v 0.176920625 -0.40625 0.66027625
v 0.176920625 0.40625 0.66027625
v 0.732050625 -0.40625 0.732050625
v 0.732050625 0.40625 0.732050625
v 0.483355625 -0.40625 0.483355625
v 0.483355625 0.40625 0.483355625
v 1 -0.40625 0.267949375
v 1 0.40625 0.267949375
v 0.66027625 -0.40625 0.176920625
v 0.66027625 0.40625 0.176920625
v 1 -0.40625 -0.267949375
v 1 0.40625 -0.267949375
v 0.66027625 -0.40625 -0.176920625
v 0.66027625 0.40625 -0.176920625
v 0.732050625 -0.40625 -0.732050625
v 0.732050625 0.40625 -0.732050625
v 0.483355625 -0.40625 -0.483355625
v 0.483355625 0.40625 -0.483355625
v 0.267949375 -0.40625 -1
v 0.267949375 0.40625 -1
v 0.176920625 -0.40625 -0.66027625
v 0.176920625 0.40625 -0.66027625
v -0.267949375 -0.40625 -1
v -0.267949375 0.40625 -1
v -0.176920625 -0.40625 -0.66027625
v -0.176920625 0.40625 -0.66027625
v -0.732050625 -0.40625 -0.732050625
v -0.732050625 0.40625 -0.732050625
v -0.483355625 -0.40625 -0.483355625
v -0.483355625 0.40625 -0.483355625
v -1 -0.40625 -0.267949375
v -1 0.40625 -0.267949375
v -0.66027625 -0.40625 -0.176920625
v -0.66027625 0.40625 -0.176920625
v -1 -0.40625 0.267949375
v -1 0.40625 0.267949375
v -0.66027625 -0.40625 0.176920625
v -0.66027625 0.40625 0.176920625
v -0.732050625 -0.40625 0.732050625
v -0.732050625 0.40625 0.732050625
v -0.483355625 -0.40625 0.483355625
v -0.483355625 0.40625 0.483355625
v -0.267949375 -0.40625 1
v -0.267949375 0.40625 1
v -0.176920625 -0.40625 0.66027625
v -0.176920625 0.40625 0.66027625
vt 0 0.59375
vt 0.28125 0.59375
vt 0.28125 1
vt 0 1
vt 0.1875 1
vt 0 1
vt 0 0.59375
vt 0.1875 0.59375
vt 0.45401986900847496 0.8437518726554354
vt 0.6397232645897859 0.84375
vt 0.6875 0.9999950062521723
vt 0.40625 1
vt 0.6875 1
vt 0.40625 1
vt 0.45402299010017455 0.8437518726554354
vt 0.6397270098998256 0.84375
vt 0 0.59375
vt 0.28125 0.59375
vt 0.28125 1
vt 0 1
vt 0.1875 1
vt 0 1
vt 0 0.59375
vt 0.1875 0.59375
vt 0.45402299010017455 0.8437518726554354
vt 0.6397270098998256 0.84375
vt 0.6875 1
vt 0.40625 1
vt 0.6875 1
vt 0.40625 1
vt 0.45402299010017455 0.84375
vt 0.6397270098998256 0.8437518726554354
vt 0 0.59375
vt 0.28125 0.59375
vt 0.28125 1
vt 0 1
vt 0.1875 1
vt 0 1
vt 0 0.59375
vt 0.1875 0.59375
vt 0.45402299010017455 0.8437518726554354
vt 0.6397232645897859 0.84375
vt 0.6875 0.9999975031260862
vt 0.40625 1
vt 0.6875 0.9999975031260862
vt 0.40625 1
vt 0.45402299010017455 0.8437518726554354
vt 0.6397232645897859 0.84375
vt 0 0.59375
vt 0.28125 0.59375
vt 0.28125 1
vt 0 1
vt 0.1875 1
vt 0 1
vt 0 0.59375
vt 0.1875 0.59375
vt 0.4540217416634948 0.84375
vt 0.6397251372448056 0.84375
vt 0.6875 0.9999975031260862
vt 0.40625 1
vt 0.6875 0.9999975031260862
vt 0.40625 1
vt 0.4540211174451548 0.8437531210923923
vt 0.6397251372448056 0.84375
vt 0 0.59375
vt 0.28125 0.59375
vt 0.28125 1
vt 0 1
vt 0.1875 1
vt 0 1
vt 0 0.59375
vt 0.1875 0.59375
vt 0.4540248627551943 0.84375
vt 0.6397282583365052 0.84375
vt 0.6875 1
vt 0.40625 0.9999975031260862
vt 0.6875 0.9999975031260862
vt 0.40625 1
vt 0.4540217416634948 0.84375
vt 0.6397251372448056 0.84375
vt 0 0.59375
vt 0.28125 0.59375
vt 0.28125 1
vt 0 1
vt 0.1875 1
vt 0 1
vt 0 0.59375
vt 0.1875 0.59375
vt 0.4540248627551943 0.84375
vt 0.6397251372448056 0.84375
vt 0.6875 1
vt 0.40625 1
vt 0.6875 1
vt 0.40625 1
vt 0.4540248627551943 0.84375
vt 0.6397251372448056 0.84375
vt 0 0.59375
vt 0.28125 0.59375
vt 0.28125 1
vt 0 1
vt 0.1875 1
vt 0 1
vt 0 0.59375
vt 0.1875 0.59375
vt 0.45401986900847496 0.8437518726554354
vt 0.6397232645897859 0.84375
vt 0.6875 0.9999950062521723
vt 0.40625 1
vt 0.6875 1
vt 0.40625 1
vt 0.45402299010017455 0.8437518726554354
vt 0.6397270098998256 0.84375
vt 0 0.59375
vt 0.28125 0.59375
vt 0.28125 1
vt 0 1
vt 0.1875 1
vt 0 1
vt 0 0.59375
vt 0.1875 0.59375
vt 0.45402299010017455 0.8437518726554354
vt 0.6397270098998256 0.84375
vt 0.6875 1
vt 0.40625 1
vt 0.6875 1
vt 0.40625 1
vt 0.45402299010017455 0.84375
vt 0.6397270098998256 0.8437518726554354
vt 0 0.59375
vt 0.28125 0.59375
vt 0.28125 1
vt 0 1
vt 0.1875 1
vt 0 1
vt 0 0.59375
vt 0.1875 0.59375
vt 0.45402299010017455 0.8437518726554354
vt 0.6397232645897859 0.84375
vt 0.6875 0.9999975031260862
vt 0.40625 1
vt 0.6875 0.9999975031260862
vt 0.40625 1
vt 0.45402299010017455 0.8437518726554354
vt 0.6397232645897859 0.84375
vt 0 0.59375
vt 0.28125 0.59375
vt 0.28125 1
vt 0 1
vt 0.1875 1
vt 0 1
vt 0 0.59375
vt 0.1875 0.59375
vt 0.4540217416634948 0.84375
vt 0.6397251372448056 0.84375
vt 0.6875 0.9999975031260862
vt 0.40625 1
vt 0.6875 0.9999975031260862
vt 0.40625 1
vt 0.4540211174451548 0.8437531210923923
vt 0.6397251372448056 0.84375
vt 0 0.59375
vt 0.28125 0.59375
vt 0.28125 1
vt 0 1
vt 0.1875 1
vt 0 1
vt 0 0.59375
vt 0.1875 0.59375
vt 0.4540248627551943 0.84375
vt 0.6397282583365052 0.84375
vt 0.6875 1
vt 0.40625 0.9999975031260862
vt 0.6875 0.9999975031260862
vt 0.40625 1
vt 0.4540217416634948 0.84375
vt 0.6397251372448056 0.84375
vt 0 0.59375
vt 0.28125 0.59375
vt 0.28125 1
vt 0 1
vt 0.1875 1
vt 0 1
vt 0 0.59375
vt 0.1875 0.59375
vt 0.4540248627551943 0.84375
vt 0.6397251372448056 0.84375
vt 0.6875 1
vt 0.40625 1
vt 0.6875 1
vt 0.40625 1
vt 0.4540248627551943 0.84375
vt 0.6397251372448056 0.84375
vn 0.500000550544696 0 0.8660250859270768
vn -0.5000006258340111 0 -0.8660250424587026
vn 0 -1 0
vn 0 1 0
vn 0.8660250859270768 0 0.500000550544696
vn -0.8660250424587026 0 -0.5000006258340111
vn 0 -1 0
vn 0 1 0
vn 1 0 0
vn -1 0 0
vn 0 -1 0
vn 0 1 0
vn 0.8660250859270768 0 -0.500000550544696
vn -0.8660250424587026 0 0.5000006258340111
vn 0 -1 0
vn 0 1 0
vn 0.500000550544696 0 -0.8660250859270768
vn -0.5000006258340111 0 0.8660250424587026
vn 0 -1 0
vn 0 1 0
vn 0 0 -1
vn 0 0 1
vn 0 -1 0
vn 0 1 0
vn -0.500000550544696 0 -0.8660250859270768
vn 0.5000006258340111 0 0.8660250424587026
vn 0 -1 0
vn 0 1 0
vn -0.8660250859270768 0 -0.500000550544696
vn 0.8660250424587026 0 0.5000006258340111
vn 0 -1 0
vn 0 1 0
vn -1 0 0
vn 1 0 0
vn 0 -1 0
vn 0 1 0
vn -0.8660250859270768 0 0.500000550544696
vn 0.8660250424587026 0 -0.5000006258340111
vn 0 -1 0
vn 0 1 0
vn -0.500000550544696 0 0.8660250859270768
vn 0.5000006258340111 0 -0.8660250424587026
vn 0 -1 0
vn 0 1 0
vn 0 0 1
vn 0 0 -1
vn 0 -1 0
vn 0 1 0
usemtl m_ee1e311b-a002-2c64-ee28-9a0c674561a5
f 83/337/91 87/338/91 88/339/91 84/340/91
f 86/341/92 90/342/92 89/343/92 85/344/92
f 85/345/93 89/346/93 87/347/93 83/348/93
f 84/349/94 88/350/94 90/351/94 86/352/94
f 87/353/95 91/354/95 92/355/95 88/356/95
f 90/357/96 94/358/96 93/359/96 89/360/96
f 89/361/97 93/362/97 91/363/97 87/364/97
f 88/365/98 92/366/98 94/367/98 90/368/98
f 91/369/99 95/370/99 96/371/99 92/372/99
f 94/373/100 98/374/100 97/375/100 93/376/100
f 93/377/101 97/378/101 95/379/101 91/380/101
f 92/381/102 96/382/102 98/383/102 94/384/102
f 95/385/103 99/386/103 100/387/103 96/388/103
f 98/389/104 102/390/104 101/391/104 97/392/104
f 97/393/105 101/394/105 99/395/105 95/396/105
f 96/397/106 100/398/106 102/399/106 98/400/106
f 99/401/107 103/402/107 104/403/107 100/404/107
f 102/405/108 106/406/108 105/407/108 101/408/108
f 101/409/109 105/410/109 103/411/109 99/412/109
f 100/413/110 104/414/110 106/415/110 102/416/110
f 103/417/111 107/418/111 108/419/111 104/420/111
f 106/421/112 110/422/112 109/423/112 105/424/112
f 105/425/113 109/426/113 107/427/113 103/428/113
f 104/429/114 108/430/114 110/431/114 106/432/114
f 107/433/115 111/434/115 112/435/115 108/436/115
f 110/437/116 114/438/116 113/439/116 109/440/116
f 109/441/117 113/442/117 111/443/117 107/444/117
f 108/445/118 112/446/118 114/447/118 110/448/118
f 111/449/119 115/450/119 116/451/119 112/452/119
f 114/453/120 118/454/120 117/455/120 113/456/120
f 113/457/121 117/458/121 115/459/121 111/460/121
f 112/461/122 116/462/122 118/463/122 114/464/122
f 115/465/123 119/466/123 120/467/123 116/468/123
f 118/469/124 122/470/124 121/471/124 117/472/124
f 117/473/125 121/474/125 119/475/125 115/476/125
f 116/477/126 120/478/126 122/479/126 118/480/126
f 119/481/127 123/482/127 124/483/127 120/484/127
f 122/485/128 126/486/128 125/487/128 121/488/128
f 121/489/129 125/490/129 123/491/129 119/492/129
f 120/493/130 124/494/130 126/495/130 122/496/130
f 123/497/131 127/498/131 128/499/131 124/500/131
f 126/501/132 130/502/132 129/503/132 125/504/132
f 125/505/133 129/506/133 127/507/133 123/508/133
f 124/509/134 128/510/134 130/511/134 126/512/134
f 127/513/135 83/514/135 84/515/135 128/516/135
f 130/517/136 86/518/136 85/519/136 129/520/136
f 129/521/137 85/522/137 83/523/137 127/524/137
f 128/525/138 84/526/138 86/527/138 130/528/138